<svg width="24" height="24" viewBox="0 0 24 24" fill="none" xmlns="http://www.w3.org/2000/svg">
<g clip-path="url(#clip0)">
<path d="M10.9997 22.9844C4.9349 22.9844 0 18.0496 0 11.9848C0 5.92001 4.9349 0.985107 10.9997 0.985107C13.1087 0.985107 15.1605 1.58604 16.9334 2.72401C17.2815 2.94812 17.3835 3.41209 17.1594 3.76108C16.9345 4.11007 16.4715 4.21096 16.1225 3.98703C14.5925 3.00397 12.8206 2.48506 10.9997 2.48506C5.76178 2.48506 1.49995 6.74689 1.49995 11.9848C1.49995 17.2226 5.76178 21.4844 10.9997 21.4844C16.2375 21.4844 20.4993 17.2226 20.4993 11.9848C20.4993 11.6717 20.4843 11.3617 20.4554 11.0569C20.4154 10.6438 20.7174 10.2778 21.1293 10.2379C21.5433 10.1998 21.9083 10.4999 21.9484 10.9119C21.9822 11.2649 21.9993 11.6228 21.9993 11.9848C21.9993 18.0496 17.0645 22.9844 10.9997 22.9844Z" fill="#0091FF"/>
<path d="M12.25 14.4845C12.0581 14.4845 11.866 14.4115 11.7201 14.2646L7.22021 9.76477C6.92725 9.47163 6.92725 8.99667 7.22021 8.70371C7.51317 8.41075 7.98813 8.41075 8.28109 8.70371L12.2511 12.6737L22.7196 2.20495C23.0127 1.91199 23.4877 1.91199 23.7807 2.20495C24.0736 2.49791 24.0736 2.97287 23.7807 3.26583L12.7809 14.2655C12.6339 14.4115 12.442 14.4845 12.25 14.4845Z" fill="#0091FF"/>
</g>
<defs>
<clipPath id="clip0">
<rect width="24" height="24" fill="white"/>
</clipPath>
</defs>
</svg>
