<svg width="1920" height="266" viewBox="0 0 1920 266" fill="none" xmlns="http://www.w3.org/2000/svg">
<path d="M239.383 137.987C224.753 132.618 208.377 134.765 192.94 137.718C175.893 140.94 157.236 144.698 141.799 136.51C129.719 130.067 122.336 117.45 112.806 107.517C103.276 97.5841 87.8394 90.2015 76.1615 97.3156C62.6044 105.504 63.0071 127.383 49.3158 135.302C39.9197 140.806 27.9734 137.182 18.5774 131.812C4.75185 123.893 -8.26833 112.886 -25.0469 118.658C-39.4094 123.49 -47.1946 136.779 -48 151.41C-48 152.484 -48 153.423 -48 154.363H258.847C254.686 147.114 247.437 141.074 239.383 137.987Z" fill="#F9F7F7"/>
<path d="M1419.79 146.98C1383.15 167.92 1334.15 164.967 1300.33 139.732C1293.48 134.631 1287.17 128.725 1279.52 125.235C1271.87 121.611 1262.07 120.806 1255.23 125.906C1246.63 132.349 1245.83 144.967 1239.25 153.423C1233.35 160.94 1222.74 164.296 1213.61 161.477C1204.49 158.658 1203.82 146.98 1196.97 140.403C1188.11 131.812 1172.41 147.651 1167.17 158.792C1165.16 163.088 1163.95 166.98 1163.55 170.605H1427.17C1428.51 162.014 1426.23 153.021 1419.79 146.98Z" fill="#F9F7F7"/>
<path d="M167.705 116.779C179.518 100.537 187.84 89.2617 218.846 89.2617C237.236 89.2617 266.9 112.349 285.155 110.201C298.041 108.725 310.525 98.3893 322.739 102.685C328.78 104.698 332.538 110.604 333.478 116.779H167.705Z" fill="#F9F7F7"/>
<path d="M940.862 86.712C926.231 81.3428 909.855 83.4905 894.419 86.4435C877.372 89.665 858.714 93.4234 843.278 85.2355C831.197 78.7925 823.815 66.175 814.285 56.2421C804.754 46.3092 789.318 38.9266 777.64 46.0407C764.083 54.2286 764.486 76.1079 750.795 84.0274C741.399 89.5308 729.452 85.9066 720.056 80.5375C706.231 72.618 693.21 61.6112 676.432 67.3831C662.069 72.2153 654.284 85.5039 653.479 100.135C653.479 101.209 653.479 102.148 653.479 103.088H960.325C956.164 95.7053 948.916 89.665 940.862 86.712Z" fill="#F9F7F7"/>
<path d="M857.104 70.7385C868.916 54.4969 877.238 43.2217 908.245 43.2217C926.634 43.2217 956.299 66.309 974.554 64.1613C987.44 62.6848 999.923 52.3492 1012.14 56.6445C1018.18 58.658 1021.94 64.564 1022.88 70.7385H857.104Z" fill="#F9F7F7"/>
<path d="M1787.04 69.2623C1772.41 63.8931 1756.03 66.0408 1740.6 68.9938C1723.55 72.2153 1704.89 75.9737 1689.46 67.7858C1677.37 61.3428 1669.99 48.7253 1660.46 38.7924C1650.93 28.8595 1635.5 21.4769 1623.82 28.591C1610.26 36.7789 1610.66 58.6582 1596.97 66.5777C1587.58 72.0811 1575.63 68.4569 1566.23 63.0878C1552.41 55.1683 1539.39 44.1615 1522.61 49.9333C1508.25 54.7656 1500.46 68.0542 1499.66 82.6851C1499.66 83.759 1499.66 84.6986 1499.66 85.6382H1806.5C1802.34 78.2556 1795.09 72.2153 1787.04 69.2623Z" fill="#F9F7F7"/>
<path d="M1834.96 27.5169C1846.77 11.2752 1855.09 0 1886.1 0C1904.49 0 1934.15 23.0873 1952.41 20.9397C1965.3 19.4632 1977.78 9.12755 1989.99 13.4229C1996.03 15.4363 1999.79 21.3424 2000.73 27.5169H1834.96Z" fill="#F9F7F7"/>
<path d="M1095.63 32.7516C1081.4 26.8456 1067.04 21.0737 1052.81 15.1677C1040.86 10.2012 1025.96 5.77169 1016.03 14.2281C1009.99 19.463 1005.96 29.3959 997.91 28.7248C986.634 27.7852 979.118 2.28174 966.366 19.1945C961.936 24.9664 963.413 31.5436 967.037 37.047H1103.01C1101 35.1678 1098.18 33.8255 1095.63 32.7516Z" fill="#F9F7F7"/>
<path d="M1866.06 243.039C1770.93 223.954 1661.78 239.242 1569.18 216.457C1532.47 207.401 1500.24 192.699 1463.14 184.13C1308.13 148.298 1120.3 242.65 967.041 204.383C861.394 177.996 823.224 127.266 681.648 202.338C632.67 228.336 587.977 239.144 539 265.142H1935.97C1914.94 255.697 1891.28 248.102 1866.06 243.039Z" fill="#F9F7F7"/>
</svg>
