<svg width="1896" height="677" viewBox="0 0 1896 677" fill="none" xmlns="http://www.w3.org/2000/svg">
<path d="M144.751 103.046L131.68 99.028C131.68 99.028 128.251 110.01 116.787 106.649C114.568 106.037 112.593 104.751 111.136 102.969C109.68 101.186 108.814 98.9944 108.658 96.6977C108.486 94.7608 108.779 92.811 109.513 91.0104C110.247 89.2097 111.4 87.6103 112.876 86.345C116.238 83.3718 122.131 81.5638 130.448 85.8629L139.649 56.3987L126.724 52.3809L121.367 69.6442C121.367 69.6442 101.76 68.6665 95.5326 88.6352C89.5728 107.747 105.323 117.537 112.662 119.827C118.233 121.568 137.8 126.175 144.751 103.046Z" fill="#F5F5F5"/>
<path d="M128.475 46.2478L141.592 50.3408L145.414 38.093L132.297 34L128.475 46.2478Z" fill="#F5F5F5"/>
<path d="M180.818 69.7781L186.055 68.4389C185.895 67.8442 185.856 67.2234 185.941 66.6134C186.026 66.0035 186.232 65.4169 186.548 64.8884C186.865 64.3599 187.284 63.9003 187.781 63.537C188.278 63.1738 188.843 62.9142 189.443 62.7737C190.315 62.5103 191.248 62.5248 192.112 62.8152C192.976 63.1055 193.728 63.6574 194.264 64.3942C194.72 65.0061 195.024 65.717 195.152 66.4688C195.28 67.2206 195.228 67.9921 195.001 68.7201C194.505 70.421 192.912 72.2692 189.215 72.5772L192.336 84.3763L197.505 83.037L195.684 76.1263C197.644 74.9439 199.162 73.1495 200.001 71.0197C200.841 68.8898 200.957 66.5429 200.331 64.3407C198.322 56.68 190.956 56.7202 188.05 57.4835C185.8 58.0059 178.287 60.5639 180.818 69.7781Z" fill="#EBEBEB"/>
<path d="M199.329 84.7576L194.055 86.1714L195.375 91.095L200.649 89.6812L199.329 84.7576Z" fill="#EBEBEB"/>
<path d="M613.151 205.326L618.241 207.161C618.454 206.585 618.781 206.057 619.201 205.609C619.622 205.161 620.128 204.801 620.69 204.552C621.251 204.302 621.857 204.168 622.471 204.156C623.086 204.144 623.696 204.255 624.267 204.483C625.125 204.758 625.876 205.293 626.417 206.012C626.959 206.731 627.266 207.6 627.294 208.5C627.326 209.269 627.175 210.033 626.853 210.732C626.532 211.43 626.05 212.042 625.446 212.518C624.107 213.63 621.709 214.233 618.495 212.384L614.33 223.862L619.366 225.683L621.803 218.987C624.089 219.129 626.358 218.516 628.262 217.243C630.166 215.971 631.6 214.109 632.343 211.942C635.022 204.496 628.982 200.358 626.129 199.326C623.946 198.469 616.312 196.313 613.151 205.326Z" fill="#EBEBEB"/>
<path d="M618.612 228.011L613.5 226.159L611.772 230.931L616.884 232.783L618.612 228.011Z" fill="#EBEBEB"/>
<path d="M73.0461 263.612L83.7603 259.46C83.7603 259.46 80.2782 250.42 89.613 246.63C91.3995 245.874 93.3766 245.691 95.2716 246.106C97.1666 246.521 98.8862 247.513 100.193 248.947C101.305 250.139 102.12 251.576 102.572 253.142C103.023 254.709 103.099 256.359 102.791 257.96C102.122 261.683 99.1754 265.996 91.421 267.483L100.796 291.764L111.51 287.665L106.019 273.442C106.019 273.442 119.412 263.826 113.131 247.353C107.037 231.603 91.4478 233.398 85.4612 235.715C80.8407 237.496 65.5193 244.688 73.0461 263.612Z" fill="#F5F5F5"/>
<path d="M113.54 292.608L102.73 296.773L106.62 306.871L117.43 302.706L113.54 292.608Z" fill="#F5F5F5"/>
<path d="M617.343 304.474L609.709 307.407C609.709 307.407 612.174 313.822 605.558 316.501C604.291 317.03 602.892 317.157 601.55 316.865C600.209 316.573 598.989 315.875 598.058 314.867C597.27 314.022 596.693 313.003 596.374 311.893C596.055 310.782 596.003 309.612 596.223 308.478C596.705 305.8 598.794 302.8 604.258 301.782L597.696 284.519L590.142 287.425L594.026 297.51C591.277 299.613 589.296 302.56 588.386 305.9C587.476 309.239 587.688 312.785 588.991 315.992C593.29 327.148 604.299 325.889 608.584 324.242C611.825 322.969 622.674 317.88 617.343 304.474Z" fill="#F5F5F5"/>
<path d="M588.648 283.926L596.309 280.975L593.555 273.826L585.894 276.778L588.648 283.926Z" fill="#F5F5F5"/>
<path d="M1080.75 103.046L1067.68 99.028C1067.68 99.028 1064.25 110.01 1052.79 106.649C1050.57 106.037 1048.59 104.751 1047.14 102.969C1045.68 101.186 1044.81 98.9944 1044.66 96.6977C1044.49 94.7608 1044.78 92.811 1045.51 91.0104C1046.25 89.2097 1047.4 87.6103 1048.88 86.345C1052.24 83.3718 1058.13 81.5638 1066.45 85.8629L1075.65 56.3987L1062.72 52.3809L1057.37 69.6442C1057.37 69.6442 1037.76 68.6665 1031.53 88.6352C1025.57 107.747 1041.32 117.537 1048.66 119.827C1054.23 121.568 1073.8 126.175 1080.75 103.046Z" fill="#F5F5F5"/>
<path d="M1064.48 46.2478L1077.59 50.3408L1081.41 38.093L1068.3 33.9999L1064.48 46.2478Z" fill="#F5F5F5"/>
<path d="M1116.82 69.7781L1122.05 68.4389C1121.89 67.8442 1121.86 67.2234 1121.94 66.6134C1122.03 66.0035 1122.23 65.4169 1122.55 64.8884C1122.86 64.3599 1123.28 63.9003 1123.78 63.537C1124.28 63.1738 1124.84 62.9142 1125.44 62.7737C1126.32 62.5103 1127.25 62.5248 1128.11 62.8152C1128.98 63.1055 1129.73 63.6574 1130.26 64.3942C1130.72 65.0061 1131.02 65.717 1131.15 66.4688C1131.28 67.2206 1131.23 67.9921 1131 68.7201C1130.51 70.421 1128.91 72.2692 1125.22 72.5772L1128.34 84.3763L1133.51 83.037L1131.68 76.1263C1133.64 74.9439 1135.16 73.1495 1136 71.0197C1136.84 68.8898 1136.96 66.5429 1136.33 64.3407C1134.32 56.68 1126.96 56.7202 1124.05 57.4835C1121.8 58.0059 1114.29 60.5639 1116.82 69.7781Z" fill="#EBEBEB"/>
<path d="M1135.33 84.7581L1130.06 86.1719L1131.37 91.0955L1136.65 89.6817L1135.33 84.7581Z" fill="#EBEBEB"/>
<path d="M1549.15 205.326L1554.24 207.161C1554.45 206.585 1554.78 206.057 1555.2 205.609C1555.62 205.161 1556.13 204.801 1556.69 204.552C1557.25 204.302 1557.86 204.168 1558.47 204.156C1559.09 204.144 1559.7 204.255 1560.27 204.483C1561.12 204.758 1561.88 205.293 1562.42 206.012C1562.96 206.731 1563.27 207.6 1563.29 208.5C1563.33 209.269 1563.17 210.033 1562.85 210.732C1562.53 211.43 1562.05 212.042 1561.45 212.518C1560.11 213.63 1557.71 214.233 1554.5 212.384L1550.33 223.862L1555.37 225.683L1557.8 218.987C1560.09 219.129 1562.36 218.516 1564.26 217.243C1566.17 215.971 1567.6 214.109 1568.34 211.942C1571.02 204.496 1564.98 200.358 1562.13 199.326C1559.95 198.469 1552.31 196.313 1549.15 205.326Z" fill="#EBEBEB"/>
<path d="M1554.61 228.011L1549.5 226.159L1547.77 230.931L1552.88 232.783L1554.61 228.011Z" fill="#EBEBEB"/>
<path d="M1009.05 263.612L1019.76 259.46C1019.76 259.46 1016.28 250.42 1025.61 246.63C1027.4 245.874 1029.38 245.691 1031.27 246.106C1033.17 246.521 1034.89 247.513 1036.19 248.947C1037.31 250.139 1038.12 251.576 1038.57 253.142C1039.02 254.709 1039.1 256.359 1038.79 257.96C1038.12 261.683 1035.18 265.996 1027.42 267.483L1036.8 291.764L1047.51 287.665L1042.02 273.442C1042.02 273.442 1055.41 263.826 1049.13 247.353C1043.04 231.603 1027.45 233.398 1021.46 235.715C1016.84 237.496 1001.52 244.688 1009.05 263.612Z" fill="#F5F5F5"/>
<path d="M1049.54 292.608L1038.73 296.773L1042.62 306.871L1053.43 302.706L1049.54 292.608Z" fill="#F5F5F5"/>
<path d="M1553.34 304.474L1545.71 307.407C1545.71 307.407 1548.17 313.822 1541.56 316.501C1540.29 317.03 1538.89 317.157 1537.55 316.865C1536.21 316.573 1534.99 315.875 1534.06 314.867C1533.27 314.022 1532.69 313.003 1532.37 311.893C1532.06 310.782 1532 309.612 1532.22 308.478C1532.7 305.8 1534.79 302.8 1540.26 301.782L1533.7 284.519L1526.14 287.425L1530.03 297.51C1527.28 299.613 1525.3 302.56 1524.39 305.9C1523.48 309.239 1523.69 312.785 1524.99 315.992C1529.29 327.148 1540.3 325.889 1544.58 324.242C1547.83 322.969 1558.67 317.88 1553.34 304.474Z" fill="#F5F5F5"/>
<path d="M1524.65 283.926L1532.31 280.975L1529.55 273.826L1521.89 276.778L1524.65 283.926Z" fill="#F5F5F5"/>
<path d="M73.7512 431.046L60.6798 427.028C60.6798 427.028 57.2512 438.01 45.787 434.649C43.5675 434.037 41.5929 432.751 40.1365 430.969C38.68 429.186 37.8138 426.994 37.6576 424.698C37.486 422.761 37.7792 420.811 38.513 419.01C39.2468 417.21 40.3998 415.61 41.8763 414.345C45.2379 411.372 51.1307 409.564 59.4477 413.863L68.6485 384.399L55.7245 380.381L50.3673 397.644C50.3673 397.644 30.7603 396.667 24.5326 416.635C18.5728 435.747 34.3227 445.537 41.662 447.827C47.2334 449.568 66.8003 454.175 73.7512 431.046Z" fill="#F5F5F5"/>
<path d="M57.4751 374.248L70.5924 378.341L74.4143 366.093L61.297 362L57.4751 374.248Z" fill="#F5F5F5"/>
<path d="M109.818 397.778L115.055 396.439C114.895 395.844 114.856 395.223 114.941 394.613C115.026 394.004 115.232 393.417 115.548 392.888C115.865 392.36 116.284 391.9 116.781 391.537C117.278 391.174 117.843 390.914 118.443 390.774C119.315 390.51 120.248 390.525 121.112 390.815C121.976 391.106 122.728 391.657 123.264 392.394C123.72 393.006 124.024 393.717 124.152 394.469C124.28 395.221 124.228 395.992 124.001 396.72C123.505 398.421 121.912 400.269 118.215 400.577L121.336 412.376L126.505 411.037L124.684 404.126C126.644 402.944 128.162 401.149 129.001 399.02C129.841 396.89 129.957 394.543 129.331 392.341C127.322 384.68 119.956 384.72 117.05 385.484C114.8 386.006 107.287 388.564 109.818 397.778Z" fill="#EBEBEB"/>
<path d="M128.329 412.758L123.055 414.171L124.375 419.095L129.649 417.681L128.329 412.758Z" fill="#EBEBEB"/>
<path d="M542.151 533.326L547.241 535.161C547.454 534.585 547.781 534.057 548.201 533.609C548.622 533.161 549.128 532.801 549.69 532.552C550.251 532.302 550.857 532.168 551.471 532.156C552.086 532.144 552.696 532.255 553.267 532.483C554.125 532.758 554.876 533.293 555.417 534.012C555.959 534.731 556.266 535.6 556.294 536.5C556.326 537.269 556.175 538.033 555.853 538.732C555.532 539.43 555.05 540.042 554.446 540.518C553.107 541.63 550.709 542.233 547.495 540.384L543.33 551.862L548.366 553.683L550.803 546.987C553.089 547.129 555.358 546.516 557.262 545.243C559.166 543.971 560.6 542.109 561.343 539.942C564.022 532.496 557.982 528.358 555.129 527.326C552.946 526.469 545.312 524.313 542.151 533.326Z" fill="#EBEBEB"/>
<path d="M547.612 556.011L542.5 554.159L540.772 558.931L545.884 560.783L547.612 556.011Z" fill="#EBEBEB"/>
<path d="M2.04605 591.612L12.7603 587.46C12.7603 587.46 9.27817 578.42 18.613 574.63C20.3995 573.874 22.3766 573.691 24.2716 574.106C26.1666 574.521 27.8862 575.513 29.1933 576.947C30.3054 578.139 31.1203 579.576 31.5718 581.142C32.0233 582.709 32.0986 584.359 31.7915 585.96C31.1218 589.683 28.1754 593.996 20.421 595.483L29.796 619.764L40.5102 615.665L35.0191 601.442C35.0191 601.442 48.412 591.826 42.1307 575.353C36.037 559.603 20.4478 561.398 14.4612 563.715C9.84067 565.496 -5.48071 572.688 2.04605 591.612Z" fill="#F5F5F5"/>
<path d="M42.54 620.608L31.7298 624.773L35.6201 634.871L46.4304 630.706L42.54 620.608Z" fill="#F5F5F5"/>
<path d="M546.343 632.474L538.709 635.407C538.709 635.407 541.174 641.822 534.558 644.501C533.291 645.03 531.892 645.157 530.55 644.865C529.209 644.573 527.989 643.875 527.058 642.867C526.27 642.022 525.693 641.003 525.374 639.893C525.055 638.782 525.003 637.612 525.223 636.478C525.705 633.8 527.794 630.8 533.258 629.782L526.696 612.519L519.142 615.425L523.026 625.51C520.277 627.613 518.296 630.56 517.386 633.9C516.476 637.239 516.688 640.785 517.991 643.992C522.29 655.148 533.299 653.889 537.584 652.242C540.825 650.969 551.674 645.88 546.343 632.474Z" fill="#F5F5F5"/>
<path d="M517.648 611.926L525.309 608.975L522.555 601.826L514.894 604.778L517.648 611.926Z" fill="#F5F5F5"/>
<path d="M1009.75 431.046L996.68 427.028C996.68 427.028 993.251 438.01 981.787 434.649C979.568 434.037 977.593 432.751 976.136 430.969C974.68 429.186 973.814 426.994 973.658 424.698C973.486 422.761 973.779 420.811 974.513 419.01C975.247 417.21 976.4 415.61 977.876 414.345C981.238 411.372 987.131 409.564 995.448 413.863L1004.65 384.399L991.724 380.381L986.367 397.644C986.367 397.644 966.76 396.667 960.533 416.635C954.573 435.747 970.323 445.537 977.662 447.827C983.233 449.568 1002.8 454.175 1009.75 431.046Z" fill="#F5F5F5"/>
<path d="M993.475 374.248L1006.59 378.341L1010.41 366.093L997.297 362L993.475 374.248Z" fill="#F5F5F5"/>
<path d="M1045.82 397.778L1051.05 396.439C1050.89 395.844 1050.86 395.223 1050.94 394.613C1051.03 394.004 1051.23 393.417 1051.55 392.888C1051.86 392.36 1052.28 391.9 1052.78 391.537C1053.28 391.174 1053.84 390.914 1054.44 390.774C1055.32 390.51 1056.25 390.525 1057.11 390.815C1057.98 391.106 1058.73 391.657 1059.26 392.394C1059.72 393.006 1060.02 393.717 1060.15 394.469C1060.28 395.221 1060.23 395.992 1060 396.72C1059.51 398.421 1057.91 400.269 1054.22 400.577L1057.34 412.376L1062.51 411.037L1060.68 404.126C1062.64 402.944 1064.16 401.149 1065 399.02C1065.84 396.89 1065.96 394.543 1065.33 392.341C1063.32 384.68 1055.96 384.72 1053.05 385.484C1050.8 386.006 1043.29 388.564 1045.82 397.778Z" fill="#EBEBEB"/>
<path d="M1064.33 412.758L1059.06 414.171L1060.37 419.095L1065.65 417.681L1064.33 412.758Z" fill="#EBEBEB"/>
<path d="M1478.15 533.326L1483.24 535.161C1483.45 534.585 1483.78 534.057 1484.2 533.609C1484.62 533.161 1485.13 532.801 1485.69 532.552C1486.25 532.302 1486.86 532.168 1487.47 532.156C1488.09 532.144 1488.7 532.255 1489.27 532.483C1490.12 532.758 1490.88 533.293 1491.42 534.012C1491.96 534.731 1492.27 535.6 1492.29 536.5C1492.33 537.269 1492.17 538.033 1491.85 538.732C1491.53 539.43 1491.05 540.042 1490.45 540.518C1489.11 541.63 1486.71 542.233 1483.5 540.384L1479.33 551.862L1484.37 553.683L1486.8 546.987C1489.09 547.129 1491.36 546.516 1493.26 545.243C1495.17 543.971 1496.6 542.109 1497.34 539.942C1500.02 532.496 1493.98 528.358 1491.13 527.326C1488.95 526.469 1481.31 524.313 1478.15 533.326Z" fill="#EBEBEB"/>
<path d="M1483.61 556.011L1478.5 554.159L1476.77 558.931L1481.88 560.783L1483.61 556.011Z" fill="#EBEBEB"/>
<path d="M1001.05 623.41L1011.76 619.259C1011.76 619.259 1008.28 610.218 1017.61 606.428C1019.4 605.672 1021.38 605.489 1023.27 605.904C1025.17 606.319 1026.89 607.312 1028.19 608.745C1029.31 609.937 1030.12 611.374 1030.57 612.941C1031.02 614.507 1031.1 616.158 1030.79 617.759C1030.12 621.482 1027.18 625.794 1019.42 627.281L1028.8 651.562L1039.51 647.464L1034.02 633.241C1034.02 633.241 1047.41 623.625 1041.13 607.151C1035.04 591.402 1019.45 593.196 1013.46 595.513C1008.84 597.294 993.519 604.486 1001.05 623.41Z" fill="#F5F5F5"/>
<path d="M1041.54 652.406L1030.73 656.571L1034.62 666.669L1045.43 662.504L1041.54 652.406Z" fill="#F5F5F5"/>
<path d="M1482.34 632.474L1474.71 635.407C1474.71 635.407 1477.17 641.822 1470.56 644.501C1469.29 645.03 1467.89 645.157 1466.55 644.865C1465.21 644.573 1463.99 643.875 1463.06 642.867C1462.27 642.022 1461.69 641.003 1461.37 639.893C1461.06 638.782 1461 637.612 1461.22 636.478C1461.7 633.8 1463.79 630.8 1469.26 629.782L1462.7 612.519L1455.14 615.425L1459.03 625.51C1456.28 627.613 1454.3 630.56 1453.39 633.9C1452.48 637.239 1452.69 640.785 1453.99 643.992C1458.29 655.148 1469.3 653.889 1473.58 652.242C1476.83 650.969 1487.67 645.88 1482.34 632.474Z" fill="#F5F5F5"/>
<path d="M1453.65 611.926L1461.31 608.975L1458.55 601.826L1450.89 604.778L1453.65 611.926Z" fill="#F5F5F5"/>
<path d="M489.751 454.046L476.68 450.028C476.68 450.028 473.251 461.01 461.787 457.649C459.568 457.037 457.593 455.751 456.136 453.969C454.68 452.186 453.814 449.994 453.658 447.698C453.486 445.761 453.779 443.811 454.513 442.01C455.247 440.21 456.4 438.61 457.876 437.345C461.238 434.372 467.131 432.564 475.448 436.863L484.649 407.399L471.724 403.381L466.367 420.644C466.367 420.644 446.76 419.667 440.533 439.635C434.573 458.747 450.323 468.537 457.662 470.827C463.233 472.568 482.8 477.175 489.751 454.046Z" fill="#F5F5F5"/>
<path d="M473.475 397.248L486.592 401.341L490.414 389.093L477.297 385L473.475 397.248Z" fill="#F5F5F5"/>
<path d="M525.818 420.778L531.055 419.439C530.895 418.844 530.856 418.223 530.941 417.613C531.026 417.004 531.232 416.417 531.548 415.888C531.865 415.36 532.284 414.9 532.781 414.537C533.278 414.174 533.843 413.914 534.443 413.774C535.315 413.51 536.248 413.525 537.112 413.815C537.976 414.106 538.728 414.657 539.264 415.394C539.72 416.006 540.024 416.717 540.152 417.469C540.28 418.221 540.228 418.992 540.001 419.72C539.505 421.421 537.912 423.269 534.215 423.577L537.336 435.376L542.505 434.037L540.684 427.126C542.644 425.944 544.162 424.149 545.001 422.02C545.841 419.89 545.957 417.543 545.331 415.341C543.322 407.68 535.956 407.72 533.05 408.484C530.8 409.006 523.287 411.564 525.818 420.778Z" fill="#EBEBEB"/>
<path d="M544.329 435.758L539.055 437.171L540.375 442.095L545.649 440.681L544.329 435.758Z" fill="#EBEBEB"/>
<path d="M958.151 556.326L963.241 558.161C963.454 557.585 963.781 557.057 964.201 556.609C964.622 556.161 965.128 555.801 965.69 555.552C966.251 555.302 966.857 555.168 967.471 555.156C968.086 555.144 968.696 555.255 969.267 555.483C970.125 555.758 970.876 556.293 971.417 557.012C971.959 557.731 972.266 558.6 972.294 559.5C972.326 560.269 972.175 561.033 971.853 561.732C971.532 562.43 971.05 563.042 970.446 563.518C969.107 564.63 966.709 565.233 963.495 563.384L959.33 574.862L964.366 576.683L966.803 569.987C969.089 570.129 971.358 569.516 973.262 568.243C975.166 566.971 976.6 565.109 977.343 562.942C980.022 555.496 973.982 551.358 971.129 550.326C968.946 549.469 961.312 547.313 958.151 556.326Z" fill="#EBEBEB"/>
<path d="M963.612 579.011L958.5 577.159L956.772 581.931L961.884 583.783L963.612 579.011Z" fill="#EBEBEB"/>
<path d="M418.046 614.612L428.76 610.46C428.76 610.46 425.278 601.42 434.613 597.63C436.4 596.874 438.377 596.691 440.272 597.106C442.167 597.521 443.886 598.513 445.193 599.947C446.305 601.139 447.12 602.576 447.572 604.142C448.023 605.709 448.099 607.359 447.791 608.96C447.122 612.683 444.175 616.996 436.421 618.483L445.796 642.764L456.51 638.665L451.019 624.442C451.019 624.442 464.412 614.826 458.131 598.353C452.037 582.603 436.448 584.398 430.461 586.715C425.841 588.496 410.519 595.688 418.046 614.612Z" fill="#F5F5F5"/>
<path d="M458.54 643.608L447.73 647.773L451.62 657.871L462.43 653.706L458.54 643.608Z" fill="#F5F5F5"/>
<path d="M962.343 655.474L954.709 658.407C954.709 658.407 957.174 664.822 950.558 667.501C949.291 668.03 947.892 668.157 946.55 667.865C945.209 667.573 943.989 666.875 943.058 665.867C942.27 665.022 941.693 664.003 941.374 662.893C941.055 661.782 941.003 660.612 941.223 659.478C941.705 656.8 943.794 653.8 949.258 652.782L942.696 635.519L935.142 638.425L939.026 648.51C936.277 650.613 934.296 653.56 933.386 656.9C932.476 660.239 932.688 663.785 933.991 666.992C938.29 678.148 949.299 676.889 953.584 675.242C956.825 673.969 967.674 668.88 962.343 655.474Z" fill="#F5F5F5"/>
<path d="M933.648 634.926L941.309 631.975L938.555 624.826L930.894 627.778L933.648 634.926Z" fill="#F5F5F5"/>
<path d="M1425.75 454.046L1412.68 450.028C1412.68 450.028 1409.25 461.01 1397.79 457.649C1395.57 457.037 1393.59 455.751 1392.14 453.969C1390.68 452.186 1389.81 449.994 1389.66 447.698C1389.49 445.761 1389.78 443.811 1390.51 442.01C1391.25 440.21 1392.4 438.61 1393.88 437.345C1397.24 434.372 1403.13 432.564 1411.45 436.863L1420.65 407.399L1407.72 403.381L1402.37 420.644C1402.37 420.644 1382.76 419.667 1376.53 439.635C1370.57 458.747 1386.32 468.537 1393.66 470.827C1399.23 472.568 1418.8 477.175 1425.75 454.046Z" fill="#F5F5F5"/>
<path d="M1409.48 397.248L1422.59 401.341L1426.41 389.093L1413.3 385L1409.48 397.248Z" fill="#F5F5F5"/>
<path d="M1461.82 420.778L1467.05 419.439C1466.89 418.844 1466.86 418.223 1466.94 417.613C1467.03 417.004 1467.23 416.417 1467.55 415.888C1467.86 415.36 1468.28 414.9 1468.78 414.537C1469.28 414.174 1469.84 413.914 1470.44 413.774C1471.32 413.51 1472.25 413.525 1473.11 413.815C1473.98 414.106 1474.73 414.657 1475.26 415.394C1475.72 416.006 1476.02 416.717 1476.15 417.469C1476.28 418.221 1476.23 418.992 1476 419.72C1475.51 421.421 1473.91 423.269 1470.22 423.577L1473.34 435.376L1478.51 434.037L1476.68 427.126C1478.64 425.944 1480.16 424.149 1481 422.02C1481.84 419.89 1481.96 417.543 1481.33 415.341C1479.32 407.68 1471.96 407.72 1469.05 408.484C1466.8 409.006 1459.29 411.564 1461.82 420.778Z" fill="#EBEBEB"/>
<path d="M1480.33 435.758L1475.06 437.172L1476.37 442.095L1481.65 440.682L1480.33 435.758Z" fill="#EBEBEB"/>
<path d="M1894.15 556.326L1899.24 558.161C1899.45 557.585 1899.78 557.057 1900.2 556.609C1900.62 556.161 1901.13 555.801 1901.69 555.552C1902.25 555.302 1902.86 555.168 1903.47 555.156C1904.09 555.144 1904.7 555.255 1905.27 555.483C1906.12 555.758 1906.88 556.293 1907.42 557.012C1907.96 557.731 1908.27 558.6 1908.29 559.5C1908.33 560.269 1908.17 561.033 1907.85 561.732C1907.53 562.43 1907.05 563.042 1906.45 563.518C1905.11 564.63 1902.71 565.233 1899.5 563.384L1895.33 574.862L1900.37 576.683L1902.8 569.987C1905.09 570.129 1907.36 569.516 1909.26 568.243C1911.17 566.971 1912.6 565.109 1913.34 562.942C1916.02 555.496 1909.98 551.358 1907.13 550.326C1904.95 549.469 1897.31 547.313 1894.15 556.326Z" fill="#EBEBEB"/>
<path d="M1899.61 579.011L1894.5 577.159L1892.77 581.931L1897.88 583.783L1899.61 579.011Z" fill="#EBEBEB"/>
<path d="M1354.05 614.612L1364.76 610.46C1364.76 610.46 1361.28 601.42 1370.61 597.63C1372.4 596.874 1374.38 596.691 1376.27 597.106C1378.17 597.521 1379.89 598.513 1381.19 599.947C1382.31 601.139 1383.12 602.576 1383.57 604.142C1384.02 605.709 1384.1 607.359 1383.79 608.96C1383.12 612.683 1380.18 616.996 1372.42 618.483L1381.8 642.764L1392.51 638.665L1387.02 624.442C1387.02 624.442 1400.41 614.826 1394.13 598.353C1388.04 582.603 1372.45 584.398 1366.46 586.715C1361.84 588.496 1346.52 595.688 1354.05 614.612Z" fill="#F5F5F5"/>
<path d="M1394.54 643.608L1383.73 647.773L1387.62 657.871L1398.43 653.706L1394.54 643.608Z" fill="#F5F5F5"/>
<path d="M1898.34 655.474L1890.71 658.407C1890.71 658.407 1893.17 664.822 1886.56 667.501C1885.29 668.03 1883.89 668.157 1882.55 667.865C1881.21 667.573 1879.99 666.875 1879.06 665.867C1878.27 665.022 1877.69 664.003 1877.37 662.893C1877.06 661.782 1877 660.612 1877.22 659.478C1877.7 656.8 1879.79 653.8 1885.26 652.782L1878.7 635.519L1871.14 638.425L1875.03 648.51C1872.28 650.613 1870.3 653.56 1869.39 656.9C1868.48 660.239 1868.69 663.785 1869.99 666.992C1874.29 678.148 1885.3 676.889 1889.58 675.242C1892.83 673.969 1903.67 668.88 1898.34 655.474Z" fill="#F5F5F5"/>
<path d="M1869.65 634.926L1877.31 631.975L1874.55 624.826L1866.89 627.778L1869.65 634.926Z" fill="#F5F5F5"/>
<path d="M1769.75 450.046L1756.68 446.028C1756.68 446.028 1753.25 457.01 1741.79 453.649C1739.57 453.037 1737.59 451.751 1736.14 449.969C1734.68 448.186 1733.81 445.994 1733.66 443.698C1733.49 441.761 1733.78 439.811 1734.51 438.01C1735.25 436.21 1736.4 434.61 1737.88 433.345C1741.24 430.372 1747.13 428.564 1755.45 432.863L1764.65 403.399L1751.72 399.381L1746.37 416.644C1746.37 416.644 1726.76 415.667 1720.53 435.635C1714.57 454.747 1730.32 464.537 1737.66 466.827C1743.23 468.568 1762.8 473.175 1769.75 450.046Z" fill="#F5F5F5"/>
<path d="M1753.48 393.248L1766.59 397.341L1770.41 385.093L1757.3 381L1753.48 393.248Z" fill="#F5F5F5"/>
<path d="M1805.82 416.778L1811.05 415.439C1810.89 414.844 1810.86 414.223 1810.94 413.613C1811.03 413.004 1811.23 412.417 1811.55 411.888C1811.86 411.36 1812.28 410.9 1812.78 410.537C1813.28 410.174 1813.84 409.914 1814.44 409.774C1815.32 409.51 1816.25 409.525 1817.11 409.815C1817.98 410.106 1818.73 410.657 1819.26 411.394C1819.72 412.006 1820.02 412.717 1820.15 413.469C1820.28 414.221 1820.23 414.992 1820 415.72C1819.51 417.421 1817.91 419.269 1814.22 419.577L1817.34 431.376L1822.51 430.037L1820.68 423.126C1822.64 421.944 1824.16 420.149 1825 418.02C1825.84 415.89 1825.96 413.543 1825.33 411.341C1823.32 403.68 1815.96 403.72 1813.05 404.484C1810.8 405.006 1803.29 407.564 1805.82 416.778Z" fill="#EBEBEB"/>
<path d="M1824.33 431.758L1819.06 433.172L1820.37 438.095L1825.65 436.682L1824.33 431.758Z" fill="#EBEBEB"/>
<path d="M1698.05 610.612L1708.76 606.46C1708.76 606.46 1705.28 597.42 1714.61 593.63C1716.4 592.874 1718.38 592.691 1720.27 593.106C1722.17 593.521 1723.89 594.513 1725.19 595.947C1726.31 597.139 1727.12 598.576 1727.57 600.142C1728.02 601.709 1728.1 603.359 1727.79 604.96C1727.12 608.683 1724.18 612.996 1716.42 614.483L1725.8 638.764L1736.51 634.665L1731.02 620.442C1731.02 620.442 1744.41 610.826 1738.13 594.353C1732.04 578.603 1716.45 580.398 1710.46 582.715C1705.84 584.496 1690.52 591.688 1698.05 610.612Z" fill="#F5F5F5"/>
<path d="M1738.54 639.608L1727.73 643.773L1731.62 653.871L1742.43 649.706L1738.54 639.608Z" fill="#F5F5F5"/>
<path d="M1732.75 70.0459L1719.68 66.028C1719.68 66.028 1716.25 77.0101 1704.79 73.6485C1702.57 73.0374 1700.59 71.7514 1699.14 69.9686C1697.68 68.1858 1696.81 65.9944 1696.66 63.6977C1696.49 61.7608 1696.78 59.811 1697.51 58.0104C1698.25 56.2097 1699.4 54.6103 1700.88 53.345C1704.24 50.3718 1710.13 48.5638 1718.45 52.8629L1727.65 23.3987L1714.72 19.3809L1709.37 36.6442C1709.37 36.6442 1689.76 35.6665 1683.53 55.6352C1677.57 74.7467 1693.32 84.5369 1700.66 86.827C1706.23 88.5681 1725.8 93.1752 1732.75 70.0459Z" fill="#F5F5F5"/>
<path d="M1716.48 13.2478L1729.59 17.3408L1733.41 5.09296L1720.3 0.999927L1716.48 13.2478Z" fill="#F5F5F5"/>
<path d="M1768.82 36.7781L1774.05 35.4389C1773.89 34.8442 1773.86 34.2234 1773.94 33.6134C1774.03 33.0035 1774.23 32.4169 1774.55 31.8884C1774.86 31.3599 1775.28 30.9003 1775.78 30.537C1776.28 30.1738 1776.84 29.9142 1777.44 29.7737C1778.32 29.5103 1779.25 29.5248 1780.11 29.8152C1780.98 30.1055 1781.73 30.6574 1782.26 31.3942C1782.72 32.0061 1783.02 32.717 1783.15 33.4688C1783.28 34.2206 1783.23 34.9921 1783 35.7201C1782.51 37.421 1780.91 39.2692 1777.22 39.5772L1780.34 51.3763L1785.51 50.037L1783.68 43.1263C1785.64 41.9439 1787.16 40.1495 1788 38.0197C1788.84 35.8898 1788.96 33.5429 1788.33 31.3407C1786.32 23.68 1778.96 23.7202 1776.05 24.4835C1773.8 25.0059 1766.29 27.5639 1768.82 36.7781Z" fill="#EBEBEB"/>
<path d="M1787.33 51.7581L1782.06 53.1719L1783.37 58.0955L1788.65 56.6817L1787.33 51.7581Z" fill="#EBEBEB"/>
<path d="M1661.05 230.612L1671.76 226.46C1671.76 226.46 1668.28 217.42 1677.61 213.63C1679.4 212.874 1681.38 212.691 1683.27 213.106C1685.17 213.521 1686.89 214.513 1688.19 215.947C1689.31 217.139 1690.12 218.576 1690.57 220.142C1691.02 221.709 1691.1 223.359 1690.79 224.96C1690.12 228.683 1687.18 232.996 1679.42 234.483L1688.8 258.764L1699.51 254.665L1694.02 240.442C1694.02 240.442 1707.41 230.826 1701.13 214.353C1695.04 198.603 1679.45 200.398 1673.46 202.715C1668.84 204.496 1653.52 211.688 1661.05 230.612Z" fill="#F5F5F5"/>
<path d="M1701.54 259.608L1690.73 263.773L1694.62 273.871L1705.43 269.706L1701.54 259.608Z" fill="#F5F5F5"/>
<path d="M425.751 69.0459L412.68 65.028C412.68 65.028 409.251 76.0101 397.787 72.6485C395.568 72.0374 393.593 70.7514 392.136 68.9686C390.68 67.1858 389.814 64.9944 389.658 62.6977C389.486 60.7608 389.779 58.811 390.513 57.0104C391.247 55.2097 392.4 53.6103 393.876 52.345C397.238 49.3718 403.131 47.5638 411.448 51.8629L420.649 22.3987L407.724 18.3809L402.367 35.6442C402.367 35.6442 382.76 34.6665 376.533 54.6352C370.573 73.7467 386.323 83.5369 393.662 85.827C399.233 87.5681 418.8 92.1752 425.751 69.0459Z" fill="#F5F5F5"/>
<path d="M409.475 12.2478L422.592 16.3408L426.414 4.09298L413.297 -1.20813e-05L409.475 12.2478Z" fill="#F5F5F5"/>
<path d="M461.818 35.7781L467.055 34.4389C466.895 33.8442 466.856 33.2234 466.941 32.6134C467.026 32.0035 467.232 31.4169 467.548 30.8884C467.865 30.3599 468.284 29.9003 468.781 29.537C469.278 29.1738 469.843 28.9142 470.443 28.7737C471.315 28.5103 472.248 28.5248 473.112 28.8152C473.976 29.1055 474.728 29.6574 475.264 30.3942C475.72 31.0061 476.024 31.717 476.152 32.4688C476.28 33.2206 476.228 33.9921 476.001 34.7201C475.505 36.421 473.912 38.2692 470.215 38.5772L473.336 50.3763L478.505 49.037L476.684 42.1263C478.644 40.9439 480.162 39.1495 481.001 37.0197C481.841 34.8898 481.957 32.5429 481.331 30.3407C479.322 22.68 471.956 22.7202 469.05 23.4835C466.8 24.0059 459.287 26.5639 461.818 35.7781Z" fill="#EBEBEB"/>
<path d="M480.329 50.7576L475.055 52.1714L476.375 57.095L481.649 55.6812L480.329 50.7576Z" fill="#EBEBEB"/>
<path d="M844.38 107.856L849.469 109.691C849.683 109.115 850.009 108.587 850.43 108.139C850.851 107.691 851.357 107.331 851.918 107.082C852.48 106.832 853.086 106.697 853.7 106.685C854.315 106.674 854.925 106.785 855.496 107.012C856.353 107.288 857.104 107.822 857.646 108.542C858.188 109.261 858.494 110.13 858.523 111.03C858.554 111.798 858.403 112.563 858.082 113.261C857.761 113.96 857.278 114.572 856.675 115.048C855.335 116.16 852.938 116.762 849.724 114.914L845.559 126.392L850.594 128.213L853.032 121.517C855.318 121.658 857.587 121.046 859.491 119.773C861.395 118.501 862.829 116.638 863.572 114.472C866.25 107.026 860.21 102.887 857.358 101.856C855.175 100.999 847.541 98.8428 844.38 107.856Z" fill="#EBEBEB"/>
<path d="M849.841 130.54L844.729 128.688L843 133.461L848.112 135.313L849.841 130.54Z" fill="#EBEBEB"/>
<path d="M354.046 229.612L364.76 225.46C364.76 225.46 361.278 216.42 370.613 212.63C372.4 211.874 374.377 211.691 376.272 212.106C378.167 212.521 379.886 213.513 381.193 214.947C382.305 216.139 383.12 217.576 383.572 219.142C384.023 220.709 384.099 222.359 383.791 223.96C383.122 227.683 380.175 231.996 372.421 233.483L381.796 257.764L392.51 253.665L387.019 239.442C387.019 239.442 400.412 229.826 394.131 213.353C388.037 197.603 372.448 199.398 366.461 201.715C361.841 203.496 346.519 210.688 354.046 229.612Z" fill="#F5F5F5"/>
<path d="M394.54 258.608L383.73 262.773L387.62 272.871L398.43 268.706L394.54 258.608Z" fill="#F5F5F5"/>
<path d="M898.343 270.474L890.709 273.407C890.709 273.407 893.174 279.822 886.558 282.501C885.291 283.03 883.892 283.157 882.55 282.865C881.209 282.573 879.989 281.875 879.058 280.867C878.27 280.022 877.693 279.003 877.374 277.893C877.055 276.782 877.003 275.612 877.223 274.478C877.705 271.8 879.794 268.8 885.258 267.782L878.696 250.519L871.142 253.425L875.026 263.51C872.277 265.613 870.296 268.56 869.386 271.9C868.476 275.239 868.688 278.785 869.991 281.992C874.29 293.148 885.299 291.889 889.584 290.242C892.825 288.969 903.674 283.88 898.343 270.474Z" fill="#F5F5F5"/>
<path d="M869.648 249.926L877.309 246.975L874.555 239.826L866.894 242.778L869.648 249.926Z" fill="#F5F5F5"/>
<path d="M1361.75 69.0459L1348.68 65.028C1348.68 65.028 1345.25 76.0101 1333.79 72.6485C1331.57 72.0374 1329.59 70.7514 1328.14 68.9686C1326.68 67.1858 1325.81 64.9944 1325.66 62.6977C1325.49 60.7608 1325.78 58.811 1326.51 57.0104C1327.25 55.2097 1328.4 53.6103 1329.88 52.345C1333.24 49.3718 1339.13 47.5638 1347.45 51.8629L1356.65 22.3987L1343.72 18.3809L1338.37 35.6442C1338.37 35.6442 1318.76 34.6665 1312.53 54.6352C1306.57 73.7467 1322.32 83.5369 1329.66 85.827C1335.23 87.5681 1354.8 92.1752 1361.75 69.0459Z" fill="#F5F5F5"/>
<path d="M1345.48 12.2478L1358.59 16.3408L1362.41 4.09296L1349.3 -7.28866e-05L1345.48 12.2478Z" fill="#F5F5F5"/>
<path d="M1397.82 35.7781L1403.05 34.4389C1402.89 33.8442 1402.86 33.2234 1402.94 32.6134C1403.03 32.0035 1403.23 31.4169 1403.55 30.8884C1403.86 30.3599 1404.28 29.9003 1404.78 29.537C1405.28 29.1738 1405.84 28.9142 1406.44 28.7737C1407.32 28.5103 1408.25 28.5248 1409.11 28.8152C1409.98 29.1055 1410.73 29.6574 1411.26 30.3942C1411.72 31.0061 1412.02 31.717 1412.15 32.4688C1412.28 33.2206 1412.23 33.9921 1412 34.7201C1411.51 36.421 1409.91 38.2692 1406.22 38.5772L1409.34 50.3763L1414.51 49.037L1412.68 42.1263C1414.64 40.9439 1416.16 39.1495 1417 37.0197C1417.84 34.8898 1417.96 32.5429 1417.33 30.3407C1415.32 22.68 1407.96 22.7202 1405.05 23.4835C1402.8 24.0059 1395.29 26.5639 1397.82 35.7781Z" fill="#EBEBEB"/>
<path d="M1416.33 50.7581L1411.06 52.1719L1412.37 57.0955L1417.65 55.6817L1416.33 50.7581Z" fill="#EBEBEB"/>
<path d="M1830.15 171.326L1835.24 173.161C1835.45 172.585 1835.78 172.057 1836.2 171.609C1836.62 171.161 1837.13 170.801 1837.69 170.552C1838.25 170.302 1838.86 170.168 1839.47 170.156C1840.09 170.144 1840.7 170.255 1841.27 170.483C1842.12 170.758 1842.88 171.293 1843.42 172.012C1843.96 172.731 1844.27 173.6 1844.29 174.5C1844.33 175.269 1844.17 176.033 1843.85 176.732C1843.53 177.43 1843.05 178.042 1842.45 178.518C1841.11 179.63 1838.71 180.233 1835.5 178.384L1831.33 189.862L1836.37 191.683L1838.8 184.987C1841.09 185.129 1843.36 184.516 1845.26 183.243C1847.17 181.971 1848.6 180.109 1849.34 177.942C1852.02 170.496 1845.98 166.358 1843.13 165.326C1840.95 164.469 1833.31 162.313 1830.15 171.326Z" fill="#EBEBEB"/>
<path d="M1835.61 194.011L1830.5 192.159L1828.77 196.931L1833.88 198.783L1835.61 194.011Z" fill="#EBEBEB"/>
<path d="M1290.05 229.612L1300.76 225.46C1300.76 225.46 1297.28 216.42 1306.61 212.63C1308.4 211.874 1310.38 211.691 1312.27 212.106C1314.17 212.521 1315.89 213.513 1317.19 214.947C1318.31 216.139 1319.12 217.576 1319.57 219.142C1320.02 220.709 1320.1 222.359 1319.79 223.96C1319.12 227.683 1316.18 231.996 1308.42 233.483L1317.8 257.764L1328.51 253.665L1323.02 239.442C1323.02 239.442 1336.41 229.826 1330.13 213.353C1324.04 197.603 1308.45 199.398 1302.46 201.715C1297.84 203.496 1282.52 210.688 1290.05 229.612Z" fill="#F5F5F5"/>
<path d="M1330.54 258.608L1319.73 262.773L1323.62 272.871L1334.43 268.706L1330.54 258.608Z" fill="#F5F5F5"/>
<path d="M1834.34 270.474L1826.71 273.407C1826.71 273.407 1829.17 279.822 1822.56 282.501C1821.29 283.03 1819.89 283.157 1818.55 282.865C1817.21 282.573 1815.99 281.875 1815.06 280.867C1814.27 280.022 1813.69 279.003 1813.37 277.893C1813.06 276.782 1813 275.612 1813.22 274.478C1813.7 271.8 1815.79 268.8 1821.26 267.782L1814.7 250.519L1807.14 253.425L1811.03 263.51C1808.28 265.613 1806.3 268.56 1805.39 271.9C1804.48 275.239 1804.69 278.785 1805.99 281.992C1810.29 293.148 1821.3 291.889 1825.58 290.242C1828.83 288.969 1839.67 283.88 1834.34 270.474Z" fill="#F5F5F5"/>
<path d="M1805.65 249.926L1813.31 246.975L1810.55 239.826L1802.89 242.778L1805.65 249.926Z" fill="#F5F5F5"/>
</svg>
