<svg width="288" height="120" viewBox="0 0 288 120" fill="none" xmlns="http://www.w3.org/2000/svg">
<path d="M47.7731 37.2158H4.61218V117.487H47.7731V37.2158Z" fill="#EBEBEB"/>
<path d="M49.8608 35H2.52014V37.2156H49.8608V35Z" fill="#DBDBDB"/>
<path d="M64.748 35H49.8608V37.2156H64.748V35Z" fill="#EBEBEB"/>
<path d="M62.3955 37.2158H47.7731V117.487H62.3955V37.2158Z" fill="#DBDBDB"/>
<path d="M43.1256 64.8847H9.25537V45.7163H43.1256V64.8847ZM9.36571 64.7744H43.0153V45.8266H9.36571V64.7744Z" fill="#C7C7C7"/>
<path d="M28.0575 51.3125H21.4635V55.1038H28.0575V51.3125Z" fill="#C7C7C7"/>
<path d="M30.0612 54.8699H23.379V51.542H30.0789L30.0612 54.8699ZM23.4717 54.7595H29.9509V51.67H23.4717V54.7595Z" fill="#C7C7C7"/>
<path d="M43.1256 88.9081H9.25537V69.7617H43.1256V88.9081ZM9.36571 88.7977H43.0153V69.8721H9.36571V88.7977Z" fill="#C7C7C7"/>
<path d="M28.0575 75.3584H21.4635V79.1497H28.0575V75.3584Z" fill="#C7C7C7"/>
<path d="M30.0612 78.9202H23.379V75.5879H30.0789L30.0612 78.9202ZM23.4717 78.8098H29.9509V75.6982H23.4717V78.8098Z" fill="#C7C7C7"/>
<path d="M43.1256 112.954H9.25537V93.8076H43.1256V112.954ZM9.36571 112.844H43.0153V93.918H9.36571V112.844Z" fill="#C7C7C7"/>
<path d="M28.0575 99.4038H21.4635V103.195H28.0575V99.4038Z" fill="#C7C7C7"/>
<path d="M30.0612 102.966H23.379V99.6377H30.0789L30.0612 102.966ZM23.4717 102.842H29.9509V99.7525H23.4717V102.842Z" fill="#C7C7C7"/>
<path d="M268.243 60.6079H225.082V117.486H268.243V60.6079Z" fill="#EBEBEB"/>
<path d="M270.331 58.3926H222.99V60.6082H270.331V58.3926Z" fill="#DBDBDB"/>
<path d="M285.218 58.3926H270.331V60.6082H285.218V58.3926Z" fill="#EBEBEB"/>
<path d="M282.865 60.6079H268.243V117.486H282.865V60.6079Z" fill="#DBDBDB"/>
<path d="M263.543 69.166H229.783V88.1976H263.543V69.166Z" fill="#A6A6A6"/>
<path d="M260.254 64.2935H234.554V82.9234H260.254V64.2935Z" fill="#C7C7C7"/>
<path d="M243.633 62.3604H234.554V64.2935H244.158L243.633 62.3604Z" fill="#C7C7C7"/>
<path d="M260.184 82.9187H234.488L232.506 65.8379H258.202L260.184 82.9187Z" fill="#A6A6A6"/>
<path d="M241.377 64.0684H232.298L232.506 65.8382H242.106L241.377 64.0684Z" fill="#A6A6A6"/>
<path d="M247.278 69.166H213.518V88.1976H247.278V69.166Z" fill="#EBEBEB"/>
<path d="M247.331 88.2768H213.465V69.1084H247.331V88.2768ZM213.576 88.1665H247.221V69.2187H213.576V88.1665Z" fill="#C7C7C7"/>
<path d="M232.268 74.7051H225.674V78.4964H232.268V74.7051Z" fill="#C7C7C7"/>
<path d="M234.267 78.2669H227.567V74.9346H234.267V78.2669ZM227.677 78.1565H234.157V75.0361H227.677V78.1565Z" fill="#C7C7C7"/>
<path d="M263.543 72.0171H247.362V88.1975H263.543V72.0171Z" fill="#DBDBDB"/>
<path d="M263.596 112.301H229.725V93.1543H263.596V112.301ZM229.836 112.19H263.481V93.2646H229.836V112.19Z" fill="#C7C7C7"/>
<path d="M248.527 98.7505H241.933V102.542H248.527V98.7505Z" fill="#C7C7C7"/>
<path d="M250.531 102.312H243.831V98.98H250.531V102.312ZM243.942 102.202H250.421V99.0903H243.942V102.202Z" fill="#C7C7C7"/>
<path d="M0 117.486L35.9711 117.38L71.9378 117.341L143.871 117.266L215.805 117.341L251.771 117.38L287.743 117.486L251.771 117.597L215.805 117.632L143.871 117.707L71.9378 117.632L35.9711 117.592L0 117.486Z" fill="#263238"/>
<path d="M157.351 103.442H180.032C180.696 102.024 181.078 100.491 181.158 98.9272V80.7739H158.476V99.1788C158.476 101.002 157.351 103.442 157.351 103.442Z" fill="#455A64"/>
<path d="M161.252 86.1233C163.9 85.9026 166.588 85.8541 169.254 85.8408C171.92 85.8276 174.59 85.9026 177.256 86.1233C174.608 86.3396 171.92 86.3925 169.254 86.4013C166.588 86.4102 163.918 86.3396 161.252 86.1233Z" fill="white"/>
<path d="M161.252 89.1111C163.653 88.8948 166.05 88.8419 168.451 88.8286C170.852 88.8154 173.248 88.8904 175.645 89.1111C173.248 89.3318 170.847 89.3803 168.451 89.3936C166.054 89.4068 163.653 89.3318 161.252 89.1111Z" fill="white"/>
<path d="M161.252 92.1037C163.349 91.8831 165.45 91.8345 167.546 91.8213C169.649 91.8097 171.751 91.9039 173.844 92.1037C171.743 92.32 169.647 92.373 167.546 92.3818C165.445 92.3906 163.349 92.32 161.252 92.1037Z" fill="white"/>
<path d="M161.252 95.0916C163.9 94.8753 166.588 94.8223 169.254 94.8091C171.92 94.7958 174.59 94.8709 177.256 95.0916C174.608 95.3122 171.92 95.3608 169.254 95.374C166.588 95.3873 163.918 95.3122 161.252 95.0916Z" fill="white"/>
<path d="M77.8098 90.7551C77.8098 90.7551 70.2399 90.7551 67.6572 90.7551C65.0746 90.7551 61.6013 80.7806 61.6013 75.9715C61.6013 71.1624 63.2934 59.852 65.0746 53.618C66.8557 47.3839 89.4764 39.814 97.7588 39.6359C97.7588 39.6359 116.728 14.6997 124.565 12.3842C132.402 10.0687 141.486 10.0687 141.486 10.0687C141.486 10.0687 146.117 2.14258 151.906 2.14258C157.695 2.14258 213.178 2.14258 217.274 2.14258C221.46 2.14258 233.839 41.9514 234.284 49.9666C234.641 57.9818 234.284 75.7043 234.284 79.89C234.284 84.0758 229.742 90.8441 225.2 90.8441C220.659 90.8441 77.8098 90.7551 77.8098 90.7551Z" fill="#0091FF"/>
<path d="M62.0466 69.5595C71.2196 67.5111 72.8226 56.8242 72.8226 56.8242H64.2731C63.3825 60.7428 62.581 65.4628 62.0466 69.5595Z" fill="#FFF100"/>
<path d="M65.0746 73.834C63.5606 73.834 62.492 73.834 61.6904 73.834C61.6014 74.6355 61.6014 75.348 61.6014 75.9714C61.6014 77.8416 62.1357 80.5133 62.9372 83.096C67.4792 80.9586 67.9245 73.834 65.0746 73.834Z" fill="#58595B"/>
<path d="M67.5681 90.755C70.2399 90.755 77.7207 90.755 77.7207 90.755C77.7207 90.755 220.658 90.755 225.2 90.755C229.742 90.755 234.284 83.9866 234.284 79.8009C234.284 79.4447 234.284 78.9994 234.284 78.376C230.811 78.376 225.913 78.376 222.974 78.376C218.076 78.376 217.72 85.0553 215.048 85.0553C212.643 85.0553 85.825 85.0553 63.5605 85.0553C64.7183 88.2614 66.2323 90.755 67.5681 90.755Z" fill="#016EC1"/>
<path d="M112.453 42.2185C106.754 42.2185 120.379 21.379 126.792 20.0432C133.204 18.7073 143.802 19.4198 143.802 19.4198C144.959 23.9617 146.117 42.2185 141.575 42.2185C137.033 42.2185 112.453 42.2185 112.453 42.2185Z" fill="#83D4F6"/>
<path d="M143.178 49.9666H136.054C135.163 49.9666 134.362 49.2542 134.362 48.2745V48.0964C134.362 47.2058 135.074 46.4043 136.054 46.4043H143.178C144.069 46.4043 144.87 47.1168 144.87 48.0964V48.2745C144.781 49.1651 144.069 49.9666 143.178 49.9666Z" fill="#F1F1F2"/>
<path d="M234.374 72.4092C234.463 68.6688 234.463 64.1268 234.463 59.8521C232.147 59.8521 228.763 59.8521 227.16 59.8521C224.755 59.8521 225.468 70.628 234.374 72.4092Z" fill="#EC1C24"/>
<path d="M213.979 20.0435H164.285C163.038 20.0435 161.969 19.0638 161.969 17.728V17.5499C161.969 16.3031 162.949 15.2344 164.285 15.2344H213.979C215.226 15.2344 216.295 16.214 216.295 17.5499V17.728C216.206 19.0638 215.226 20.0435 213.979 20.0435Z" fill="#016EC1"/>
<path d="M215.226 28.6817H163.038C161.791 28.6817 160.723 27.702 160.723 26.3662V26.188C160.723 24.9412 161.702 23.8726 163.038 23.8726H215.226C216.473 23.8726 217.542 24.8522 217.542 26.188V26.3662C217.452 27.613 216.473 28.6817 215.226 28.6817Z" fill="#016EC1"/>
<path d="M217.452 37.231H160.723C159.476 37.231 158.407 36.2514 158.407 34.9155V34.7374C158.407 33.4906 159.387 32.4219 160.723 32.4219H217.452C218.699 32.4219 219.768 33.4015 219.768 34.7374V34.9155C219.768 36.1623 218.699 37.231 217.452 37.231Z" fill="#016EC1"/>
<path d="M220.213 45.7808H157.962C156.715 45.7808 155.646 44.8012 155.646 43.4653V43.2872C155.646 42.0404 156.626 40.9717 157.962 40.9717H220.213C221.46 40.9717 222.529 41.9513 222.529 43.2872V43.4653C222.529 44.7121 221.46 45.7808 220.213 45.7808Z" fill="#016EC1"/>
<path d="M135.252 19.2412L118.866 42.2181C120.647 42.2181 122.606 42.2181 124.654 42.2181L140.774 19.3303C139.349 19.2412 137.301 19.2412 135.252 19.2412Z" fill="white"/>
<path d="M143.802 19.4196C143.802 19.4196 143.356 19.4196 142.555 19.3306L126.524 42.2184C127.326 42.2184 128.127 42.2184 129.018 42.2184L144.069 20.5774C143.98 20.1321 143.891 19.7759 143.802 19.4196Z" fill="white"/>
<path d="M130.71 19.5087L114.858 42.2184C115.57 42.2184 116.372 42.2184 117.352 42.2184L133.293 19.3306C132.313 19.4196 131.512 19.4196 130.71 19.5087Z" fill="white"/>
<path d="M127.95 83.6305C127.95 71.2515 117.886 61.188 105.507 61.188C93.1279 61.188 83.0644 71.2515 83.0644 83.6305C83.0644 86.1241 83.5097 88.5287 84.2221 90.7552C92.6826 90.7552 108.535 90.7552 126.703 90.7552C127.593 88.5287 127.95 86.1241 127.95 83.6305Z" fill="#2A4E96"/>
<path d="M125.586 87.1186C127.529 76.0737 120.15 65.5455 109.105 63.6032C98.0598 61.6609 87.5316 69.04 85.5893 80.0849C83.647 91.1298 91.0261 101.658 102.071 103.6C113.116 105.543 123.644 98.1635 125.586 87.1186Z" fill="#58595B"/>
<path d="M105.596 96.0983C112.482 96.0983 118.064 90.5161 118.064 83.6302C118.064 76.7443 112.482 71.1621 105.596 71.1621C98.7101 71.1621 93.1279 76.7443 93.1279 83.6302C93.1279 90.5161 98.7101 96.0983 105.596 96.0983Z" fill="#D0D2D3"/>
<path d="M111.385 83.6306C111.385 86.8366 108.802 89.4193 105.596 89.4193C102.39 89.4193 99.8073 86.8366 99.8073 83.6306C99.8073 80.4245 102.39 77.8418 105.596 77.8418C108.802 77.8418 111.385 80.4245 111.385 83.6306Z" fill="white"/>
<path d="M217.364 83.63C217.364 71.251 207.3 61.1875 194.921 61.1875C182.542 61.1875 172.478 71.251 172.478 83.63C172.478 86.1237 172.924 88.5282 173.636 90.7547C182.097 90.7547 197.949 90.7547 216.117 90.7547C216.918 88.5282 217.364 86.1237 217.364 83.63Z" fill="#2A4E96"/>
<path d="M209.282 97.9991C217.212 90.0695 217.212 77.2131 209.282 69.2836C201.352 61.354 188.496 61.354 180.566 69.2836C172.637 77.2131 172.637 90.0695 180.566 97.9991C188.496 105.929 201.352 105.929 209.282 97.9991Z" fill="#58595B"/>
<path d="M194.921 96.0983C201.807 96.0983 207.389 90.5161 207.389 83.6302C207.389 76.7443 201.807 71.1621 194.921 71.1621C188.035 71.1621 182.453 76.7443 182.453 83.6302C182.453 90.5161 188.035 96.0983 194.921 96.0983Z" fill="#D0D2D3"/>
<path d="M200.71 83.6306C200.71 86.8366 198.127 89.4193 194.921 89.4193C191.715 89.4193 189.132 86.8366 189.132 83.6306C189.132 80.4245 191.715 77.8418 194.921 77.8418C198.127 77.8418 200.71 80.4245 200.71 83.6306Z" fill="white"/>
<path d="M84.4002 47.3838C93.6622 44.5339 96.6902 43.5543 97.4026 39.6357C88.8531 39.992 66.8558 47.4728 65.0747 53.6178C65.0747 53.7069 65.0747 53.7069 64.9856 53.7959C66.3215 53.7959 68.1917 53.7959 69.0823 53.7959C70.5962 53.7959 73.4461 50.768 84.4002 47.3838Z" fill="#FDBC40"/>
<path d="M61.249 113.973C63.5255 114.166 67.4558 114.488 70.57 114.617C72.4385 114.703 73.5123 114.51 74.1351 114.273C74.1351 114.338 74.1351 114.402 74.1351 114.467C74.1136 114.789 73.8559 115.046 73.5338 115.068C67.6706 115.39 62.9886 115.175 61.3349 115.089C60.9913 115.068 60.7765 114.703 60.9698 114.402C61.0342 114.252 61.1416 114.102 61.249 113.973Z" fill="url(#paint0_linear)"/>
<path d="M70.57 114.617C67.4559 114.488 63.5256 114.166 61.249 113.973C63.4826 111.245 70.57 109.398 70.57 109.398H72.5673C73.9419 111.374 74.1352 113.264 74.1352 114.295C73.5123 114.509 72.4385 114.703 70.57 114.617Z" fill="url(#paint1_linear)"/>
<path d="M72.8895 106.112L72.6963 109.806C72.6748 110.214 72.3741 110.536 71.9661 110.6C71.558 110.665 71.0211 110.665 70.4627 110.472C70.119 110.364 69.8613 110.064 69.7969 109.698L69.1526 106.09H72.8895V106.112Z" fill="url(#paint2_linear)"/>
<path d="M96.1275 118.225C97.1154 118.053 97.5664 117.387 97.7382 116.679V116.7C97.8886 117.452 97.545 118.225 96.8792 118.59C96.063 119.041 95.1825 119.106 94.4952 119.063C93.765 119.02 93.0778 118.633 92.7126 117.989C93.4429 118.483 94.4738 118.526 96.1275 118.225Z" fill="url(#paint3_linear)"/>
<path d="M91.4671 107.25H93.1208C95.6336 107.186 97.2014 114.037 97.7384 116.679C97.5451 117.388 97.1155 118.053 96.1276 118.225C94.4953 118.526 93.443 118.461 92.7128 117.989C91.3597 115.669 90.6725 112.298 90.3503 110.322C89.9637 108.088 91.4671 107.25 91.4671 107.25Z" fill="url(#paint4_linear)"/>
<path d="M92.906 103.814L93.8295 107.465C93.9368 107.916 93.7221 108.367 93.314 108.582C92.7986 108.84 92.0898 109.119 91.424 109.033C91.1019 108.99 90.8442 108.775 90.7583 108.474L89.4052 104.652L92.906 103.814Z" fill="url(#paint5_linear)"/>
<path d="M60.6907 55.8346C60.6907 55.8346 68.8734 107.014 68.7445 107.293C68.7445 107.293 70.9996 108.324 73.4694 107.422C73.4694 107.422 72.7392 80.0606 70.9996 69.5798C70.9996 69.5798 84.9811 94.0206 89.4053 106.219C89.4053 106.219 91.7248 105.94 93.6363 104.673C93.6363 104.673 78.6024 60.6669 74.5862 54.8037L60.6907 55.8346Z" fill="url(#paint6_linear)"/>
<path d="M59.402 20.0966C58.8221 20.1396 58.2423 20.247 57.6839 20.4402C51.6918 22.5235 46.9669 21.9866 43.3588 20.3543C42.5212 21.4711 41.1681 23.7907 40.5883 27.678C47.1817 32.5747 55.4717 31.2861 58.1778 30.6847C57.4691 35.9466 57.4691 44.2796 60.3685 56.5C60.4544 56.8221 60.7121 57.0584 61.0557 57.0799C62.9028 57.2302 69.1096 57.5953 75.0587 56.2637C75.3164 56.1993 75.4667 55.9201 75.3594 55.6624L75.2949 55.5335C74.801 54.3738 74.5862 53.1066 74.6506 51.8395C74.8654 47.9951 75.8963 39.297 78.1084 33.3479C78.2373 33.5626 78.3661 33.7774 78.4735 33.9922C78.8816 30.0834 80.3635 26.2175 81.4373 22.3302C72.8036 19.5812 62.5377 19.9248 59.402 20.0966Z" fill="url(#paint7_linear)"/>
<path d="M72.868 12.9883C72.868 12.9883 73.4694 19.3669 74.0063 21.2569C74.0922 21.5361 73.9634 21.8368 73.7056 21.9871C72.8036 22.5026 70.6344 23.3402 67.6921 21.9012C67.2196 21.665 66.9189 21.171 66.9404 20.6341L67.1981 14.4702L72.868 12.9883Z" fill="url(#paint8_linear)"/>
<path d="M67.0693 4.82715C67.0693 4.82715 65.1364 9.25139 65.0075 11.5924C64.8786 13.9119 64.3847 15.4367 67.0693 15.8878C69.7539 16.3603 72.0305 15.0072 73.2546 12.7092C73.2546 12.7092 75.1876 9.14401 74.7366 7.68358C74.307 6.20167 67.0693 4.82715 67.0693 4.82715Z" fill="url(#paint9_linear)"/>
<path d="M72.3311 11.0334L72.1807 10.969C71.9874 10.8831 71.9015 10.6468 72.0089 10.4535C72.3955 9.72332 73.1257 8.04813 72.1807 7.64007C71.2787 7.27496 70.3122 7.06019 69.3887 6.75952C68.5297 6.48032 66.8544 6.20111 66.4249 5.29908C66.296 5.04135 66.4464 4.71921 66.5753 4.46148C66.833 3.98899 67.0907 3.49502 67.3699 3.02253C67.5847 2.61447 67.8209 2.2064 68.1645 1.90573C68.9807 1.21847 69.9256 1.81982 70.8277 1.99164C74.1351 2.61447 76.3472 3.94604 76.3902 6.24407C76.3902 6.3944 76.5405 6.48031 76.6694 6.39441C76.9057 6.24407 77.3137 6.17964 77.8291 6.60918C78.7312 7.38234 78.3661 9.35821 76.3687 10.9905C76.2828 11.0764 76.2828 11.2267 76.3687 11.2911C76.7338 11.5274 77.2707 12.0858 75.8747 12.8375C74.4358 13.6106 73.3405 13.5462 72.9324 13.4818C72.825 13.4603 72.7606 13.3744 72.7821 13.267L73.2331 11.2482C73.2546 11.1408 73.1687 11.0334 73.0613 11.0334H72.3311Z" fill="url(#paint10_linear)"/>
<path d="M72.2452 11.4631C72.2452 11.4631 72.9754 8.6281 74.2425 9.42274C75.5097 10.2174 73.5767 12.6013 72.5673 12.7087L72.2452 11.4631Z" fill="url(#paint11_linear)"/>
<path d="M65.4586 5.57874C68.6157 -3.76371 81.6951 2.12094 77.3782 10.2607C72.8681 8.22039 67.5848 4.93443 65.4586 5.57874Z" fill="#0091FF"/>
<path d="M73.1902 8.06998L64.9646 9.14382C64.7498 9.1653 64.5565 9.07939 64.4062 8.92905C63.4612 7.72635 62.237 7.06056 60.8195 6.80284C60.6477 6.78136 60.6262 6.52364 60.8195 6.48068L65.7807 5.32094H65.8022C68.3364 5.10617 70.7848 6.24444 73.2332 7.87668C73.2976 7.91963 73.2761 8.0485 73.1902 8.06998Z" fill="#0091FF"/>
<path d="M40.2661 23.9415C40.8889 23.7911 42.2849 21.9011 42.4353 22.5884C42.5856 23.2757 42.1561 24.1562 42.2205 24.4354C42.2849 24.7361 42.7574 26.3683 42.3708 27.0556C42.0916 27.5496 41.5762 29.1174 41.297 29.955C41.2111 30.2342 41.1252 30.5993 40.846 30.5563C40.5668 30.5134 40.3305 30.1268 40.309 29.8476C40.309 29.7402 39.6433 24.0918 40.2661 23.9415Z" fill="url(#paint12_linear)"/>
<path d="M84.7662 26.2613C83.993 24.5002 81.5661 22.374 81.4373 22.3311C80.3849 26.2184 78.5164 29.4184 78.1083 33.3487C80.7285 38.1595 80.1272 43.808 78.4949 46.5785C79.2896 47.7812 80.2345 49.392 81.0507 51.4108C91.1019 45.3758 87.1286 31.6735 84.7662 26.2613Z" fill="url(#paint13_linear)"/>
<path d="M71.8586 55.7488L63.1605 55.5555C63.1605 55.5555 70.7418 53.4078 71.2143 53.9877C71.2143 53.9877 75.9178 50.895 78.495 46.5566C79.2896 47.7593 80.2346 49.3701 81.0507 51.3889C78.7527 52.7635 75.703 55.1045 71.8586 55.7488Z" fill="url(#paint14_linear)"/>
<path d="M72.1163 54.2451C72.1163 54.2451 72.2882 57.7029 67.7351 57.2089C65.2652 56.9297 61.2705 54.6317 61.2705 54.6317C61.2705 54.6317 71.6868 54.6102 72.1163 54.2451Z" fill="#F9B776"/>
<path d="M41.7749 54.604L82.1606 54.604V20.8818L41.7749 20.8818L41.7749 54.604Z" fill="#C3DAFC"/>
<path d="M48.1642 54.604L82.2415 54.604V20.8818L48.1642 20.8818V54.604Z" fill="#D4E4F8"/>
<path d="M41.7946 46.0552H48.2153L47.6487 44.2207L48.2153 42.9258H41.7946V46.0552Z" fill="#2A4E96"/>
<path d="M61.974 31.3257H68.3677L67.8012 29.4912L68.3677 28.1963H61.974V31.3257Z" fill="#618DC1"/>
<path d="M61.974 28.1963H55.5802L56.1467 30.0038L55.5802 31.3257H61.974V28.1963Z" fill="#2A4E96"/>
<path d="M82.2458 46.7944H75.8521L76.4186 48.6289L75.8521 49.9239H82.2458V46.7944Z" fill="#618DC1"/>
<path d="M82.1549 23.7217H70.5275V28.3079H82.1549V23.7217Z" fill="white"/>
<defs>
<linearGradient id="paint0_linear" x1="74.1229" y1="114.603" x2="60.8741" y2="114.603" gradientUnits="userSpaceOnUse">
<stop stop-color="#53D8FF"/>
<stop offset="1" stop-color="#3840F7"/>
</linearGradient>
<linearGradient id="paint1_linear" x1="74.1236" y1="112.006" x2="61.2482" y2="112.006" gradientUnits="userSpaceOnUse">
<stop stop-color="#2B3582"/>
<stop offset="1" stop-color="#150E42"/>
</linearGradient>
<linearGradient id="paint2_linear" x1="72.8998" y1="108.381" x2="69.1679" y2="108.381" gradientUnits="userSpaceOnUse">
<stop stop-color="#F9B776"/>
<stop offset="1" stop-color="#F47960"/>
</linearGradient>
<linearGradient id="paint3_linear" x1="97.7701" y1="117.888" x2="92.6929" y2="117.888" gradientUnits="userSpaceOnUse">
<stop stop-color="#53D8FF"/>
<stop offset="1" stop-color="#3840F7"/>
</linearGradient>
<linearGradient id="paint4_linear" x1="97.7333" y1="112.836" x2="90.281" y2="112.836" gradientUnits="userSpaceOnUse">
<stop stop-color="#2B3582"/>
<stop offset="1" stop-color="#150E42"/>
</linearGradient>
<linearGradient id="paint5_linear" x1="93.8596" y1="106.435" x2="89.3996" y2="106.435" gradientUnits="userSpaceOnUse">
<stop stop-color="#F9B776"/>
<stop offset="1" stop-color="#F47960"/>
</linearGradient>
<linearGradient id="paint6_linear" x1="57.7847" y1="58.3063" x2="95.8629" y2="120.682" gradientUnits="userSpaceOnUse">
<stop stop-color="#2B3582"/>
<stop offset="0.5464" stop-color="#1F205F"/>
<stop offset="1" stop-color="#150E42"/>
</linearGradient>
<linearGradient id="paint7_linear" x1="136.939" y1="-30.8507" x2="80.4644" y2="19.4232" gradientUnits="userSpaceOnUse">
<stop stop-color="#FDF53F"/>
<stop offset="1" stop-color="#D93C65"/>
</linearGradient>
<linearGradient id="paint8_linear" x1="71.8872" y1="27.3429" x2="69.9547" y2="17.1974" gradientUnits="userSpaceOnUse">
<stop stop-color="#F9B776"/>
<stop offset="1" stop-color="#F47960"/>
</linearGradient>
<linearGradient id="paint9_linear" x1="66.6582" y1="8.72918" x2="77.6842" y2="17.1657" gradientUnits="userSpaceOnUse">
<stop stop-color="#F9B776"/>
<stop offset="1" stop-color="#F47960"/>
</linearGradient>
<linearGradient id="paint10_linear" x1="75.5654" y1="2.9384" x2="65.2965" y2="16.1596" gradientUnits="userSpaceOnUse">
<stop stop-color="#2B3582"/>
<stop offset="1" stop-color="#150E42"/>
</linearGradient>
<linearGradient id="paint11_linear" x1="68.0257" y1="6.94126" x2="79.0518" y2="15.3779" gradientUnits="userSpaceOnUse">
<stop stop-color="#F9B776"/>
<stop offset="1" stop-color="#F47960"/>
</linearGradient>
<linearGradient id="paint12_linear" x1="44.6572" y1="15.378" x2="28.3473" y2="64.3036" gradientUnits="userSpaceOnUse">
<stop stop-color="#F9B776"/>
<stop offset="1" stop-color="#F47960"/>
</linearGradient>
<linearGradient id="paint13_linear" x1="146.031" y1="-20.6373" x2="89.5557" y2="29.6364" gradientUnits="userSpaceOnUse">
<stop stop-color="#FDF53F"/>
<stop offset="1" stop-color="#D93C65"/>
</linearGradient>
<linearGradient id="paint14_linear" x1="63.2206" y1="39.65" x2="69.5476" y2="49.1405" gradientUnits="userSpaceOnUse">
<stop stop-color="#F9B776"/>
<stop offset="1" stop-color="#F47960"/>
</linearGradient>
</defs>
</svg>
