<svg width="245" height="169" viewBox="0 0 245 169" fill="none" xmlns="http://www.w3.org/2000/svg">
<path d="M155.697 62.4539C154.508 56.155 152.982 49.9244 151.126 43.7886C145.564 26.0319 134.49 8.06301 115.47 2.02111C101.435 -2.43882 86.2751 0.637473 74.422 9.71876C55.8166 23.961 42.2754 43.3873 21.9128 55.7294C4.91249 66.0329 -3.98892 82.6735 1.73012 106.195C7.44917 129.717 26.525 143.438 47.4318 141.741C64.801 140.357 82.9452 141.838 97.9669 150.264C111.379 157.796 135.085 151.256 154.696 130.672C166.12 118.68 165.013 103.433 161.291 89.1628C158.976 80.3859 157.477 71.383 155.697 62.4539Z" fill="#D9E5FF"/>
<path opacity="0.7" d="M155.697 62.4539C154.508 56.155 152.982 49.9244 151.126 43.7886C145.564 26.0319 134.49 8.06301 115.47 2.02111C101.435 -2.43882 86.2751 0.637473 74.422 9.71876C55.8166 23.961 42.2754 43.3873 21.9128 55.7294C4.91249 66.0329 -3.98892 82.6735 1.73012 106.195C7.44917 129.717 26.525 143.438 47.4318 141.741C64.801 140.357 82.9452 141.838 97.9669 150.264C111.379 157.796 135.085 151.256 154.696 130.672C166.12 118.68 165.013 103.433 161.291 89.1628C158.976 80.3859 157.477 71.383 155.697 62.4539Z" fill="white"/>
<path d="M16.5122 38.8398V151.104" stroke="#263238" stroke-linecap="round" stroke-linejoin="round"/>
<path d="M20.2665 39.8638V152.128" stroke="#263238" stroke-linecap="round" stroke-linejoin="round"/>
<path d="M105.914 48.7373V160.997" stroke="#263238" stroke-linecap="round" stroke-linejoin="round"/>
<path d="M109.663 49.7568V162.021" stroke="#263238" stroke-linecap="round" stroke-linejoin="round"/>
<path d="M5.71057 150.034L163.284 167.74" stroke="#263238" stroke-linecap="round" stroke-linejoin="round"/>
<path d="M5.71057 97.1465L169.676 107.381" stroke="#263238" stroke-linecap="round" stroke-linejoin="round"/>
<path d="M218.817 156C229.968 156 239.008 153.892 239.008 151.291C239.008 148.69 229.968 146.582 218.817 146.582C207.665 146.582 198.625 148.69 198.625 151.291C198.625 153.892 207.665 156 218.817 156Z" fill="#9FBDFF"/>
<path opacity="0.5" d="M218.817 156C229.968 156 239.008 153.892 239.008 151.291C239.008 148.69 229.968 146.582 218.817 146.582C207.665 146.582 198.625 148.69 198.625 151.291C198.625 153.892 207.665 156 218.817 156Z" fill="white"/>
<path d="M202.559 142.348V150.096C202.559 152.116 209.186 153.749 217.364 153.749C225.541 153.749 232.164 152.116 232.164 150.096V142.348H202.559Z" fill="#9FBDFF"/>
<path d="M230.536 141.057C227.847 139.954 222.954 139.212 217.364 139.212C211.774 139.212 206.88 139.95 204.187 141.057H201.982V143.012C201.982 145.111 208.868 146.808 217.364 146.808C225.859 146.808 232.741 145.111 232.741 143.012V141.057H230.536Z" fill="#9FBDFF"/>
<path d="M217.364 144.852C225.859 144.852 232.745 143.153 232.745 141.057C232.745 138.96 225.859 137.261 217.364 137.261C208.869 137.261 201.982 138.96 201.982 141.057C201.982 143.153 208.869 144.852 217.364 144.852Z" fill="#9FBDFF"/>
<path opacity="0.39" d="M231.205 140.817C231.205 142.583 225.001 144.018 217.368 144.018C209.735 144.018 203.509 142.583 203.509 140.817C203.509 139.05 209.712 137.611 217.368 137.611C225.025 137.611 231.205 139.046 231.205 140.817Z" fill="black"/>
<path opacity="0.39" d="M217.364 144.018C224.865 144.018 230.946 142.868 230.946 141.449C230.946 140.03 224.865 138.88 217.364 138.88C209.862 138.88 203.781 140.03 203.781 141.449C203.781 142.868 209.862 144.018 217.364 144.018Z" fill="black"/>
<path d="M213.448 84.2354C213.448 84.2354 213.194 82.8517 213.167 82.7595C212.849 81.7541 211.672 79.9277 210.524 79.8031C210.341 79.7843 210.157 79.808 209.984 79.8722C209.812 79.9364 209.657 80.0394 209.531 80.1733C209.406 80.3071 209.312 80.4682 209.259 80.644C209.205 80.8198 209.193 81.0055 209.223 81.1868C209.306 81.9985 210.03 82.7641 210.681 83.2346C211.446 83.8018 213.443 84.2354 213.448 84.2354Z" fill="#9FBDFF"/>
<path d="M215.662 75.3293C214.587 75.5922 214.052 77.5247 214.085 78.5578C214.085 78.6454 214.292 80.0429 214.311 80.0337C214.227 80.3381 214.135 80.6656 214.048 81.0253C213.882 81.6941 213.706 82.4504 213.586 83.2945C213.428 84.2098 213.327 85.1339 213.282 86.0617C213.222 87.1128 213.258 88.1672 213.388 89.2118C213.388 89.2118 213.388 89.2395 213.388 89.2487C213.25 88.9305 212.825 88.045 212.784 87.9804C212.226 87.058 210.639 85.5636 209.555 85.7435C209.375 85.7817 209.205 85.8602 209.058 85.9733C208.912 86.0864 208.793 86.231 208.711 86.3964C208.628 86.5618 208.584 86.7438 208.582 86.9286C208.58 87.1134 208.619 87.2964 208.698 87.4638C208.988 88.2525 209.864 88.8198 210.602 89.1104C211.428 89.4378 213.273 89.3686 213.42 89.3594C213.579 90.4396 213.805 91.5086 214.098 92.5602C214.269 93.1783 214.458 93.7963 214.656 94.4051C214.523 94.133 214.407 93.8885 214.384 93.8562C213.826 92.9338 212.24 91.4395 211.156 91.624C210.974 91.6621 210.803 91.7412 210.657 91.8552C210.51 91.9691 210.391 92.115 210.31 92.2817C210.228 92.4485 210.185 92.6317 210.185 92.8174C210.184 93.0031 210.226 93.1864 210.307 93.3535C210.598 94.1422 211.474 94.7095 212.212 95.0001C212.95 95.2906 214.518 95.2676 214.952 95.2537C215.03 95.489 215.104 95.7149 215.182 95.964C215.56 97.0986 215.943 98.2285 216.285 99.3493C216.404 99.7413 216.51 100.133 216.617 100.525C216.501 100.281 216.4 100.064 216.381 100.064C215.819 99.1418 214.237 97.652 213.13 97.8319C212.948 97.8707 212.777 97.9503 212.631 98.0647C212.484 98.1792 212.365 98.3255 212.284 98.4925C212.202 98.6596 212.159 98.843 212.159 99.029C212.158 99.215 212.2 99.3986 212.281 99.5661C212.576 100.35 213.453 100.917 214.186 101.208C214.919 101.499 216.354 101.476 216.852 101.462C216.949 101.868 217.046 102.269 217.124 102.661C217.17 102.928 217.23 103.187 217.262 103.459L217.373 104.252C217.424 104.759 217.484 105.281 217.521 105.774C217.548 106.115 217.571 106.443 217.594 106.775C217.479 106.378 217.235 105.613 217.207 105.553C216.8 104.698 216.202 103.948 215.459 103.362C215.417 103.266 215.368 103.173 215.311 103.085C214.85 102.384 213.928 102.08 213.319 102.55C212.452 103.2 212.669 105.276 213.065 106.263C213.088 106.323 213.411 106.932 213.623 107.314C213.466 107.102 213.319 106.899 213.162 106.687C212.844 106.258 212.512 105.843 212.161 105.396L211.626 104.755C211.451 104.538 211.239 104.326 211.05 104.109C210.589 103.616 210.104 103.136 209.606 102.661C209.947 102.421 211.142 101.545 211.483 100.899C211.692 100.549 211.821 100.157 211.861 99.751C211.901 99.3452 211.851 98.9355 211.714 98.5514C211.642 98.371 211.535 98.2066 211.399 98.0676C211.263 97.9286 211.101 97.8178 210.923 97.7415C210.744 97.6653 210.552 97.625 210.358 97.6231C210.164 97.6212 209.971 97.6577 209.791 97.7304C208.822 98.2286 208.725 100.281 208.979 101.3C208.979 101.36 209.251 102.08 209.403 102.476C209.099 102.19 208.804 101.909 208.481 101.632C207.558 100.83 206.636 100.046 205.713 99.2571L204.842 98.533C204.962 98.4499 206.405 97.4399 206.793 96.7158C207.001 96.3662 207.13 95.975 207.17 95.57C207.209 95.1651 207.16 94.7563 207.023 94.3728C206.878 94.0084 206.593 93.7167 206.233 93.5619C205.872 93.4071 205.465 93.4018 205.1 93.5472C204.132 94.05 204.035 96.0977 204.284 97.117C204.284 97.1954 204.68 98.2286 204.786 98.5007C204.164 97.9703 203.546 97.4307 202.942 96.8772C202.14 96.1363 201.384 95.3477 200.677 94.5158C200.732 94.4789 202.245 93.4366 202.642 92.6709C202.851 92.3208 202.98 91.9288 203.02 91.5229C203.06 91.1171 203.009 90.7075 202.872 90.3234C202.8 90.1429 202.693 89.9785 202.558 89.8395C202.422 89.7006 202.26 89.5898 202.081 89.5135C201.903 89.4372 201.711 89.397 201.516 89.3951C201.322 89.3932 201.129 89.4297 200.949 89.5024C199.981 90.0005 199.884 92.0529 200.133 93.0722C200.133 93.1368 200.437 93.9254 200.594 94.299L200.539 94.3267C199.852 93.4771 199.235 92.5733 198.694 91.624C198.389 91.1074 198.122 90.5955 197.877 90.0974C198.182 89.9359 199.566 89.1749 199.999 88.5569C200.248 88.2393 200.422 87.869 200.507 87.4742C200.591 87.0794 200.585 86.6705 200.488 86.2785C200.374 85.9012 200.118 85.5831 199.773 85.3919C199.429 85.2006 199.023 85.1514 198.643 85.2546C197.615 85.6374 197.292 87.6391 197.435 88.6676C197.435 88.7229 197.582 89.2902 197.688 89.7007C197.578 89.4747 197.462 89.2395 197.366 89.0227C196.987 88.2018 196.692 87.4316 196.443 86.749C196.3 86.3615 196.176 86.0064 196.065 85.6743C196.263 85.3469 197.047 84.014 197.121 83.2437C197.183 82.8265 197.158 82.401 197.047 81.9939C196.937 81.5868 196.744 81.2068 196.48 80.8777C195.899 80.2781 194.963 80.1767 194.469 80.7809C193.787 81.6203 194.437 83.6496 195.027 84.549C195.083 84.6274 196.01 85.7666 196.019 85.7481C196.12 86.071 196.231 86.4123 196.36 86.7859C196.605 87.4731 196.886 88.2525 197.246 89.0919C197.627 89.9936 198.057 90.8743 198.532 91.7301C199.061 92.7007 199.669 93.6263 200.35 94.4973L200.377 94.5296C200.091 94.3221 199.275 93.764 199.21 93.7271C198.288 93.2198 196.217 92.7632 195.465 93.5426C194.926 94.1007 195.119 95.037 195.765 95.5674C196.11 95.7997 196.501 95.9564 196.911 96.0271C197.321 96.0979 197.742 96.0811 198.145 95.9778C198.966 95.8118 200.35 94.7141 200.451 94.6265C201.169 95.5023 201.939 96.334 202.757 97.117C203.218 97.5782 203.716 98.0395 204.21 98.4684L203.698 98.1225C202.776 97.6151 200.705 97.1585 199.953 97.938C199.413 98.4961 199.607 99.4323 200.253 99.9627C200.598 100.196 200.988 100.353 201.398 100.424C201.809 100.495 202.229 100.478 202.633 100.373C203.371 100.221 204.574 99.317 204.888 99.068C205.077 99.2386 205.266 99.4093 205.46 99.5753C206.382 100.382 207.305 101.185 208.176 101.992C208.49 102.278 208.785 102.573 209.099 102.864L208.638 102.564C207.715 102.057 205.649 101.6 204.897 102.379C204.353 102.938 204.551 103.874 205.197 104.404C205.541 104.638 205.931 104.795 206.34 104.866C206.75 104.936 207.17 104.919 207.572 104.815C208.278 104.672 209.417 103.846 209.772 103.556C210.072 103.86 210.367 104.169 210.644 104.478C210.828 104.69 211.017 104.884 211.193 105.11L211.714 105.76C212.032 106.184 212.364 106.623 212.669 107.042C212.881 107.333 213.074 107.614 213.273 107.896C212.968 107.61 212.35 107.056 212.304 107.019C211.437 106.378 209.445 105.636 208.568 106.263C207.937 106.724 207.997 107.647 208.568 108.274C208.883 108.555 209.252 108.768 209.653 108.899C210.054 109.031 210.478 109.079 210.898 109.039C211.728 109.002 213.231 108.191 213.416 108.089C213.743 108.551 214.057 109.012 214.338 109.473C215.348 110.981 216.137 112.273 216.677 113.163L216.732 113.255L217.433 112.997L217.322 112.817C216.755 111.894 215.939 110.617 214.882 109.127C214.55 108.666 214.186 108.149 213.808 107.633C214.2 107.252 214.564 106.844 214.896 106.41C215.762 106.739 216.668 106.95 217.59 107.038C217.627 107.587 217.654 108.117 217.677 108.615C217.747 110.345 217.742 111.784 217.723 112.766V112.831L218.494 112.545C218.494 111.544 218.452 110.188 218.351 108.583C218.318 108.029 218.272 107.434 218.217 106.826C218.429 106.798 220.173 106.544 220.827 106.092C221.482 105.64 222.054 104.981 222.031 104.174C222.024 103.777 221.867 103.398 221.59 103.114C221.313 102.831 220.938 102.663 220.542 102.647C219.407 102.647 218.457 104.39 218.268 105.377C218.268 105.433 218.208 106.083 218.185 106.498C218.185 106.249 218.143 106.005 218.116 105.751C218.065 105.244 218 104.741 217.931 104.197L217.807 103.403C217.77 103.136 217.696 102.859 217.645 102.582C217.507 101.946 217.336 101.305 217.152 100.659C217.613 100.659 219.139 100.659 219.804 100.346C220.468 100.032 221.187 99.4508 221.307 98.6621C221.356 98.2686 221.251 97.8716 221.015 97.5531C220.779 97.2346 220.429 97.019 220.039 96.951C218.895 96.7988 217.677 98.3346 217.341 99.2571C217.318 99.317 217.156 100.018 217.073 100.405C216.958 100.018 216.847 99.6306 216.718 99.2432C216.349 98.1179 215.943 96.9879 215.542 95.8625C215.417 95.5166 215.302 95.1707 215.182 94.8248C215.334 94.8248 217.184 94.8571 217.949 94.5112C218.609 94.2068 219.333 93.621 219.448 92.8324C219.497 92.4389 219.392 92.0418 219.156 91.7233C218.92 91.4049 218.571 91.1893 218.18 91.1213C217.036 90.9644 215.819 92.5049 215.482 93.4273C215.459 93.4965 215.224 94.5066 215.178 94.7648C214.91 94.0038 214.656 93.2474 214.43 92.4911C214.127 91.4766 213.885 90.4447 213.706 89.4009C213.78 89.4009 215.713 89.4424 216.474 89.0919C217.133 88.7829 217.857 88.1972 217.973 87.4085C218.022 87.0148 217.918 86.6172 217.682 86.2984C217.445 85.9797 217.095 85.7644 216.704 85.6974C215.56 85.5406 214.343 87.081 214.006 88.0035C213.983 88.0634 213.808 88.8336 213.729 89.2026H213.665C213.515 88.1674 213.456 87.121 213.49 86.0756C213.49 85.5083 213.545 84.9641 213.6 84.4429C213.965 84.4844 215.625 84.6735 216.368 84.4429C217.11 84.2123 217.871 83.7234 218.06 82.9578C218.15 82.5728 218.087 82.1679 217.884 81.8288C217.681 81.4896 217.354 81.2428 216.972 81.1406C215.842 80.8593 214.444 82.2245 214.006 83.1008C213.983 83.1469 213.794 83.6634 213.665 84.0232C213.692 83.788 213.716 83.562 213.748 83.3175C213.863 82.4735 214.02 81.7125 214.168 81.0391C214.255 80.6609 214.343 80.315 214.426 79.9968C214.781 79.8584 216.22 79.2681 216.709 78.7146C216.992 78.4319 217.206 78.0873 217.333 77.7079C217.46 77.3285 217.498 76.9248 217.442 76.5285C217.363 76.1345 217.132 75.7877 216.798 75.5632C216.465 75.3387 216.057 75.2547 215.662 75.3293Z" fill="#9FBDFF"/>
<path d="M194.976 90.6505C195.871 90.715 197.661 89.9955 197.661 89.9955C197.661 89.9955 196.697 88.8932 196.614 88.8471C195.816 88.1184 193.897 87.1453 192.924 87.671C192.237 88.0492 192.186 88.9763 192.689 89.645C192.982 89.9596 193.335 90.211 193.729 90.3839C194.122 90.5568 194.547 90.6475 194.976 90.6505Z" fill="#9FBDFF"/>
<g opacity="0.3">
<path opacity="0.3" d="M213.448 84.2354C213.448 84.2354 213.194 82.8517 213.167 82.7595C212.848 81.7541 211.672 79.9277 210.524 79.8031C210.341 79.7843 210.156 79.808 209.984 79.8722C209.812 79.9364 209.657 80.0394 209.531 80.1733C209.405 80.3071 209.312 80.4682 209.259 80.644C209.205 80.8198 209.193 81.0055 209.223 81.1868C209.306 81.9985 210.03 82.7641 210.681 83.2346C211.446 83.8018 213.443 84.2354 213.448 84.2354Z" fill="white"/>
<path opacity="0.3" d="M215.662 75.3293C214.587 75.5922 214.052 77.5247 214.085 78.5578C214.085 78.6454 214.292 80.0429 214.311 80.0337C214.227 80.3381 214.135 80.6656 214.048 81.0253C213.882 81.6941 213.706 82.4504 213.586 83.2945C213.428 84.2098 213.327 85.1339 213.282 86.0617C213.222 87.1128 213.258 88.1672 213.388 89.2118C213.388 89.2118 213.388 89.2395 213.388 89.2487C213.25 88.9305 212.825 88.045 212.784 87.9804C212.226 87.058 210.639 85.5636 209.555 85.7435C209.375 85.7817 209.205 85.8602 209.058 85.9733C208.912 86.0864 208.793 86.231 208.711 86.3964C208.628 86.5618 208.584 86.7438 208.582 86.9286C208.58 87.1134 208.619 87.2964 208.698 87.4638C208.988 88.2525 209.864 88.8198 210.602 89.1104C211.428 89.4378 213.273 89.3686 213.42 89.3594C213.579 90.4396 213.805 91.5086 214.098 92.5602C214.269 93.1783 214.458 93.7963 214.656 94.4051C214.523 94.133 214.407 93.8885 214.384 93.8562C213.826 92.9338 212.24 91.4395 211.156 91.624C210.974 91.6621 210.803 91.7412 210.657 91.8552C210.51 91.9691 210.391 92.115 210.31 92.2817C210.228 92.4485 210.185 92.6317 210.185 92.8174C210.184 93.0031 210.226 93.1864 210.307 93.3535C210.598 94.1422 211.474 94.7095 212.212 95.0001C212.95 95.2906 214.518 95.2676 214.952 95.2537C215.03 95.489 215.104 95.7149 215.182 95.964C215.56 97.0986 215.943 98.2285 216.285 99.3493C216.404 99.7413 216.51 100.133 216.617 100.525C216.501 100.281 216.4 100.064 216.381 100.064C215.819 99.1418 214.237 97.652 213.13 97.8319C212.948 97.8707 212.777 97.9503 212.631 98.0647C212.484 98.1792 212.365 98.3255 212.284 98.4925C212.202 98.6596 212.159 98.843 212.159 99.029C212.158 99.215 212.2 99.3986 212.281 99.5661C212.576 100.35 213.453 100.917 214.186 101.208C214.919 101.499 216.354 101.476 216.852 101.462C216.949 101.868 217.046 102.269 217.124 102.661C217.17 102.928 217.23 103.187 217.262 103.459L217.373 104.252C217.424 104.759 217.484 105.281 217.521 105.774C217.548 106.115 217.571 106.443 217.594 106.775C217.479 106.378 217.235 105.613 217.207 105.553C216.8 104.698 216.202 103.948 215.459 103.362C215.417 103.266 215.368 103.173 215.311 103.085C214.85 102.384 213.928 102.08 213.319 102.55C212.452 103.2 212.669 105.276 213.065 106.263C213.088 106.323 213.411 106.932 213.623 107.314C213.466 107.102 213.319 106.899 213.162 106.687C212.844 106.258 212.512 105.843 212.161 105.396L211.626 104.755C211.451 104.538 211.239 104.326 211.05 104.109C210.589 103.616 210.104 103.136 209.606 102.661C209.947 102.421 211.142 101.545 211.483 100.899C211.692 100.549 211.821 100.157 211.861 99.751C211.901 99.3452 211.851 98.9355 211.714 98.5514C211.642 98.371 211.535 98.2066 211.399 98.0676C211.263 97.9286 211.101 97.8178 210.923 97.7415C210.744 97.6653 210.552 97.625 210.358 97.6231C210.164 97.6212 209.971 97.6577 209.791 97.7304C208.822 98.2286 208.725 100.281 208.979 101.3C208.979 101.36 209.251 102.08 209.403 102.476C209.099 102.19 208.804 101.909 208.481 101.632C207.558 100.83 206.636 100.046 205.713 99.2571L204.842 98.533C204.962 98.4499 206.405 97.4399 206.793 96.7158C207.001 96.3662 207.13 95.975 207.17 95.57C207.209 95.1651 207.16 94.7563 207.023 94.3728C206.878 94.0084 206.593 93.7167 206.233 93.5619C205.872 93.4071 205.465 93.4018 205.1 93.5472C204.132 94.05 204.035 96.0977 204.284 97.117C204.284 97.1954 204.68 98.2286 204.786 98.5007C204.164 97.9703 203.546 97.4307 202.942 96.8772C202.14 96.1363 201.384 95.3477 200.677 94.5158C200.732 94.4789 202.245 93.4366 202.642 92.6709C202.851 92.3208 202.98 91.9288 203.02 91.5229C203.06 91.1171 203.009 90.7075 202.872 90.3234C202.8 90.1429 202.693 89.9785 202.558 89.8395C202.422 89.7006 202.26 89.5898 202.081 89.5135C201.903 89.4372 201.711 89.397 201.516 89.3951C201.322 89.3932 201.129 89.4297 200.949 89.5024C199.981 90.0005 199.884 92.0529 200.133 93.0722C200.133 93.1368 200.437 93.9254 200.594 94.299L200.539 94.3267C199.852 93.4771 199.235 92.5733 198.694 91.624C198.389 91.1074 198.122 90.5955 197.877 90.0974C198.182 89.9359 199.566 89.1749 199.999 88.5569C200.248 88.2393 200.422 87.869 200.507 87.4742C200.591 87.0794 200.585 86.6705 200.488 86.2785C200.374 85.9012 200.118 85.5831 199.773 85.3919C199.429 85.2006 199.023 85.1514 198.643 85.2546C197.615 85.6374 197.292 87.6391 197.435 88.6676C197.435 88.7229 197.582 89.2902 197.688 89.7007C197.578 89.4747 197.462 89.2395 197.366 89.0227C196.987 88.2018 196.692 87.4316 196.443 86.749C196.3 86.3615 196.176 86.0064 196.065 85.6743C196.263 85.3469 197.047 84.014 197.121 83.2437C197.183 82.8265 197.158 82.401 197.047 81.9939C196.937 81.5868 196.744 81.2068 196.48 80.8777C195.899 80.2781 194.963 80.1767 194.469 80.7809C193.787 81.6203 194.437 83.6496 195.027 84.549C195.083 84.6274 196.01 85.7666 196.019 85.7481C196.12 86.071 196.231 86.4123 196.36 86.7859C196.605 87.4731 196.886 88.2525 197.246 89.0919C197.627 89.9936 198.057 90.8743 198.532 91.7301C199.061 92.7007 199.669 93.6263 200.35 94.4973L200.377 94.5296C200.091 94.3221 199.275 93.764 199.21 93.7271C198.288 93.2198 196.217 92.7632 195.465 93.5426C194.926 94.1007 195.119 95.037 195.765 95.5674C196.11 95.7997 196.501 95.9564 196.911 96.0271C197.321 96.0979 197.742 96.0811 198.145 95.9778C198.966 95.8118 200.35 94.7141 200.451 94.6265C201.169 95.5023 201.939 96.334 202.757 97.117C203.218 97.5782 203.716 98.0395 204.21 98.4684L203.698 98.1225C202.776 97.6151 200.705 97.1585 199.953 97.938C199.413 98.4961 199.607 99.4323 200.253 99.9627C200.598 100.196 200.988 100.353 201.398 100.424C201.809 100.495 202.229 100.478 202.633 100.373C203.371 100.221 204.574 99.317 204.888 99.068C205.077 99.2386 205.266 99.4093 205.46 99.5753C206.382 100.382 207.305 101.185 208.176 101.992C208.49 102.278 208.785 102.573 209.099 102.864L208.638 102.564C207.715 102.057 205.649 101.6 204.897 102.379C204.353 102.938 204.551 103.874 205.197 104.404C205.541 104.638 205.931 104.795 206.34 104.866C206.75 104.936 207.17 104.919 207.572 104.815C208.278 104.672 209.417 103.846 209.772 103.556C210.072 103.86 210.367 104.169 210.644 104.478C210.828 104.69 211.017 104.884 211.193 105.11L211.714 105.76C212.032 106.184 212.364 106.623 212.669 107.042C212.881 107.333 213.074 107.614 213.273 107.896C212.968 107.61 212.35 107.056 212.304 107.019C211.437 106.378 209.445 105.636 208.568 106.263C207.937 106.724 207.997 107.647 208.568 108.274C208.883 108.555 209.252 108.768 209.653 108.899C210.054 109.031 210.478 109.079 210.898 109.039C211.728 109.002 213.231 108.191 213.416 108.089C213.743 108.551 214.057 109.012 214.338 109.473C215.348 110.981 216.137 112.273 216.677 113.163L216.732 113.255L217.433 112.997L217.322 112.817C216.755 111.894 215.939 110.617 214.882 109.127C214.55 108.666 214.186 108.149 213.808 107.633C214.2 107.252 214.564 106.844 214.896 106.41C215.762 106.739 216.668 106.95 217.59 107.038C217.627 107.587 217.654 108.117 217.677 108.615C217.747 110.345 217.742 111.784 217.723 112.766V112.831L218.494 112.545C218.494 111.544 218.452 110.188 218.351 108.583C218.318 108.029 218.272 107.434 218.217 106.826C218.429 106.798 220.173 106.544 220.827 106.092C221.482 105.64 222.054 104.981 222.031 104.174C222.024 103.777 221.867 103.398 221.59 103.114C221.313 102.831 220.938 102.663 220.542 102.647C219.407 102.647 218.457 104.39 218.268 105.377C218.268 105.433 218.208 106.083 218.185 106.498C218.185 106.249 218.143 106.005 218.116 105.751C218.065 105.244 218 104.741 217.931 104.197L217.807 103.403C217.77 103.136 217.696 102.859 217.645 102.582C217.507 101.946 217.336 101.305 217.152 100.659C217.613 100.659 219.139 100.659 219.804 100.346C220.468 100.032 221.187 99.4508 221.307 98.6621C221.356 98.2686 221.251 97.8716 221.015 97.5531C220.779 97.2346 220.429 97.019 220.039 96.951C218.895 96.7988 217.677 98.3346 217.341 99.2571C217.318 99.317 217.156 100.018 217.073 100.405C216.958 100.018 216.847 99.6306 216.718 99.2432C216.349 98.1179 215.943 96.9879 215.542 95.8625C215.417 95.5166 215.302 95.1707 215.182 94.8248C215.334 94.8248 217.184 94.8571 217.949 94.5112C218.609 94.2068 219.333 93.621 219.448 92.8324C219.497 92.4389 219.392 92.0418 219.156 91.7233C218.92 91.4049 218.571 91.1893 218.18 91.1213C217.036 90.9644 215.819 92.5049 215.482 93.4273C215.459 93.4965 215.224 94.5066 215.178 94.7648C214.91 94.0038 214.656 93.2474 214.43 92.4911C214.127 91.4766 213.885 90.4447 213.706 89.4009C213.78 89.4009 215.713 89.4424 216.474 89.0919C217.133 88.7829 217.857 88.1972 217.973 87.4085C218.022 87.0148 217.918 86.6172 217.682 86.2984C217.445 85.9797 217.095 85.7644 216.704 85.6974C215.56 85.5406 214.343 87.081 214.006 88.0035C213.983 88.0634 213.808 88.8336 213.729 89.2026H213.665C213.515 88.1674 213.456 87.121 213.49 86.0756C213.49 85.5083 213.545 84.9641 213.6 84.4429C213.965 84.4844 215.625 84.6735 216.368 84.4429C217.11 84.2123 217.871 83.7234 218.06 82.9578C218.15 82.5728 218.087 82.1679 217.884 81.8288C217.681 81.4896 217.354 81.2428 216.972 81.1406C215.842 80.8593 214.444 82.2245 214.006 83.1008C213.983 83.1469 213.794 83.6634 213.665 84.0232C213.692 83.788 213.716 83.562 213.748 83.3175C213.863 82.4735 214.02 81.7125 214.168 81.0391C214.255 80.6609 214.343 80.315 214.426 79.9968C214.781 79.8584 216.22 79.2681 216.709 78.7146C216.992 78.4319 217.206 78.0873 217.333 77.7079C217.46 77.3285 217.498 76.9248 217.442 76.5285C217.363 76.1345 217.132 75.7877 216.798 75.5632C216.465 75.3387 216.057 75.2547 215.662 75.3293Z" fill="white"/>
<path opacity="0.3" d="M194.976 90.6505C195.871 90.715 197.661 89.9955 197.661 89.9955C197.661 89.9955 196.697 88.8932 196.614 88.8471C195.816 88.1184 193.897 87.1453 192.924 87.671C192.237 88.0492 192.186 88.9763 192.689 89.645C192.982 89.9596 193.335 90.211 193.729 90.3839C194.122 90.5568 194.547 90.6475 194.976 90.6505Z" fill="white"/>
</g>
<path d="M213.905 109.302C213.905 109.302 219.329 96.849 222.368 97.7392C225.407 98.6293 217.161 118.033 217.161 118.033C217.161 118.033 226.708 101.092 233.22 101.821C239.733 102.55 230.831 121.459 222.585 127.188C222.585 127.188 235.605 114.62 243.201 118.503C250.797 122.386 228.009 134.051 228.009 134.051C228.009 134.051 241.245 131.362 239.728 134.415C238.211 137.468 220.712 137.127 220.712 137.127L217.059 136.822L217.032 139.23L217.059 136.822C217.059 136.822 201.378 134.387 199.801 124.831C199.169 121.012 210.215 128.843 210.215 128.843C210.215 128.843 197.845 113.753 200.234 108.91C202.623 104.067 213.254 119.656 213.254 119.656C213.254 119.656 204.574 100.285 206.308 97.2687C208.043 94.2524 213.905 109.302 213.905 109.302Z" fill="#9FBDFF"/>
<g opacity="0.3">
<path opacity="0.3" d="M213.905 109.302C213.905 109.302 219.329 96.849 222.368 97.7392C225.407 98.6293 217.161 118.033 217.161 118.033C217.161 118.033 226.708 101.092 233.22 101.821C239.733 102.55 230.831 121.459 222.585 127.188C222.585 127.188 235.605 114.62 243.201 118.503C250.797 122.386 228.009 134.051 228.009 134.051C228.009 134.051 241.245 131.362 239.728 134.415C238.211 137.468 220.712 137.127 220.712 137.127L217.059 136.822L217.032 139.23L217.059 136.822C217.059 136.822 201.378 134.387 199.801 124.831C199.169 121.012 210.215 128.843 210.215 128.843C210.215 128.843 197.845 113.753 200.234 108.91C202.623 104.067 213.254 119.656 213.254 119.656C213.254 119.656 204.574 100.285 206.308 97.2687C208.043 94.2524 213.905 109.302 213.905 109.302Z" fill="white"/>
</g>
<path d="M212.171 109.8C216.944 124.439 216.944 134.419 216.944 134.419C216.944 134.419 211.299 134.004 205.441 129.009" stroke="#263238" stroke-linecap="round" stroke-linejoin="round"/>
<path d="M214.555 117.664C215.529 113.585 216.836 109.593 218.461 105.728" stroke="#263238" stroke-linecap="round" stroke-linejoin="round"/>
<path d="M228.663 110.985L216.511 127.635C216.511 127.635 208.264 119.767 205.441 115.547" stroke="#263238" stroke-linecap="round" stroke-linejoin="round"/>
<path d="M216.727 132.008C216.727 132.008 229.531 127.368 234.738 124.476" stroke="#263238" stroke-linecap="round" stroke-linejoin="round"/>
<path d="M216.944 134.42C216.944 134.42 216.861 138.446 216.893 140.088" stroke="#263238" stroke-linecap="round" stroke-linejoin="round"/>
<path d="M76.5137 124.822H206.894V116.362H212.505V104.517H76.5137V124.822Z" fill="#6D6E70"/>
<path d="M80.8775 128.296H44.8982C44.8982 128.296 40 123.576 40 117.876C40 112.265 40 96.8585 43.3842 87.5964C46.7684 78.3344 63.2441 57.584 69.3 55.0904C75.2669 52.5967 97.3532 53.5764 97.3532 53.5764C97.3532 57.1387 97.3532 116.451 97.3532 116.451H80.8775V128.296Z" fill="#0292FF"/>
<path d="M88.1803 60.3442C81.6791 59.8099 72.9514 59.3646 68.6767 64.619C64.4019 69.8734 57.8116 78.8682 56.4757 82.0743C55.1399 85.2804 56.1195 90.802 60.2162 90.802C64.4019 90.802 76.4247 90.802 80.7885 90.802C85.1523 90.802 88.1803 89.8223 88.1803 85.8147C88.1803 81.8071 88.1803 60.3442 88.1803 60.3442Z" fill="#66CDF5"/>
<path d="M86.8444 97.8377H77.9386C77.2262 97.8377 76.6028 97.2143 76.6028 96.5019C76.6028 95.7894 77.2262 95.166 77.9386 95.166H86.8444C87.5569 95.166 88.1803 95.7894 88.1803 96.5019C88.1803 97.2143 87.5569 97.8377 86.8444 97.8377Z" fill="#404041"/>
<path d="M46.6794 104.517C43.9186 104.517 40.4453 104.517 40.4453 104.517C40.0891 109.148 40.0891 113.423 40.0891 116.362C48.7277 113.156 49.2621 104.517 46.6794 104.517Z" fill="#FFF100"/>
<path d="M44.3637 119.657H42.1373C41.5139 119.657 41.0686 119.212 41.0686 118.588C41.0686 117.965 41.5139 117.52 42.1373 117.52H44.3637C44.9871 117.52 45.4324 117.965 45.4324 118.588C45.4324 119.212 44.8981 119.657 44.3637 119.657Z" fill="#FFF100"/>
<path d="M44.8981 128.295H77.5823L75.623 121.26H40.6233C41.8701 125.356 44.8981 128.295 44.8981 128.295Z" fill="#0072C8"/>
<path d="M88.1803 60.3443C86.6663 60.2553 84.9742 60.0771 83.2821 60.0771L56.8319 88.7537C57.5444 90.0006 58.7021 90.8911 60.3052 90.8911C61.4629 90.8911 63.155 90.8911 65.2033 90.8911L88.2693 65.2425C88.1803 62.3036 88.1803 60.3443 88.1803 60.3443Z" fill="white"/>
<path d="M71.3484 90.802L88.1803 71.2093C88.1803 70.1406 88.1803 69.0719 88.1803 68.0923L68.1423 90.802C69.211 90.802 70.2797 90.802 71.3484 90.802Z" fill="white"/>
<path d="M136.895 116.272H106.883V127.85H136.895V116.272Z" fill="#929497"/>
<path d="M136.895 124.199H106.883V127.939H136.895V124.199Z" fill="#808184"/>
<path d="M136.895 116.272H106.883V120.903H136.895V116.272Z" fill="#BBBDBF"/>
<path d="M76.8699 108.436C65.5596 108.436 56.2975 117.163 55.5851 128.295H80.9665V116.54H93.6128C89.6942 111.642 83.6383 108.436 76.8699 108.436Z" fill="#58595B"/>
<path d="M76.87 149.313C87.6416 149.313 96.3736 140.581 96.3736 129.809C96.3736 119.038 87.6416 110.306 76.87 110.306C66.0984 110.306 57.3663 119.038 57.3663 129.809C57.3663 140.581 66.0984 149.313 76.87 149.313Z" fill="#6D6E70"/>
<path d="M76.8699 140.941C83.018 140.941 88.0021 135.957 88.0021 129.809C88.0021 123.661 83.018 118.677 76.8699 118.677C70.7217 118.677 65.7377 123.661 65.7377 129.809C65.7377 135.957 70.7217 140.941 76.8699 140.941Z" fill="#D0D2D3"/>
<path d="M76.8701 134.173C79.2801 134.173 81.2339 132.219 81.2339 129.809C81.2339 127.399 79.2801 125.445 76.8701 125.445C74.46 125.445 72.5062 127.399 72.5062 129.809C72.5062 132.219 74.46 134.173 76.8701 134.173Z" fill="white"/>
<path d="M158.714 124.822H200.215C197.989 115.471 189.528 108.436 179.465 108.436C169.401 108.436 160.941 115.382 158.714 124.822Z" fill="#58595B"/>
<path d="M179.464 149.313C190.236 149.313 198.968 140.581 198.968 129.809C198.968 119.038 190.236 110.306 179.464 110.306C168.693 110.306 159.961 119.038 159.961 129.809C159.961 140.581 168.693 149.313 179.464 149.313Z" fill="#6D6E70"/>
<path d="M179.464 140.941C185.612 140.941 190.596 135.957 190.596 129.809C190.596 123.661 185.612 118.677 179.464 118.677C173.316 118.677 168.332 123.661 168.332 129.809C168.332 135.957 173.316 140.941 179.464 140.941Z" fill="#D0D2D3"/>
<path d="M183.828 129.809C183.828 132.214 181.869 134.173 179.464 134.173C177.06 134.173 175.101 132.214 175.101 129.809C175.101 127.405 177.06 125.445 179.464 125.445C181.869 125.445 183.828 127.405 183.828 129.809Z" fill="white"/>
<path d="M214.731 43.2451H99.1343V107.278H214.731V43.2451Z" fill="#D0D2D3"/>
<path d="M103.676 45.1162H100.915V105.586H103.676V45.1162Z" fill="#BBBDBF"/>
<path d="M108.04 45.1152H105.279V105.585H108.04V45.1152Z" fill="#BBBDBF"/>
<path d="M112.404 45.1152H109.643V105.585H112.404V45.1152Z" fill="#BBBDBF"/>
<path d="M116.768 45.1152H114.007V105.585H116.768V45.1152Z" fill="#BBBDBF"/>
<path d="M121.132 45.1152H118.371V105.585H121.132V45.1152Z" fill="#BBBDBF"/>
<path d="M125.495 45.1152H122.734V105.585H125.495V45.1152Z" fill="#BBBDBF"/>
<path d="M129.859 45.1152H127.098V105.585H129.859V45.1152Z" fill="#BBBDBF"/>
<path d="M134.312 45.1152H131.551V105.585H134.312V45.1152Z" fill="#BBBDBF"/>
<path d="M138.676 45.1152H135.915V105.585H138.676V45.1152Z" fill="#BBBDBF"/>
<path d="M143.04 45.1152H140.279V105.585H143.04V45.1152Z" fill="#BBBDBF"/>
<path d="M147.404 45.1152H144.643V105.585H147.404V45.1152Z" fill="#BBBDBF"/>
<path d="M151.767 45.1152H149.007V105.585H151.767V45.1152Z" fill="#BBBDBF"/>
<path d="M156.131 45.1152H153.37V105.585H156.131V45.1152Z" fill="#BBBDBF"/>
<path d="M160.495 45.1152H157.734V105.585H160.495V45.1152Z" fill="#BBBDBF"/>
<path d="M164.859 45.1152H162.098V105.585H164.859V45.1152Z" fill="#BBBDBF"/>
<path d="M169.223 45.1152H166.462V105.585H169.223V45.1152Z" fill="#BBBDBF"/>
<path d="M173.586 45.1152H170.826V105.585H173.586V45.1152Z" fill="#BBBDBF"/>
<path d="M177.95 45.1152H175.189V105.585H177.95V45.1152Z" fill="#BBBDBF"/>
<path d="M182.314 45.1152H179.553V105.585H182.314V45.1152Z" fill="#BBBDBF"/>
<path d="M186.767 45.1152H184.006V105.585H186.767V45.1152Z" fill="#BBBDBF"/>
<path d="M191.131 45.1152H188.37V105.585H191.131V45.1152Z" fill="#BBBDBF"/>
<path d="M195.495 45.1152H192.734V105.585H195.495V45.1152Z" fill="#BBBDBF"/>
<path d="M199.859 45.1152H197.098V105.585H199.859V45.1152Z" fill="#BBBDBF"/>
<path d="M204.222 45.1152H201.461V105.585H204.222V45.1152Z" fill="#BBBDBF"/>
<path d="M208.586 45.1152H205.825V105.585H208.586V45.1152Z" fill="#BBBDBF"/>
<path d="M212.95 45.1152H210.189V105.585H212.95V45.1152Z" fill="#BBBDBF"/>
<path d="M169.551 155.629C169.551 155.564 169.551 155.5 169.572 155.435C170.711 151.548 176.789 149.1 176.789 149.1L179.216 149.228C180.697 152.622 180.569 154.727 180.375 155.65C180.375 155.672 180.354 155.693 180.354 155.736C178.356 155.865 174.233 155.994 169.551 155.629Z" fill="#0A3C5F"/>
<path d="M180.354 155.715C180.246 156.037 179.967 156.273 179.602 156.338C176.767 156.832 172.214 156.509 170.302 156.316C169.873 156.273 169.572 155.973 169.551 155.629C174.233 155.994 178.356 155.865 180.354 155.715Z" fill="url(#paint0_linear)"/>
<path d="M162.893 154.985C165.062 154.921 166.179 154.663 166.759 154.427C166.759 154.642 166.759 154.856 166.759 155.093C166.759 155.329 166.566 155.522 166.351 155.522L154.474 155.436C154.087 155.436 153.873 154.985 154.044 154.642C155.591 154.792 159.564 155.071 162.893 154.985Z" fill="url(#paint1_linear)"/>
<path d="M154.045 154.663C154.066 154.641 154.066 154.598 154.087 154.577C155.14 153.116 157.803 150.195 163.086 148.928L165.621 148.842C165.621 148.842 166.737 150.797 166.759 154.426C166.179 154.663 165.062 154.92 162.893 154.985C159.564 155.071 155.591 154.791 154.045 154.663Z" fill="url(#paint2_linear)"/>
<path d="M167.339 90.3177C167.339 90.3177 162.012 120.085 162.12 149.272C162.12 149.809 166.007 150.518 166.093 150.024C166.952 144.998 172.622 112.332 175.414 107.757C175.414 107.757 176.552 136.665 175.972 149.723C175.951 150.045 179.58 150.561 179.645 150.195C180.246 145.943 184.348 116.412 184.198 98.1998C184.198 97.1689 183.232 88.6211 183.232 88.6211C177.197 89.652 172.601 91.4775 167.339 90.3177Z" fill="url(#paint3_linear)"/>
<path d="M186.711 73.222C190.233 65.4688 190.598 60.0137 186.711 57.6942C186.475 57.6298 186.238 57.5868 186.002 57.5653C184.756 57.415 183.038 57.2002 181.062 56.921C181.062 56.921 181.062 56.921 181.041 56.921C180.762 56.8566 176.81 56.019 172.515 55.7398C168.391 55.4821 163.967 55.7613 162.163 57.7801C162.163 57.7801 160.939 60.8298 158.619 63.8581C155.312 68.1964 153.679 73.0502 151.961 72.1052C151.489 71.8475 151.145 70.1079 150.78 69.3347C149.534 69.485 147.022 69.8716 145.089 71.9334C146.528 79.751 151.295 82.9725 162.957 73.3938C165.17 79.6651 167.618 87.59 166.823 93.3244C166.759 93.8184 167.145 94.3338 167.639 94.4197C170.303 94.8063 178.721 95.8157 182.845 94.1835C183.081 94.0976 183.747 93.9687 183.747 93.6895C183.747 91.7995 183.253 84.2397 186.389 74.3388C186.539 73.9737 186.625 73.6086 186.711 73.222Z" fill="url(#paint4_linear)"/>
<path d="M178.893 49.4901L179.688 57.587C179.688 57.587 175.135 58.9615 171.806 56.6205L174.147 49.2539L178.893 49.4901Z" fill="#8F644A"/>
<path d="M171.162 42.5748C171.097 42.7251 170.882 52.6689 170.882 52.6689H176.574L178.184 43.262C178.184 43.2835 172.064 40.2338 171.162 42.5748Z" fill="#8F644A"/>
<path d="M176.23 44.4643C176.423 44.6361 176.509 44.8938 176.488 45.13L176.037 50.0697C176.037 50.1342 176.015 50.2201 175.994 50.2845C175.843 50.6711 175.264 51.8738 174.039 51.208C173.008 50.6496 172.042 50.1342 171.269 50.1127C170.818 50.0912 170.431 50.4563 170.431 50.9073C170.41 51.8523 170.41 53.7208 170.646 55.396C170.71 55.8255 171.076 56.1262 171.505 56.0833C172.622 56.0188 174.791 55.8041 176.552 55.2457C176.831 55.1598 177.046 54.902 177.111 54.6228C177.347 53.3127 178.034 49.6617 178.399 48.6522C178.721 47.7287 180.01 47.4066 180.611 47.2992C180.848 47.2563 181.041 47.1274 181.17 46.9341C181.556 46.3542 182.093 45.1086 180.59 44.1636C180.225 43.9273 180.117 43.4334 180.332 43.0468C180.74 42.381 181.041 41.3286 179.838 40.4266C178.635 39.5246 177.476 39.9541 176.767 40.4051C176.445 40.5984 176.037 40.5984 175.758 40.3407C175.629 40.2333 175.457 40.1689 175.242 40.2333C174.061 40.534 174.276 38.9017 173.674 38.3863C172.837 37.6776 171.913 38.7084 171.57 39.4816C171.376 39.9112 171.247 40.3622 171.033 40.7702C170.71 41.4145 170.195 41.9944 169.594 42.381C169.508 42.4454 169.4 42.5099 169.336 42.5958C169.272 42.7461 169.314 42.9179 169.422 43.0253C169.529 43.1542 169.68 43.2186 169.83 43.283C171.033 43.7985 172.278 43.8414 173.545 43.4334C174.619 43.1327 175.715 43.9703 176.23 44.4643Z" fill="url(#paint5_linear)"/>
<path d="M177.948 50.4351C177.948 50.4351 177.841 47.4927 179.022 47.0417C180.203 46.5907 181.642 47.2995 180.847 49.2324C179.86 51.6593 177.948 50.4351 177.948 50.4351Z" fill="#8F644A"/>
<path d="M169.336 42.3598C171.097 33.1247 184.22 36.9691 181.213 45.2377C176.66 43.8847 171.248 41.4792 169.336 42.3598Z" fill="#0091FF"/>
<path d="M176.939 43.6911L169.315 45.7743C169.121 45.8173 168.907 45.7743 168.778 45.6455C167.725 44.6361 166.501 44.1636 165.127 44.1206C164.955 44.1206 164.912 43.8844 165.084 43.8199L169.615 42.0803C169.615 42.0803 169.615 42.0803 169.637 42.0803C171.999 41.5434 174.469 42.2951 176.982 43.5193C177.046 43.5622 177.025 43.6696 176.939 43.6911Z" fill="#0091FF"/>
<path d="M162.249 86.4302C161.368 85.1846 162.034 84.3685 162.034 84.3685C166.523 82.7577 172.944 82.8866 177.819 76.7871C179.795 77.8395 178.206 78.4623 180.375 81.6194C170.152 88.1699 162.249 86.4302 162.249 86.4302Z" fill="#8F644A"/>
<path d="M182.974 63.4288C182.909 70.7739 180.59 76.3794 169.572 82.0923L171.827 85.593C177.197 85.099 186.646 77.9257 189.503 72.5994C190.212 71.2894 191.178 67.1658 191.028 64.2449C190.727 58.2744 184.563 52.7977 182.974 63.4288Z" fill="url(#paint6_linear)"/>
<path d="M162.335 86.3875C159.65 87.3755 157.803 85.7647 156.6 84.0251C159.113 83.7459 160.702 83.7029 162.764 84.111L162.335 86.3875Z" fill="#8F644A"/>
<path d="M140.385 67.6596C141.072 67.4878 142.597 65.4046 142.769 66.1778C142.941 66.9294 142.468 67.8959 142.533 68.2181C142.597 68.5402 143.113 70.3443 142.705 71.1174C142.404 71.6758 141.824 73.394 141.523 74.296C141.416 74.5967 141.352 75.0047 141.029 74.9618C140.707 74.9188 140.471 74.4893 140.428 74.1886C140.428 74.0598 139.698 67.8315 140.385 67.6596Z" fill="#8F644A"/>
<path d="M178.394 64.3325H153.69V84.6988H178.394V64.3325Z" fill="#ED823A"/>
<path d="M166.029 64.333H141.325V84.6993H166.029V64.333Z" fill="#FF9E55"/>
<path d="M178.394 79.5264H174.488L174.811 78.4219L174.488 77.6406H178.394V79.5264Z" fill="#DD732C"/>
<path d="M166.055 70.6367H162.122L162.473 69.5322L162.122 68.751H166.055V70.6367Z" fill="#FFB27D"/>
<path d="M166.056 68.751H169.962L169.612 69.8286L169.962 70.6367H166.056V68.751Z" fill="#DD732C"/>
<path d="M141.325 79.7422H145.258L144.908 80.8467L145.258 81.6279H141.325V79.7422Z" fill="#FFB27D"/>
<path d="M142.964 68.4668H150.076V65.6921H142.964V68.4668Z" fill="white"/>
<path d="M112.68 155.973C114.957 156.166 118.887 156.488 122.001 156.617C123.869 156.703 124.943 156.51 125.566 156.273C125.566 156.338 125.566 156.402 125.566 156.467C125.545 156.789 125.287 157.046 124.965 157.068C119.102 157.39 114.42 157.175 112.766 157.089C112.422 157.068 112.208 156.703 112.401 156.402C112.465 156.252 112.573 156.102 112.68 155.973Z" fill="url(#paint7_linear)"/>
<path d="M122.001 156.617C118.887 156.488 114.957 156.166 112.68 155.973C114.914 153.245 122.001 151.398 122.001 151.398H123.998C125.373 153.374 125.566 155.264 125.566 156.295C124.943 156.509 123.87 156.703 122.001 156.617Z" fill="url(#paint8_linear)"/>
<path d="M124.321 148.112L124.127 151.806C124.106 152.214 123.805 152.536 123.397 152.6C122.989 152.665 122.452 152.665 121.894 152.472C121.55 152.364 121.292 152.064 121.228 151.698L120.584 148.09H124.321V148.112Z" fill="url(#paint9_linear)"/>
<path d="M147.559 160.225C148.546 160.053 148.997 159.387 149.169 158.679V158.7C149.32 159.452 148.976 160.225 148.31 160.59C147.494 161.041 146.614 161.106 145.926 161.063C145.196 161.02 144.509 160.633 144.144 159.989C144.874 160.483 145.905 160.526 147.559 160.225Z" fill="url(#paint10_linear)"/>
<path d="M142.898 149.25H144.552C147.065 149.186 148.632 156.037 149.169 158.679C148.976 159.388 148.547 160.053 147.559 160.225C145.926 160.526 144.874 160.461 144.144 159.989C142.791 157.669 142.103 154.298 141.781 152.322C141.395 150.088 142.898 149.25 142.898 149.25Z" fill="url(#paint11_linear)"/>
<path d="M144.337 145.813L145.261 149.465C145.368 149.916 145.153 150.367 144.745 150.581C144.23 150.839 143.521 151.118 142.855 151.032C142.533 150.989 142.275 150.775 142.189 150.474L140.836 146.651L144.337 145.813Z" fill="url(#paint12_linear)"/>
<path d="M112.122 97.8346C112.122 97.8346 120.304 149.014 120.176 149.293C120.176 149.293 122.431 150.324 124.9 149.422C124.9 149.422 124.17 122.061 122.431 111.58C122.431 111.58 136.412 136.021 140.836 148.219C140.836 148.219 143.156 147.94 145.067 146.673C145.067 146.673 130.033 102.667 126.017 96.8037L112.122 97.8346Z" fill="url(#paint13_linear)"/>
<path d="M110.833 62.0966C110.253 62.1396 109.673 62.247 109.115 62.4402C103.123 64.5235 98.3979 63.9866 94.7898 62.3543C93.9522 63.4711 92.5992 65.7907 92.0193 69.678C98.6127 74.5747 106.903 73.2861 109.609 72.6847C108.9 77.9466 108.9 86.2796 111.8 98.5C111.885 98.8221 112.143 99.0584 112.487 99.0799C114.334 99.2302 120.541 99.5953 126.49 98.2637C126.747 98.1993 126.898 97.9201 126.79 97.6624L126.726 97.5335C126.232 96.3738 126.017 95.1066 126.082 93.8395C126.296 89.9951 127.327 81.297 129.539 75.3479C129.668 75.5626 129.797 75.7774 129.905 75.9922C130.313 72.0834 131.795 68.2175 132.868 64.3302C124.235 61.5812 113.969 61.9248 110.833 62.0966Z" fill="url(#paint14_linear)"/>
<path d="M124.299 54.9883C124.299 54.9883 124.9 61.3669 125.437 63.2569C125.523 63.5361 125.394 63.8368 125.137 63.9871C124.235 64.5026 122.065 65.3402 119.123 63.9012C118.651 63.665 118.35 63.171 118.371 62.6341L118.629 56.4702L124.299 54.9883Z" fill="url(#paint15_linear)"/>
<path d="M118.5 46.8267C118.5 46.8267 116.567 51.2509 116.438 53.5919C116.31 55.9114 115.816 57.4363 118.5 57.8873C121.185 58.3598 123.461 57.0067 124.686 54.7087C124.686 54.7087 126.619 51.1435 126.168 49.6831C125.738 48.2012 118.5 46.8267 118.5 46.8267Z" fill="url(#paint16_linear)"/>
<path d="M123.762 53.0334L123.612 52.969C123.418 52.8831 123.332 52.6468 123.44 52.4535C123.826 51.7233 124.557 50.0481 123.612 49.6401C122.71 49.275 121.743 49.0602 120.82 48.7595C119.961 48.4803 118.285 48.2011 117.856 47.2991C117.727 47.0414 117.877 46.7192 118.006 46.4615C118.264 45.989 118.522 45.495 118.801 45.0225C119.016 44.6145 119.252 44.2064 119.595 43.9057C120.412 43.2185 121.357 43.8198 122.259 43.9916C125.566 44.6145 127.778 45.946 127.821 48.2441C127.821 48.3944 127.972 48.4803 128.1 48.3944C128.337 48.2441 128.745 48.1796 129.26 48.6092C130.162 49.3823 129.797 51.3582 127.8 52.9905C127.714 53.0764 127.714 53.2267 127.8 53.2911C128.165 53.5274 128.702 54.0858 127.306 54.8375C125.867 55.6106 124.771 55.5462 124.363 55.4818C124.256 55.4603 124.192 55.3744 124.213 55.267L124.664 53.2482C124.686 53.1408 124.6 53.0334 124.492 53.0334H123.762Z" fill="url(#paint17_linear)"/>
<path d="M123.676 53.4631C123.676 53.4631 124.406 50.6281 125.674 51.4227C126.941 52.2174 125.008 54.6013 123.998 54.7087L123.676 53.4631Z" fill="url(#paint18_linear)"/>
<path d="M116.89 47.5783C120.047 38.2358 133.126 44.1205 128.809 52.2602C124.299 50.2199 119.016 46.9339 116.89 47.5783Z" fill="#0091FF"/>
<path d="M124.621 50.07L116.396 51.1438C116.181 51.1653 115.988 51.0794 115.837 50.9291C114.892 49.7263 113.668 49.0606 112.251 48.8028C112.079 48.7814 112.057 48.5236 112.251 48.4807L117.212 47.3209H117.233C119.767 47.1062 122.216 48.2444 124.664 49.8767C124.729 49.9196 124.707 50.0485 124.621 50.07Z" fill="#0091FF"/>
<path d="M91.6971 65.9415C92.32 65.7911 93.716 63.9011 93.8663 64.5884C94.0166 65.2757 93.5871 66.1562 93.6515 66.4354C93.716 66.7361 94.1884 68.3683 93.8019 69.0556C93.5227 69.5496 93.0072 71.1174 92.728 71.955C92.6421 72.2342 92.5562 72.5993 92.277 72.5563C91.9978 72.5134 91.7616 72.1268 91.7401 71.8476C91.7401 71.7402 91.0743 66.0918 91.6971 65.9415Z" fill="url(#paint19_linear)"/>
<path d="M136.197 68.2603C135.424 66.4992 132.997 64.373 132.868 64.3301C131.816 68.2174 129.947 71.4174 129.539 75.3477C132.16 80.1585 131.558 85.807 129.926 88.5775C130.721 89.7802 131.666 91.391 132.482 93.4098C142.533 87.3748 138.56 73.6725 136.197 68.2603Z" fill="url(#paint20_linear)"/>
<path d="M123.29 97.7488L114.591 97.5555C114.591 97.5555 122.173 95.4078 122.645 95.9877C122.645 95.9877 127.349 92.895 129.926 88.5566C130.721 89.7593 131.666 91.3701 132.482 93.3889C130.184 94.7635 127.134 97.1045 123.29 97.7488Z" fill="url(#paint21_linear)"/>
<path d="M123.547 96.2451C123.547 96.2451 123.719 99.7029 119.166 99.2089C116.696 98.9297 112.702 96.6317 112.702 96.6317C112.702 96.6317 123.118 96.6102 123.547 96.2451Z" fill="#F9B776"/>
<path d="M93.2059 96.6035H133.592V62.8813L93.2059 62.8813V96.6035Z" fill="#C3DAFC"/>
<path d="M99.5953 96.6035H133.672V62.8813L99.5953 62.8813V96.6035Z" fill="#D4E4F8"/>
<path d="M93.2257 88.0552H99.6464L99.0799 86.2207L99.6464 84.9258H93.2257V88.0552Z" fill="#2A4E96"/>
<path d="M113.405 73.3257H119.799L119.232 71.4912L119.799 70.1963H113.405V73.3257Z" fill="#618DC1"/>
<path d="M113.405 70.1963H107.011L107.578 72.0038L107.011 73.3257H113.405V70.1963Z" fill="#2A4E96"/>
<path d="M133.677 88.7944H127.283L127.85 90.6289L127.283 91.9239H133.677V88.7944Z" fill="#618DC1"/>
<path d="M133.586 65.7212H121.959V70.3074H133.586V65.7212Z" fill="white"/>
<defs>
<linearGradient id="paint0_linear" x1="152.714" y1="142.478" x2="185.956" y2="174.449" gradientUnits="userSpaceOnUse">
<stop stop-color="#53D8FF"/>
<stop offset="1" stop-color="#3840F7"/>
</linearGradient>
<linearGradient id="paint1_linear" x1="151.315" y1="150.94" x2="176.56" y2="161.853" gradientUnits="userSpaceOnUse">
<stop stop-color="#53D8FF"/>
<stop offset="0.8472" stop-color="#3C57F8"/>
<stop offset="1" stop-color="#3840F7"/>
</linearGradient>
<linearGradient id="paint2_linear" x1="165.827" y1="153.733" x2="139.343" y2="145" gradientUnits="userSpaceOnUse">
<stop stop-color="#2B3582"/>
<stop offset="1" stop-color="#150E42"/>
</linearGradient>
<linearGradient id="paint3_linear" x1="204.487" y1="47.8834" x2="152.946" y2="168.202" gradientUnits="userSpaceOnUse">
<stop stop-color="#2B3582"/>
<stop offset="0.5464" stop-color="#1F205F"/>
<stop offset="1" stop-color="#150E42"/>
</linearGradient>
<linearGradient id="paint4_linear" x1="231.353" y1="27.0321" x2="185.327" y2="65.4148" gradientUnits="userSpaceOnUse">
<stop stop-color="#FDF53F"/>
<stop offset="1" stop-color="#D93C65"/>
</linearGradient>
<linearGradient id="paint5_linear" x1="180.068" y1="49.9726" x2="168.261" y2="45.4254" gradientUnits="userSpaceOnUse">
<stop stop-color="#2B3582"/>
<stop offset="1" stop-color="#150E42"/>
</linearGradient>
<linearGradient id="paint6_linear" x1="224.957" y1="28.5127" x2="191.128" y2="62.0162" gradientUnits="userSpaceOnUse">
<stop stop-color="#FDF53F"/>
<stop offset="1" stop-color="#D93C65"/>
</linearGradient>
<linearGradient id="paint7_linear" x1="125.554" y1="156.603" x2="112.305" y2="156.603" gradientUnits="userSpaceOnUse">
<stop stop-color="#53D8FF"/>
<stop offset="1" stop-color="#3840F7"/>
</linearGradient>
<linearGradient id="paint8_linear" x1="125.555" y1="154.006" x2="112.679" y2="154.006" gradientUnits="userSpaceOnUse">
<stop stop-color="#2B3582"/>
<stop offset="1" stop-color="#150E42"/>
</linearGradient>
<linearGradient id="paint9_linear" x1="124.331" y1="150.381" x2="120.599" y2="150.381" gradientUnits="userSpaceOnUse">
<stop stop-color="#F9B776"/>
<stop offset="1" stop-color="#F47960"/>
</linearGradient>
<linearGradient id="paint10_linear" x1="149.201" y1="159.888" x2="144.124" y2="159.888" gradientUnits="userSpaceOnUse">
<stop stop-color="#53D8FF"/>
<stop offset="1" stop-color="#3840F7"/>
</linearGradient>
<linearGradient id="paint11_linear" x1="149.164" y1="154.836" x2="141.712" y2="154.836" gradientUnits="userSpaceOnUse">
<stop stop-color="#2B3582"/>
<stop offset="1" stop-color="#150E42"/>
</linearGradient>
<linearGradient id="paint12_linear" x1="145.291" y1="148.435" x2="140.831" y2="148.435" gradientUnits="userSpaceOnUse">
<stop stop-color="#F9B776"/>
<stop offset="1" stop-color="#F47960"/>
</linearGradient>
<linearGradient id="paint13_linear" x1="109.216" y1="100.306" x2="147.294" y2="162.682" gradientUnits="userSpaceOnUse">
<stop stop-color="#2B3582"/>
<stop offset="0.5464" stop-color="#1F205F"/>
<stop offset="1" stop-color="#150E42"/>
</linearGradient>
<linearGradient id="paint14_linear" x1="188.37" y1="11.1493" x2="131.895" y2="61.4232" gradientUnits="userSpaceOnUse">
<stop stop-color="#FDF53F"/>
<stop offset="1" stop-color="#D93C65"/>
</linearGradient>
<linearGradient id="paint15_linear" x1="123.318" y1="69.3429" x2="121.386" y2="59.1974" gradientUnits="userSpaceOnUse">
<stop stop-color="#F9B776"/>
<stop offset="1" stop-color="#F47960"/>
</linearGradient>
<linearGradient id="paint16_linear" x1="118.089" y1="50.7287" x2="129.115" y2="59.1652" gradientUnits="userSpaceOnUse">
<stop stop-color="#F9B776"/>
<stop offset="1" stop-color="#F47960"/>
</linearGradient>
<linearGradient id="paint17_linear" x1="126.996" y1="44.9384" x2="116.727" y2="58.1596" gradientUnits="userSpaceOnUse">
<stop stop-color="#2B3582"/>
<stop offset="1" stop-color="#150E42"/>
</linearGradient>
<linearGradient id="paint18_linear" x1="119.457" y1="48.9413" x2="130.483" y2="57.3779" gradientUnits="userSpaceOnUse">
<stop stop-color="#F9B776"/>
<stop offset="1" stop-color="#F47960"/>
</linearGradient>
<linearGradient id="paint19_linear" x1="96.0883" y1="57.378" x2="79.7783" y2="106.304" gradientUnits="userSpaceOnUse">
<stop stop-color="#F9B776"/>
<stop offset="1" stop-color="#F47960"/>
</linearGradient>
<linearGradient id="paint20_linear" x1="197.462" y1="21.3617" x2="140.987" y2="71.6355" gradientUnits="userSpaceOnUse">
<stop stop-color="#FDF53F"/>
<stop offset="1" stop-color="#D93C65"/>
</linearGradient>
<linearGradient id="paint21_linear" x1="114.652" y1="81.65" x2="120.979" y2="91.1405" gradientUnits="userSpaceOnUse">
<stop stop-color="#F9B776"/>
<stop offset="1" stop-color="#F47960"/>
</linearGradient>
</defs>
</svg>
