<svg width="360" height="169" viewBox="0 0 360 169" fill="none" xmlns="http://www.w3.org/2000/svg">
<path d="M318.889 7.6877C292.456 -7.41916 269.046 5.0177 257.335 18.2609C245.624 31.5041 236.899 44.8808 222.198 47.3372C207.497 49.7936 185.192 43.5618 168.574 55.2671C151.956 66.9724 152.02 98.0619 165.177 115.689C178.335 133.317 212.378 141.743 251.653 147.409C265.746 149.543 280.128 148.745 293.898 145.065L311.739 138.587C320.454 134.609 327.759 130.129 333.943 126.492C343.352 120.938 346.668 107.402 348.468 97.4851C351.08 82.6252 350.853 67.4048 347.8 52.6291C343.859 34.0139 334.872 16.8138 318.889 7.6877Z" fill="#0091FF"/>
<path opacity="0.8" d="M318.889 7.6877C292.456 -7.41916 269.046 5.0177 257.335 18.2609C245.624 31.5041 236.899 44.8808 222.198 47.3372C207.497 49.7936 185.192 43.5618 168.574 55.2671C151.956 66.9724 152.02 98.0619 165.177 115.689C178.335 133.317 212.378 141.743 251.653 147.409C265.746 149.543 280.128 148.745 293.898 145.065L311.739 138.587C320.454 134.609 327.759 130.129 333.943 126.492C343.352 120.938 346.668 107.402 348.468 97.4851C351.08 82.6252 350.853 67.4048 347.8 52.6291C343.859 34.0139 334.872 16.8138 318.889 7.6877Z" fill="white"/>
<path opacity="0.8" d="M359.297 26.1905C358.699 16.3222 351.96 13.0861 347.688 17.7853C346.673 18.9316 345.993 20.3352 345.723 21.8423C345.452 23.3493 345.602 24.9017 346.155 26.3293C347.656 30.3824 350.235 37.5754 351.773 43.2037C354.037 51.5128 353.279 57.9315 355.922 54.5352C358.566 51.139 360.05 38.6541 359.297 26.1905Z" fill="#0091FF"/>
<path opacity="0.8" d="M359.297 26.1905C358.699 16.3222 351.96 13.0861 347.688 17.7853C346.673 18.9316 345.993 20.3352 345.723 21.8423C345.452 23.3493 345.602 24.9017 346.155 26.3293C347.656 30.3824 350.235 37.5754 351.773 43.2037C354.037 51.5128 353.279 57.9315 355.922 54.5352C358.566 51.139 360.05 38.6541 359.297 26.1905Z" fill="white"/>
<path d="M245.256 24.6795C249.405 23.9266 254.692 14.1063 261.49 9.9518C268.288 5.79729 262.248 2.77485 255.84 5.79729C255.84 5.79729 250.927 6.92937 247.152 14.4855C243.376 22.0416 241.102 25.4325 245.256 24.6795Z" fill="#0091FF"/>
<path opacity="0.8" d="M245.256 24.6795C249.405 23.9266 254.692 14.1063 261.49 9.9518C268.288 5.79729 262.248 2.77485 255.84 5.79729C255.84 5.79729 250.927 6.92937 247.152 14.4855C243.376 22.0416 241.102 25.4325 245.256 24.6795Z" fill="white"/>
<path d="M238.458 19.393C241.828 18.042 245.502 8.86783 241.662 9.33775C241.177 9.40808 240.718 9.60229 240.33 9.90161C239.942 10.2009 239.638 10.5953 239.446 11.0466C238.218 13.7753 235.425 20.6052 238.458 19.393Z" fill="#0091FF"/>
<path opacity="0.8" d="M238.458 19.393C241.828 18.042 245.502 8.86783 241.662 9.33775C241.177 9.40808 240.718 9.60229 240.33 9.90161C239.942 10.2009 239.638 10.5953 239.446 11.0466C238.218 13.7753 235.425 20.6052 238.458 19.393Z" fill="white"/>
<path d="M189.033 160.188C248.702 160.188 297.072 158.39 297.072 156.172C297.072 153.954 248.702 152.156 189.033 152.156C129.365 152.156 80.9944 153.954 80.9944 156.172C80.9944 158.39 129.365 160.188 189.033 160.188Z" fill="#0091FF"/>
<path opacity="0.8" d="M189.033 160.188C248.702 160.188 297.072 158.39 297.072 156.172C297.072 153.954 248.702 152.156 189.033 152.156C129.365 152.156 80.9944 153.954 80.9944 156.172C80.9944 158.39 129.365 160.188 189.033 160.188Z" fill="white"/>
<path d="M32.3117 88.6152C32.3117 88.6152 44.3 72.2054 38.4527 68.3232C32.3705 64.3128 29.5136 76.4614 28.2266 82.4261C25.4819 95.1567 26.2562 97.8587 28.0985 95.0606L32.3117 88.6152Z" fill="#0091FF"/>
<path opacity="0.5" d="M32.3117 88.6152C32.3117 88.6152 44.3 72.2054 38.4527 68.3232C32.3705 64.3128 29.5136 76.4614 28.2266 82.4261C25.4819 95.1567 26.2562 97.8587 28.0985 95.0606L32.3117 88.6152Z" fill="white"/>
<path d="M36.808 98.7081C36.808 98.7081 53.4741 87.0776 49.1968 81.5347C44.7485 75.7621 38.1002 86.3407 34.9443 91.5525C28.2106 102.702 28.0717 105.511 30.7204 103.461L36.808 98.7081Z" fill="#0091FF"/>
<path opacity="0.5" d="M36.808 98.7081C36.808 98.7081 53.4741 87.0776 49.1968 81.5347C44.7485 75.7621 38.1002 86.3407 34.9443 91.5525C28.2106 102.702 28.0717 105.511 30.7204 103.461L36.808 98.7081Z" fill="white"/>
<path d="M37.1711 112.197C37.1711 112.197 51.5891 105.72 49.1274 100.86C46.5642 95.8032 39.9479 102.916 36.7813 106.451C30.0155 114.002 29.5029 116.127 31.8258 114.947L37.1711 112.197Z" fill="#0091FF"/>
<path opacity="0.5" d="M37.1711 112.197C37.1711 112.197 51.5891 105.72 49.1274 100.86C46.5642 95.8032 39.9479 102.916 36.7813 106.451C30.0155 114.002 29.5029 116.127 31.8258 114.947L37.1711 112.197Z" fill="white"/>
<path d="M38.0255 125.744C38.0255 125.744 52.4435 119.267 49.9871 114.408C47.4186 109.356 40.8077 116.464 37.6357 120.004C30.8753 127.555 30.3573 129.68 32.6855 128.495L38.0255 125.744Z" fill="#0091FF"/>
<path opacity="0.5" d="M38.0255 125.744C38.0255 125.744 52.4435 119.267 49.9871 114.408C47.4186 109.356 40.8077 116.464 37.6357 120.004C30.8753 127.555 30.3573 129.68 32.6855 128.495L38.0255 125.744Z" fill="white"/>
<path d="M21.1138 95.472C21.1138 95.472 5.26465 82.7468 1.14751 88.4072C-3.12449 94.2812 8.86915 97.7148 14.7699 99.2741C27.3616 102.601 30.0956 101.944 27.3829 99.979L21.1138 95.472Z" fill="#0091FF"/>
<path opacity="0.5" d="M21.1138 95.472C21.1138 95.472 5.26465 82.7468 1.14751 88.4072C-3.12449 94.2812 8.86915 97.7148 14.7699 99.2741C27.3616 102.601 30.0956 101.944 27.3829 99.979L21.1138 95.472Z" fill="white"/>
<path d="M21.5837 106.104C21.5837 106.104 3.5238 96.78 0.613505 103.151C-2.41427 109.778 10.0279 110.739 16.0995 111.091C29.1024 111.849 31.6549 110.664 28.6058 109.276L21.5837 106.104Z" fill="#0091FF"/>
<path opacity="0.5" d="M21.5837 106.104C21.5837 106.104 3.5238 96.78 0.613505 103.151C-2.41427 109.778 10.0279 110.739 16.0995 111.091C29.1024 111.849 31.6549 110.664 28.6058 109.276L21.5837 106.104Z" fill="white"/>
<path d="M23.7678 118.023C23.7678 118.023 8.28175 110.547 5.96953 116.01C3.56119 121.686 14.1024 122.21 19.2661 122.364C30.2772 122.706 32.4079 121.638 29.7966 120.57L23.7678 118.023Z" fill="#0091FF"/>
<path opacity="0.5" d="M23.7678 118.023C23.7678 118.023 8.28175 110.547 5.96953 116.01C3.56119 121.686 14.1024 122.21 19.2661 122.364C30.2772 122.706 32.4079 121.638 29.7966 120.57L23.7678 118.023Z" fill="white"/>
<path d="M24.526 127.651C24.526 127.651 9.91575 118.573 7.03749 123.758C4.04175 129.146 14.4708 130.786 19.5865 131.49C30.5015 132.996 32.7282 132.169 30.2665 130.796L24.526 127.651Z" fill="#0091FF"/>
<path opacity="0.5" d="M24.526 127.651C24.526 127.651 9.91575 118.573 7.03749 123.758C4.04175 129.146 14.4708 130.786 19.5865 131.49C30.5015 132.996 32.7282 132.169 30.2665 130.796L24.526 127.651Z" fill="white"/>
<path d="M23.143 79.3503C23.143 79.3503 20.3983 55.5179 11.395 57.953C2.04469 60.4948 9.87312 72.5525 13.8461 78.3838C22.2886 90.794 25.3965 92.161 24.729 88.2842L23.143 79.3503Z" fill="#0091FF"/>
<path opacity="0.5" d="M23.143 79.3503C23.143 79.3503 20.3983 55.5179 11.395 57.953C2.04469 60.4948 9.87312 72.5525 13.8461 78.3838C22.2886 90.794 25.3965 92.161 24.729 88.2842L23.143 79.3503Z" fill="white"/>
<path d="M13.2373 66.6357C13.2373 66.6357 26.9397 92.3105 29.0651 104.229C31.5108 117.921 31.9059 133.215 30.2185 145.198" stroke="#0091FF" stroke-width="1.25197" stroke-linecap="round" stroke-linejoin="round"/>
<path d="M26.9023 96.2997L33.6147 75.7407" stroke="#0091FF" stroke-width="1.25197" stroke-linecap="round" stroke-linejoin="round"/>
<path d="M29.0651 104.23L41.6995 88.3433" stroke="#0091FF" stroke-width="1.25197" stroke-linecap="round" stroke-linejoin="round"/>
<path d="M28.2587 101.34L9.96387 93.6562" stroke="#0091FF" stroke-width="1.25197" stroke-linecap="round" stroke-linejoin="round"/>
<path d="M30.651 114.99L44.4068 104.449" stroke="#0091FF" stroke-width="1.25197" stroke-linecap="round" stroke-linejoin="round"/>
<path d="M29.9194 110.467L15.5494 107.477" stroke="#0091FF" stroke-width="1.25197" stroke-linecap="round" stroke-linejoin="round"/>
<path d="M30.6083 121.472L19.4797 119.71" stroke="#0091FF" stroke-width="1.25197" stroke-linecap="round" stroke-linejoin="round"/>
<path d="M31.5481 128.596L39.0348 121.889" stroke="#0091FF" stroke-width="1.25197" stroke-linecap="round" stroke-linejoin="round"/>
<path d="M31.3986 131.613L18.6093 128.398" stroke="#0091FF" stroke-width="1.25197" stroke-linecap="round" stroke-linejoin="round"/>
<path d="M21.9254 135.527H37.043V138.657H35.724L32.9952 155.729H25.9731L23.2444 138.657H21.9254V135.527Z" fill="#0091FF"/>
<path opacity="0.5" d="M21.9254 135.527H37.043V138.657H35.724L32.9952 155.729H25.9731L23.2444 138.657H21.9254V135.527Z" fill="white"/>
<path d="M75 126H285.923V117.667H295V106H75V126Z" fill="#6D6E70"/>
<path d="M78.8775 129.295H42.8982C42.8982 129.295 38 124.575 38 118.876C38 113.265 38 97.858 41.3842 88.596C44.7684 79.3339 61.2441 58.5835 67.3 56.0899C73.2669 53.5963 95.3532 54.5759 95.3532 54.5759C95.3532 58.1382 95.3532 117.451 95.3532 117.451H78.8775V129.295Z" fill="#0292FF"/>
<path d="M86.1803 61.3442C79.6791 60.8099 70.9514 60.3646 66.6767 65.619C62.4019 70.8734 55.8116 79.8682 54.4757 83.0743C53.1399 86.2804 54.1195 91.802 58.2162 91.802C62.4019 91.802 74.4247 91.802 78.7885 91.802C83.1523 91.802 86.1803 90.8223 86.1803 86.8147C86.1803 82.8071 86.1803 61.3442 86.1803 61.3442Z" fill="#66CDF5"/>
<path d="M84.8444 98.8377H75.9386C75.2262 98.8377 74.6028 98.2143 74.6028 97.5019C74.6028 96.7894 75.2262 96.166 75.9386 96.166H84.8444C85.5569 96.166 86.1803 96.7894 86.1803 97.5019C86.1803 98.2143 85.5569 98.8377 84.8444 98.8377Z" fill="#404041"/>
<path d="M44.6794 105.517C41.9186 105.517 38.4453 105.517 38.4453 105.517C38.0891 110.148 38.0891 114.423 38.0891 117.362C46.7277 114.156 47.2621 105.517 44.6794 105.517Z" fill="#FFF100"/>
<path d="M42.3637 120.657H40.1373C39.5139 120.657 39.0686 120.212 39.0686 119.588C39.0686 118.965 39.5139 118.52 40.1373 118.52H42.3637C42.9871 118.52 43.4324 118.965 43.4324 119.588C43.4324 120.212 42.8981 120.657 42.3637 120.657Z" fill="#FFF100"/>
<path d="M42.8981 129.295H75.5823L73.623 122.26H38.6233C39.8701 126.356 42.8981 129.295 42.8981 129.295Z" fill="#0072C8"/>
<path d="M86.1803 61.3443C84.6663 61.2553 82.9742 61.0771 81.2821 61.0771L54.8319 89.7537C55.5444 91.0006 56.7021 91.8911 58.3052 91.8911C59.4629 91.8911 61.155 91.8911 63.2033 91.8911L86.2693 66.2425C86.1803 63.3036 86.1803 61.3443 86.1803 61.3443Z" fill="white"/>
<path d="M69.3484 91.802L86.1803 72.2093C86.1803 71.1406 86.1803 70.0719 86.1803 69.0923L66.1423 91.802C67.211 91.802 68.2797 91.802 69.3484 91.802Z" fill="white"/>
<path d="M106.895 117.272H76.8826V128.85H106.895V117.272Z" fill="#929497"/>
<path d="M106.895 125.199H76.8826V128.939H106.895V125.199Z" fill="#808184"/>
<path d="M106.895 117.272H76.8826V121.903H106.895V117.272Z" fill="#BBBDBF"/>
<path d="M74.8699 109.436C63.5596 109.436 54.2975 118.163 53.5851 129.295H78.9665V117.54H91.6128C87.6942 112.642 81.6383 109.436 74.8699 109.436Z" fill="#58595B"/>
<path d="M74.87 150.313C85.6416 150.313 94.3736 141.581 94.3736 130.809C94.3736 120.038 85.6416 111.306 74.87 111.306C64.0984 111.306 55.3663 120.038 55.3663 130.809C55.3663 141.581 64.0984 150.313 74.87 150.313Z" fill="#6D6E70"/>
<path d="M74.8699 141.941C81.018 141.941 86.0021 136.957 86.0021 130.809C86.0021 124.661 81.018 119.677 74.8699 119.677C68.7217 119.677 63.7377 124.661 63.7377 130.809C63.7377 136.957 68.7217 141.941 74.8699 141.941Z" fill="#D0D2D3"/>
<path d="M74.8701 135.173C77.2801 135.173 79.2339 133.219 79.2339 130.809C79.2339 128.399 77.2801 126.445 74.8701 126.445C72.46 126.445 70.5062 128.399 70.5062 130.809C70.5062 133.219 72.46 135.173 74.8701 135.173Z" fill="white"/>
<path d="M201 125.387H242.501C240.274 116.036 231.814 109 221.75 109C211.687 109 203.226 115.947 201 125.387Z" fill="#58595B"/>
<path d="M101 125.387H142.501C140.274 116.036 131.814 109 121.75 109C111.687 109 103.226 115.947 101 125.387Z" fill="#58595B"/>
<path d="M242 125.387H283.501C281.274 116.036 272.814 109 262.75 109C252.687 109 244.226 115.947 242 125.387Z" fill="#58595B"/>
<path d="M221.75 149.877C232.522 149.877 241.254 141.145 241.254 130.374C241.254 119.602 232.522 110.87 221.75 110.87C210.979 110.87 202.247 119.602 202.247 130.374C202.247 141.145 210.979 149.877 221.75 149.877Z" fill="#6D6E70"/>
<path d="M221.75 141.506C227.898 141.506 232.882 136.522 232.882 130.374C232.882 124.226 227.898 119.242 221.75 119.242C215.602 119.242 210.618 124.226 210.618 130.374C210.618 136.522 215.602 141.506 221.75 141.506Z" fill="#D0D2D3"/>
<path d="M226.114 130.374C226.114 132.778 224.155 134.737 221.75 134.737C219.346 134.737 217.386 132.778 217.386 130.374C217.386 127.969 219.346 126.01 221.75 126.01C224.155 126.01 226.114 127.969 226.114 130.374Z" fill="white"/>
<path d="M121.75 149.877C132.522 149.877 141.254 141.145 141.254 130.374C141.254 119.602 132.522 110.87 121.75 110.87C110.979 110.87 102.247 119.602 102.247 130.374C102.247 141.145 110.979 149.877 121.75 149.877Z" fill="#6D6E70"/>
<path d="M121.75 141.506C127.898 141.506 132.882 136.522 132.882 130.374C132.882 124.226 127.898 119.242 121.75 119.242C115.602 119.242 110.618 124.226 110.618 130.374C110.618 136.522 115.602 141.506 121.75 141.506Z" fill="#D0D2D3"/>
<path d="M126.114 130.374C126.114 132.778 124.155 134.737 121.75 134.737C119.346 134.737 117.386 132.778 117.386 130.374C117.386 127.969 119.346 126.01 121.75 126.01C124.155 126.01 126.114 127.969 126.114 130.374Z" fill="white"/>
<path d="M262.75 149.877C273.522 149.877 282.254 141.145 282.254 130.374C282.254 119.602 273.522 110.87 262.75 110.87C251.979 110.87 243.247 119.602 243.247 130.374C243.247 141.145 251.979 149.877 262.75 149.877Z" fill="#6D6E70"/>
<path d="M262.75 141.506C268.898 141.506 273.882 136.522 273.882 130.374C273.882 124.226 268.898 119.242 262.75 119.242C256.602 119.242 251.618 124.226 251.618 130.374C251.618 136.522 256.602 141.506 262.75 141.506Z" fill="#D0D2D3"/>
<path d="M267.114 130.374C267.114 132.778 265.155 134.737 262.75 134.737C260.346 134.737 258.386 132.778 258.386 130.374C258.386 127.969 260.346 126.01 262.75 126.01C265.155 126.01 267.114 127.969 267.114 130.374Z" fill="white"/>
<path d="M293 44H97V108H293V44Z" fill="#D0D2D3"/>
<path d="M101.676 46.1157H98.9154V106.586H101.676V46.1157Z" fill="#BBBDBF"/>
<path d="M106.04 46.1152H103.279V106.585H106.04V46.1152Z" fill="#BBBDBF"/>
<path d="M110.404 46.1152H107.643V106.585H110.404V46.1152Z" fill="#BBBDBF"/>
<path d="M114.768 46.1152H112.007V106.585H114.768V46.1152Z" fill="#BBBDBF"/>
<path d="M119.132 46.1152H116.371V106.585H119.132V46.1152Z" fill="#BBBDBF"/>
<path d="M123.495 46.1152H120.734V106.585H123.495V46.1152Z" fill="#BBBDBF"/>
<path d="M127.859 46.1152H125.098V106.585H127.859V46.1152Z" fill="#BBBDBF"/>
<path d="M132.312 46.1152H129.551V106.585H132.312V46.1152Z" fill="#BBBDBF"/>
<path d="M136.676 46.1152H133.915V106.585H136.676V46.1152Z" fill="#BBBDBF"/>
<path d="M141.04 46.1152H138.279V106.585H141.04V46.1152Z" fill="#BBBDBF"/>
<path d="M145.404 46.1152H142.643V106.585H145.404V46.1152Z" fill="#BBBDBF"/>
<path d="M149.767 46.1152H147.007V106.585H149.767V46.1152Z" fill="#BBBDBF"/>
<path d="M154.131 46.1152H151.37V106.585H154.131V46.1152Z" fill="#BBBDBF"/>
<path d="M158.495 46.1152H155.734V106.585H158.495V46.1152Z" fill="#BBBDBF"/>
<path d="M162.859 46.1152H160.098V106.585H162.859V46.1152Z" fill="#BBBDBF"/>
<path d="M214.761 46H212V106.47H214.761V46Z" fill="#BBBDBF"/>
<path d="M266.761 46H264V106.47H266.761V46Z" fill="#BBBDBF"/>
<path d="M167.223 46.1152H164.462V106.585H167.223V46.1152Z" fill="#BBBDBF"/>
<path d="M219.125 46H216.364V106.47H219.125V46Z" fill="#BBBDBF"/>
<path d="M271.125 46H268.364V106.47H271.125V46Z" fill="#BBBDBF"/>
<path d="M171.586 46.1152H168.826V106.585H171.586V46.1152Z" fill="#BBBDBF"/>
<path d="M223.488 46H220.728V106.47H223.488V46Z" fill="#BBBDBF"/>
<path d="M275.488 46H272.728V106.47H275.488V46Z" fill="#BBBDBF"/>
<path d="M175.95 46.1152H173.189V106.585H175.95V46.1152Z" fill="#BBBDBF"/>
<path d="M227.852 46H225.091V106.47H227.852V46Z" fill="#BBBDBF"/>
<path d="M279.852 46H277.091V106.47H279.852V46Z" fill="#BBBDBF"/>
<path d="M180.314 46.1152H177.553V106.585H180.314V46.1152Z" fill="#BBBDBF"/>
<path d="M232.216 46H229.455V106.47H232.216V46Z" fill="#BBBDBF"/>
<path d="M284.216 46H281.455V106.47H284.216V46Z" fill="#BBBDBF"/>
<path d="M184.767 46.1152H182.006V106.585H184.767V46.1152Z" fill="#BBBDBF"/>
<path d="M236.669 46H233.908V106.47H236.669V46Z" fill="#BBBDBF"/>
<path d="M288.669 46H285.908V106.47H288.669V46Z" fill="#BBBDBF"/>
<path d="M189.131 46.1152H186.37V106.585H189.131V46.1152Z" fill="#BBBDBF"/>
<path d="M241.033 46H238.272V106.47H241.033V46Z" fill="#BBBDBF"/>
<path d="M193.495 46.1152H190.734V106.585H193.495V46.1152Z" fill="#BBBDBF"/>
<path d="M245.397 46H242.636V106.47H245.397V46Z" fill="#BBBDBF"/>
<path d="M197.858 46.1152H195.098V106.585H197.858V46.1152Z" fill="#BBBDBF"/>
<path d="M249.76 46H247V106.47H249.76V46Z" fill="#BBBDBF"/>
<path d="M202.222 46.1152H199.461V106.585H202.222V46.1152Z" fill="#BBBDBF"/>
<path d="M254.124 46H251.363V106.47H254.124V46Z" fill="#BBBDBF"/>
<path d="M206.586 46.1152H203.825V106.585H206.586V46.1152Z" fill="#BBBDBF"/>
<path d="M258.488 46H255.727V106.47H258.488V46Z" fill="#BBBDBF"/>
<path d="M210.95 46.1152H208.189V106.585H210.95V46.1152Z" fill="#BBBDBF"/>
<path d="M262.852 46H260.091V106.47H262.852V46Z" fill="#BBBDBF"/>
<path d="M225.12 162.629C225.12 162.564 225.12 162.5 225.141 162.435C226.28 158.548 232.358 156.1 232.358 156.1L234.784 156.228C236.266 159.622 236.138 161.727 235.944 162.65C235.944 162.672 235.923 162.693 235.923 162.736C233.925 162.865 229.802 162.994 225.12 162.629Z" fill="#0A3C5F"/>
<path d="M235.923 162.715C235.815 163.037 235.536 163.273 235.171 163.338C232.336 163.832 227.783 163.509 225.871 163.316C225.442 163.273 225.141 162.973 225.12 162.629C229.802 162.994 233.925 162.865 235.923 162.715Z" fill="url(#paint0_linear)"/>
<path d="M218.462 161.985C220.631 161.921 221.748 161.663 222.328 161.427C222.328 161.642 222.328 161.856 222.328 162.093C222.328 162.329 222.134 162.522 221.92 162.522L210.043 162.436C209.656 162.436 209.442 161.985 209.613 161.642C211.16 161.792 215.133 162.071 218.462 161.985Z" fill="url(#paint1_linear)"/>
<path d="M209.614 161.663C209.635 161.641 209.635 161.598 209.656 161.577C210.709 160.116 213.372 157.195 218.655 155.928L221.19 155.842C221.19 155.842 222.306 157.797 222.328 161.426C221.748 161.663 220.631 161.92 218.462 161.985C215.133 162.071 211.16 161.791 209.614 161.663Z" fill="url(#paint2_linear)"/>
<path d="M222.908 97.3177C222.908 97.3177 217.581 127.085 217.689 156.272C217.689 156.809 221.576 157.518 221.662 157.024C222.521 151.998 228.191 119.332 230.983 114.757C230.983 114.757 232.121 143.665 231.541 156.723C231.52 157.045 235.149 157.561 235.214 157.195C235.815 152.943 239.917 123.412 239.767 105.2C239.767 104.169 238.801 95.6211 238.801 95.6211C232.766 96.652 228.169 98.4775 222.908 97.3177Z" fill="url(#paint3_linear)"/>
<path d="M242.28 80.222C245.802 72.4688 246.167 67.0137 242.28 64.6942C242.044 64.6298 241.807 64.5868 241.571 64.5653C240.325 64.415 238.607 64.2002 236.631 63.921C236.631 63.921 236.631 63.921 236.61 63.921C236.331 63.8566 232.379 63.019 228.084 62.7398C223.96 62.4821 219.536 62.7613 217.732 64.7801C217.732 64.7801 216.508 67.8298 214.188 70.8581C210.881 75.1964 209.248 80.0502 207.53 79.1052C207.058 78.8475 206.714 77.1079 206.349 76.3347C205.103 76.485 202.591 76.8716 200.658 78.9334C202.097 86.751 206.864 89.9725 218.526 80.3938C220.739 86.6651 223.187 94.59 222.392 100.324C222.328 100.818 222.714 101.334 223.208 101.42C225.871 101.806 234.29 102.816 238.414 101.183C238.65 101.098 239.316 100.969 239.316 100.69C239.316 98.7995 238.822 91.2397 241.958 81.3388C242.108 80.9737 242.194 80.6086 242.28 80.222Z" fill="url(#paint4_linear)"/>
<path d="M234.462 56.4901L235.257 64.587C235.257 64.587 230.704 65.9615 227.375 63.6205L229.716 56.2539L234.462 56.4901Z" fill="#8F644A"/>
<path d="M226.73 49.5748C226.666 49.7251 226.451 59.6689 226.451 59.6689H232.143L233.753 50.262C233.753 50.2835 227.633 47.2338 226.73 49.5748Z" fill="#8F644A"/>
<path d="M231.799 51.4643C231.992 51.6361 232.078 51.8938 232.057 52.13L231.606 57.0697C231.606 57.1342 231.584 57.2201 231.563 57.2845C231.412 57.6711 230.833 58.8738 229.608 58.208C228.577 57.6496 227.611 57.1342 226.838 57.1127C226.387 57.0912 226 57.4563 226 57.9073C225.979 58.8523 225.979 60.7208 226.215 62.396C226.279 62.8255 226.645 63.1262 227.074 63.0833C228.191 63.0188 230.36 62.8041 232.121 62.2457C232.4 62.1598 232.615 61.902 232.68 61.6228C232.916 60.3127 233.603 56.6617 233.968 55.6522C234.29 54.7287 235.579 54.4066 236.18 54.2992C236.417 54.2563 236.61 54.1274 236.739 53.9341C237.125 53.3542 237.662 52.1086 236.159 51.1636C235.794 50.9273 235.686 50.4334 235.901 50.0468C236.309 49.381 236.61 48.3286 235.407 47.4266C234.204 46.5246 233.045 46.9541 232.336 47.4051C232.014 47.5984 231.606 47.5984 231.327 47.3407C231.198 47.2333 231.026 47.1689 230.811 47.2333C229.63 47.534 229.845 45.9017 229.243 45.3863C228.406 44.6776 227.482 45.7084 227.139 46.4816C226.945 46.9112 226.816 47.3622 226.602 47.7702C226.279 48.4145 225.764 48.9944 225.163 49.381C225.077 49.4454 224.969 49.5099 224.905 49.5958C224.84 49.7461 224.883 49.9179 224.991 50.0253C225.098 50.1542 225.249 50.2186 225.399 50.283C226.602 50.7985 227.847 50.8414 229.114 50.4334C230.188 50.1327 231.284 50.9703 231.799 51.4643Z" fill="url(#paint5_linear)"/>
<path d="M233.517 57.4351C233.517 57.4351 233.41 54.4927 234.591 54.0417C235.772 53.5907 237.211 54.2995 236.416 56.2324C235.429 58.6593 233.517 57.4351 233.517 57.4351Z" fill="#8F644A"/>
<path d="M224.905 49.3598C226.666 40.1247 239.789 43.9691 236.782 52.2377C232.229 50.8847 226.816 48.4792 224.905 49.3598Z" fill="#0091FF"/>
<path d="M232.508 50.6911L224.884 52.7743C224.69 52.8173 224.475 52.7743 224.347 52.6455C223.294 51.6361 222.07 51.1636 220.696 51.1206C220.524 51.1206 220.481 50.8844 220.653 50.8199L225.184 49.0803C225.184 49.0803 225.184 49.0803 225.206 49.0803C227.568 48.5434 230.038 49.2951 232.551 50.5193C232.615 50.5622 232.594 50.6696 232.508 50.6911Z" fill="#0091FF"/>
<path d="M217.818 93.4302C216.937 92.1846 217.603 91.3685 217.603 91.3685C222.091 89.7577 228.513 89.8866 233.388 83.7871C235.364 84.8395 233.775 85.4623 235.944 88.6194C225.721 95.1699 217.818 93.4302 217.818 93.4302Z" fill="#8F644A"/>
<path d="M238.543 70.4288C238.479 77.7739 236.159 83.3794 225.141 89.0923L227.396 92.593C232.766 92.099 242.216 84.9257 245.072 79.5994C245.781 78.2894 246.747 74.1658 246.597 71.2449C246.296 65.2744 240.132 59.7977 238.543 70.4288Z" fill="url(#paint6_linear)"/>
<path d="M217.904 93.3875C215.219 94.3755 213.372 92.7647 212.169 91.0251C214.682 90.7459 216.271 90.7029 218.333 91.111L217.904 93.3875Z" fill="#8F644A"/>
<path d="M195.954 74.6596C196.641 74.4878 198.166 72.4046 198.338 73.1778C198.51 73.9294 198.037 74.8959 198.102 75.2181C198.166 75.5402 198.682 77.3443 198.274 78.1174C197.973 78.6758 197.393 80.394 197.092 81.296C196.985 81.5967 196.921 82.0047 196.598 81.9618C196.276 81.9188 196.04 81.4893 195.997 81.1886C195.997 81.0598 195.267 74.8315 195.954 74.6596Z" fill="#8F644A"/>
<path d="M233.963 71.3325H209.259V91.6988H233.963V71.3325Z" fill="#ED823A"/>
<path d="M221.598 71.333H196.894V91.6993H221.598V71.333Z" fill="#FF9E55"/>
<path d="M233.963 86.5264H230.057L230.38 85.4219L230.057 84.6406H233.963V86.5264Z" fill="#DD732C"/>
<path d="M221.624 77.6367H217.691L218.041 76.5322L217.691 75.751H221.624V77.6367Z" fill="#FFB27D"/>
<path d="M221.625 75.751H225.531L225.181 76.8286L225.531 77.6367H221.625V75.751Z" fill="#DD732C"/>
<path d="M196.894 86.7422H200.827L200.477 87.8467L200.827 88.6279H196.894V86.7422Z" fill="#FFB27D"/>
<path d="M198.533 75.4668H205.645V72.6921H198.533V75.4668Z" fill="white"/>
<path d="M168.249 162.973C170.526 163.166 174.456 163.488 177.57 163.617C179.438 163.703 180.512 163.51 181.135 163.273C181.135 163.338 181.135 163.402 181.135 163.467C181.114 163.789 180.856 164.046 180.534 164.068C174.671 164.39 169.989 164.175 168.335 164.089C167.991 164.068 167.776 163.703 167.97 163.402C168.034 163.252 168.142 163.102 168.249 162.973Z" fill="url(#paint7_linear)"/>
<path d="M177.57 163.617C174.456 163.488 170.526 163.166 168.249 162.973C170.483 160.245 177.57 158.398 177.57 158.398H179.567C180.942 160.374 181.135 162.264 181.135 163.295C180.512 163.509 179.439 163.703 177.57 163.617Z" fill="url(#paint8_linear)"/>
<path d="M179.89 155.112L179.696 158.806C179.675 159.214 179.374 159.536 178.966 159.6C178.558 159.665 178.021 159.665 177.463 159.472C177.119 159.364 176.861 159.064 176.797 158.698L176.153 155.09H179.89V155.112Z" fill="url(#paint9_linear)"/>
<path d="M203.127 167.225C204.115 167.053 204.566 166.387 204.738 165.679V165.7C204.889 166.452 204.545 167.225 203.879 167.59C203.063 168.041 202.183 168.106 201.495 168.063C200.765 168.02 200.078 167.633 199.713 166.989C200.443 167.483 201.474 167.526 203.127 167.225Z" fill="url(#paint10_linear)"/>
<path d="M198.467 156.25H200.121C202.634 156.186 204.201 163.037 204.738 165.678C204.545 166.387 204.116 167.053 203.128 167.225C201.495 167.525 200.443 167.461 199.713 166.988C198.36 164.669 197.672 161.297 197.35 159.321C196.964 157.088 198.467 156.25 198.467 156.25Z" fill="url(#paint11_linear)"/>
<path d="M199.906 152.813L200.83 156.465C200.937 156.916 200.722 157.367 200.314 157.581C199.799 157.839 199.09 158.118 198.424 158.032C198.102 157.989 197.844 157.775 197.758 157.474L196.405 153.651L199.906 152.813Z" fill="url(#paint12_linear)"/>
<path d="M167.691 104.835C167.691 104.835 175.873 156.014 175.745 156.293C175.745 156.293 178 157.324 180.469 156.422C180.469 156.422 179.739 129.061 178 118.58C178 118.58 191.981 143.021 196.405 155.219C196.405 155.219 198.725 154.94 200.636 153.673C200.636 153.673 185.602 109.667 181.586 103.804L167.691 104.835Z" fill="url(#paint13_linear)"/>
<path d="M166.402 69.0966C165.822 69.1396 165.242 69.247 164.684 69.4402C158.692 71.5235 153.967 70.9866 150.359 69.3543C149.521 70.4711 148.168 72.7907 147.588 76.678C154.182 81.5747 162.472 80.2861 165.178 79.6847C164.469 84.9466 164.469 93.2796 167.368 105.5C167.454 105.822 167.712 106.058 168.056 106.08C169.903 106.23 176.11 106.595 182.059 105.264C182.316 105.199 182.467 104.92 182.359 104.662L182.295 104.534C181.801 103.374 181.586 102.107 181.651 100.84C181.865 96.9951 182.896 88.297 185.108 82.3479C185.237 82.5626 185.366 82.7774 185.474 82.9922C185.882 79.0834 187.363 75.2175 188.437 71.3302C179.804 68.5812 169.538 68.9248 166.402 69.0966Z" fill="url(#paint14_linear)"/>
<path d="M179.868 61.9878C179.868 61.9878 180.469 68.3664 181.006 70.2564C181.092 70.5356 180.963 70.8363 180.706 70.9866C179.804 71.5021 177.634 72.3397 174.692 70.9007C174.22 70.6645 173.919 70.1705 173.94 69.6336L174.198 63.4697L179.868 61.9878Z" fill="url(#paint15_linear)"/>
<path d="M174.069 53.8267C174.069 53.8267 172.136 58.2509 172.007 60.5919C171.879 62.9114 171.385 64.4363 174.069 64.8873C176.754 65.3598 179.03 64.0067 180.255 61.7087C180.255 61.7087 182.188 58.1435 181.736 56.6831C181.307 55.2012 174.069 53.8267 174.069 53.8267Z" fill="url(#paint16_linear)"/>
<path d="M179.331 60.0334L179.181 59.969C178.987 59.8831 178.901 59.6468 179.009 59.4535C179.395 58.7233 180.126 57.0481 179.181 56.6401C178.279 56.275 177.312 56.0602 176.389 55.7595C175.53 55.4803 173.854 55.2011 173.425 54.2991C173.296 54.0414 173.446 53.7192 173.575 53.4615C173.833 52.989 174.091 52.495 174.37 52.0225C174.585 51.6145 174.821 51.2064 175.164 50.9057C175.981 50.2185 176.926 50.8198 177.828 50.9916C181.135 51.6145 183.347 52.946 183.39 55.2441C183.39 55.3944 183.54 55.4803 183.669 55.3944C183.906 55.2441 184.314 55.1796 184.829 55.6092C185.731 56.3823 185.366 58.3582 183.369 59.9905C183.283 60.0764 183.283 60.2267 183.369 60.2911C183.734 60.5274 184.271 61.0858 182.875 61.8375C181.436 62.6106 180.34 62.5462 179.932 62.4818C179.825 62.4603 179.761 62.3744 179.782 62.267L180.233 60.2482C180.255 60.1408 180.169 60.0334 180.061 60.0334H179.331Z" fill="url(#paint17_linear)"/>
<path d="M179.245 60.4631C179.245 60.4631 179.975 57.6281 181.242 58.4227C182.51 59.2174 180.577 61.6013 179.567 61.7087L179.245 60.4631Z" fill="url(#paint18_linear)"/>
<path d="M172.459 54.5783C175.616 45.2358 188.695 51.1205 184.378 59.2602C179.868 57.2199 174.585 53.9339 172.459 54.5783Z" fill="#0091FF"/>
<path d="M180.19 57.0695L171.965 58.1433C171.75 58.1648 171.557 58.0789 171.406 57.9286C170.461 56.7259 169.237 56.0601 167.82 55.8023C167.648 55.7809 167.626 55.5231 167.82 55.4802L172.781 54.3204H172.802C175.336 54.1057 177.785 55.2439 180.233 56.8762C180.298 56.9191 180.276 57.048 180.19 57.0695Z" fill="#0091FF"/>
<path d="M147.266 72.9415C147.889 72.7911 149.285 70.9011 149.435 71.5884C149.586 72.2757 149.156 73.1562 149.22 73.4354C149.285 73.7361 149.757 75.3683 149.371 76.0556C149.092 76.5496 148.576 78.1174 148.297 78.955C148.211 79.2342 148.125 79.5993 147.846 79.5563C147.567 79.5134 147.331 79.1268 147.309 78.8476C147.309 78.7402 146.643 73.0918 147.266 72.9415Z" fill="url(#paint19_linear)"/>
<path d="M191.766 75.2603C190.993 73.4992 188.566 71.373 188.437 71.3301C187.385 75.2174 185.516 78.4174 185.108 82.3477C187.729 87.1585 187.127 92.807 185.495 95.5775C186.29 96.7802 187.235 98.391 188.051 100.41C198.102 94.3748 194.129 80.6725 191.766 75.2603Z" fill="url(#paint20_linear)"/>
<path d="M178.859 104.749L170.16 104.555C170.16 104.555 177.742 102.408 178.214 102.988C178.214 102.988 182.918 99.895 185.495 95.5566C186.29 96.7593 187.235 98.3701 188.051 100.389C185.753 101.763 182.703 104.104 178.859 104.749Z" fill="url(#paint21_linear)"/>
<path d="M179.116 103.245C179.116 103.245 179.288 106.703 174.735 106.209C172.265 105.93 168.271 103.632 168.271 103.632C168.271 103.632 178.687 103.61 179.116 103.245Z" fill="#F9B776"/>
<path d="M148.775 103.604H189.161V69.8813H148.775V103.604Z" fill="#C3DAFC"/>
<path d="M155.164 103.604H189.241V69.8813H155.164V103.604Z" fill="#D4E4F8"/>
<path d="M148.795 95.0552H155.215L154.649 93.2207L155.215 91.9258H148.795V95.0552Z" fill="#2A4E96"/>
<path d="M168.974 80.3257H175.368L174.801 78.4912L175.368 77.1963H168.974V80.3257Z" fill="#618DC1"/>
<path d="M168.974 77.1963H162.58L163.147 79.0038L162.58 80.3257H168.974V77.1963Z" fill="#2A4E96"/>
<path d="M189.246 95.7939H182.852L183.419 97.6284L182.852 98.9234H189.246V95.7939Z" fill="#618DC1"/>
<path d="M189.155 72.7212H177.528V77.3074H189.155V72.7212Z" fill="white"/>
<path d="M241.921 70.9533L244.799 72.4997C248.235 74.5829 251.306 75.6997 254.077 76.1078C262.732 77.3964 268.359 71.9413 272.568 68.6338C278.109 64.274 282.426 66.4002 282.426 66.4002L276.52 77.6756C267.693 86.0086 258.63 84.1616 252.938 81.4555C249.309 79.7374 247.032 77.6756 247.032 77.6756C240.503 73.8097 241.921 70.9533 241.921 70.9533Z" fill="url(#paint22_linear)"/>
<path d="M233.48 74.9913C233.674 74.3684 234.125 73.8745 234.726 73.6382L240.546 71.2972C240.546 71.2972 240.632 70.5455 239.322 70.0516C238.012 69.5361 238.313 68.0757 238.313 68.0757C238.313 68.0757 240.117 68.8918 242.737 70.2019C244.24 70.9536 245.099 72.2637 245.529 73.2516L244.026 75.2275C240.439 76.3014 236.809 76.5161 233.158 76.0866L233.48 74.9913Z" fill="url(#paint23_linear)"/>
<path d="M283.693 157.248C283.693 157.248 284.145 159.76 284.359 162.23C284.445 163.197 283.693 164.034 282.727 164.077C279.42 164.206 272.354 164.485 269.819 164.378C269.433 164.356 269.197 163.97 269.325 163.626C269.454 163.326 269.669 163.089 269.97 162.96L281.653 157.591L283.693 157.248Z" fill="#CC346F"/>
<path d="M284.059 155.765L283.694 158.772C283.694 158.772 281.653 159.717 280.257 158.643L281.095 155.293L284.059 155.765Z" fill="url(#paint24_linear)"/>
<path d="M284.617 97.3916C284.767 98.2077 284.338 139.937 280.257 157.742C280.193 158.042 279.763 158.601 279.914 158.859C280.279 159.46 282.877 159.288 284.359 159.352C284.81 159.374 285.068 158.837 285.197 158.386C286.357 154.262 291.984 133.559 292.714 113.8C293.53 91.7217 292.714 113.048 292.714 113.048L293.079 99.0668L284.617 97.3916Z" fill="url(#paint25_linear)"/>
<path d="M297.117 158.558C297.117 158.558 297.825 159.825 298.513 163.197C298.641 163.798 298.212 164.378 297.589 164.442C296.494 164.55 294.819 164.679 293.465 164.679C292.843 164.679 292.37 164.142 292.435 163.519C292.585 162.295 293.057 160.276 294.475 158.708L297.117 158.558Z" fill="#CB236D"/>
<path d="M297.739 154.692L296.902 159.224C296.902 159.224 296.086 159.825 294.453 159.396L294.84 154.521L297.739 154.692Z" fill="url(#paint26_linear)"/>
<path d="M299.737 99.0237C303.087 120.114 299.264 152.78 297.89 158.858C297.804 159.223 297.525 159.524 297.16 159.589C296.537 159.696 295.527 159.782 294.539 159.481C294.196 159.374 293.959 159.052 293.938 158.687C293.745 153.768 294.088 123.615 290.974 111.695C290.824 111.094 290.459 110.557 289.965 110.192L284.832 106.004L284.746 96.9834L299.737 99.0237Z" fill="url(#paint27_linear)"/>
<path d="M280.558 65.176C289.385 65.0257 299.114 67.4955 299.114 67.4955C301.283 80.1454 300.403 94.1699 299.952 98.7874C299.866 99.7324 300.36 100.742 299.436 100.892C294.819 101.644 287.559 100.871 285.304 100.226C284.488 99.9901 284.617 99.1096 284.445 98.272C282.92 91.0128 278.604 74.991 278.604 74.991C276.499 77.6971 273.535 81.477 269.154 82.4864C271.387 79.9092 267.113 74.4755 267.564 72.5211C271.538 68.0754 277.83 65.219 280.558 65.176Z" fill="url(#paint28_linear)"/>
<path d="M289.492 58.0244L292.306 66.1427C292.349 66.2715 292.306 66.4219 292.177 66.4863C291.404 66.9159 288.655 68.14 285.326 66.0353C284.982 65.8205 284.746 65.4554 284.681 65.0474L283.779 58.0244H289.492Z" fill="url(#paint29_linear)"/>
<path d="M283.393 50.4863C283.393 50.4863 280.3 56.2851 280.708 58.6261C281.095 60.9671 284.918 60.7952 288.268 58.9053L290.609 52.634L283.393 50.4863Z" fill="url(#paint30_linear)"/>
<path d="M288.097 55.834C287.968 55.7695 287.903 55.5977 287.989 55.4903C288.247 55.1038 288.698 54.3521 288.848 53.6648C288.848 53.6648 289.407 53.2997 287.431 52.8487C286.357 52.591 284.467 52.3762 283.629 51.603C282.706 50.744 284.424 49.1117 285.133 48.6822C286.078 48.1023 287.259 47.7587 288.333 48.0593C288.848 48.2097 289.321 48.4674 289.793 48.7466C290.588 49.2191 291.404 49.7131 291.898 50.4648C292.22 50.9587 292.392 51.5386 292.542 52.1185C292.757 52.9346 292.972 53.7937 292.929 54.6313C292.821 56.9078 290.158 58.9267 288.032 59.1844C287.86 59.2059 287.731 59.0341 287.774 58.8622L288.655 56.328C288.698 56.2206 288.633 56.0702 288.526 56.0273L288.097 55.834Z" fill="url(#paint31_linear)"/>
<path d="M287.753 56.1992C287.753 56.1992 289.943 54.6958 290.115 55.9629C290.266 57.2301 288.139 57.8099 287.087 57.3374L287.753 56.1992Z" fill="url(#paint32_linear)"/>
<path d="M282.255 49.0684C286.765 40.5635 298.427 48.2952 292.993 55.4685C288.955 52.7839 284.402 48.7892 282.255 49.0684Z" fill="#0091FF"/>
<path d="M289.299 52.6764L281.202 52.4187C280.987 52.4187 280.816 52.2898 280.708 52.118C279.978 50.8079 278.926 49.9703 277.594 49.5193C277.422 49.4549 277.465 49.2186 277.637 49.1971L282.598 48.8535H282.62C285.09 49.0468 287.28 50.5287 289.363 52.4831C289.449 52.569 289.385 52.6764 289.299 52.6764Z" fill="#0091FF"/>
<path d="M298.126 80.3818C293.186 74.8407 293.68 70.5668 299.264 67.4956C299.264 67.4956 308.499 73.7669 310.024 81.7348C308.285 81.8637 305.106 82.3147 301.992 83.8825C301.305 80.124 298.126 80.3818 298.126 80.3818Z" fill="url(#paint33_linear)"/>
<path d="M287.388 86.0942C287.388 86.0942 297.761 91.9574 301.262 86.9533C301.992 85.9224 302.164 84.87 301.992 83.9036C305.106 82.3357 308.285 81.8847 310.024 81.7559C310.475 84.1613 310.239 86.717 308.822 89.2943C302.679 100.505 286.013 88.6714 286.013 88.6714L287.388 86.0942Z" fill="url(#paint34_linear)"/>
<path d="M288.633 93.5041L282.963 73.7238C282.899 73.5091 282.706 73.3373 282.469 73.3158C281.438 73.1869 278.475 72.8648 275.038 72.5641C270.893 72.2205 266.104 71.9413 263.226 72.1775C262.818 72.2205 262.582 72.65 262.754 73.0151C264.386 76.3225 271.087 89.7456 274.459 94.1484C274.566 94.2987 274.738 94.3846 274.931 94.3846L288.075 94.2558C288.461 94.2343 288.741 93.8692 288.633 93.5041Z" fill="url(#paint35_linear)"/>
<path d="M274.458 70.8461L270.356 70.1588C270.142 70.1159 269.948 70.3306 270.034 70.5454L270.442 71.7696C270.485 71.877 270.571 71.9629 270.678 71.9629L274.63 72.4998C274.845 72.5213 274.995 72.3495 274.952 72.1347L274.695 71.0609C274.673 70.9535 274.566 70.8676 274.458 70.8461Z" fill="url(#paint36_linear)"/>
<path d="M277.53 74.3255L277.186 72.5643C277.143 72.3925 277.014 72.2637 276.821 72.2422L268.531 71.4046C268.252 71.3831 268.037 71.6408 268.101 71.8986L268.638 74.0892C268.681 74.261 268.832 74.3899 269.004 74.4113L277.1 74.8194C277.38 74.8194 277.573 74.5832 277.53 74.3255Z" fill="url(#paint37_linear)"/>
<path d="M287.259 88.7364C287.259 88.7364 288.053 85.4934 287.731 84.3336C287.409 83.1739 286.786 81.7134 284.746 82.0356C282.684 82.3577 280.257 83.2383 280.257 83.2383C280.257 83.2383 280.386 84.7417 281.933 84.2477L280.966 84.9994C280.966 84.9994 281.095 86.2021 282.426 85.5578L281.524 86.5457C281.524 86.5457 282.083 87.5337 283.071 86.8894C284.037 86.2665 284.51 89.123 287.259 88.7364Z" fill="url(#paint38_linear)"/>
<path d="M290.545 76.3867C291.189 76.4297 296.666 76.623 296.666 76.623L296.451 82.1425L293.616 83.7533L290.545 82.1425V76.3867Z" fill="url(#paint39_linear)"/>
<path d="M290.115 76.3877L296.665 76.6025L296.923 78.7287L293.53 79.6092L289.9 77.9985L290.115 76.3877Z" fill="url(#paint40_linear)"/>
<path d="M139.04 55C138.827 55 138.624 55.0844 138.474 55.2346C138.323 55.3848 138.239 55.5886 138.239 55.801V59.9075H123.602V55.801C123.602 55.5886 123.518 55.3848 123.367 55.2346C123.217 55.0844 123.013 55 122.801 55C122.589 55 122.385 55.0844 122.235 55.2346C122.084 55.3848 122 55.5886 122 55.801V159.237C122 159.449 122.084 159.653 122.235 159.803C122.385 159.953 122.589 160.038 122.801 160.038C123.013 160.038 123.217 159.953 123.367 159.803C123.518 159.653 123.602 159.449 123.602 159.237V136.099H138.239V159.237C138.239 159.449 138.323 159.653 138.474 159.803C138.624 159.953 138.827 160.038 139.04 160.038C139.252 160.038 139.456 159.953 139.606 159.803C139.757 159.653 139.841 159.449 139.841 159.237V55.785C139.837 55.5753 139.75 55.3757 139.601 55.2289C139.451 55.0821 139.25 55 139.04 55ZM138.239 134.513H123.602V129.322H138.239V134.513ZM138.239 127.715H123.602V122.53H138.239V127.715ZM138.239 120.922H123.602V115.753H138.239V120.922ZM138.239 114.135H123.602V108.987H138.239V114.135ZM138.239 107.353H123.602V102.264H138.239V107.353ZM138.239 100.593H123.602V95.4719H138.239V100.593ZM138.239 93.8645H123.602V88.6954H138.239V93.8645ZM138.239 87.072H123.602V81.9029H138.239V87.072ZM138.239 80.2956H123.602V75.1104H138.239V80.2956ZM138.239 73.5031H123.602V68.3073H138.239V73.5031ZM138.239 66.7053H123.602V61.5095H138.239V66.7053Z" fill="white"/>
<defs>
<linearGradient id="paint0_linear" x1="208.283" y1="149.478" x2="241.525" y2="181.449" gradientUnits="userSpaceOnUse">
<stop stop-color="#53D8FF"/>
<stop offset="1" stop-color="#3840F7"/>
</linearGradient>
<linearGradient id="paint1_linear" x1="206.884" y1="157.94" x2="232.129" y2="168.853" gradientUnits="userSpaceOnUse">
<stop stop-color="#53D8FF"/>
<stop offset="0.8472" stop-color="#3C57F8"/>
<stop offset="1" stop-color="#3840F7"/>
</linearGradient>
<linearGradient id="paint2_linear" x1="221.396" y1="160.733" x2="194.912" y2="152" gradientUnits="userSpaceOnUse">
<stop stop-color="#2B3582"/>
<stop offset="1" stop-color="#150E42"/>
</linearGradient>
<linearGradient id="paint3_linear" x1="260.056" y1="54.8834" x2="208.515" y2="175.202" gradientUnits="userSpaceOnUse">
<stop stop-color="#2B3582"/>
<stop offset="0.5464" stop-color="#1F205F"/>
<stop offset="1" stop-color="#150E42"/>
</linearGradient>
<linearGradient id="paint4_linear" x1="286.922" y1="34.0321" x2="240.896" y2="72.4148" gradientUnits="userSpaceOnUse">
<stop stop-color="#FDF53F"/>
<stop offset="1" stop-color="#D93C65"/>
</linearGradient>
<linearGradient id="paint5_linear" x1="235.637" y1="56.9726" x2="223.83" y2="52.4254" gradientUnits="userSpaceOnUse">
<stop stop-color="#2B3582"/>
<stop offset="1" stop-color="#150E42"/>
</linearGradient>
<linearGradient id="paint6_linear" x1="280.526" y1="35.5127" x2="246.697" y2="69.0162" gradientUnits="userSpaceOnUse">
<stop stop-color="#FDF53F"/>
<stop offset="1" stop-color="#D93C65"/>
</linearGradient>
<linearGradient id="paint7_linear" x1="181.123" y1="163.603" x2="167.874" y2="163.603" gradientUnits="userSpaceOnUse">
<stop stop-color="#53D8FF"/>
<stop offset="1" stop-color="#3840F7"/>
</linearGradient>
<linearGradient id="paint8_linear" x1="181.124" y1="161.006" x2="168.248" y2="161.006" gradientUnits="userSpaceOnUse">
<stop stop-color="#2B3582"/>
<stop offset="1" stop-color="#150E42"/>
</linearGradient>
<linearGradient id="paint9_linear" x1="179.9" y1="157.381" x2="176.168" y2="157.381" gradientUnits="userSpaceOnUse">
<stop stop-color="#F9B776"/>
<stop offset="1" stop-color="#F47960"/>
</linearGradient>
<linearGradient id="paint10_linear" x1="204.77" y1="166.888" x2="199.693" y2="166.888" gradientUnits="userSpaceOnUse">
<stop stop-color="#53D8FF"/>
<stop offset="1" stop-color="#3840F7"/>
</linearGradient>
<linearGradient id="paint11_linear" x1="204.733" y1="161.836" x2="197.281" y2="161.836" gradientUnits="userSpaceOnUse">
<stop stop-color="#2B3582"/>
<stop offset="1" stop-color="#150E42"/>
</linearGradient>
<linearGradient id="paint12_linear" x1="200.86" y1="155.435" x2="196.4" y2="155.435" gradientUnits="userSpaceOnUse">
<stop stop-color="#F9B776"/>
<stop offset="1" stop-color="#F47960"/>
</linearGradient>
<linearGradient id="paint13_linear" x1="164.785" y1="107.306" x2="202.863" y2="169.682" gradientUnits="userSpaceOnUse">
<stop stop-color="#2B3582"/>
<stop offset="0.5464" stop-color="#1F205F"/>
<stop offset="1" stop-color="#150E42"/>
</linearGradient>
<linearGradient id="paint14_linear" x1="243.939" y1="18.1493" x2="187.464" y2="68.4232" gradientUnits="userSpaceOnUse">
<stop stop-color="#FDF53F"/>
<stop offset="1" stop-color="#D93C65"/>
</linearGradient>
<linearGradient id="paint15_linear" x1="178.887" y1="76.3424" x2="176.955" y2="66.1969" gradientUnits="userSpaceOnUse">
<stop stop-color="#F9B776"/>
<stop offset="1" stop-color="#F47960"/>
</linearGradient>
<linearGradient id="paint16_linear" x1="173.658" y1="57.7287" x2="184.684" y2="66.1652" gradientUnits="userSpaceOnUse">
<stop stop-color="#F9B776"/>
<stop offset="1" stop-color="#F47960"/>
</linearGradient>
<linearGradient id="paint17_linear" x1="182.565" y1="51.9384" x2="172.296" y2="65.1596" gradientUnits="userSpaceOnUse">
<stop stop-color="#2B3582"/>
<stop offset="1" stop-color="#150E42"/>
</linearGradient>
<linearGradient id="paint18_linear" x1="175.026" y1="55.9413" x2="186.052" y2="64.3779" gradientUnits="userSpaceOnUse">
<stop stop-color="#F9B776"/>
<stop offset="1" stop-color="#F47960"/>
</linearGradient>
<linearGradient id="paint19_linear" x1="151.657" y1="64.378" x2="135.347" y2="113.304" gradientUnits="userSpaceOnUse">
<stop stop-color="#F9B776"/>
<stop offset="1" stop-color="#F47960"/>
</linearGradient>
<linearGradient id="paint20_linear" x1="253.031" y1="28.3617" x2="196.556" y2="78.6355" gradientUnits="userSpaceOnUse">
<stop stop-color="#FDF53F"/>
<stop offset="1" stop-color="#D93C65"/>
</linearGradient>
<linearGradient id="paint21_linear" x1="170.221" y1="88.65" x2="176.548" y2="98.1405" gradientUnits="userSpaceOnUse">
<stop stop-color="#F9B776"/>
<stop offset="1" stop-color="#F47960"/>
</linearGradient>
<linearGradient id="paint22_linear" x1="235.926" y1="36.1786" x2="306.427" y2="126.378" gradientUnits="userSpaceOnUse">
<stop stop-color="#F9B776"/>
<stop offset="1" stop-color="#F47960"/>
</linearGradient>
<linearGradient id="paint23_linear" x1="227.823" y1="59.7492" x2="267.531" y2="110.552" gradientUnits="userSpaceOnUse">
<stop stop-color="#F9B776"/>
<stop offset="1" stop-color="#F47960"/>
</linearGradient>
<linearGradient id="paint24_linear" x1="284.049" y1="157.233" x2="280.25" y2="157.233" gradientUnits="userSpaceOnUse">
<stop stop-color="#F9B776"/>
<stop offset="1" stop-color="#F47960"/>
</linearGradient>
<linearGradient id="paint25_linear" x1="301.498" y1="56.2572" x2="282.542" y2="138.651" gradientUnits="userSpaceOnUse">
<stop stop-color="#2B3582"/>
<stop offset="1" stop-color="#150E42"/>
</linearGradient>
<linearGradient id="paint26_linear" x1="297.742" y1="157.039" x2="294.461" y2="157.039" gradientUnits="userSpaceOnUse">
<stop stop-color="#F9B776"/>
<stop offset="1" stop-color="#F47960"/>
</linearGradient>
<linearGradient id="paint27_linear" x1="307.802" y1="56.2397" x2="288.602" y2="139.694" gradientUnits="userSpaceOnUse">
<stop stop-color="#2B3582"/>
<stop offset="1" stop-color="#150E42"/>
</linearGradient>
<linearGradient id="paint28_linear" x1="235.607" y1="23.4867" x2="280.896" y2="71.8751" gradientUnits="userSpaceOnUse">
<stop stop-color="#FDF53F"/>
<stop offset="1" stop-color="#D93C65"/>
</linearGradient>
<linearGradient id="paint29_linear" x1="292.317" y1="62.6233" x2="283.776" y2="62.6233" gradientUnits="userSpaceOnUse">
<stop stop-color="#F9B776"/>
<stop offset="1" stop-color="#F47960"/>
</linearGradient>
<linearGradient id="paint30_linear" x1="281.745" y1="57.19" x2="291.136" y2="51.4622" gradientUnits="userSpaceOnUse">
<stop stop-color="#F9B776"/>
<stop offset="1" stop-color="#F47960"/>
</linearGradient>
<linearGradient id="paint31_linear" x1="294.964" y1="47.8278" x2="284.766" y2="55.8825" gradientUnits="userSpaceOnUse">
<stop stop-color="#2B3582"/>
<stop offset="1" stop-color="#150E42"/>
</linearGradient>
<linearGradient id="paint32_linear" x1="284.212" y1="59.3259" x2="292.661" y2="54.1726" gradientUnits="userSpaceOnUse">
<stop stop-color="#F9B776"/>
<stop offset="1" stop-color="#F47960"/>
</linearGradient>
<linearGradient id="paint33_linear" x1="238.535" y1="9.16133" x2="287.644" y2="61.6313" gradientUnits="userSpaceOnUse">
<stop stop-color="#FDF53F"/>
<stop offset="1" stop-color="#D93C65"/>
</linearGradient>
<linearGradient id="paint34_linear" x1="310.227" y1="87.9154" x2="286.009" y2="87.9154" gradientUnits="userSpaceOnUse">
<stop stop-color="#F9B776"/>
<stop offset="1" stop-color="#F47960"/>
</linearGradient>
<linearGradient id="paint35_linear" x1="277.77" y1="74.4982" x2="264.454" y2="129.983" gradientUnits="userSpaceOnUse">
<stop stop-color="#9CFFFB"/>
<stop offset="1" stop-color="#9BFFFA"/>
</linearGradient>
<linearGradient id="paint36_linear" x1="272.972" y1="73.4881" x2="275.808" y2="85.9418" gradientUnits="userSpaceOnUse">
<stop stop-color="#FDF53F"/>
<stop offset="1" stop-color="#D93C65"/>
</linearGradient>
<linearGradient id="paint37_linear" x1="273.693" y1="78.358" x2="275.05" y2="86.4962" gradientUnits="userSpaceOnUse">
<stop stop-color="#FDF53F"/>
<stop offset="1" stop-color="#D93C65"/>
</linearGradient>
<linearGradient id="paint38_linear" x1="287.807" y1="85.3767" x2="280.263" y2="85.3767" gradientUnits="userSpaceOnUse">
<stop stop-color="#F9B776"/>
<stop offset="1" stop-color="#F47960"/>
</linearGradient>
<linearGradient id="paint39_linear" x1="241.127" y1="111.09" x2="306.429" y2="71.394" gradientUnits="userSpaceOnUse">
<stop stop-color="#FDF53F"/>
<stop offset="1" stop-color="#D93C65"/>
</linearGradient>
<linearGradient id="paint40_linear" x1="234.165" y1="113.636" x2="299.467" y2="73.9405" gradientUnits="userSpaceOnUse">
<stop stop-color="#FDF53F"/>
<stop offset="1" stop-color="#D93C65"/>
</linearGradient>
</defs>
</svg>
