<svg width="16" height="16" fill="none" xmlns="http://www.w3.org/2000/svg"><g clip-path="url(#clip0)"><path d="M10.685 1.83a6.269 6.269 0 00-8.854 0 6.27 6.27 0 000 8.856c2.174 2.173 5.56 2.406 7.998.709.052.242.17.474.358.663l3.555 3.555a1.322 1.322 0 101.87-1.87l-3.555-3.556a1.323 1.323 0 00-.662-.357c1.697-2.44 1.465-5.824-.71-8zM9.563 9.564a4.68 4.68 0 01-6.61 0 4.681 4.681 0 010-6.61 4.68 4.68 0 016.61 0 4.68 4.68 0 010 6.61z" fill="#fff"/></g><defs><clipPath id="clip0"><path fill="#fff" d="M0 0h16v16H0z"/></clipPath></defs></svg>