<svg width="16" height="16" fill="none" xmlns="http://www.w3.org/2000/svg"><path d="M8 3.44a2.974 2.974 0 00-2.97 2.97A2.974 2.974 0 008 9.38a2.974 2.974 0 002.97-2.97A2.974 2.974 0 008 3.44zm0 4.69c-.948 0-1.72-.772-1.72-1.72S7.052 4.69 8 4.69s1.72.772 1.72 1.72S8.948 8.13 8 8.13z" fill="#0091FF"/><path d="M8 0a6.417 6.417 0 00-6.41 6.41v.177c0 1.788 1.025 3.87 3.046 6.191a26.347 26.347 0 002.97 2.904L8 16l.393-.318c.06-.049 1.505-1.222 2.97-2.904 2.022-2.32 3.047-4.403 3.047-6.19V6.41A6.417 6.417 0 008 0zm5.16 6.587c0 3.02-3.893 6.678-5.16 7.788-1.267-1.11-5.16-4.767-5.16-7.788V6.41A5.165 5.165 0 018 1.25a5.165 5.165 0 015.16 5.16v.177z" fill="#0091FF"/></svg>