<svg width="16" height="16" fill="none" xmlns="http://www.w3.org/2000/svg"><path d="M15.219 2.089L13.123 0 8.77 4.346l1.687 1.743c-.283.502-.896 1.463-1.942 2.51a12.12 12.12 0 01-2.521 1.952L4.285 8.865 0 13.125l2.085 2.098a2.64 2.64 0 003.017.514c1.537-.747 3.858-2.125 6.182-4.449 2.324-2.323 3.702-4.644 4.449-6.182.177-.364.263-.756.263-1.144 0-.686-.268-1.364-.777-1.873zm-.61 2.471c-.705 1.452-2.007 3.644-4.208 5.845-2.201 2.201-4.393 3.504-5.845 4.209a1.39 1.39 0 01-1.587-.273l-1.203-1.21 2.522-2.508 1.456 1.437.39-.173c.062-.028 1.569-.71 3.264-2.406 1.697-1.697 2.365-3.19 2.392-3.253l.17-.384-1.437-1.483 2.6-2.597 1.213 1.208c.42.421.53 1.06.273 1.588z" fill="#0091FF"/></svg>