<svg width="32" height="28" fill="none" xmlns="http://www.w3.org/2000/svg"><g clip-path="url(#clip0)"><path d="M28.498 7.012H2.717a1.11 1.11 0 00-1.11 1.11V26.84a1.11 1.11 0 001.11 1.109h25.781a1.11 1.11 0 001.11-1.11V8.123a1.11 1.11 0 00-1.11-1.11z" fill="#fff"/><path d="M8.001 10.52h8V.02H9.2L8 10.52z" fill="#BBBDBF"/><path d="M24.001 10.52h-8V.02h6.802l1.198 10.5zm5.607-8.51l.01.035c-.003-.012-.008-.024-.01-.035z" fill="#DFEEF2"/><path d="M29.617 2.045l-.01-.036a2.53 2.53 0 00-2.47-1.99h-4.334L24 10.519h8l-2.383-8.474z" fill="#BBBDBF"/><path d="M2.394 2.01l-.01.036c.003-.013.008-.025.01-.036z" fill="#DFEEF2"/><path d="M2.384 2.045l.01-.036A2.53 2.53 0 014.864.02H9.2L8 10.519H0l2.384-8.474z" fill="#DFEEF2"/><path fill-rule="evenodd" clip-rule="evenodd" d="M8.014 10.516a3.998 3.998 0 11-7.995 0h7.995z" fill="#CFDDE1"/><path fill-rule="evenodd" clip-rule="evenodd" d="M16.01 10.516a3.998 3.998 0 11-7.996 0h7.996z" fill="#A3A3A4"/><path fill-rule="evenodd" clip-rule="evenodd" d="M24.005 10.516a3.998 3.998 0 01-7.995 0h7.995z" fill="#CFDDE1"/><path fill-rule="evenodd" clip-rule="evenodd" d="M32 10.516a3.998 3.998 0 01-7.996 0H32z" fill="#A3A3A4"/><path d="M28.002 21.347a7.544 7.544 0 00-.07-.586H23.57c0 .61 0 1.276-.003 1.886h2.526a2.198 2.198 0 01-.924 1.41s0-.01-.002-.01c-.31.202-.658.338-1.023.398a3.003 3.003 0 01-1.106-.004 2.764 2.764 0 01-1.032-.448 2.879 2.879 0 01-1.06-1.419v-.004l.005-.003a2.797 2.797 0 01-.002-1.8c.14-.41.369-.782.671-1.092a2.726 2.726 0 012.747-.715c.374.115.717.316.999.588l.852-.852c.15-.152.307-.299.451-.456a4.504 4.504 0 00-1.493-.924 4.694 4.694 0 00-3.227.01 4.668 4.668 0 00-2.521 2.259 4.639 4.639 0 002.941 6.562 4.961 4.961 0 002.372.025c.708-.16 1.362-.5 1.9-.987a4.23 4.23 0 001.172-1.933c.176-.618.24-1.264.188-1.905z" fill="#37474F"/></g><defs><clipPath id="clip0"><path fill="#fff" d="M0 0h32v27.968H0z"/></clipPath></defs></svg>