<svg width="24" height="21" fill="none" xmlns="http://www.w3.org/2000/svg"><path d="M21.373 5.26H2.037a.832.832 0 00-.832.831v14.04c0 .459.373.831.832.831h19.336c.46 0 .832-.372.832-.832V6.091a.832.832 0 00-.832-.831z" fill="#4989F5"/><path d="M21.13 5.142H2.257c-.584 0-1.04 4.524-1.04 5.109l10.337 10.71h9.578a1.066 1.066 0 001.063-1.062V6.204a1.066 1.066 0 00-1.063-1.062z" fill="url(#paint0_linear)"/><path d="M6 7.89h6V.013H6.898L6 7.89z" fill="#3C4BA6"/><path d="M18 7.89h-6V.013h5.102L18 7.89zm4.205-6.383l.007.027-.007-.027z" fill="#7BABF7"/><path d="M22.212 1.534l-.007-.027A1.898 1.898 0 0020.352.014h-3.25l.897 7.875h6l-1.787-6.355z" fill="#3F51B5"/><path d="M1.797 1.507l-.008.027.008-.027zm-.009.027l.007-.027A1.898 1.898 0 013.648.014H6.9L6 7.89H0l1.788-6.355z" fill="#7BABF7"/><path fill-rule="evenodd" clip-rule="evenodd" d="M6.01 7.887a2.998 2.998 0 01-5.996 0H6.01z" fill="#709BE0"/><path fill-rule="evenodd" clip-rule="evenodd" d="M12.008 7.887a2.998 2.998 0 01-5.996 0h5.996z" fill="#3C4BA6"/><path fill-rule="evenodd" clip-rule="evenodd" d="M18.005 7.887a2.998 2.998 0 01-5.997 0h5.997z" fill="#709BE0"/><path fill-rule="evenodd" clip-rule="evenodd" d="M24 7.887a2.998 2.998 0 01-5.996 0H24z" fill="#3C4BA6"/><path d="M21.003 16.01a5.655 5.655 0 00-.053-.44h-3.27c0 .458 0 .957-.003 1.415h1.895a1.645 1.645 0 01-.694 1.058v-.008a1.987 1.987 0 01-.768.299 2.075 2.075 0 01-1.604-.339 2.16 2.16 0 01-.794-1.064v-.004l.003-.002a2.099 2.099 0 01-.001-1.35c.104-.307.276-.587.503-.819a2.044 2.044 0 012.06-.536c.281.086.538.237.75.441l.639-.64c.113-.113.23-.223.338-.341a3.376 3.376 0 00-1.12-.694 3.52 3.52 0 00-2.42.008 3.5 3.5 0 00-1.891 1.695 3.48 3.48 0 002.206 4.921 3.72 3.72 0 001.779.019 3.154 3.154 0 001.424-.74c.42-.387.722-.903.88-1.45.132-.464.18-.948.141-1.429z" fill="#fff"/><defs><linearGradient id="paint0_linear" x1="1.217" y1="13.052" x2="22.193" y2="13.052" gradientUnits="userSpaceOnUse"><stop offset=".03" stop-color="#4079D8"/><stop offset="1" stop-color="#4989F5"/></linearGradient></defs></svg>