<svg width="202" height="278" fill="none" xmlns="http://www.w3.org/2000/svg"><g clip-path="url(#clip0)"><path d="M197.051 16.4H73.987a4.085 4.085 0 00-4.087 4.083v173.359a4.085 4.085 0 004.087 4.083h123.064a4.085 4.085 0 004.088-4.083V20.482a4.085 4.085 0 00-4.088-4.083z" fill="#0091FF"/><path opacity=".3" d="M197.051 16.4H73.987a4.085 4.085 0 00-4.087 4.083v173.359a4.085 4.085 0 004.087 4.083h123.064a4.085 4.085 0 004.088-4.083V20.482a4.085 4.085 0 00-4.088-4.083z" fill="#000"/><path d="M191.929 26.107H79.109v165.462h112.82V26.107z" fill="#E0E0E0"/><path d="M190.374 24.784H77.554v162.304h112.82V24.784z" fill="#EBEBEB"/><path d="M190.381 187.082c0-1.355-.065-66.537-.155-162.298l.155.148H77.573l.168-.167c0 60.945 0 117.248-.033 162.297l-.135-.134 112.827.134-112.827.135h-.134v-.135c0-45.049 0-101.352-.033-162.297v-.148h113.142v.154c-.11 95.774-.167 160.956-.167 162.311z" fill="#263238"/><path d="M150.355 187.081s28.991-11.023 39.756-29.307a30.149 30.149 0 01-23.169 4.815s-7.673 20.461-16.587 24.492z" fill="#E0E0E0"/><path d="M150.355 187.081l.482-.269c.481-.264.945-.558 1.388-.88a23.184 23.184 0 004.338-4.34c3.278-4.153 6.986-10.779 10.238-19.054l.052-.122h.122c3.457.694 7.011.765 10.494.212.919-.116 1.819-.36 2.745-.552.925-.193 1.825-.501 2.724-.835a30.587 30.587 0 005.302-2.459 18.744 18.744 0 001.768-1.162l.694-.533-.45.745a45.617 45.617 0 01-6.227 8.057 68.748 68.748 0 01-7.07 6.292 101.092 101.092 0 01-13.367 8.692 119.154 119.154 0 01-9.602 4.725 63.218 63.218 0 01-2.686 1.111l-.7.27a1.457 1.457 0 01-.251.077s.077-.045.238-.109l.694-.296c.604-.263 1.504-.642 2.654-1.168a135.836 135.836 0 009.544-4.815 102.974 102.974 0 0013.316-8.699 67.663 67.663 0 007.011-6.279 45.735 45.735 0 006.183-7.999l.244.212c-.579.428-1.18.827-1.8 1.194a31.258 31.258 0 01-5.36 2.478c-.912.34-1.844.59-2.763.847-.919.257-1.844.443-2.776.552a29.934 29.934 0 01-10.598-.237l.167-.097c-3.284 8.302-7.069 14.921-10.379 19.061a22.236 22.236 0 01-4.428 4.308c-.607.426-1.257.785-1.941 1.072z" fill="#263238"/><path d="M102.348 69.011h-9.396a2.197 2.197 0 00-2.198 2.196v9.386c0 1.212.984 2.195 2.198 2.195h9.396a2.197 2.197 0 002.198-2.195v-9.386a2.197 2.197 0 00-2.198-2.196z" fill="#0091FF"/><path d="M96.782 77.89a.321.321 0 01-.23-.115l-1.929-2.248a.327.327 0 01.039-.455.316.316 0 01.45 0l1.703 1.99 4.498-4.578a.33.33 0 01.457 0 .318.318 0 01.095.228.327.327 0 01-.095.228l-4.718 4.828a.354.354 0 01-.27.122z" fill="#fff"/><path d="M177.219 70.687c0 .096-14.679.167-32.776.167-18.098 0-32.776-.07-32.776-.167 0-.096 14.672-.167 32.776-.167 18.104 0 32.776.064 32.776.167zm-37.943 10.079c-.36.049-.723.07-1.086.065l-2.963.051c-2.494.032-5.951.051-9.762.051-3.811 0-7.269 0-9.769-.051l-2.962-.051a7.292 7.292 0 01-1.08-.065 6.322 6.322 0 011.08-.064l2.962-.058c2.5 0 5.951-.044 9.769-.044 3.817 0 7.268 0 9.762.044l2.963.058c.363-.01.726.012 1.086.064zm37.943-5.611c0 .09-14.679.167-32.776.167-18.098 0-32.776-.077-32.776-.167 0-.09 14.672-.167 32.776-.167 18.104 0 32.776.09 32.776.167z" fill="#263238"/><path d="M102.348 93.196h-9.396a2.197 2.197 0 00-2.198 2.195v9.386c0 1.213.984 2.196 2.198 2.196h9.396a2.197 2.197 0 002.198-2.196v-9.386a2.197 2.197 0 00-2.198-2.195z" fill="#0091FF"/><path d="M96.783 102.042a.299.299 0 01-.232-.109l-1.928-2.253a.323.323 0 01-.042-.355.321.321 0 01.53-.063l1.704 1.984 4.498-4.571a.324.324 0 01.472-.021.32.32 0 01.064.366.325.325 0 01-.079.104l-4.717 4.822a.337.337 0 01-.124.079.316.316 0 01-.146.017z" fill="#fff"/><path d="M177.219 94.87c0 .09-14.679.168-32.776.168-18.098 0-32.776-.077-32.776-.167 0-.09 14.672-.167 32.776-.167 18.104 0 32.776.077 32.776.167zm-37.943 10.08c-.36.049-.723.07-1.086.065l-2.963.051c-2.494 0-5.951.051-9.762.051-3.811 0-7.269 0-9.769-.051l-2.962-.051a7.225 7.225 0 01-1.08-.065 6.72 6.72 0 011.08-.07l2.962-.051c2.5-.033 5.951-.045 9.769-.045 3.817 0 7.268 0 9.762.045l2.963.051c.363-.006.726.017 1.086.07zm37.943-5.61c0 .09-14.679.166-32.776.166-18.098 0-32.776-.077-32.776-.167 0-.09 14.672-.167 32.776-.167 18.104 0 32.776.071 32.776.167z" fill="#263238"/><path d="M102.348 117.38h-9.396a2.197 2.197 0 00-2.198 2.195v9.386c0 1.213.984 2.196 2.198 2.196h9.396a2.197 2.197 0 002.198-2.196v-9.386a2.197 2.197 0 00-2.198-2.195z" fill="#0091FF"/><path d="M96.783 126.252a.311.311 0 01-.232-.109l-1.928-2.254a.318.318 0 01.036-.452.317.317 0 01.233-.076.317.317 0 01.22.111l1.703 1.984 4.498-4.571a.329.329 0 01.231-.114.317.317 0 01.313.202.317.317 0 01-.087.361l-4.717 4.822a.33.33 0 01-.27.096z" fill="#fff"/><path d="M177.219 119.055c0 .09-14.679.167-32.776.167-18.098 0-32.776-.077-32.776-.167 0-.09 14.672-.167 32.776-.167 18.104 0 32.776.071 32.776.167zm-37.943 10.073c-.36.052-.723.074-1.086.064l-2.963.058c-2.494 0-5.951.045-9.762.045-3.811 0-7.269 0-9.769-.045l-2.962-.058a6.292 6.292 0 01-1.08-.064 7.36 7.36 0 011.08-.064l2.962-.051c2.5 0 5.951-.052 9.769-.052 3.817 0 7.268 0 9.762.052l2.963.051c.363-.006.726.016 1.086.064zm37.943-5.611c0 .097-14.679.167-32.776.167-18.098 0-32.776-.07-32.776-.167 0-.096 14.672-.167 32.776-.167 18.104 0 32.776.078 32.776.167z" fill="#263238"/><path d="M102.348 141.557h-9.396a2.197 2.197 0 00-2.198 2.196v9.386c0 1.212.984 2.195 2.198 2.195h9.396a2.197 2.197 0 002.198-2.195v-9.386a2.197 2.197 0 00-2.198-2.196z" fill="#0091FF"/><path d="M96.782 150.436a.316.316 0 01-.23-.115l-1.929-2.247a.328.328 0 01.148-.518.326.326 0 01.244.021c.037.02.07.047.097.079l1.703 1.984 4.498-4.577a.326.326 0 01.527.102.32.32 0 01-.07.347l-4.718 4.828a.36.36 0 01-.27.096z" fill="#fff"/><path d="M177.219 143.24c0 .089-14.679.166-32.776.166-18.098 0-32.776-.077-32.776-.166 0-.09 14.672-.174 32.776-.174 18.104 0 32.776.064 32.776.174zm-37.943 10.072c-.36.053-.723.074-1.086.064l-2.963.052c-2.494 0-5.951.051-9.762.051-3.811 0-7.269 0-9.769-.051l-2.962-.052a6.292 6.292 0 01-1.08-.064 6.292 6.292 0 011.08-.064l2.962-.051c2.5-.032 5.951-.052 9.769-.052 3.817 0 7.268 0 9.762.052l2.963.051c.363-.01.726.012 1.086.064zm37.943-5.611c0 .09-14.679.167-32.776.167-18.098 0-32.776-.077-32.776-.167 0-.089 14.672-.166 32.776-.166 18.104 0 32.776.089 32.776.166zM93.89 14.679v8.494a8.916 8.916 0 002.615 6.314 8.93 8.93 0 006.319 2.616h62.403a8.944 8.944 0 006.321-2.616 8.927 8.927 0 002.618-6.314V14.73l-80.275-.051z" fill="#263238"/><path d="M133.967 17.19a8.36 8.36 0 01-7.718-5.153 8.336 8.336 0 011.811-9.095 8.356 8.356 0 019.104-1.81 8.352 8.352 0 015.158 7.711 8.382 8.382 0 01-2.458 5.89 8.4 8.4 0 01-5.897 2.456zm0-13.534a5.142 5.142 0 00-4.75 3.17 5.127 5.127 0 001.115 5.597 5.143 5.143 0 008.777-3.631 5.175 5.175 0 00-5.142-5.136zM101.93 53.07c-.647 0-1.237-.15-1.77-.45a3.414 3.414 0 01-1.27-1.27 3.695 3.695 0 01-.46-1.84c0-.68.153-1.29.46-1.83a3.32 3.32 0 011.27-1.27 3.485 3.485 0 011.77-.46c.653 0 1.247.153 1.78.46.533.3.953.72 1.26 1.26.307.54.46 1.153.46 1.84s-.153 1.3-.46 1.84c-.307.54-.727.963-1.26 1.27-.533.3-1.127.45-1.78.45zm0-.79c.487 0 .923-.113 1.31-.34.393-.227.7-.55.92-.97.227-.42.34-.907.34-1.46 0-.56-.113-1.047-.34-1.46a2.368 2.368 0 00-.91-.97 2.562 2.562 0 00-1.32-.34 2.56 2.56 0 00-1.32.34 2.44 2.44 0 00-.92.97c-.22.413-.33.9-.33 1.46 0 .553.11 1.04.33 1.46.227.42.533.743.92.97.393.227.833.34 1.32.34zm9.561-4.76V53h-.91v-.81c-.173.28-.416.5-.73.66-.306.153-.646.23-1.02.23-.426 0-.81-.087-1.15-.26a1.99 1.99 0 01-.81-.8c-.193-.353-.29-.783-.29-1.29v-3.21h.9v3.09c0 .54.137.957.41 1.25.274.287.647.43 1.12.43.487 0 .87-.15 1.15-.45.28-.3.42-.737.42-1.31v-3.01h.91zm2.447.89a1.75 1.75 0 01.68-.73c.3-.173.663-.26 1.09-.26v.94h-.24c-1.02 0-1.53.553-1.53 1.66V53h-.91v-5.48h.91v.89zm12.456-1.05c.694 0 1.244.21 1.65.63.414.42.62 1.003.62 1.75V53h-1.7v-3.03c0-.36-.096-.637-.29-.83-.186-.2-.446-.3-.78-.3-.333 0-.596.1-.79.3-.186.193-.28.47-.28.83V53h-1.7v-3.03c0-.36-.096-.637-.29-.83-.186-.2-.446-.3-.78-.3-.333 0-.596.1-.79.3-.186.193-.28.47-.28.83V53h-1.71v-5.58h1.71v.7c.174-.233.4-.417.68-.55.28-.14.597-.21.95-.21.42 0 .794.09 1.12.27.334.18.594.437.78.77a2.25 2.25 0 01.79-.75 2.14 2.14 0 011.09-.29zm6.006 5.72c-.546 0-1.04-.117-1.48-.35a2.612 2.612 0 01-1.03-1c-.246-.433-.37-.94-.37-1.52 0-.573.127-1.077.38-1.51.254-.44.6-.777 1.04-1.01.44-.233.934-.35 1.48-.35.547 0 1.04.117 1.48.35.44.233.787.57 1.04 1.01.254.433.38.937.38 1.51s-.13 1.08-.39 1.52a2.568 2.568 0 01-1.05 1c-.44.233-.933.35-1.48.35zm0-1.48c.327 0 .604-.12.83-.36.234-.24.35-.583.35-1.03 0-.447-.113-.79-.34-1.03-.22-.24-.493-.36-.82-.36-.333 0-.61.12-.83.36-.22.233-.33.577-.33 1.03 0 .447.107.79.32 1.03.22.24.494.36.82.36zm6.337-.2l1.21-3.98h1.82l-1.98 5.58h-2.11l-1.98-5.58h1.83l1.21 3.98zm9.01-1.28c0 .16-.01.327-.03.5h-3.87c.027.347.137.613.33.8.2.18.444.27.73.27.427 0 .724-.18.89-.54h1.82a2.456 2.456 0 01-.51.99 2.48 2.48 0 01-.91.69 2.93 2.93 0 01-1.23.25 2.996 2.996 0 01-1.46-.35 2.494 2.494 0 01-1-1c-.24-.433-.36-.94-.36-1.52 0-.58.117-1.087.35-1.52.24-.433.574-.767 1-1 .427-.233.917-.35 1.47-.35.54 0 1.02.113 1.44.34.42.227.747.55.98.97.24.42.36.91.36 1.47zm-1.75-.45c0-.293-.1-.527-.3-.7-.2-.173-.45-.26-.75-.26-.286 0-.53.083-.73.25-.193.167-.313.403-.36.71h2.14zm6.481-1.46c.167-.26.397-.47.69-.63a2.12 2.12 0 011.03-.24c.46 0 .877.117 1.25.35.374.233.667.567.88 1 .22.433.33.937.33 1.51s-.11 1.08-.33 1.52c-.213.433-.506.77-.88 1.01a2.31 2.31 0 01-1.25.35c-.386 0-.73-.08-1.03-.24a1.895 1.895 0 01-.69-.62v3.44h-1.71v-8.24h1.71v.79zm2.44 1.99c0-.427-.12-.76-.36-1a1.148 1.148 0 00-.87-.37c-.34 0-.63.123-.87.37-.233.247-.35.583-.35 1.01 0 .427.117.763.35 1.01.24.247.53.37.87.37.34 0 .63-.123.87-.37.24-.253.36-.593.36-1.02zm4.348-4.6V53h-1.71v-7.4h1.71zm.899 4.6c0-.573.106-1.077.32-1.51.22-.433.516-.767.89-1a2.31 2.31 0 011.25-.35c.393 0 .736.08 1.03.24.3.16.53.37.69.63v-.79h1.71V53h-1.71v-.79c-.167.26-.4.47-.7.63a2.12 2.12 0 01-1.03.24 2.29 2.29 0 01-1.24-.35 2.527 2.527 0 01-.89-1.01c-.214-.44-.32-.947-.32-1.52zm4.18.01c0-.427-.12-.763-.36-1.01a1.138 1.138 0 00-.86-.37c-.34 0-.63.123-.87.37-.234.24-.35.573-.35 1 0 .427.116.767.35 1.02.24.247.53.37.87.37.34 0 .626-.123.86-.37.24-.247.36-.583.36-1.01zm6.347-2.85c.653 0 1.173.213 1.56.64.393.42.59 1 .59 1.74V53h-1.7v-3.03c0-.373-.097-.663-.29-.87-.193-.207-.453-.31-.78-.31s-.587.103-.78.31c-.193.207-.29.497-.29.87V53h-1.71v-5.58h1.71v.74c.173-.247.407-.44.7-.58a2.18 2.18 0 01.99-.22z" fill="#263238"/><path d="M127.6 203.744c-.642-.963-1.439-1.323-2.371-1.99a4.908 4.908 0 01-2.134-2.568c-.283-1.111.411-2.51 1.555-2.568 1.144-.058 1.883 1.142 2.385 2.163.874 1.804 2.153 3.942 3.033 5.746" fill="#0091FF"/><path opacity=".4" d="M127.6 203.744c-.642-.963-1.439-1.323-2.371-1.99a4.908 4.908 0 01-2.134-2.568c-.283-1.111.411-2.51 1.555-2.568 1.144-.058 1.883 1.142 2.385 2.163.874 1.804 2.153 3.942 3.033 5.746" fill="#000"/><path d="M124.123 202.909c-3.13-.757-6.683-1.219-9.826-.52-1.523.341-3.175 1.284-3.297 2.857a3.107 3.107 0 001.459 2.632c2.14 1.49 5.096.983 7.461-.115s5-3.024 7.108-4.173" fill="#0091FF"/><path opacity=".4" d="M124.123 202.909c-3.13-.757-6.683-1.219-9.826-.52-1.523.341-3.175 1.284-3.297 2.857a3.107 3.107 0 001.459 2.632c2.14 1.49 5.096.983 7.461-.115s5-3.024 7.108-4.173" fill="#000"/><path d="M136.514 207.377a22.16 22.16 0 00-8.997 1.381 6.618 6.618 0 00-3.329 2.298c-1.138 1.746-.579 4.276.996 5.65a6.255 6.255 0 005.899 1.014 10.276 10.276 0 004.91-3.711 28.772 28.772 0 003.349-4.962" fill="#0091FF"/><path opacity=".4" d="M136.514 207.377a22.16 22.16 0 00-8.997 1.381 6.618 6.618 0 00-3.329 2.298c-1.138 1.746-.579 4.276.996 5.65a6.255 6.255 0 005.899 1.014 10.276 10.276 0 004.91-3.711 28.772 28.772 0 003.349-4.962" fill="#000"/><path d="M144.823 212.912a13.479 13.479 0 01-2.416-5.323 4.243 4.243 0 01-.083-1.727c.049-.287.166-.559.342-.792.175-.234.404-.422.666-.549a1.87 1.87 0 011.928.455 4.93 4.93 0 011.087 1.74c1.491 3.474 2.095 7.383 2.892 11.081" fill="#0091FF"/><path opacity=".4" d="M144.823 212.912a13.479 13.479 0 01-2.416-5.323 4.243 4.243 0 01-.083-1.727c.049-.287.166-.559.342-.792.175-.234.404-.422.666-.549a1.87 1.87 0 011.928.455 4.93 4.93 0 011.087 1.74c1.491 3.474 2.095 7.383 2.892 11.081" fill="#000"/><path d="M147.002 215.769a14.023 14.023 0 00-11.324 3.21 6.657 6.657 0 00-2.037 2.728 3.354 3.354 0 00.443 3.255c.952 1.117 2.674 1.246 4.069.79 1.658-.539 3.014-1.734 4.318-2.889l6.196-5.528" fill="#0091FF"/><path opacity=".4" d="M147.002 215.769a14.023 14.023 0 00-11.324 3.21 6.657 6.657 0 00-2.037 2.728 3.354 3.354 0 00.443 3.255c.952 1.117 2.674 1.246 4.069.79 1.658-.539 3.014-1.734 4.318-2.889l6.196-5.528" fill="#000"/><path d="M147.188 199.718a17.986 17.986 0 012.366-7.002 17.984 17.984 0 014.987-5.459 9.047 9.047 0 014.203-1.785 4.552 4.552 0 014.106 1.618c1.112 1.522.849 3.685 0 5.38-1.337 2.761-3.926 4.77-6.761 5.939a29.016 29.016 0 01-8.997 1.797m-2.866-11.414c.514-3.133 2.166-5.977 4.087-8.5a9.62 9.62 0 012.102-2.17 3.846 3.846 0 012.872-.694 3.472 3.472 0 012.571 3.005 5.189 5.189 0 01-1.324 3.852 10.622 10.622 0 01-3.355 2.485 24.138 24.138 0 01-6.786 2.298m-1.671-9.964c.038-4.051 1.684-8.648 4.762-11.28.546-.462 1.285-.905 1.928-.552.316.232.543.565.643.944a8.115 8.115 0 01-.884 7.334 8.12 8.12 0 01-6.468 3.58m-.225-3.994c-.116-3.505-1.928-6.471-4.107-9.219-.501-.642-1.17-1.284-1.973-1.239-1.112.051-1.722 1.335-1.838 2.44a7.553 7.553 0 001.928 5.778c1.427 1.541 3.856 2.272 5.983 2.234m.797-9.54c-1.812-2.896-2.101-7.704-.385-10.67a6.317 6.317 0 012.281-2.388 3.829 3.829 0 013.214-.315c1.767.7 2.538 2.927 2.12 4.783-.417 1.855-1.741 3.364-3.149 4.642-1.407 1.277-2.956 2.426-4.087 3.948m.315 19.927a24.81 24.81 0 00-3.618-4.352 9.768 9.768 0 00-4.994-2.523 6.12 6.12 0 00-2.804.184 6.119 6.119 0 00-2.427 1.414 4.494 4.494 0 00-.836 5.213c.726 1.284 2.115 2.022 3.503 2.517a16.499 16.499 0 0011.375-.129m2.905 10.183a12.216 12.216 0 00-5.527-4.302 9.008 9.008 0 00-6.915.244c-1.035.508-2.037 1.413-2.031 2.568.006 1.156 1.073 2.08 2.114 2.658a14.322 14.322 0 0012.52.572m5.308 16.069a11.466 11.466 0 011.401-8.385 13.23 13.23 0 016.889-5.566 7.086 7.086 0 013.4-.462 3.68 3.68 0 012.764 1.855c.867 1.766-.302 3.949-1.928 5.027a23.477 23.477 0 01-5.322 2.716c-2.892.956-5.52 4.263-6.651 6.6m2.744 11.414a18.252 18.252 0 012.95-10.496 9.986 9.986 0 014.267-4.103c1.832-.796 4.197-.642 5.578.828 1.768 1.862 1.286 5.046-.372 7.017-1.659 1.971-4.081 3.05-6.427 4.122-2.346 1.072-4.158 2.305-5.566 4.449m1.588 9.02c.906-3.255 1.928-6.554 3.939-9.257 2.012-2.703 5.27-4.719 8.631-4.398 1.594.154 3.214.95 3.856 2.414.791 1.823-.231 3.929-1.542 5.418a14.607 14.607 0 01-6.947 4.392c-1.498.423-3.066.642-4.499 1.155-1.433.514-2.853 1.554-3.348 3.031m.186 1.746c-1.047-3.435-4.177-5.778-7.326-7.518-2.359-1.284-4.994-2.382-7.661-2.048-2.667.334-5.257 2.568-5.083 5.252.173 2.683 2.994 4.596 5.7 4.981 2.706.386 5.463-.231 8.194-.173 2.731.058 5.328.835 6.465 3.319m-1.979-15.6a10.913 10.913 0 00-7.712-7.062 4.264 4.264 0 00-3.091.205 3.264 3.264 0 00-1.17 3.955 5.335 5.335 0 003.297 2.85c1.442.426 2.937.643 4.441.642a16.104 16.104 0 014.441.597m-23.162-28.229a6.072 6.072 0 01-1.677-2.741 1.38 1.38 0 01.038-1.015 1.046 1.046 0 011.215-.359 2.88 2.88 0 011.079.809 32.689 32.689 0 013.638 5.328" fill="#0091FF"/><path d="M147.002 154.483a1.691 1.691 0 01-.096.238c-.077.166-.187.391-.315.674l-.521 1.091c-.18.443-.392.95-.642 1.522a41.244 41.244 0 00-1.401 4.295 44.11 44.11 0 00-1.106 5.867 57.453 57.453 0 00.379 15.518 130.455 130.455 0 004.647 18.489c2.031 6.459 4.158 12.564 5.675 18.252a136.328 136.328 0 013.213 15.28c.643 4.398.964 7.986 1.131 10.464.077 1.24.129 2.203.148 2.857v.745c.007.086.007.171 0 .257a1.575 1.575 0 010-.257l-.058-.738c-.051-.674-.116-1.631-.206-2.851a141.253 141.253 0 00-4.485-25.68c-1.53-5.662-3.67-11.761-5.701-18.232a128.472 128.472 0 01-4.627-18.541 56.88 56.88 0 01-.315-15.588 44.94 44.94 0 011.157-5.894 41.022 41.022 0 011.465-4.288c.244-.572.463-1.079.643-1.515.18-.437.398-.784.546-1.085.148-.302.264-.495.347-.642.032-.084.073-.164.122-.238z" fill="#263238"/><path d="M120.46 202.357c.156-.019.313-.019.469 0 .309.032.759.058 1.337.148 1.636.218 3.257.542 4.852.969a43.22 43.22 0 0114.666 7.017 41.164 41.164 0 016.619 6.08 37.567 37.567 0 014.242 5.99 39.15 39.15 0 012.185 4.436c.238.533.385.963.495 1.252.065.141.115.29.148.443a2.616 2.616 0 01-.206-.418c-.135-.276-.302-.699-.553-1.226a46.81 46.81 0 00-2.275-4.365 38.642 38.642 0 00-4.267-5.907 41.8 41.8 0 00-6.587-6.015 44.484 44.484 0 00-14.525-7.062 45.99 45.99 0 00-4.8-1.04c-.572-.109-1.022-.161-1.324-.212a4.291 4.291 0 01-.476-.09zm36.767-11.453c-.537.418-1.097.806-1.677 1.162a32.435 32.435 0 00-3.856 3.075 33.028 33.028 0 00-3.304 3.621 17.846 17.846 0 01-1.285 1.605c.059-.174.143-.339.251-.488.18-.308.456-.738.822-1.284a25.694 25.694 0 017.185-6.754c.54-.334.99-.584 1.286-.745.181-.094.376-.159.578-.192zm4.235 14.201c0 .058-.842.347-2.088 1.085a13.489 13.489 0 00-6.356 8.93c-.296 1.419-.29 2.331-.347 2.331a2.234 2.234 0 01-.045-.642c.007-.581.058-1.161.154-1.734a12.757 12.757 0 016.478-9.09c.502-.274 1.024-.51 1.562-.707.204-.09.42-.148.642-.173zm1.658 13.36c0 .051-.642.475-1.671 1.329a16.297 16.297 0 00-5.244 8.596c-.295 1.284-.353 2.093-.418 2.087a2.072 2.072 0 010-.578c.024-.524.088-1.046.193-1.56a14.97 14.97 0 011.89-4.841 14.748 14.748 0 013.438-3.884c.407-.327.836-.626 1.285-.892.162-.112.34-.199.527-.257zm4.235 12.898c0 .057-.739.372-1.876 1.033a18.804 18.804 0 00-7.07 7.274c-.642 1.162-.919 1.926-.976 1.926.023-.193.075-.381.154-.558a12.7 12.7 0 01.643-1.458 16.751 16.751 0 017.165-7.376c.465-.248.946-.462 1.44-.642.163-.092.338-.159.52-.199zm-20.128-3.281a4.331 4.331 0 011.613 0 9.884 9.884 0 016.581 3.89 4.7 4.7 0 01.797 1.406c-.051 0-.354-.507-.977-1.284a11.116 11.116 0 00-6.427-3.8c-.97-.148-1.587-.154-1.587-.212zm-1.542 11.864s.135-.173.482-.334a3.067 3.067 0 011.581-.218 6.914 6.914 0 012.243.732c.79.379 1.658.802 2.538 1.284a17.546 17.546 0 014.178 3.088c.366.381.702.791 1.002 1.226.119.152.214.321.283.501-.052.038-.501-.642-1.453-1.56a20.131 20.131 0 00-4.17-2.966 41.106 41.106 0 00-2.513-1.284 7.27 7.27 0 00-2.14-.777 3.42 3.42 0 00-2.031.308z" fill="#263238"/><path d="M147.78 216.834a21.975 21.975 0 00-5.219 1.695 21.854 21.854 0 00-4.434 3.21 5.133 5.133 0 011.06-1.239 13.797 13.797 0 016.967-3.55 5.26 5.26 0 011.626-.116zm-.109-.321a4.418 4.418 0 01-.707-1.104 19.27 19.27 0 01-1.241-2.896 18.997 18.997 0 01-.758-3.055 4.17 4.17 0 01-.096-1.284c.102 0 .392 1.926 1.169 4.256.778 2.33 1.723 4.032 1.633 4.083zm-.99-17.327a34.449 34.449 0 00-4.55-1.746 33.253 33.253 0 00-4.82-.732 4.408 4.408 0 011.439-.097 15.13 15.13 0 013.464.508 15.31 15.31 0 013.252 1.284c.441.201.85.464 1.215.783zm6.426-18.612c-.44.395-.911.756-1.407 1.079a42.817 42.817 0 00-3.297 2.696 43.31 43.31 0 00-3.001 3.018c-.37.46-.776.889-1.215 1.284a7.677 7.677 0 011.035-1.445 28.742 28.742 0 016.343-5.778c.481-.34.999-.626 1.542-.854zm-8.997 6.94c-.53-.255-1.045-.54-1.542-.854a25.451 25.451 0 00-7.789-2.78 11.659 11.659 0 01-1.697-.327 6.639 6.639 0 011.735.096 20.048 20.048 0 017.866 2.806 6.465 6.465 0 011.427 1.059zm3.811-16.005c.077.071-1.343 1.509-2.808 3.499-1.466 1.99-2.43 3.768-2.519 3.717.12-.428.302-.837.539-1.213a21.422 21.422 0 011.716-2.697 22.246 22.246 0 012.076-2.439c.288-.336.624-.628.996-.867zm-5.559 3.255a11.062 11.062 0 01-.777-1.156 17.205 17.205 0 00-2.192-2.523c-.951-.905-1.883-1.656-2.571-2.208a6.178 6.178 0 01-1.047-.938 5.71 5.71 0 011.215.745 25.138 25.138 0 012.634 2.151 12.794 12.794 0 012.16 2.638c.271.391.467.829.578 1.291zm-4.274 33.422a28.35 28.35 0 00-4.26 1.638 29.593 29.593 0 00-3.766 2.568c.251-.381.561-.719.919-1.002a13.342 13.342 0 015.784-3.024 4.2 4.2 0 011.323-.18zm-13.817-4.995c0 .103-2.031.225-4.441.874-2.41.648-4.235 1.547-4.28 1.457.349-.282.739-.51 1.157-.674a18.436 18.436 0 016.253-1.663 4.719 4.719 0 011.311.006zm4.145.938a10.265 10.265 0 01-1.433-2.247 10.994 10.994 0 01-1.137-2.382 10.79 10.79 0 011.433 2.247c.472.747.854 1.546 1.137 2.382z" fill="#263238"/><path opacity=".4" d="M133.095 205.541a6.072 6.072 0 01-1.677-2.741 1.38 1.38 0 01.038-1.015 1.046 1.046 0 011.215-.359 2.88 2.88 0 011.079.809 32.689 32.689 0 013.638 5.328" fill="#000"/><path d="M143.776 250.032h28.676v12.314c0 3.798-1.511 7.442-4.2 10.128a14.346 14.346 0 01-20.277 0 14.316 14.316 0 01-4.199-10.128v-12.314z" fill="#455A64"/><path d="M172.42 258.686a7.949 7.949 0 01-1.112-.334c-.714-.224-1.735-.578-3.027-.892a14.208 14.208 0 00-4.608-.462 9.883 9.883 0 00-2.661.603c-.893.328-1.793.751-2.744 1.136-.925.406-1.903.68-2.905.816a9.044 9.044 0 01-2.808-.186c-1.748-.392-3.214-1.015-4.499-1.406a13.48 13.48 0 00-3.072-.642h-.855c-.1.015-.202.015-.302 0 .098-.03.2-.045.302-.045.286-.04.574-.053.862-.039 1.065.054 2.12.246 3.136.572 1.285.366 2.776.963 4.499 1.329.889.196 1.805.25 2.712.16a10.48 10.48 0 002.808-.796c.945-.379 1.851-.803 2.763-1.136a10.383 10.383 0 012.745-.604c1.583-.089 3.17.094 4.691.539 1.285.354 2.314.739 3.014 1.002l.797.321c.09.014.178.035.264.064z" fill="#263238"/><path d="M172.42 256.966a7.949 7.949 0 01-1.112-.334c-.714-.231-1.735-.578-3.027-.899a14.378 14.378 0 00-4.608-.462c-.91.082-1.805.288-2.661.61-.893.327-1.793.751-2.744 1.136a11.11 11.11 0 01-2.905.816 9.017 9.017 0 01-2.808-.193c-1.748-.392-3.214-1.008-4.499-1.406a13.834 13.834 0 00-3.072-.642 6.1 6.1 0 00-.855 0h-.302a.891.891 0 01.302-.051c.286-.037.574-.048.862-.032 1.066.047 2.12.237 3.136.565 1.285.372 2.776.969 4.499 1.329a8.64 8.64 0 002.712.166 10.986 10.986 0 002.808-.796c.945-.385 1.851-.809 2.763-1.136a10.174 10.174 0 012.745-.61 14.27 14.27 0 014.691.539c1.022.283 2.028.619 3.014 1.008l.797.321c.174.013.27.058.264.071z" fill="#263238"/><path d="M40.215 173.649s3.491-4.114.208-6.732c0 0-2.369-1.455-4.322-1.33 0 0 2.743 4.696 1.87 5.153-.872.457-2.7-5.444-2.7-5.444s-5.445-.54-7.19.332c0 0 4.654 3.865 3.657 4.073-.997.208-5.984-3.532-5.984-3.532s-5.07.872-4.78 3.989c.292 3.117 1.995 4.072 2.785 3.989.748-.083 5.236-1.828 5.36-1.163.084.623-2.617 2.701-4.487 2.826 0 0 3.573 3.989 5.942 2.825 2.369-1.163 2.577-2.992 4.031-3.657 1.496-.664 2.743-.664 2.12 0-.624.707-3.283 1.372-4.114 2.909-.832 1.496-1.621 2.535.83 2.161 2.453-.374 6.442-2.202 6.608-4.28l.166-2.119z" fill="#407BFF"/><path d="M23.427 170.199s13.755-.54 16.788 3.45c0 0 .665 2.036 2.743 3.906l.333.873s-2.37-2.535-3.242-2.702c-.041 0 1.288-4.945-16.622-5.527z" fill="#407BFF"/><path d="M42.916 177.513s2.951 2.203 3.159 6.151l-.54.041s-.956-4.072-2.66-5.693c-1.662-1.579.041-.499.041-.499z" fill="#407BFF"/><path d="M52.391 168.454s-5.527-3.158-2.95-7.397c0 0 2.078-2.618 4.28-3.283 0 0-1.163 6.358 0 6.525 1.164.166.831-7.19.831-7.19s5.818-2.826 8.145-2.618c0 0-3.615 6.234-2.452 6.068 1.164-.167 5.237-6.442 5.237-6.442s5.984-1.122 6.94 2.452c.955 3.574-.582 5.402-1.496 5.61-.873.208-6.566.166-6.442.914.166.748 3.99 1.954 6.15 1.289 0 0-2.368 5.901-5.485 5.61-3.117-.291-4.072-2.244-5.984-2.41-1.911-.167-3.325.374-2.369.914s4.197.166 5.777 1.496c1.537 1.33 2.825 2.161-.083 2.743-2.868.581-8.062.207-9.101-2.037l-.998-2.244z" fill="#0091FF"/><path d="M69.679 157.691s-15.5 5.112-17.288 10.763c0 0 .084 2.535-1.495 5.444v1.122s1.62-3.823 2.493-4.322c.041 0-3.45-4.945 16.29-13.007z" fill="#407BFF"/><path d="M50.895 173.898s-2.41 3.699-1.039 8.145l.624-.166s-.582-4.945.665-7.438c1.246-2.494-.25-.541-.25-.541z" fill="#407BFF"/><path d="M43.581 164.132s7.314-4.155 3.907-9.765c0 0-2.743-3.45-5.652-4.322 0 0 1.58 8.394 0 8.602-1.58.208-1.08-9.475-1.08-9.475s-7.688-3.74-10.722-3.449c0 0 4.78 8.186 3.2 7.979-1.58-.208-6.899-8.478-6.899-8.478s-7.895-1.496-9.142 3.242c-1.247 4.737.79 7.106 1.953 7.397 1.164.291 8.686.207 8.478 1.163-.208.998-5.278 2.577-8.104 1.662 0 0 3.117 7.813 7.19 7.398 4.072-.375 5.36-2.951 7.895-3.159 2.535-.208 4.364.499 3.117 1.164-1.247.706-5.569.208-7.605 1.995-2.036 1.745-3.698 2.867.083 3.656 3.782.79 10.639.291 11.969-2.659l1.413-2.951z" fill="#0091FF"/><path d="M20.767 149.92s20.446 6.691 22.815 14.213c0 0-.084 3.366 1.953 7.189v1.496s-2.161-5.029-3.325-5.735c0 0 4.571-6.524-21.443-17.163z" fill="#407BFF"/><path d="M45.493 171.322s3.158 4.862 1.371 10.763l-.83-.208s.789-6.524-.873-9.766c-1.621-3.324.332-.789.332-.789z" fill="#407BFF"/><path d="M43.79 194.884c-7.896 0-14.296-6.483-14.296-14.503h28.632c0 8.02-6.4 14.503-14.337 14.503z" fill="#799EE8"/><path d="M29.286 195.632h29.006c0-.997-.789-1.787-1.786-1.787H31.032c-.956 0-1.746.79-1.746 1.787zm-.109-14.788H58.6v-.457H29.178v.457z" fill="#799EE8"/><path d="M0 277.742h62.21v-51.946H0v51.946z" fill="#C3DAFC"/><path d="M31.136 277.742h62.21v-51.946h-62.21v51.946z" fill="#D4E4F8"/><path d="M.03 264.574h9.89l-.872-2.826.873-1.995H.03v4.821z" fill="#2A4E96"/><path d="M31.114 241.884h9.85l-.873-2.826.872-1.994h-9.849v4.82z" fill="#618DC1"/><path d="M31.115 237.064h-9.85l.873 2.784-.872 2.036h9.849v-4.82z" fill="#2A4E96"/><path d="M93.325 265.114h-9.85l.873 2.826-.872 1.995h9.849v-4.821z" fill="#618DC1"/><path d="M89.252 229.334h-17.91v7.065h17.91v-7.065z" fill="#fff"/><path d="M69.845 195.632H33.774v30.129h36.071v-30.129z" fill="#ED823A"/><path d="M51.851 195.632h-36.07v30.129h36.07v-30.129z" fill="#FF9E55"/><path d="M69.804 218.114H64.11l.5-1.621-.5-1.163h5.694v2.784z" fill="#DD732C"/><path d="M51.81 204.982h-5.694l.499-1.62-.499-1.164h5.693v2.784z" fill="#FFB27D"/><path d="M51.81 202.198h5.734l-.498 1.621.498 1.163H51.81v-2.784z" fill="#DD732C"/><path d="M15.78 218.447h5.694l-.5 1.62.5 1.164H15.78v-2.784z" fill="#FFB27D"/><path d="M108.784 241.885h-42.97v35.863h42.97v-35.863z" fill="#ED823A"/><path d="M87.299 241.885h-42.97v35.863H87.3v-35.863z" fill="#FF9E55"/><path d="M108.742 268.647h-6.815l.623-1.953-.623-1.372h6.815v3.325z" fill="#DD732C"/><path d="M87.299 252.98h-6.815l.581-1.953-.581-1.372h6.815v3.325z" fill="#FFB27D"/><path d="M87.3 249.655h6.814l-.623 1.953.623 1.372H87.3v-3.325z" fill="#DD732C"/><path d="M44.33 269.021h6.815l-.623 1.953.623 1.372H44.33v-3.325z" fill="#FFB27D"/><path d="M94.987 208.764c-.25 1.08-.831 2.784-1.58 4.862-.249.707-.498 1.455-.789 2.203a201.822 201.822 0 01-1.912 5.069 953.607 953.607 0 01-3.075 7.938c-1.246 3.158-2.16 5.36-2.16 5.36l1.33 3.242-11.263-2.577 2.577-2.368s.125-2.369.374-5.777c.166-2.493.374-5.568.623-8.602.125-1.828.291-3.657.457-5.361.125-1.413.25-2.742.374-3.906.167-1.454.333-2.701.499-3.491a6.702 6.702 0 01.831-2.161c1.953-3.241 6.192-3.906 6.566-5.568.042-.25.083-.54.125-.873.25-2.618-.042-7.896-.042-7.896l7.356 1.704s-2.452 4.53-3.366 6.982c-.125.374-.25.665-.291.955-.374 1.663 3.2 4.115 3.574 7.896.041.79 0 1.538-.208 2.369z" fill="#F99746"/><path d="M94.987 208.764c-.25 1.081-.831 2.784-1.58 4.862-.248.707-.498 1.455-.789 2.203-.083 0-3.906.789-13.048-2.992.124-1.413.249-2.743.374-3.907.166-1.454.332-2.701.498-3.49a6.686 6.686 0 01.831-2.161s6.608 3.366 13.88 3.199a6.268 6.268 0 01-.166 2.286z" fill="#fff"/><path d="M92.992 214.831s-.54-.415-1.455-1.205c-.457-.374-.83-.208-1.288.042-.457.207-.956.498-1.662.374-.665-.125-.997-.458-1.288-.748-.416-.416-.79-.79-1.87-.665-1.704.207-2.12-.208-2.868-.956l-.457-.457c-1.039-.956-2.202-.25-2.202-.25l-.083-.124s1.246-.748 2.368.249l.457.457c.748.707 1.122 1.081 2.785.914 1.163-.124 1.579.291 1.995.707.29.291.623.623 1.205.706.664.125 1.163-.124 1.579-.332.498-.249.914-.457 1.454-.042.914.79 1.455 1.206 1.455 1.206l-.125.124z" fill="#F99746"/><path d="M93.158 214.083s-.54-.415-1.454-1.205c-.458-.374-.832-.208-1.289.042-.457.207-.956.498-1.662.374-.665-.125-.997-.458-1.288-.748-.416-.416-.79-.79-1.87-.665-1.704.207-2.12-.208-2.868-.956l-.457-.457c-1.039-.956-2.202-.25-2.202-.25l-.083-.124s1.246-.748 2.368.249l.458.457c.747.707 1.121 1.081 2.784.914 1.163-.124 1.579.291 1.994.707.291.291.624.623 1.206.706.665.125 1.163-.124 1.579-.332.498-.249.914-.457 1.454-.042.915.79 1.455 1.206 1.455 1.206l-.125.124z" fill="#F99746"/><path d="M83.766 210.509a.416.416 0 01.54-.332c.25.041.416.291.333.54-.083.249-.29.416-.54.333-.208-.042-.374-.291-.333-.541zm4.78 1.081a.416.416 0 01.54-.333c.25.083.416.291.332.54a.416.416 0 01-.54.333c-.25-.083-.415-.291-.332-.54zm-2.785 1.953a.415.415 0 01.54-.332c.25.083.416.29.333.54a.416.416 0 01-.54.332c-.25-.083-.374-.291-.333-.54zm4.571 1.08a.416.416 0 01.54-.332c.25.041.416.291.333.54-.083.249-.29.416-.54.333-.208-.042-.374-.291-.333-.541zm-9.724-2.742a.416.416 0 01.54-.333c.25.084.416.291.333.541-.083.249-.29.415-.54.332a.415.415 0 01-.333-.54zm11.76.581a.416.416 0 01.54-.332c.25.083.416.291.333.54a.416.416 0 01-.54.333c-.25-.083-.416-.291-.332-.541zm1.954-2.119s-.54-.415-1.538-1.205c-.498-.374-.872-.208-1.371.042-.457.207-.998.498-1.745.332-.707-.125-1.04-.457-1.372-.79-.415-.415-.831-.831-1.995-.706-1.787.208-2.202-.208-3.033-.956a4.928 4.928 0 01-.499-.457c-1.122-.956-2.327-.291-2.327-.291l-.083-.124s1.288-.748 2.493.29c.208.167.374.333.499.458.79.706 1.205 1.122 2.909.955 1.205-.124 1.662.291 2.078.748.332.291.623.624 1.288.748.706.125 1.205-.124 1.662-.332.499-.249.956-.457 1.496 0 .998.789 1.538 1.205 1.538 1.205v.083z" fill="#F99746"/><path d="M94.488 209.595s-.54-.415-1.538-1.205c-.498-.374-.872-.208-1.371.042-.457.207-.997.498-1.745.332-.707-.125-1.04-.457-1.372-.79-.415-.415-.83-.831-1.995-.706-1.786.166-2.202-.208-3.033-.956a4.928 4.928 0 01-.499-.457c-1.122-.956-2.327-.291-2.327-.291l-.083-.125s1.288-.748 2.493.291c.208.167.374.333.499.457.79.707 1.205 1.123 2.909.956 1.205-.124 1.662.291 2.078.748.332.291.623.624 1.288.748.707.125 1.205-.124 1.662-.332.499-.249.956-.457 1.496 0 .998.789 1.538 1.205 1.538 1.205v.083z" fill="#F99746"/><path d="M84.64 205.897c.04-.25.332-.416.581-.333.25.042.416.333.374.582-.041.249-.332.415-.582.332-.25-.083-.415-.332-.374-.581zm4.986 1.122c.041-.25.332-.416.582-.333.25.042.415.333.374.582-.042.249-.333.416-.582.332-.25-.041-.416-.291-.374-.581zm-2.867 1.953c.041-.249.332-.416.582-.332.249.083.415.332.374.581-.042.25-.333.416-.582.333-.25-.083-.416-.333-.374-.582zm4.82 1.122c.042-.25.332-.416.582-.333.249.042.415.333.374.582-.042.25-.333.416-.582.333-.25-.083-.416-.333-.374-.582zm-10.264-2.826c.041-.249.332-.415.582-.332.249.041.415.332.373.581-.041.25-.332.416-.581.333-.25-.083-.416-.333-.374-.582zm12.342.706c.042-.249.332-.415.582-.332.25.042.415.332.374.582-.042.249-.333.415-.582.332-.25-.083-.416-.332-.374-.582z" fill="#F99746"/><path d="M86.842 237.479l-11.262-2.576 2.576-2.369s3.408 1.662 7.356 1.704l1.33 3.241z" fill="#E07E34"/><path d="M57.17 217.242v-6.234s4.114-3.407 8.561-2.659c4.488.748 10.722-.458 12.675 2.659 1.953 3.117 2.41 5.943 2.41 5.943l-1.288.581-22.358-.29z" fill="#2A4E96"/><path d="M96.15 211.091s5.153-3.034 8.644-1.995c3.491.998 2.701 1.829 2.701 1.829s-11.261-.042-11.345.166z" fill="#ED823A"/><path d="M76.12 241.885h29.006c1.039 0 1.87-.79 1.954-1.829l2.368-26.928c.083-1.164-.789-2.203-1.953-2.203H73.751c-1.163 0-2.078.997-1.953 2.203l2.369 26.928c.083 1.039.914 1.829 1.953 1.829z" fill="#F2CCAA"/><path d="M58.957 241.885h29.007c1.039 0 1.87-.79 1.953-1.829l2.369-26.928c.083-1.164-.79-2.203-1.954-2.203H56.59c-1.164 0-2.078.997-1.954 2.203l2.37 26.928c.082 1.039.913 1.829 1.952 1.829z" fill="#F9DDBF"/><path d="M68.349 216.244h8.935a1.206 1.206 0 000-2.41h-8.935a1.206 1.206 0 000 2.41z" fill="#2A4E96"/></g><defs><clipPath id="clip0"><path fill="#fff" d="M0 0h202v278H0z"/></clipPath></defs></svg>