<svg width="329" height="329" fill="none" xmlns="http://www.w3.org/2000/svg"><g filter="url(#filter0_d)"><rect x="69" y="140" width="200" height="40" rx="8" fill="#0091FF"/></g><path d="M120.276 165.098c-.654 0-1.242-.112-1.764-.336-.523-.233-.934-.56-1.232-.98-.299-.42-.448-.91-.448-1.47h1.708c.037.42.2.765.49 1.036.298.271.714.406 1.246.406.55 0 .98-.131 1.288-.392.308-.271.462-.616.462-1.036 0-.327-.098-.593-.294-.798a1.856 1.856 0 00-.714-.476c-.28-.112-.672-.233-1.176-.364a12.209 12.209 0 01-1.554-.504 2.627 2.627 0 01-1.008-.812c-.28-.364-.42-.849-.42-1.456 0-.56.14-1.05.42-1.47.28-.42.672-.742 1.176-.966.504-.224 1.087-.336 1.75-.336.942 0 1.712.238 2.31.714.606.467.942 1.111 1.008 1.932h-1.764c-.028-.355-.196-.658-.504-.91s-.714-.378-1.218-.378c-.458 0-.831.117-1.12.35-.29.233-.434.569-.434 1.008 0 .299.088.546.266.742.186.187.42.336.7.448.28.112.662.233 1.148.364.644.177 1.166.355 1.568.532.41.177.756.453 1.036.826.289.364.434.854.434 1.47 0 .495-.136.961-.406 1.4-.262.439-.649.793-1.162 1.064-.504.261-1.102.392-1.792.392zm6.839-8.54v2.856h3.36v1.302h-3.36v2.982h3.78V165h-5.376v-9.744h5.376v1.302h-3.78zm13.74 8.442h-1.596l-4.802-7.266V165h-1.596v-9.744h1.596l4.802 7.252v-7.252h1.596V165zm5.273-9.73c1.036 0 1.942.201 2.716.602a4.15 4.15 0 011.806 1.708c.43.737.644 1.601.644 2.59 0 .989-.214 1.848-.644 2.576a4.198 4.198 0 01-1.806 1.68c-.774.383-1.68.574-2.716.574h-3.178v-9.73h3.178zm0 8.428c1.139 0 2.012-.308 2.618-.924.607-.616.91-1.484.91-2.604 0-1.129-.303-2.011-.91-2.646-.606-.635-1.479-.952-2.618-.952h-1.582v7.126h1.582zm20.633-8.428V165h-1.596v-6.664L162.197 165h-1.106l-2.982-6.664V165h-1.596v-9.73h1.722l3.416 7.63 3.402-7.63h1.708zm3.694 1.288v2.856h3.36v1.302h-3.36v2.982h3.78V165h-5.376v-9.744h5.376v1.302h-3.78zm8.951 8.54c-.653 0-1.241-.112-1.764-.336-.522-.233-.933-.56-1.232-.98-.298-.42-.448-.91-.448-1.47h1.708c.038.42.201.765.49 1.036.299.271.714.406 1.246.406.551 0 .98-.131 1.288-.392.308-.271.462-.616.462-1.036 0-.327-.098-.593-.294-.798a1.84 1.84 0 00-.714-.476c-.28-.112-.672-.233-1.176-.364a12.316 12.316 0 01-1.554-.504 2.627 2.627 0 01-1.008-.812c-.28-.364-.42-.849-.42-1.456 0-.56.14-1.05.42-1.47.28-.42.672-.742 1.176-.966.504-.224 1.088-.336 1.75-.336.943 0 1.713.238 2.31.714.607.467.943 1.111 1.008 1.932h-1.764c-.028-.355-.196-.658-.504-.91s-.714-.378-1.218-.378c-.457 0-.83.117-1.12.35-.289.233-.434.569-.434 1.008 0 .299.089.546.266.742.187.187.42.336.7.448.28.112.663.233 1.148.364.644.177 1.167.355 1.568.532.411.177.756.453 1.036.826.29.364.434.854.434 1.47 0 .495-.135.961-.406 1.4-.261.439-.648.793-1.162 1.064-.504.261-1.101.392-1.792.392zm8.45 0c-.654 0-1.242-.112-1.764-.336-.523-.233-.934-.56-1.232-.98-.299-.42-.448-.91-.448-1.47h1.708c.037.42.2.765.49 1.036.298.271.714.406 1.246.406.55 0 .98-.131 1.288-.392.308-.271.462-.616.462-1.036 0-.327-.098-.593-.294-.798a1.856 1.856 0 00-.714-.476c-.28-.112-.672-.233-1.176-.364a12.209 12.209 0 01-1.554-.504 2.627 2.627 0 01-1.008-.812c-.28-.364-.42-.849-.42-1.456 0-.56.14-1.05.42-1.47.28-.42.672-.742 1.176-.966.504-.224 1.087-.336 1.75-.336.942 0 1.712.238 2.31.714.606.467.942 1.111 1.008 1.932h-1.764c-.028-.355-.196-.658-.504-.91s-.714-.378-1.218-.378c-.458 0-.831.117-1.12.35-.29.233-.434.569-.434 1.008 0 .299.088.546.266.742.186.187.42.336.7.448.28.112.662.233 1.148.364.644.177 1.166.355 1.568.532.41.177.756.453 1.036.826.289.364.434.854.434 1.47 0 .495-.136.961-.406 1.4-.262.439-.649.793-1.162 1.064-.504.261-1.102.392-1.792.392zm11.109-2.086h-4.074l-.7 1.988h-1.666l3.486-9.744h1.848l3.486 9.744h-1.68l-.7-1.988zm-.448-1.302l-1.582-4.522-1.596 4.522h3.178zm11.386-3.64a2.533 2.533 0 00-1.05-1.092c-.448-.252-.966-.378-1.554-.378-.644 0-1.218.145-1.722.434-.504.289-.901.7-1.19 1.232-.28.532-.42 1.148-.42 1.848 0 .7.14 1.321.42 1.862.289.532.686.943 1.19 1.232.504.289 1.078.434 1.722.434.868 0 1.572-.243 2.114-.728.541-.485.872-1.143.994-1.974h-3.654v-1.274h5.362v1.246a4.757 4.757 0 01-.812 2.086 4.778 4.778 0 01-1.694 1.526c-.691.373-1.461.56-2.31.56-.915 0-1.75-.21-2.506-.63a4.851 4.851 0 01-1.806-1.778c-.439-.756-.658-1.61-.658-2.562 0-.952.219-1.806.658-2.562a4.749 4.749 0 011.806-1.764 5.037 5.037 0 012.506-.644c1.036 0 1.955.257 2.758.77.812.504 1.4 1.223 1.764 2.156h-1.918zm5.382-1.512v2.856h3.36v1.302h-3.36v2.982h3.78V165h-5.376v-9.744h5.376v1.302h-3.78z" fill="#fff"/><path d="M288.98 89.659c-14.943-22.681-43.349-36.15-70.8-33.558-27.452 2.593-52.719 21.056-62.991 46.132-5.264 12.798-6.909 27.156-14.752 38.605-8.041 11.739-21.444 18.74-34.591 24.59-13.147 5.849-26.978 11.238-37.329 21.056-10.35 9.817-16.45 25.609-10.35 38.401 6.238 13.002 21.99 18.2 33.367 27.28 11.377 9.081 18.609 22.438 30.222 31.216 10.732 8.113 24.57 11.679 38.138 11.653 13.568-.026 26.912-3.448 39.585-8.179 39.303-14.667 76.328-41.961 92.008-80.164 29.025-70.748-2.507-117.032-2.507-117.032z" fill="#0091FF"/><path opacity=".7" d="M288.98 89.659c-14.943-22.681-43.349-36.15-70.8-33.558-27.452 2.593-52.719 21.056-62.991 46.132-5.264 12.798-6.909 27.156-14.752 38.605-8.041 11.739-21.444 18.74-34.591 24.59-13.147 5.849-26.978 11.238-37.329 21.056-10.35 9.817-16.45 25.609-10.35 38.401 6.238 13.002 21.99 18.2 33.367 27.28 11.377 9.081 18.609 22.438 30.222 31.216 10.732 8.113 24.57 11.679 38.138 11.653 13.568-.026 26.912-3.448 39.585-8.179 39.303-14.667 76.328-41.961 92.008-80.164 29.025-70.748-2.507-117.032-2.507-117.032z" fill="#fff"/><path d="M236.175 267.668s9.541-.053 20.122-14.792c9.245-12.89-8.304-52.798-18.141-61.977-9.837-9.179-28.985 40.954-26.761 53.653 3.165 18.095 16.805 22.655 24.78 23.116z" fill="#0091FF"/><path d="M251.658 242.874l-14.686 14.601 1.48 37.204h-4.862c-.06-.257.125-25.886.283-55.779l-11.259-10.798c.856 0-.658-1.46-.829-1.605l12.14 8.409c.099-18.681.191-33.722.191-33.722l1.099-1.376.612 19.977 10.383-7.475c-.151.145-1.684 1.606-.829 1.606l-9.449 9.396.882 28.781 16.029-11.535c-.217.224-2.415 2.316-1.185 2.316z" stroke="#263238" stroke-miterlimit="10"/><path d="M279.827 279.782s11.607-.836 17.398-11.844c6.251-11.904-8.995-40.138-16.786-42.231-8.554-2.309-22.056 20.253-19.292 37.783 1.895 11.962 13.318 15.989 18.68 16.292z" fill="#0091FF"/><path d="M288.539 258.199l-8.094 6.429c-.25-15.095-.46-27.149-.46-27.149l-.994-1.132-.368 15.417v.336l-6.87-5.389s1.099 1.118.533 1.125l6.251 6.797-.421 17.727-10.377-8.166s1.553 1.586.757 1.592l9.521 10.357-.052 2.046-.06 2.205-.322 13.982 3.356-.039a6152.27 6152.27 0 01-.224-13.924c-.066-4.013-.145-8.034-.197-11.896v-.842l7.435-8.14c-.684.007.586-1.336.586-1.336z" stroke="#263238" stroke-miterlimit="10"/><path d="M265.371 288.434c-1.079-.868-3.02-.848-4.725-.776.125-1.086.579-2.158.711-3.251a3.049 3.049 0 00-1.191-3.013c-1.869-1.316-5.159-.803-7.738-.053.355-2.553-2.362-5.04-6.001-5.435-3.639-.395-7.685 1.382-8.751 3.876-1.474-1.408-4.416-1.974-6.87-1.316-2.454.658-4.198 2.493-4.073 4.264-1.882-.126-3.981-.211-5.54.598-2.29 1.198-2.132 3.619-3.896 5.185a3.194 3.194 0 00-1.702.139 3.2 3.2 0 00-1.39.993c-.599.783-.704 1.678-1.066 2.52-.737 1.685-3.185 1.895-5.521 2.632l58.457.487c1.27-.408 2.356-1.276 2.303-2.217-.053-.941-1.625-1.705-2.843-1.237.421.019 1.093-2.395-.164-3.396z" fill="#0091FF"/><path d="M291.651 290.994c-.658-.526-1.855-.52-2.895-.474.072-.658.349-1.316.434-1.974a1.865 1.865 0 00-.73-1.849c-1.145-.803-3.165-.493-4.744-.033.217-1.566-1.448-3.092-3.679-3.329-2.23-.237-4.711.842-5.362 2.369-.902-.862-2.711-1.204-4.211-.797-1.501.408-2.573 1.527-2.494 2.632-1.158-.078-2.441-.138-3.396.362-1.408.737-1.316 2.218-2.388 3.179a1.98 1.98 0 00-1.902.697 6.693 6.693 0 00-.658 1.54c-.447 1.033-1.974 1.158-3.382 1.612l35.828.296c.777-.25 1.441-.783 1.415-1.356-.026-.572-1-1.046-1.744-.756.263-.02.678-1.5-.092-2.119z" fill="#0091FF"/><path d="M146.938 177.324a10.745 10.745 0 00-11.093-.637 10.74 10.74 0 00-5.719 9.527v.066a3.759 3.759 0 00-2.725-1.441 3.767 3.767 0 00-2.888 1.079 8.447 8.447 0 00-14.518-4.949 8.445 8.445 0 00-2.333 5.804 2.55 2.55 0 00-3.466.501 2.533 2.533 0 00-.515 1.164h59.792a7.547 7.547 0 00-12.456-5.731 10.882 10.882 0 00-1.533-2.895m100.207-81.184a13.045 13.045 0 0115.894 6.326 13.05 13.05 0 011.457 5.985v.079a4.567 4.567 0 013.307-1.746 4.58 4.58 0 013.504 1.305 10.254 10.254 0 0110.713-9.091 10.26 10.26 0 019.737 10.131 3.005 3.005 0 011.777-.566 3.083 3.083 0 013.053 2.586h-72.558a9.154 9.154 0 0115.134-6.955 13.086 13.086 0 013.172-5.027" stroke="#263238" stroke-linecap="round" stroke-linejoin="round"/><path d="M27.01 83.48h72.558a9.152 9.152 0 00-15.134-6.955 13.035 13.035 0 00-25.352 4.258v.079a4.575 4.575 0 00-6.81-.441 10.259 10.259 0 00-20.451 1.04 3.007 3.007 0 00-1.777-.566 3.086 3.086 0 00-3.033 2.586z" fill="#fff" stroke="#263238" stroke-miterlimit="10"/><path d="M123.711 109.129l2.25 14.068m-10.758-9.087l9.363 11.338m-10.843-1.711l8.764 3.428" stroke="#0091FF" stroke-miterlimit="10"/><path d="M69.255 148.221v-10.837" stroke="#263238" stroke-linecap="round" stroke-linejoin="round"/><path d="M43.738 148.221h25.517v-7.995H43.738v7.995z" fill="#fff" stroke="#263238" stroke-linecap="round" stroke-linejoin="round"/><path d="M43.737 148.221v-10.837" stroke="#263238" stroke-linecap="round" stroke-linejoin="round"/><path d="M133.528 294.837h51.575v-89.804h-51.575v89.804z" fill="#fff" stroke="#263238" stroke-linecap="round" stroke-linejoin="round"/><path d="M82.118 294.837h51.574V171.738H82.118v123.099zm-51.81.006h51.574V148.004H30.308v146.839z" fill="#fff" stroke="#263238" stroke-linecap="round" stroke-linejoin="round"/><path d="M72.281 157.262v132.015M61.003 157.262v132.015M49.726 157.262v132.015M38.454 157.262v132.015m86.678-111.183v110.788m-11.278-110.788v110.788m-11.285-110.788v110.788M91.298 178.094v110.788m33.834-110.788H91.298m33.834 12.285H91.298m33.834 12.278H91.298m33.834 12.285H91.298m33.834 12.279H91.298m33.834 12.291H91.298m33.834 12.285H91.298m33.834 12.278H91.298m33.834 12.285H91.298m33.834 12.285H91.298m88.757-76.203h-38.987m38.987 12.285h-38.987m38.987 12.278h-38.987m38.987 12.285h-38.987m38.987 12.285h-38.987m38.987 12.285h-38.987m38.987 12.278h-38.987" stroke="#0091FF" stroke-linecap="round" stroke-linejoin="round"/><path d="M299.133 295.225H27.011" stroke="#263238" stroke-linecap="round" stroke-linejoin="round"/><path d="M116.612 294.462c-.349.164-2.882.256-6.113.309-6.58.112-16.049.059-16.049.059s-.513 0-.71-2.566c-.198-2.566 1.066-4.606 1.21-5.679.658-4.922-1.02-6.974-1.046-7.336-.026-.362 9.212-.566 9.212-.566l3.027-.204-.658 4.329a4.886 4.886 0 00-.066.744 6.508 6.508 0 005.126 6.626h.138c.217-.204 3.948-1.928 5.475.454.835 1.296.454 3.83.454 3.83z" fill="#263238"/><path opacity=".2" d="M116.612 294.462c-.349.164-2.882.256-6.113.309-6.58.112-16.049.059-16.049.059s-.513 0-.71-2.566c-.198-2.566 1.066-4.606 1.21-5.679.658-4.922-1.02-6.974-1.046-7.336-.026-.362 9.212-.566 9.212-.566l3.027-.204-.658 4.329a4.886 4.886 0 00-.066.744 6.508 6.508 0 005.126 6.626h.138c.217-.204 3.948-1.928 5.475.454.835 1.296.454 3.83.454 3.83z" fill="#fff"/><path opacity=".3" d="M110.499 294.784c-6.58.112-16.049.059-16.049.059s-.513 0-.71-2.566c-.198-2.566 1.066-4.606 1.21-5.678.658-4.922-1.02-6.975-1.046-7.337-.026-.362 9.212-.566 9.212-.566l3.027-.204-.658 4.33a4.873 4.873 0 00-.066.743 813.925 813.925 0 00-3.744 3.113s8.455 2.79 8.824 8.106z" fill="#000"/><path d="M116.612 294.462c-.349.164-2.882.256-6.113.309-6.58.112-16.049.059-16.049.059s-.513 0-.71-2.566c-.198-2.566 1.066-4.606 1.21-5.679.658-4.922-1.02-6.974-1.046-7.336-.026-.362 9.212-.566 9.212-.566l3.027-.204-.658 4.329a4.886 4.886 0 00-.066.744 6.508 6.508 0 005.126 6.626h.138c.217-.204 3.948-1.928 5.475.454.835 1.296.454 3.83.454 3.83z" stroke="#263238" stroke-linecap="round" stroke-linejoin="round"/><path d="M108.143 272.82c.309 1.652 1.079 2.119.579 2.895a5.627 5.627 0 00-.217.402c-.388.802-.803 1.934-2.329 2.362-1.797.506-10.397.974-12.252.743-1.856-.23-2.909-1.974-3.014-3.448-.105-1.474.698-2.395.573-4.046-.126-1.652-1.415-2.132-1.5-3.231-.086-1.099.98-2.698.966-3.797 0-2.316.04.211.5-12.956.257-7.508 2.073-9.139 0-17.654-.75-3.073-8.803-58.707-8.803-58.707l24.839 1.487s.395 9.476.842 20.668c.566 14.239 1.218 31.255 1.237 35.085.04 7.777-.658 18.674-1.243 28.346-.244 4.126-.658 6.969 0 8.554.078.166.125.344.138.527.112 1.046-.632 1.118-.316 2.77z" fill="#0091FF"/><path opacity=".3" d="M108.505 276.117c-.388.802-.803 1.934-2.329 2.362-1.797.506-10.397.974-12.252.743-1.856-.23-2.909-1.974-3.014-3.448-.105-1.474.698-2.395.573-4.046-.126-1.652-1.415-2.132-1.5-3.231-.086-1.099.98-2.698.966-3.797 0-2.316.04.211.5-12.956.257-7.508 2.073-9.139 0-17.654-.75-3.073-8.803-58.707-8.803-58.707l24.839 1.487s.395 9.476.842 20.668c-2.994 12.45-6.468 26.149-7.771 28.452l2.053 3.586s-4.908 11.39-4.908 12.765c0 1.376 1.658 14.24 2.23 16.911.573 2.671-2.23.77-2.23 3.02 0 2.073-.224 12.16 10.804 13.845z" fill="#000"/><path d="M108.143 272.82c.309 1.652 1.079 2.119.579 2.895a5.627 5.627 0 00-.217.402c-.388.802-.803 1.934-2.329 2.362-1.797.506-10.397.974-12.252.743-1.856-.23-2.909-1.974-3.014-3.448-.105-1.474.698-2.395.573-4.046-.126-1.652-1.415-2.132-1.5-3.231-.086-1.099.98-2.698.966-3.797 0-2.316.04.211.5-12.956.257-7.508 2.073-9.139 0-17.654-.75-3.073-8.803-58.707-8.803-58.707l24.839 1.487s.395 9.476.842 20.668c.566 14.239 1.218 31.255 1.237 35.085.04 7.777-.658 18.674-1.243 28.346-.244 4.126-.658 6.969 0 8.554.078.166.125.344.138.527.112 1.046-.632 1.118-.316 2.77zm-1.902-77.966s-3.046 2.632-5.645 2.158m5.343 2.816s-5.133-1.237-5.718-2.277m-.863 25.721s2.771 7.238 5.85 8.989" stroke="#263238" stroke-linecap="round" stroke-linejoin="round"/><path d="M105.347 271.313s-6.153 1.902-9.212.513c-3.06-1.388 2.414 3.179 8.165 2.777m-7.665-36.104s.052 19.246 5.073 23.076m.085 20.082a11.094 11.094 0 013.724-.783m-3.612 3.277s1.783-.658 3.073-.922m-2.738 3.31l2.876-.862m-1.474 2.816l2.362-.927m.316 2.605l1.376-1.059" stroke="#263238" stroke-linecap="round" stroke-linejoin="round"/><path d="M102.386 279.281s-.231 6.581 1.848 8.745c2.08 2.165 4.284 2.211 4.093 3.04" stroke="#263238" stroke-linecap="round" stroke-linejoin="round"/><path d="M83.415 278.512s-9.304.19-9.337.559c-.033.368 1.316 2.415-.217 7.33-.329 1.073-1.974 3.106-2.185 5.665-.21 2.56.27 2.56.27 2.56s21.056.118 22.22-.362c0 0 .817-2.527.218-3.783-1.184-2.494-5.534-.481-5.396-.454h-.138c-3.244-.718-4.875-3.948-3.77-7.37l1.401-4.323-3.066.178z" fill="#263238"/><path opacity=".25" d="M83.415 278.512s-9.304.19-9.337.559c-.033.368 1.316 2.415-.217 7.33-.329 1.073-1.974 3.106-2.185 5.665-.21 2.56.27 2.56.27 2.56s21.056.118 22.22-.362c0 0 .817-2.527.218-3.783-1.184-2.494-5.534-.481-5.396-.454h-.138c-3.244-.718-4.875-3.948-3.77-7.37l1.401-4.323-3.066.178z" fill="#fff"/><path d="M83.415 278.512s-9.304.19-9.337.559c-.033.368 1.316 2.415-.217 7.33-.329 1.073-1.974 3.106-2.185 5.665-.21 2.56.27 2.56.27 2.56s21.056.118 22.22-.362c0 0 .817-2.527.218-3.783-1.184-2.494-5.534-.481-5.396-.454h-.138c-3.244-.718-4.876-3.948-3.77-7.37l1.401-4.323-3.066.178z" stroke="#263238" stroke-linecap="round" stroke-linejoin="round"/><path d="M105.28 176.87l-24.582-1.487s-1.507 55.542-1.316 58.608c.611 8.502-1.481 10.127-3.034 17.628-2.724 13.16-2.355 10.62-2.724 12.93-.178 1.099-1.52 2.698-1.625 3.797-.106 1.098 1.105 1.579.947 3.224-.158 1.645-1.132 2.579-1.27 4.04-.138 1.461.606 3.211 2.422 3.441 1.816.23 10.528-.237 12.383-.743 1.856-.507 2.389-1.974 3.02-2.757.632-.783-.052-1.244-.085-2.896-.033-1.651.71-1.697.81-2.776a1.412 1.412 0 00-.047-.527c-.401-1.572.507-4.408 1.454-8.554 2.238-9.653 4.824-20.536 6.113-28.294.658-3.869 2.968-21.2 4.863-35.532 0 0 1.816-2.928 2.737-8.6" fill="#0091FF"/><path opacity=".3" d="M80.618 177.311l-.217 8.298c4.16.337 8.342.337 12.502 0 8.12-.724 13.062-4.323 13.062-4.323l-.658-4.416s-9.212 2.481-13.746 2.132c-4.534-.348-8.876-.895-10.943-1.691z" fill="#000"/><path d="M105.28 176.87l-24.582-1.487s-1.507 55.542-1.316 58.608c.611 8.502-1.481 10.127-3.034 17.628-2.724 13.16-2.355 10.62-2.724 12.93-.178 1.099-1.52 2.698-1.625 3.797-.106 1.098 1.105 1.579.947 3.224-.158 1.645-1.132 2.579-1.27 4.04-.138 1.461.606 3.211 2.422 3.441 1.816.23 10.528-.237 12.383-.743 1.856-.507 2.389-1.974 3.02-2.757.632-.783-.052-1.244-.085-2.896-.033-1.651.71-1.697.81-2.776a1.412 1.412 0 00-.047-.527c-.401-1.572.507-4.408 1.454-8.554 2.238-9.653 4.824-20.536 6.113-28.294.658-3.869 2.968-21.2 4.863-35.532 0 0 1.816-2.928 2.737-8.6m-12.212 55.674s-8.501 14.476-16.89 19.207" stroke="#263238" stroke-linecap="round" stroke-linejoin="round"/><path d="M76.099 271.313l9.126 1.152c.658.085 1.507.348 1.441 1.046-.066.697-.77 1.013-1.375 1.23a11.144 11.144 0 01-6.356.428m-2.567-8.245a22.364 22.364 0 0010.758 2.961m-5.033-29.307s4.606.178 6.974-.033c-1.756 2.408-4.606 3.455-7.356 3.593" stroke="#263238" stroke-linecap="round" stroke-linejoin="round"/><path d="M85.54 182.266s-.657 23.649-.894 33.486c-.237 9.837-.658 21.306-.658 21.306a3.152 3.152 0 00-.415 2.388l.369 1.211-.198 3.415a2.751 2.751 0 00-.612 2.277c.316 1.243-2.237 9.909-2.237 9.909l-.44.573a4.026 4.026 0 00-.698 3.948l-.915 7.422a2.63 2.63 0 00-.579 3.408v0l-.855 3.869a2.417 2.417 0 00-.52 3.067l.145.217" stroke="#263238" stroke-linecap="round" stroke-linejoin="round"/><path d="M128.12 138.654c-.658 1.441-6.264 5.264-6.264 5.264a4.282 4.282 0 01.395-1.83c.401-.618.658-1.21.914-1.579a3.822 3.822 0 00-.914-2.744c-.764-.848-1.362 1.27-1.698 2.678-.336 1.409-2.533 3.554-2.435 4.606.191 1.211.435 2.402.744 3.587 0 0-9.377 3.29-10.41 1.316a131.389 131.389 0 00-7.238-12.338c-2.204 3.08-.467 7.33.777 12.555 1.243 5.224 5.073 12.541 5.073 12.541 6.856-3.29 14.647-11.844 14.647-11.844s1.829-.816 4.093-1.592c2.263-.777 1.934-1.441 2.296-3.665.362-2.224 2.264-5.264 2.152-6.409-.112-1.145-1.461-1.981-2.132-.546z" fill="#fff" stroke="#263238" stroke-linecap="round" stroke-linejoin="round"/><path d="M105.939 149.767c-.086 4.764.855 20.918 1.875 27.327l-27.906-.704v-.467c2.046-7.58.717-15.792-2.513-22.918-1.711-3.784-2.474-8.62-3.356-13.2-2.244-11.66 3.388-15.272 8.093-15.719 1.816-.086 1.974-1.316 3.29-1.218a5.609 5.609 0 002.685-.329c.585 2.389 3.83 9.403 4.941 10.206a3.435 3.435 0 003.85.276c1.118-.783 1.428-2.276 1.684-3.619a8.67 8.67 0 01.619-2.112c1.645.823 4.514 1.796 6.645 5.633 2.632 8.468 1.185 3.04 3.212 15.463.348 1.901-3.119 1.381-3.119 1.381z" fill="#fff" stroke="#263238" stroke-linecap="round" stroke-linejoin="round"/><path d="M101.549 127.724l-2.697-.941c1.829 6.284.243 13.424-4.383 10.601-4.625-2.823-6.461-10.936-7.843-14.476-.724-.224-3.665-.329-5.192.842 1.593 2.915 5.922 8.705 5.416 13.41-.58 5.264-4.718 9.936-12.45 4.646 1.053 7.975 4.396 13.725 5.04 16.45 2.356 9.87.784 11.218-.315 20.957 11.186 5.705 24.721 2.869 30.649 1.132-1.809-9.923-1.013-34.927-8.225-52.621z" fill="#0091FF"/><path opacity=".3" d="M84.5 169.613s18.246 7.961 20.845.23a42.433 42.433 0 01-14.58.599l-6.265-.829zm-6.468-17.227l13.259-10.528s2.632 7.238-4.422 11.39c-4.77 2.81-8.837-.862-8.837-.862z" fill="#000"/><path d="M101.549 127.724l-2.697-.941c1.829 6.284.243 13.424-4.383 10.601-4.625-2.823-6.461-10.936-7.843-14.476-.724-.224-3.665-.329-5.192.842 1.593 2.915 5.922 8.705 5.416 13.41-.58 5.264-4.718 9.936-12.45 4.646 1.053 7.975 4.396 13.725 5.04 16.45 2.356 9.87.784 11.218-.315 20.957 11.186 5.705 24.721 2.869 30.649 1.132-1.809-9.923-1.013-34.927-8.225-52.621zm3.797 41.862a3.33 3.33 0 01-1.849 2.277m-2.941.711a28.805 28.805 0 01-16.055-3.211" stroke="#263238" stroke-linecap="round" stroke-linejoin="round"/><path d="M126.126 127.981l-5.711 15.233a1.897 1.897 0 00.164 1.665l1.06 1.697c.519.836 2.355 1.086 3.145.546a1.85 1.85 0 00.658-.783l5.632-15.219a1.905 1.905 0 00-.408-2.08l-1.776-1.717a1.649 1.649 0 00-1.886-.32c-.205.099-.387.24-.536.412a1.839 1.839 0 00-.342.566z" fill="#263238"/><path d="M74.388 132.08a18.782 18.782 0 001.618 6.58c2.744 6.528 13.22 22.774 15.516 23.873 2.296 1.098 25.767-11.535 27.465-13.266a3.941 3.941 0 00.75-4.033s-.033 1.618 1.349 1.316c.869-.191.151-2.876.151-2.876s1.593-1.125.073-3.204c0 0 2.145 0 1.974-1.619-.06-.658-6.376-.743-7.344 1.079-1.177 2.211-2.349 7.975-2.349 7.975s-15.292 3.948-18.463 4.534l-8.271-18.141" fill="#fff"/><path d="M74.388 132.08a18.782 18.782 0 001.618 6.58c2.744 6.528 13.22 22.774 15.516 23.873 2.296 1.098 25.767-11.535 27.465-13.266a3.941 3.941 0 00.75-4.033s-.033 1.618 1.349 1.316c.869-.191.151-2.876.151-2.876s1.593-1.125.073-3.204c0 0 2.145 0 1.974-1.619-.06-.658-6.376-.743-7.344 1.079-1.177 2.211-2.349 7.975-2.349 7.975s-15.292 3.948-18.463 4.534l-8.271-18.141" stroke="#263238" stroke-linecap="round" stroke-linejoin="round"/><path d="M119.229 150.248a6.537 6.537 0 012.363-2.968c1.237-.586 2.941-.77 4.29-1.026 0 0 1.053-4.462 1.625-4.337 1.744.362.382 4.462.382 4.462" fill="#fff"/><path d="M119.229 150.248a6.537 6.537 0 012.363-2.968c1.237-.586 2.941-.77 4.29-1.026 0 0 1.053-4.462 1.625-4.337 1.744.362.382 4.462.382 4.462" stroke="#263238" stroke-linecap="round" stroke-linejoin="round"/><path d="M129.989 140.312a1.27 1.27 0 00-1.717-.072c-.849.769-2.139 2.947-3.514 4.112m-6.976.645c.375-.829 3.04-2.231 3.567-.434m-3.567-1.777s3.086-1.684 3.705.401m-3.316-2.375s1.283-.25 1.566-.276c1.02-.099 2.132-.231 2.685-.231" stroke="#263238" stroke-linecap="round" stroke-linejoin="round"/><path d="M102.609 197.012s-4.112-3.626-6.5-4.317l6.5 4.317z" fill="#0091FF"/><path d="M102.609 197.012s-4.112-3.626-6.5-4.317m-14.266 89.001a11.686 11.686 0 013.796-.796m-3.889 3.356s1.836-.658 3.145-.941m-3.02 3.343l2.948-.869m-1.717 2.856l2.447-.941m.087 2.645l1.467-1.072" stroke="#263238" stroke-linecap="round" stroke-linejoin="round"/><path d="M82.646 279.281s-.803 6.712 1.099 8.89c1.901 2.178 4.086 2.244 3.83 3.093" stroke="#263238" stroke-linecap="round" stroke-linejoin="round"/><path d="M98.595 126.514s2.777 10.824-1.678 11.646c-6.073 1.119-10.291-15.272-10.291-15.272.928-.059 1.04-.447 1.849-.908 0 0 6.784 13.568 10.12 4.534zm-18.47-2.053s-6.35 1.257-6.37 10.699c-.019 9.442 4.166 17.305 4.166 17.305s4.955-.401 8.087-2.698c6.58-4.803 5.514-7.501 5.514-7.501l-3.448-6.83s-1.132-4.376-6.054-11.35l-1.895.375zm21.813 3.638c3.461 9.824 3.618 13.503 4.244 18.036 0 0 3.388-.658 3.908-1.408 0 0-1.645-8.041-3.421-12.199-1.132-2.639-2.619-3.56-4.731-4.429z" fill="#263238"/><path d="M98.588 116.946s-.493 9.002-.46 9.726c.06 1.362 1.046 3.171.138 4.191a3.433 3.433 0 01-3.81.612 8.56 8.56 0 01-3.112-2.632 34.978 34.978 0 01-4.04-6.179 6.064 6.064 0 001.605-2.632s.178-.763.184-.802c.23-1.855.205-3.732-.072-5.58a36.495 36.495 0 00-1.586-6.725l11.153 10.021z" fill="#fff" stroke="#263238" stroke-linecap="round" stroke-linejoin="round"/><path d="M89.232 125.54a28.238 28.238 0 014.514 1.921l-4.514-1.921z" fill="#263238"/><path d="M89.232 125.54a28.238 28.238 0 014.514 1.921" stroke="#263238" stroke-linecap="round" stroke-linejoin="round"/><path d="M87.856 95.173s-5.606 3.205-2.704 11.568c2.902 8.363 9.37 17.707 15.233 16.45 5.862-1.257 7.382-12.904 4.283-20.668-3.099-7.764-10.995-12.061-16.812-7.35z" fill="#fff" stroke="#263238" stroke-linecap="round" stroke-linejoin="round"/><path d="M104.577 110.61c.039.658-.231 1.263-.599 1.316-.368.052-.704-.527-.744-1.211-.039-.684.218-1.257.599-1.283.382-.026.704.487.744 1.178zm-5.719-.27c.04.658-.224 1.257-.585 1.283-.362.026-.711-.526-.75-1.204-.04-.678.223-1.263.598-1.316.375-.053.691.539.737 1.237z" fill="#263238"/><path d="M101.01 96.614c-3.757-3.658-8.87-4.79-12.962-1.48 0 0-5.6 3.204-2.698 11.574a42.478 42.478 0 002.546 5.803l.106.092s-1.843-1.835 5.468-5.876c2.401-1.355 5.948-9.81 7.54-10.113z" fill="#263238" stroke="#263238" stroke-linecap="round" stroke-linejoin="round"/><path d="M95.14 99.358s.514-5.823 4.567-6.02c2.112-.106 4.902 2.73 5.264 4.224a5.36 5.36 0 004.178 4.079s-1.171 3.948-3.454 4.238c-3.77.46-5.725-.421-8.16-3.744a19.387 19.387 0 00-2.29-2.691l-.104-.086z" fill="#263238" stroke="#263238" stroke-linecap="round" stroke-linejoin="round"/><path d="M89.106 110.544s-2.217-4.567-4.191.461c-1.23 3.132 3.691 5.639 5.376 4.81" fill="#fff"/><path d="M89.106 110.544s-2.217-4.567-4.191.461c-1.23 3.132 3.691 5.639 5.376 4.81m12.015-8.041a3.518 3.518 0 00-.829 3.093 9.158 9.158 0 001.191 3.382l-2.816.901m-2.467 2.059a3.288 3.288 0 003.448.764m-6.601-10.278s1.974-2.185 4.356-1.132m4.804.553s2.586-.809 2.257 1.474" stroke="#263238" stroke-linecap="round" stroke-linejoin="round"/><path d="M89.061 113.044a1.075 1.075 0 01-1.053-.717c-.19-.414-.243-.888-.434-1.316a1.092 1.092 0 00-1.06-.717" fill="#263238"/><path d="M89.061 113.044a1.075 1.075 0 01-1.053-.717c-.19-.414-.243-.888-.434-1.316a1.092 1.092 0 00-1.06-.717" stroke="#263238" stroke-linecap="round" stroke-linejoin="round"/><path d="M97.266 94.996a12.943 12.943 0 00-1.316-3.363s1.073-.27 1.665-.395c-.132 1.152-.23 2.6-.349 3.758z" fill="#263238" stroke="#263238" stroke-linecap="round" stroke-linejoin="round"/><path d="M98.391 122.941l.046 1.974a2.5 2.5 0 01-1.382.184c-2.526-.296-5.073-5.922-5.23-6.245l.052.06c2.987 3.296 5.205 4.007 6.514 4.027z" fill="#263238"/><path d="M183.753 141.878h16.628m-35.703 0h16.884m-25.878 0h5.191m8.462 9.028h30.979m-39.441 0h3.803m18.522 9.034h17.049m-34.183 0h14.615m.183 9.028h19.319m-28.925 0h6.863" stroke="#263238" stroke-linecap="round" stroke-linejoin="round"/><path d="M237.676 169.297h-48.415l2.428-27.761h48.415l-2.428 27.761z" fill="#fff" stroke="#263238" stroke-linecap="round" stroke-linejoin="round"/><path d="M240.104 141.542h-48.416" stroke="#263238" stroke-linecap="round" stroke-linejoin="round"/><path d="M237.676 169.297h-48.415l16.548-15.713 8.41 7.166 9.843-7.304 13.614 15.851z" fill="#fff" stroke="#263238" stroke-linecap="round" stroke-linejoin="round"/><path d="M240.104 141.536l-16.042 11.91-9.844 7.303-8.409-7.165-14.121-12.048h48.416z" fill="#fff" stroke="#263238" stroke-linecap="round" stroke-linejoin="round"/><path d="M151.051 141.878h-12.154" stroke="#263238" stroke-linecap="round" stroke-linejoin="round"/><path d="M197.617 110.077c-9.699 7.896-27.603 12.719-27.603 12.719l9.021-9.666a20.635 20.635 0 1118.72-3.145" fill="#fff"/><path d="M197.617 110.077c-9.699 7.896-27.603 12.719-27.603 12.719l9.021-9.666a20.635 20.635 0 1118.72-3.145" stroke="#263238" stroke-linecap="round" stroke-linejoin="round"/><path d="M198.11 84.6a6.073 6.073 0 10.001-12.148 6.073 6.073 0 00-.001 12.147z" fill="#0091FF" stroke="#263238" stroke-linecap="round" stroke-linejoin="round"/><path d="M194.591 77.17l3.52 3.961 8.008-9.475-.283-.296-7.725 6.646-2.046-2.23-1.474 1.394z" fill="#263238" stroke="#263238" stroke-linecap="round" stroke-linejoin="round"/><path d="M174.687 88.494h22.681m-23.195 5.856h22.681m-23.188 5.857h22.675" stroke="#263238" stroke-linecap="round" stroke-linejoin="round"/><path d="M245.093 36.815v10.383L273.499 25.3l-28.406 11.515zm-.001 0l29.057-11.87-39.677 4.112 10.62 7.758z" fill="#0091FF" stroke="#263238" stroke-linecap="round" stroke-linejoin="round"/><path d="M248.507 38.967l13.68 10.12 11.962-24.142-25.642 14.022z" fill="#0091FF" stroke="#263238" stroke-linecap="round" stroke-linejoin="round"/><path d="M248.508 38.967l-3.415 8.231 7.277-5.376-3.862-2.855z" fill="#0091FF" stroke="#263238" stroke-linecap="round" stroke-linejoin="round"/><path d="M136.239 125.987c.073-.21.152-.414.224-.618" stroke="#263238" stroke-linecap="round" stroke-linejoin="round"/><path d="M137.325 122.882c6.12-18.273 5.021-29.255 14.957-46.955 1.974-3.58 11.969-20.517 26.168-26.557 7.383-3.139 12.081 1.546 10.179 4.862-4.244 7.383-19.832-1.467-4.244-10.205 14.424-8.08 45.126 7.718 59.516 3.185" stroke="#263238" stroke-linecap="round" stroke-linejoin="round" stroke-dasharray="2 4"/><path d="M245.132 46.758c.204-.086.401-.178.599-.277" stroke="#263238" stroke-linecap="round" stroke-linejoin="round"/><defs><filter id="filter0_d" x="37" y="130" width="264" height="104" filterUnits="userSpaceOnUse" color-interpolation-filters="sRGB"><feFlood flood-opacity="0" result="BackgroundImageFix"/><feColorMatrix in="SourceAlpha" values="0 0 0 0 0 0 0 0 0 0 0 0 0 0 0 0 0 0 127 0"/><feMorphology radius="12" in="SourceAlpha" result="effect1_dropShadow"/><feOffset dy="22"/><feGaussianBlur stdDeviation="22"/><feColorMatrix values="0 0 0 0 0 0 0 0 0 0.568627 0 0 0 0 1 0 0 0 0.35 0"/><feBlend in2="BackgroundImageFix" result="effect1_dropShadow"/><feBlend in="SourceGraphic" in2="effect1_dropShadow" result="shape"/></filter></defs></svg>