<svg width="411" height="314" fill="none" xmlns="http://www.w3.org/2000/svg"><path d="M390.478 52.695c-18.535-22.72-51.067-32.016-79.582-25.09-28.515 6.928-52.377 28.653-64.543 55.328-5.051 11.081-8.759 23.664-18.476 31.015-7.828 5.92-18.214 7.268-28.014 6.838-9.801-.431-19.512-2.421-29.325-2.344-25.752.199-50.771 15.986-61.998 39.162a65.66 65.66 0 00-3.548 8.943c-8.592 27.407-6.375 59.437 17.076 76.129l10.148 7.402c39.89 24.133 69.459 22.907 88.289 25.359 18.83 2.452 59.582 2.568 77.332-4.154 49.286-18.714 62.802-37.608 86.214-68.052 16.973-22.052 26.407-54.037 26.472-81.893.051-24.306-4.673-49.787-20.045-68.643z" fill="#F5F5F5"/><path d="M399.212 285.048l3.342 14.201 6.613 11.331a1.626 1.626 0 01.154 1.293 1.64 1.64 0 01-.842.993 1.615 1.615 0 01-1.497 0c-2.97-1.599-13.856-7.537-14.075-8.68-.257-1.329-4.563-16.275-4.563-16.275l10.868-2.863z" fill="#0091FF"/><path opacity=".6" d="M408.479 312.886l-15.861-9.746.18.642c.154.562.502 1.051.983 1.38 1.285.874 4.923 3.21 13.156 7.704a1.632 1.632 0 001.542 0v.02zm-14.081-15.569a.996.996 0 01.611 1.175.953.953 0 01-1.157.603 1.03 1.03 0 01-.643-1.239.984.984 0 011.285-.501" fill="#fff"/><path d="M403.106 307.146a5.017 5.017 0 011.016-1.566 5.147 5.147 0 011.677-.829c0-.038-.225-.102-.598-.057-.48.089-.925.311-1.285.642a2.57 2.57 0 00-.771 1.226c-.116.353-.077.584-.039.584zm1.665 1.753c.09.051.45-.584 1.176-1.034.471-.241.956-.455 1.452-.642a1.814 1.814 0 00-1.639.315c-.829.545-1.079 1.341-.989 1.361zm-4.435-3.827a17.87 17.87 0 011.716-1.721 17.61 17.61 0 012.134-1.162 4.499 4.499 0 00-3.856 2.883h.006zm-1.574-4.616c.064.083.816-.507 1.928-.854s2.043-.321 2.05-.424a4.09 4.09 0 00-3.959 1.284l-.019-.006zm-1.26-4.494a5.181 5.181 0 014.145-.995c0-.038-.205-.186-.642-.295a3.548 3.548 0 00-3.111.751c-.295.289-.424.539-.392.539zm1.703-1.784a1.462 1.462 0 00-.141-.585 4.27 4.27 0 00-.88-1.393 1.871 1.871 0 00-1.009-.642.643.643 0 00-.643.34 1.061 1.061 0 00-.045.758 2.314 2.314 0 002.519 1.522 2.684 2.684 0 002.159-2.055.899.899 0 00-.16-.751.647.647 0 00-.739-.154 2.265 2.265 0 00-.868.809c-.325.448-.569.95-.72 1.483-.071.19-.102.394-.09.597a7.407 7.407 0 011.003-1.926c.198-.288.465-.522.778-.681a.33.33 0 01.398.077.645.645 0 01.084.501 2.403 2.403 0 01-1.896 1.759 2.001 2.001 0 01-2.16-1.284.753.753 0 010-.533.348.348 0 01.367-.192c.334.082.635.266.861.526a6.219 6.219 0 011.182 1.824z" fill="#263238"/><path opacity=".3" d="M388.833 289.6l.604 2.125 10.784-2.369-.36-1.547-11.028 1.791z" fill="#000"/><path d="M356.333 288.778l.745 11.344s-11.291 4.571-11.323 6.684l22.075-.642-.443-17.732-11.054.346z" fill="#0091FF"/><path opacity=".6" d="M363.878 298.961a.902.902 0 01.642 1.008.87.87 0 01-.996.642.962.962 0 01-.687-1.073.908.908 0 011.111-.571m3.85 7.177l-.045-1.771-21.208 1.284s-.97.455-.835 1.142l22.088-.655z" fill="#fff"/><path d="M356.719 300.02c0 .109.546.141 1.092.475.546.334.836.77.932.725.096-.045-.084-.642-.745-1.053-.662-.41-1.318-.244-1.279-.147zm-2.288 1.027c0 .103.456.276.835.719.379.443.495.924.604.918.109-.007.161-.642-.321-1.169-.482-.526-1.118-.571-1.118-.468zm-1.228 2.806c.097 0 .232-.521-.064-1.105-.296-.584-.803-.796-.848-.706-.045.09.276.398.514.88.238.481.289.924.398.931zm3.631-6.44c.052.103.54-.064 1.151-.038.61.025 1.092.199 1.144.102.051-.096-.412-.462-1.132-.481-.719-.019-1.214.34-1.163.417z" fill="#263238"/><path opacity=".3" d="M356.378 289.183l.128 2.016 10.913-.315v-2.009l-11.041.308z" fill="#000"/><path d="M356.725 295.122c.365.09.748.077 1.105-.039a4.753 4.753 0 001.151-.385c.222-.105.437-.225.643-.36.123-.071.234-.162.327-.269a.471.471 0 00.032-.572.594.594 0 00-.482-.231c-.14.001-.279.025-.411.071a4.026 4.026 0 00-.681.25 4.09 4.09 0 00-1.003.7c-.495.494-.642.899-.642.918 0 .019.289-.308.803-.719.296-.233.62-.43.964-.584.209-.086.424-.157.643-.212.231-.071.43-.077.495 0 .064.077 0 .051 0 .122a1.412 1.412 0 01-.238.199 5.698 5.698 0 01-.579.353c-.337.178-.69.324-1.054.437a8.585 8.585 0 00-1.073.321z" fill="#263238"/><path d="M356.873 295.275c.197-.323.287-.701.257-1.078a3.408 3.408 0 00-.489-1.843.908.908 0 00-.719-.539.523.523 0 00-.457.321c-.05.132-.083.27-.096.411a2.583 2.583 0 000 .745c.075.41.25.795.508 1.123.45.559.899.674.912.642.013-.032-.353-.25-.7-.79a2.595 2.595 0 01-.379-1.027 2.301 2.301 0 010-.642c.032-.237.109-.43.199-.411.09.02.302.167.398.353.118.187.217.385.296.591.132.353.215.722.244 1.098.071.623-.032 1.034.026 1.046zM384.064 104.3a2.004 2.004 0 00-.263 2.497 6.763 6.763 0 001.928 1.926 4.547 4.547 0 011.748 2.054c.527 1.605-.643 3.429 0 4.995.539 1.361 2.217 1.926 2.962 3.21.746 1.284.341 2.96-.212 4.366-.553 1.406-1.234 2.876-.945 4.359.161.815.643 1.599.521 2.427-.135 1.2-1.343 1.926-2.487 2.356a11.532 11.532 0 01-5.848.449c-1.414-.263-2.867-.866-3.619-2.086-.642-1.04-.642-2.344-.642-3.576a104.83 104.83 0 012.635-21.186" fill="#263238"/><path d="M344.392 152.886l6.819-16.223s4.749-14.766 12.313-14.529l1.826 13.29-10.482 22.54-11.241-4.827" fill="#E0E0E0"/><path d="M357.014 161.649s-12.32 24.274-12.114 31.869c.116 4.225 6.575 95.857 6.575 95.857h18.585l-3.438-95.581 19.499 96.243 16.458-2.671-13.123-102.919s-2.249-14.009-6.876-19.755l-25.566-3.043z" fill="#263238"/><path d="M366.249 183.754c.228 1.662.346 3.337.354 5.014a36.988 36.988 0 010 5.027 38.234 38.234 0 01-.354-5.014 37.315 37.315 0 010-5.027zm24.075 9.392c-.184.077-.38.122-.579.135a9.202 9.202 0 01-1.626.058 9.888 9.888 0 01-8.502-5.778 8.963 8.963 0 01-.54-1.535 2 2 0 01-.09-.59c.064 0 .238.815.842 2.022a10.271 10.271 0 003.414 3.907 10.295 10.295 0 004.889 1.743c1.324.134 2.185-.02 2.192.038zm-37.931-8.827a5.479 5.479 0 01-.642 1.489 15.325 15.325 0 01-2.327 3.159c-.909.95-1.94 1.777-3.065 2.459-.448.308-.94.546-1.459.706a20.221 20.221 0 007.493-7.813zm15.926 106.315a1.248 1.248 0 01-.033-.257c0-.186-.038-.43-.064-.751-.051-.681-.122-1.65-.212-2.889-.167-2.523-.411-6.151-.707-10.625-.565-8.988-1.349-21.385-2.211-35.066a4780.68 4780.68 0 01-2.095-35.086c-.135-4.494.328-8.172 1.125-10.573a7.463 7.463 0 011.337-2.568c.155-.199.337-.376.54-.527l.205-.16c-.055.068-.118.13-.186.186a3.018 3.018 0 00-.508.539 7.817 7.817 0 00-1.285 2.568c-.746 2.395-1.176 6.048-1.016 10.529.566 8.988 1.344 21.378 2.198 35.066.855 13.687 1.568 26.084 2.115 35.079.25 4.494.456 8.102.597 10.631.065 1.239.116 2.215.148 2.896 0 .314 0 .565.032.751.015.085.022.171.02.257z" fill="#455A64"/><path d="M401.57 288.945c-.09 0-3.129-21.398-6.786-47.822-3.657-26.425-6.549-47.881-6.459-47.881.09 0 3.13 21.392 6.787 47.823 3.656 26.431 6.555 47.867 6.458 47.88z" fill="#455A64"/><path d="M382.207 162.324l3.502-17.707 2.706-19.041a17.678 17.678 0 00-8.65-4.116l-16.241.674-6.118 14.343.643 29.641 24.158-3.794z" fill="#E0E0E0"/><path d="M381.14 121.762s-7.751 17.199-11.844 18.335c-1.832 7.287-3.458 45.826-3.458 45.826l25.546-1.027-7.551-25.038 3.052-12.525s-3.316-19.832.238-23.26c-2.018-1.322-3.663-2.17-5.983-2.311zm-15.79-.302a65.692 65.692 0 00-.643 10.202 12.705 12.705 0 003.464 8.224l-3.393 46.037-18.091-2.632s3.733-11.517 6.709-16.531c0 0 1.414-2.382 4.01-6.889 0 0-1.812-14.695-1.876-16.769 0-.783 4.685-20.107 4.685-20.107a6.765 6.765 0 015.135-1.535zm-4.859-21.648c-2.32-.61-3.747-1.432-3.747-2.343 0-1.875 6.067-3.39 13.548-3.39 7.48 0 13.541 1.515 13.541 3.39 0 .905-1.408 1.727-3.702 2.337" fill="#0091FF"/><path opacity=".4" d="M361.783 99.748c-2.057-.54-3.374-1.284-3.316-2.074.141-2.24 5.372-3.01 12.005-3.01 6.632 0 11.998 1.347 11.998 3.01 0 .796-1.246 1.528-3.284 2.067" fill="#000"/><path d="M380.054 97.886c-.283.97.418 1.926 1.221 2.568.803.642 1.767 1.027 2.391 1.817a3.98 3.98 0 01.347 3.91 8.944 8.944 0 01-2.571 3.21c-.784.68-1.806 1.348-2.789 1.008" fill="#263238"/><path d="M387.11 124.073c-.321 0-1.51 3.024-2.397 5.778a18.194 18.194 0 001.485 14.657l5.623 9.874-16.928 5.676 2.481 7.915 23.689-6.349a6.894 6.894 0 002.898-1.593 6.89 6.89 0 001.819-2.76 6.858 6.858 0 00-.534-5.778l-12.352-21.186s-4.01-6.24-5.784-6.234z" fill="#E0E0E0"/><path d="M379.874 99.08a9.136 9.136 0 00-6.024-8.45 9.16 9.16 0 00-3.616-.538 9.34 9.34 0 00-6.218 2.984 9.32 9.32 0 00-2.471 6.434c0 4.302.058 8.622.302 10.163.733 4.635 3.721 6.048 4.904 6.42.422.089.853.132 1.285.129v.032l-.251 5.482c.039 3.563 2.449 6.42 6.016 6.42s5.932-3.088 5.951-6.664l.122-22.412z" fill="#FFBE9D"/><path d="M363.287 101.892a.741.741 0 00.719.751.714.714 0 00.772-.642.737.737 0 00-.72-.751.711.711 0 00-.771.642zm-.482-1.303c.096.103.642-.321 1.465-.315.822.007 1.394.405 1.478.302.084-.103-.051-.218-.308-.404a2.05 2.05 0 00-1.183-.366 1.93 1.93 0 00-1.163.378c-.251.187-.334.366-.289.405zm8.348 1.303a.741.741 0 00.72.751.713.713 0 00.771-.642.748.748 0 00-.72-.751.713.713 0 00-.771.642zm-.444-1.149c.097.096.643-.321 1.466-.321.822 0 1.394.404 1.484.308.09-.096-.051-.218-.308-.411a2.048 2.048 0 00-1.189-.36 1.967 1.967 0 00-1.163.373c-.251.193-.335.366-.29.411zm-2.917 5.958a5.164 5.164 0 00-1.286-.237c-.205 0-.398-.058-.437-.199a1.06 1.06 0 01.142-.642l.604-1.561a26.973 26.973 0 001.362-4.09 27.878 27.878 0 00-1.69 3.968c-.199.553-.392 1.073-.578 1.573a1.196 1.196 0 00-.11.803.516.516 0 00.341.302c.113.031.23.048.347.051.432.062.87.073 1.305.032z" fill="#263238"/><path d="M368.055 116.202s3.104.251 6.986-2.08c0 0-1.221 4.103-7.069 3.557l.083-1.477zm.077-7.562a1.43 1.43 0 011.286-.539 1.306 1.306 0 01.912.488.827.827 0 01.064.956.962.962 0 01-1.054.27 3.136 3.136 0 01-1.028-.642.895.895 0 01-.225-.238.25.25 0 010-.295" fill="#EB996E"/><path d="M370.176 107.259c-.128 0-.128.861-.874 1.483-.745.623-1.677.52-1.684.642-.006.122.206.167.598.18a2.175 2.175 0 001.407-.488c.378-.313.622-.759.682-1.245.013-.366-.084-.578-.129-.572zm.173-7.922c.078.218.881.115 1.826.225.944.109 1.709.372 1.831.173.058-.09-.077-.295-.385-.507a3.051 3.051 0 00-1.356-.475 3 3 0 00-1.427.167c-.347.14-.521.308-.489.417zm-7.242-.385c.141.18.694 0 1.362 0 .669 0 1.234.122 1.363-.064.128-.186-.033-.276-.283-.45a1.968 1.968 0 00-2.192.065c-.25.173-.321.365-.25.449zm8.309 7.929a.133.133 0 01.056-.006c.018.003.036.01.052.02a.132.132 0 01.037.041c.01.017.015.035.016.054a.12.12 0 01-.018.051.11.11 0 01-.038.039.116.116 0 01-.051.018.125.125 0 01-.054-.006.123.123 0 01-.063-.137.127.127 0 01.025-.049" fill="#263238"/><path d="M366.693 95.658a5.143 5.143 0 003.779 2.196c.983.077 2.108-.096 2.853.552.471.552.794 1.215.938 1.926a4.645 4.645 0 001.993 2.536c.745.417 1.677.597 2.217 1.284s.514 1.701.533 2.607c.02.905.225 1.958 1.041 2.349l.09-9.893a3.917 3.917 0 00-.173-1.45c-.399-1.034-1.568-1.529-2.641-1.818-3.034-.828-6.209-.924-9.351-1.02" fill="#263238"/><path d="M358.608 96.59s1.928-7.955 2.102-8.347c.173-.391 2.435-3.852 7.859-4.866h4.499s6.363 2.048 7.526 3.595c1.163 1.547 1.658 9.065 1.658 9.065l-12.571-2.729-8.547 2.08-2.526 1.201z" fill="#0091FF"/><path d="M370.035 82.472h-1.928a3.11 3.11 0 00-.765 2.022c-.09 1.393-.405 10.914-.405 10.914l5.617-.25-.18-11.8 1.928.423-.058-.642-.508-.597-3.701-.07z" fill="#0091FF"/><path d="M360.999 97.296l.109-2.89 8.457-2.516 10.566 3.127v3.107a26.02 26.02 0 00-19.132-.828z" fill="#455A64"/><path d="M361.635 93.79l-.373.366-3.04 1.926a48.251 48.251 0 0111.896-1.58c6.054.065 12.976 2.106 12.976 2.106l-4.011-2.407a6.897 6.897 0 00-4.903-2.19l-7.603-.147a6.943 6.943 0 00-4.942 1.926z" fill="#0091FF"/><path d="M367.072 91.646c-.089-1.348-.07-2.7.058-4.045a24.3 24.3 0 01.392-4.019c.089 1.346.07 2.696-.058 4.038a24.598 24.598 0 01-.392 4.026zm7.217-7.839a7.446 7.446 0 01-1.414-.18.366.366 0 00-.347.354v.834c0 .61 0 1.252.045 1.926v3.512a6.58 6.58 0 01-.096 1.45 6.488 6.488 0 01-.142-1.45c-.045-.899-.083-2.138-.109-3.506v-2.78a.643.643 0 01.643-.57c.49.068.969.207 1.42.41z" fill="#263238"/><path d="M358.03 96.025c.074-.057.153-.107.237-.148.161-.09.405-.206.727-.347.321-.141.713-.289 1.144-.513a3.21 3.21 0 001.233-1.015c.36-.462.412-1.194.913-1.81a1.728 1.728 0 011.041-.597 7.617 7.617 0 011.208-.11 69.013 69.013 0 015.341-.057 90.68 90.68 0 015.328.308 3.493 3.493 0 012.23.796c.24.264.455.55.642.854l.283.404.141.193a.5.5 0 00.148.11c1.086.558 2.025.95 2.635 1.283.309.154.546.283.701.372.086.043.166.097.237.16 0 0-.359-.147-.996-.416-.636-.27-1.561-.642-2.692-1.182a.632.632 0 01-.225-.166l-.148-.193a10.153 10.153 0 01-.296-.405 5.885 5.885 0 00-.642-.802 3.218 3.218 0 00-2.07-.687 103.412 103.412 0 00-5.308-.282c-1.89-.052-3.683-.039-5.309 0-.809 0-1.632 0-2.056.577-.424.578-.521 1.246-.932 1.772a3.465 3.465 0 01-1.343 1.047 14.54 14.54 0 01-1.183.462c-.63.25-.977.417-.989.392z" fill="#263238"/><path d="M359.167 96.474s.052-.064.187-.16c.198-.153.414-.282.642-.386a10.525 10.525 0 012.494-.867 28.373 28.373 0 018.657-.513c1.683.122 3.303.205 4.762.41a35.61 35.61 0 013.856.81c.485.129.963.283 1.433.462.373.114.715.314.996.584.17.172.271.4.283.642a.387.387 0 01-.058.25 1.029 1.029 0 00-.315-.834 2.37 2.37 0 00-.97-.495 18.363 18.363 0 00-1.427-.417 41.646 41.646 0 00-3.811-.725c-1.44-.2-3.053-.263-4.743-.385a30.528 30.528 0 00-8.58.41 12.23 12.23 0 00-2.487.752c-.63.288-.899.5-.919.462z" fill="#263238"/><path d="M367.965 92.018c.133-.01.266-.01.399 0h1.092c.919 0 2.192.09 3.593.206.694.057 1.362.121 1.966.192a8.57 8.57 0 011.601.263c.359.103.669.33.874.642a.712.712 0 01.122.38 1.71 1.71 0 00-.167-.354 1.611 1.611 0 00-.855-.597 9.67 9.67 0 00-1.587-.231l-1.967-.18a135.61 135.61 0 00-3.586-.244l-1.086-.058c-.133.01-.267.003-.399-.019zm4.229-1.117a1.509 1.509 0 01-.051-.282c0-.18-.058-.45-.097-.777a39.215 39.215 0 01-.167-2.568c-.032-1.008 0-1.926 0-2.568 0-.327 0-.597.045-.777.001-.097.014-.194.039-.289a1.56 1.56 0 010 .29v3.343c0 1.001.083 1.926.128 2.568l.052.777a.85.85 0 01.051.282zm6.337 3.563c.091.016.179.044.263.084l.688.27 2.256.93c.422.16.83.352 1.221.578.332.189.583.493.707.854.09.24.09.504 0 .744a.49.49 0 01-.168.219s.058-.077.116-.238a1.05 1.05 0 000-.7 1.467 1.467 0 00-.681-.776 9.63 9.63 0 00-1.208-.559l-2.243-.97-.643-.308a1.603 1.603 0 01-.308-.128zm-9.608-11.748a6.31 6.31 0 01.79-.033h1.928a13.5 13.5 0 011.928.097.99.99 0 01.521.282.38.38 0 01.103.193.918.918 0 00-.643-.379c-.463-.083-1.15-.032-1.928-.064s-1.414-.032-1.928-.052a4.186 4.186 0 01-.771-.044z" fill="#FAFAFA"/><path d="M360.999 97.296a12.772 12.772 0 00.546 7.639c.007-1.587.153-3.17.437-4.731a6.298 6.298 0 01.726-2.183c.495-.642 1.376-.796 2.166-.97.791-.173 1.665-.295 1.928-1.052a22.75 22.75 0 00-5.835 1.284m7.018 20.402a3.589 3.589 0 00-2.314 1.027c-.54.675-.88 1.509-1.562 2.036-.681.526-1.51.642-2.088 1.207-1.144 1.097-.585 3.023-1.08 4.494a11.073 11.073 0 01-1.433 2.368 2.936 2.936 0 00-.495 2.62 2.277 2.277 0 001.787 1.284 4.915 4.915 0 002.249-.308l-.09-1.785c.071.346.214.674.418.963a.882.882 0 00.944.315c.515-.206.527-.919.476-1.471-.199-2.041-.103-4.243 1.06-5.932.547-.802 1.479-1.65 1.928-2.497l.18-4.334" fill="#263238"/><path d="M334.964 149.734s1.151-2.504 2.828-2.401c1.677.103 6.382.642 6.382.642l.52 2.298-10.282-.526" fill="#FFBE9D"/><path d="M339.849 149.76l2.872-8.892a1.117 1.117 0 012.162.138c.033.17.025.344-.022.511l-2.487 8.744-2.525-.501z" fill="#0091FF"/><path d="M329.624 149.754h27.917l18.515 25.134-26.111-.379-20.321-24.755z" fill="#263238"/><path d="M364.199 158.928a22.161 22.161 0 013.741-.116c1.458.148 6.953 1.393 6.953 1.393l2.352 7.287-2.725-.244-1.831.886c-2.924.385-6.285.777-6.928.642 0 0-1.099-.642-.771-1.246 0 0-2.494-.288-2.237-2.272a2.075 2.075 0 01-1.619-1.791l-4.57-.251a.913.913 0 01-.854-.828c-.045-.514.642-.693 1.163-.713l7.127-.308a1.04 1.04 0 00.902-.603 1.045 1.045 0 00-.118-1.079l-.585-.757z" fill="#FFBE9D"/><path opacity=".5" d="M366.281 176.538l21.228-4.533 2.371 7.845-23.888 2.632.289-5.944zm-.867-.135l-14.267-5.072-3.259 7.717 17.166 3.171.36-5.816z" fill="#fff"/><path d="M383.801 106.797a1.176 1.176 0 01.057.963 2.704 2.704 0 01-1.51 1.772 2.79 2.79 0 01-2.313-.263c-.521-.334-.643-.713-.643-.726 0-.013.257.27.758.52a2.844 2.844 0 002.076.161 2.715 2.715 0 001.401-1.535c.083-.292.141-.59.174-.892z" fill="#455A64"/><path d="M383.749 106.624a2.099 2.099 0 01-.7.892 2.716 2.716 0 01-1.106.584 2.141 2.141 0 01-1.549-.167 2.652 2.652 0 01-1.073-1.11 3.658 3.658 0 01-.373-1.188 2.568 2.568 0 010-1.124c.105.354.182.714.232 1.079a2.99 2.99 0 001.362 2.048c.408.209.878.266 1.324.16a2.7 2.7 0 001.035-.468c.54-.392.803-.758.848-.706z" fill="#455A64"/><path d="M386.68 147.769s-.071-.057-.18-.192-.27-.334-.45-.642a17.794 17.794 0 01-1.407-2.395 20.437 20.437 0 01-.174-17.777c.39-.843.846-1.654 1.362-2.427a7.75 7.75 0 01.437-.609c.103-.142.168-.206.174-.199a8.577 8.577 0 01-.501.879c-.468.791-.886 1.61-1.253 2.453a21.553 21.553 0 001.471 20.004c.191.292.365.594.521.905zm-17.95-5.122a5.34 5.34 0 01.758-.642 25.671 25.671 0 002.005-1.766 31.77 31.77 0 005.296-7.017 69.005 69.005 0 003.779-7.987c.418-1.001.765-1.836 1.028-2.478.11-.309.248-.608.412-.892a5.186 5.186 0 01-.29.937c-.212.604-.52 1.464-.931 2.523a59.567 59.567 0 01-3.702 8.064 29.499 29.499 0 01-5.424 7.017 18.99 18.99 0 01-2.096 1.701c-.257.193-.469.315-.61.405a.842.842 0 01-.225.135zm-5.212-20.307c.064 0-.296 1.098-.553 2.908a21.265 21.265 0 00-.199 3.21c.032 1.306.174 2.608.424 3.89a23.686 23.686 0 001.125 3.75c.402.989.879 1.946 1.427 2.863.938 1.567 1.69 2.427 1.638 2.465a3.394 3.394 0 01-.552-.584 7.565 7.565 0 01-.579-.732c-.218-.301-.475-.642-.713-1.027a19.306 19.306 0 01-1.504-2.87 20.1 20.1 0 01-1.568-7.768c-.002-1.076.088-2.15.27-3.21.058-.456.173-.86.25-1.22a8.85 8.85 0 01.251-.905c.062-.267.157-.526.283-.77zm-2.339-1.13c.09 0-.964 5.085-2.353 11.319-1.388 6.233-2.57 11.267-2.686 11.247-.116-.019.964-5.091 2.359-11.324 1.394-6.234 2.59-11.261 2.68-11.242z" fill="#263238"/><path d="M328.788 116.741l2.14-7.447s.778-3.024.964-3.73c.238-.938-.411-1.239-.809-.604-.148.244-1.819 3.313-1.819 3.313l1.407-5.226c.437-1.643-.591-1.483-.893-.899-.302.585-2.211 5.566-2.211 5.566 1.793-6.484 1.286-7.062.772-7.171-.515-.109-2.076 5.823-2.076 5.823a5.497 5.497 0 00-1.556-1.727c-1.561-1.097-4.19-.038-4.325.7-.135.738.804.95.804.95a2.362 2.362 0 012.6-.147 2.358 2.358 0 011.159 2.33 1.473 1.473 0 01-1.338 1.329 1.47 1.47 0 01-1.547-1.079c-.643-2.933-1.646-1.996-1.646-1.996l.958 6.478-1.105 3.21" fill="#B78876"/><path d="M294.084 90.984c2.436-.642 3.94-1.515 3.94-2.465 0-1.977-6.388-3.576-14.261-3.576-7.873 0-14.261 1.599-14.261 3.576 0 .95 1.478 1.81 3.901 2.452" fill="#0091FF"/><path opacity=".4" d="M292.722 90.914c2.166-.572 3.547-1.342 3.49-2.19-.148-2.35-5.656-3.165-12.642-3.165-6.985 0-12.634 1.42-12.634 3.165 0 .848 1.285 1.612 3.457 2.177" fill="#000"/><path d="M296.064 87.588s-2.044-8.346-2.217-8.782c-.174-.437-2.571-4.077-8.278-5.136h-4.724s-6.703 2.157-7.924 3.787c-1.221 1.631-1.716 9.56-1.716 9.56l13.233-2.876 8.997 2.189 2.629 1.258z" fill="#0091FF"/><path d="M284.059 72.726h2.024c.516.589.803 1.343.81 2.125.09 1.464.424 11.524.424 11.524l-5.919-.27.193-12.422-2.012.449.065-.706.533-.642 3.882-.058zm-31.054 209.568l-3.901 15.446-6.607 11.332a1.621 1.621 0 00-.16 1.3 1.636 1.636 0 00.848.998 1.639 1.639 0 001.498 0c2.962-1.598 13.855-7.537 14.074-8.686.257-1.323 5.193-16.05 5.193-16.05l-10.945-4.34z" fill="#0091FF"/><path opacity=".6" d="M243.185 311.37l15.861-9.745-.18.642a2.486 2.486 0 01-.99 1.38c-1.285.879-4.916 3.21-13.149 7.704a1.617 1.617 0 01-1.542 0v.019zm14.075-15.581a.989.989 0 00-.605 1.168.95.95 0 00.456.538.949.949 0 00.701.072 1.039 1.039 0 00.643-1.245.989.989 0 00-1.285-.501" fill="#fff"/><path d="M248.551 305.592a4.871 4.871 0 00-1.015-1.567 5.096 5.096 0 00-1.677-.828c0-.038.225-.103.597-.058.482.085.929.308 1.286.642.371.326.642.752.777 1.227.116.372.077.584.032.584zm-1.658 1.778c-.096.045-.449-.59-1.182-1.033a13.617 13.617 0 00-1.446-.642 1.815 1.815 0 011.632.314c.829.546 1.086 1.342.996 1.361zm4.428-3.826a16.325 16.325 0 00-1.709-1.72 15.902 15.902 0 00-2.134-1.162 3.616 3.616 0 012.346.879 3.662 3.662 0 011.497 2.003zm1.581-4.597c-.071.084-.822-.507-1.928-.854-1.105-.346-2.044-.321-2.05-.423a3.128 3.128 0 012.159.09c.728.169 1.372.59 1.819 1.187zm1.253-4.507a8.126 8.126 0 00-1.966-.937 7.798 7.798 0 00-2.179-.051c0-.045.206-.186.643-.296a3.602 3.602 0 013.117.745c.289.283.418.514.385.539zm-1.696-1.791c0-.202.046-.402.135-.584a4.22 4.22 0 01.887-1.393 1.837 1.837 0 011.002-.642.64.64 0 01.643.334c.112.239.131.512.051.764a2.302 2.302 0 01-2.519 1.515 2.673 2.673 0 01-2.166-2.048.949.949 0 01.167-.758.647.647 0 01.739-.147c.356.188.656.467.868.809.325.446.569.946.72 1.476.071.191.102.394.09.597a7.365 7.365 0 00-1.009-1.926 2.15 2.15 0 00-.771-.687.352.352 0 00-.217-.025.34.34 0 00-.188.109.64.64 0 00-.077.501 2.383 2.383 0 001.895 1.752 2 2 0 002.16-1.284.825.825 0 000-.533.36.36 0 00-.373-.186c-.336.08-.637.264-.861.527a6.184 6.184 0 00-1.176 1.829z" fill="#263238"/><path d="M294.566 286.724l-.867 12.326s12.255 5.008 12.32 7.3l-23.978-.796.54-19.26 11.985.43z" fill="#0091FF"/><path d="M286.334 297.766a.97.97 0 00-.714 1.092.943.943 0 001.08.719 1.029 1.029 0 00.746-1.162.977.977 0 00-1.202-.642" fill="#E0E0E0"/><path opacity=".6" d="M282.053 305.554l.129-1.926 22.943 1.489s1.054.501.906 1.246l-23.978-.809z" fill="#fff"/><path d="M294.104 298.941c0 .115-.592.154-1.183.507-.591.353-.913.841-1.015.79-.103-.052.09-.719.809-1.137.72-.417 1.421-.263 1.389-.16zm2.48 1.124c0 .115-.488.295-.899.777-.412.481-.547 1.001-.643.995-.097-.007-.167-.642.36-1.284s1.189-.597 1.182-.488zm1.331 3.055c-.11 0-.251-.571.07-1.2.322-.63.881-.867.926-.771.045.096-.302.43-.559.957-.258.526-.322 1.008-.437 1.014zm-3.927-7.01c-.051.109-.585-.071-1.247-.052-.662.019-1.182.218-1.24.116-.058-.103.45-.508 1.234-.52.784-.013 1.317.366 1.253.456zm.128-2.485c-.398.09-.813.072-1.202-.051a4.995 4.995 0 01-1.24-.424 5.285 5.285 0 01-.681-.391 1.294 1.294 0 01-.354-.296.516.516 0 01-.032-.642.648.648 0 01.521-.25c.153.005.304.031.45.077a4.193 4.193 0 011.818 1.046c.54.533.72.976.675.995-.045.02-.308-.333-.861-.783a4.872 4.872 0 00-1.054-.642 4.99 4.99 0 00-.681-.237c-.251-.071-.469-.084-.54 0-.071.083 0 .064 0 .141.078.079.164.15.257.212.212.147.418.269.643.385.367.193.749.354 1.144.482.388.095.769.222 1.137.378z" fill="#263238"/><path d="M293.956 293.786a1.982 1.982 0 01-.277-1.169c-.003-.436.066-.87.206-1.284.087-.25.199-.491.334-.719a.975.975 0 01.784-.578.555.555 0 01.489.347c.06.143.097.295.109.449.042.266.042.537 0 .803a2.774 2.774 0 01-.553 1.226c-.488.604-.983.726-.989.687-.007-.038.379-.269.758-.854.217-.338.359-.719.418-1.117a2.77 2.77 0 000-.693c-.032-.257-.122-.462-.219-.443-.096.019-.328.18-.43.379a4.233 4.233 0 00-.322.642 4.363 4.363 0 00-.27 1.187c-.083.681.026 1.117-.038 1.137z" fill="#263238"/><path d="M274.881 119.74l14.415-.642c.084-1.528-.7-10.979-.7-10.979s5.45-.847 5.52-6.291c.071-5.444-.758-16.314-.758-16.314l-.096-.475c-6.305-2.702-13.612-2.946-19.049 1.24l-.81.642 1.478 32.819z" fill="#B78876"/><path d="M288.609 108.017a12.68 12.68 0 01-7.121-2.016s1.684 3.916 7.121 3.428v-1.412z" fill="#AA6550"/><path d="M274.072 92.512c-.09-.038-3.741-1.104-3.625 2.62.116 3.723 3.856 2.831 3.856 2.728 0-.103-.231-5.348-.231-5.348z" fill="#B78876"/><path d="M273.133 96.486s-.058.045-.167.096a.642.642 0 01-.488 0 1.594 1.594 0 01-.784-1.412c-.023-.32.028-.64.147-.937a.755.755 0 01.476-.514.334.334 0 01.386.167c.051.103.032.18.051.186.019.007.077-.064.045-.218a.424.424 0 00-.326-.309.482.482 0 00-.188-.006.907.907 0 00-.643.604 2.19 2.19 0 00-.193 1.04 1.7 1.7 0 00.997 1.58.705.705 0 00.591-.117c.096-.07.096-.153.096-.16z" fill="#AA6550"/><path d="M291.449 92.3a.77.77 0 01-.745.783.743.743 0 01-.731-.413.748.748 0 01-.073-.286.78.78 0 01.746-.783.743.743 0 01.73.413.73.73 0 01.073.287zm.759-.776c-.097.102-.688-.334-1.523-.334-.836 0-1.453.424-1.543.32-.09-.102.052-.23.322-.423a2.114 2.114 0 011.234-.379c.436-.002.862.135 1.214.392.257.193.341.379.296.424zm-8.985 1.072a.777.777 0 01-.752.783.74.74 0 01-.728-.415.744.744 0 01-.075-.285.784.784 0 01.752-.79.76.76 0 01.803.707zm.752-.919c-.096.103-.688-.333-1.523-.327-.835.007-1.452.417-1.542.315-.09-.103.051-.225.321-.424a2.162 2.162 0 011.234-.379 2.02 2.02 0 011.215.392c.257.199.379.378.295.423zm3.04 6.208a5.188 5.188 0 011.362-.25c.212 0 .412-.064.45-.205a1.09 1.09 0 00-.141-.642c-.199-.52-.412-1.06-.643-1.625a29.123 29.123 0 01-1.42-4.256 27.38 27.38 0 011.761 4.128c.212.571.417 1.117.604 1.637.137.258.178.556.116.841a.523.523 0 01-.354.308 1.285 1.285 0 01-.36.052 5.861 5.861 0 01-1.375.012zm-2.462.579c.135 0 .135.898.913 1.541.778.642 1.748.545 1.755.642.006.096-.219.173-.643.186a2.28 2.28 0 01-1.465-.507 1.927 1.927 0 01-.707-1.284c-.02-.36.083-.585.147-.578zm-.359-10.06c-.084.224-.919.115-1.928.237-1.009.122-1.774.385-1.928.18-.058-.096.083-.308.404-.533.425-.275.91-.445 1.414-.494.502-.06 1.011 0 1.485.173.418.148.585.328.553.437zm7.705.699c-.148.193-.726 0-1.42 0s-1.285.129-1.414-.07c-.058-.097 0-.283.289-.463a1.933 1.933 0 011.151-.314c.408.005.804.14 1.131.385.25.173.328.366.263.462zm7.841 82.266l-2.385 122.975a1.505 1.505 0 01-1.523 1.483l-14.338-.128a1.509 1.509 0 01-1.497-1.541l2.224-105.847-18.651 105.083a2.705 2.705 0 01-.964 1.632 2.706 2.706 0 01-1.799.602l-12.024-.417a2.717 2.717 0 01-1.987-.983 2.695 2.695 0 01-.584-2.137l18.888-121.21 34.64.488z" fill="#263238"/><path d="M329.045 116.581l-8.914-2.144-5.867 15.94-16.253-14.528c-1.729-1.284-4.711-1.425-6.979-1.701h-.174c-.88-.109-1.285-.231-1.838-.296-3.92 2.941-10.623 3.127-14.473.09 0 0-2.918.642-4.659.995-5.489 1.053-9.441 5.047-10.534 8.732l6.871 15.825 1.317 15.036-3.805 13.482a2.344 2.344 0 00-.065.989c.05.331.171.647.353.928a2.338 2.338 0 001.64 1.036l34.062.52.552-.276c.72-1.323 1.247-2.844.913-4.308-1.465-6.42-.443-25.68-.752-31.548 6.677 6.478 14.042 11.851 19.422 8.526 4.485-2.806 9.183-27.298 9.183-27.298z" fill="#E0E0E0"/><path d="M273.461 89.013c.142 1.509.097 3.037.244 4.545.087.57.27 1.122.54 1.631a1.499 1.499 0 002.841 0c.253-.61.367-1.267.334-1.926a6.164 6.164 0 01.206-1.977c.307-.68.684-1.325 1.124-1.926a2.389 2.389 0 00.354-2.119c-2.025-.038-3.888.777-5.643 1.778" fill="#263238"/><path d="M293.544 88.333l-.115-3.043-8.908-2.652-11.118 3.274v3.274a27.377 27.377 0 0120.141-.853z" fill="#455A64"/><path d="M292.87 84.641l.392.38 3.213 2.015a50.62 50.62 0 00-12.532-1.65c-6.375.064-13.663 2.215-13.663 2.215l4.222-2.568a7.229 7.229 0 015.141-2.298l8.002-.16a7.269 7.269 0 015.225 2.066z" fill="#0091FF"/><path d="M287.15 82.382a27.123 27.123 0 01-.405-4.238 28.004 28.004 0 01-.071-4.256c.25 1.4.385 2.816.405 4.237a28.01 28.01 0 01.071 4.257zm-7.59-8.25a5.718 5.718 0 011.504-.437.642.642 0 01.643.597v2.928c0 1.444-.065 2.748-.11 3.691a7.328 7.328 0 01-.148 1.528 7.044 7.044 0 01-.089-1.528V77.22c0-.713.032-1.393.044-2.029 0-.302.001-.597.033-.88a.404.404 0 00-.38-.378 8.872 8.872 0 01-1.497.199z" fill="#263238"/><path d="M296.668 86.997s-.373-.154-1.061-.398c-.34-.128-.764-.27-1.24-.494a3.524 3.524 0 01-1.414-1.098c-.431-.552-.508-1.322-.983-1.868-.476-.546-1.318-.578-2.166-.61a80.075 80.075 0 00-5.591-.032c-1.98.058-3.856.16-5.591.295a3.4 3.4 0 00-2.185.726 6.036 6.036 0 00-.643.847l-.309.43-.16.2a.775.775 0 01-.232.173c-1.189.578-2.165.943-2.834 1.245-.668.302-1.034.462-1.041.443-.006-.02.077-.07.244-.167.167-.096.418-.23.739-.391.643-.334 1.633-.752 2.777-1.336a.669.669 0 00.16-.115l.148-.2c.097-.14.199-.282.296-.43.202-.319.432-.62.687-.898a3.661 3.661 0 012.353-.835 99.169 99.169 0 015.604-.327c1.992-.058 3.894 0 5.617.064.43.006.86.044 1.285.115a1.78 1.78 0 011.086.642c.527.643.585 1.413.964 1.927.332.459.774.827 1.285 1.072.457.23.868.391 1.209.539.34.147.591.27.758.36.167.09.244.108.238.121z" fill="#263238"/><path d="M295.479 87.466s-.09-.032-.238-.115a5.362 5.362 0 00-.643-.34 12.978 12.978 0 00-2.622-.797 32.166 32.166 0 00-9.036-.436c-1.786.128-3.476.205-4.999.404-1.524.2-2.886.5-4.011.77-.559.142-1.066.29-1.504.437a2.502 2.502 0 00-1.015.526 1.074 1.074 0 00-.334.88.42.42 0 01-.058-.263 1.05 1.05 0 01.296-.706 2.61 2.61 0 011.047-.642c.437-.167.945-.334 1.51-.488a36.96 36.96 0 014.03-.848c1.536-.218 3.213-.308 5.013-.436a29.816 29.816 0 019.113.539c.909.193 1.79.499 2.622.912.228.108.444.241.643.398.07.06.133.129.186.205z" fill="#263238"/><path d="M285.203 72.983a5.597 5.597 0 01-.829.064l-2.012.051c-.777 0-1.504 0-1.992.064a.968.968 0 00-.675.405s0-.083.103-.199a.978.978 0 01.546-.295 13.973 13.973 0 012.018-.103h2.005c.279-.02.558-.016.836.013zm1.009 9.79c-.14.029-.282.042-.425.039l-1.144.064c-.964.051-2.3.128-3.772.25l-2.076.193a9.771 9.771 0 00-1.664.244 1.682 1.682 0 00-.906.642 1.559 1.559 0 00-.174.379.856.856 0 01.129-.405 1.7 1.7 0 01.919-.693 8.945 8.945 0 011.683-.276 105.3 105.3 0 012.076-.206 70.143 70.143 0 013.779-.212h1.15a3.35 3.35 0 01.425-.019zm-4.46-1.175a1.52 1.52 0 010-.302c0-.27.038-.539.057-.821.045-.687.103-1.644.135-2.697.032-1.053 0-2.016 0-2.709v-.822a.899.899 0 010-.301c.021.099.033.2.039.301 0 .193.032.475.045.822.032.693.045 1.65 0 2.71a49.233 49.233 0 01-.174 2.709c0 .34-.064.641-.096.815a.975.975 0 01-.006.295zm-6.691 3.749s-.083.058-.25.135l-.707.328-2.359 1.014a9.853 9.853 0 00-1.285.59c-.33.182-.587.473-.726.823-.08.24-.08.498 0 .738.036.086.079.17.128.25a.578.578 0 01-.173-.23 1.176 1.176 0 010-.79c.134-.377.398-.694.745-.893a8.569 8.569 0 011.285-.61l2.372-.982.726-.283a1.71 1.71 0 01.244-.09z" fill="#FAFAFA"/><path d="M273.461 114.912l.791-5.438 7.416 2.716 2.095 3.685 1.298-4.045 4.068-1.4 1.742 3.621-2.988 4.218-5.598 1.13-8.824-4.487z" fill="#E0E0E0"/><path d="M283.892 116.722s-.11-.064-.277-.225a9.622 9.622 0 01-.681-.732 10.937 10.937 0 01-1.793-3.088h.276l-1.716 4.315c-.295.738-.584 1.451-.861 2.131l-.09.225-.173-.167a315.979 315.979 0 01-3.702-3.627l-1.06-1.079a1.987 1.987 0 01-.354-.417c.16.092.305.206.431.34l1.124 1.008c.952.873 2.275 2.106 3.786 3.537l-.264.058c.27-.68.559-1.393.855-2.131l1.754-4.302.142-.353.128.36a12.088 12.088 0 001.652 3.075c.508.693.848 1.046.823 1.072zm6.979-2.671a5.852 5.852 0 01-.868 1.194 11.883 11.883 0 01-2.84 2.498l-.167.096-.065-.18c-.244-.642-.527-1.374-.822-2.112a79.736 79.736 0 01-1.189-3.101h.289c-.244 1.226-.546 2.234-.733 2.941-.075.38-.183.754-.321 1.117.002-.39.051-.778.148-1.156.135-.725.398-1.74.61-2.953l.097-.546.193.52c.34.925.771 1.965 1.214 3.075.302.745.579 1.464.81 2.132l-.231-.084a13.82 13.82 0 002.86-2.349c.314-.386.653-.751 1.015-1.092zm-4.287 58.063a3.336 3.336 0 01.033-.565c.047-.398.105-.938.173-1.618.096-.7.148-1.567.219-2.568.038-.501.077-1.034.115-1.599 0-.571.045-1.175.071-1.804.116-2.523.109-5.527.051-8.866-.057-3.338-.27-7.01-.533-10.856-.559-7.704-1.318-14.637-1.889-19.658-.283-2.491-.515-4.494-.682-5.951l-.173-1.618a4.105 4.105 0 01-.039-.565c.055.182.092.369.109.558l.232 1.612c.199 1.399.475 3.428.79 5.932a365.618 365.618 0 011.986 19.664c.264 3.852.437 7.531.508 10.876.071 3.345 0 6.356-.122 8.885-.032.642-.065 1.233-.097 1.804-.032.572-.096 1.098-.141 1.605-.09 1.002-.161 1.862-.276 2.568l-.232 1.612c-.024.185-.058.37-.103.552z" fill="#263238"/><path d="M280.633 114.668l1.684.879-.315 2.831-2.622-.552 1.253-3.158z" fill="#0091FF"/><path opacity=".4" d="M280.633 114.668l1.684.879-.315 2.831-2.622-.552 1.253-3.158z" fill="#000"/><path d="M284.496 115.367l1.272-1.117 1.17 2.96-1.671.802-.771-2.645zm-1.864 3.698l-.784 33.5 5.668 5.598 2.738-7.434-5.437-31.837-2.185.173z" fill="#0091FF"/><path d="M282.671 114.507a15.85 15.85 0 001.336-.237.945.945 0 01.586.066.95.95 0 01.43.402l.713 1.317c.106.196.14.423.096.642l-.289 1.476a.92.92 0 01-.251.479.921.921 0 01-.475.259l-1.619.328a.937.937 0 01-1.016-.494l-.81-1.593a.913.913 0 010-.796l.559-1.284a.94.94 0 01.74-.565z" fill="#0091FF"/><path d="M285.023 114.867c-.126.191-.27.369-.431.532-.276.321-.643.758-1.105 1.227l-1.138 1.207c-.152.171-.32.327-.501.468.121-.192.263-.371.424-.533.283-.321.643-.757 1.112-1.232.469-.475.842-.899 1.137-1.201.153-.171.321-.328.502-.468zm-1.658 1.541a7.875 7.875 0 01-1.466-1.406c.548.403 1.04.876 1.466 1.406zm1.896 2.144c.098-.649.231-1.292.398-1.926a1.887 1.887 0 00-.405-1.284 1.086 1.086 0 01-.193-.552s.077.205.277.5c.118.177.228.359.327.546.129.24.174.515.129.783-.109.552-.251 1.015-.347 1.361a2.253 2.253 0 01-.186.572z" fill="#263238"/><path opacity=".3" d="M266.212 161.097a6.422 6.422 0 005.597 1.605c1.408-.282 2.745-1.046 4.178-.956 1.574.102 2.872 1.2 4.306 1.849 2.673 1.213 5.784.828 8.637.07 1.285-.346 2.667-.821 3.509-1.874a6.228 6.228 0 001.08-2.915c.327-1.908.469-3.843.424-5.778 0-1.213-.161-2.51-.932-3.448a3.998 3.998 0 00-2.571-1.284 10.22 10.22 0 00-2.956.167 48.867 48.867 0 00-21.42 9.155" fill="#000"/><path d="M280.016 154.722s-17.994 8.044-19.839 8.449c-6.079 1.329-13.033-4.404-11.099-10.946.714-2.434 10.405-29.333 10.405-29.333l9.222 12.73-3.926 13.02 10.212-.68 5.025 6.76z" fill="#E0E0E0"/><path d="M274.187 148.071a3.65 3.65 0 01-.713.096l-1.973.167c-1.671.135-4.017.296-6.69.462h-.225l.064-.218c.199-.642.399-1.329.604-2.016a753.478 753.478 0 012.378-7.774c.302-.944.559-1.734.752-2.344.082-.291.189-.575.321-.847-.04.298-.107.593-.199.879-.173.642-.392 1.419-.642 2.376a635.41 635.41 0 01-2.282 7.8c-.212.694-.411 1.368-.643 2.016l-.16-.199c2.673-.16 5.019-.282 6.696-.353l1.98-.077c.244-.017.49-.006.732.032zm3.818 7.691c.032.084-3.921 1.791-8.831 3.807s-8.894 3.595-8.952 3.499c-.058-.096 3.92-1.791 8.83-3.813 4.91-2.023 8.92-3.57 8.953-3.493z" fill="#263238"/><path d="M275.826 147.474l-1.407-6.876a.875.875 0 01.182-.741.885.885 0 01.692-.325l17.898.084a.888.888 0 01.843.621.881.881 0 01.037.368l-1.85 15.825a1.228 1.228 0 01-1.234 1.091l-11.671-.09a1.239 1.239 0 01-1.189-.93l-2.301-9.027z" fill="#455A64"/><path d="M274.251 143.84a1.876 1.876 0 011.755 1.194c.296.764.726 1.657 1.202 1.926.88.482 2.397.861 3.213.475.816-.385 3.997-3.267 4.557-2.946.559.321 1.034 1.04.475 1.675-.559.636-3.515 2.568-2.956 3.21.559.642 6.793-2.17 7.75-1.926.958.244 1.517.835.958 1.22-.559.385-4.794 1.977-5.032 2.536 0 0 6.394-1.676 6.632-1.284.238.392.643 1.04 0 1.284-.642.244-6.15 1.676-6.632 1.926-.792.327-1.617.566-2.461.713-.174 0-1.427.423-2.571.815a5.643 5.643 0 01-3.972-.103l-.642-.263a2.52 2.52 0 01-1.19-.996 2.524 2.524 0 01-.385-1.501l.109-2.209-.694-1.797-.116-3.949z" fill="#B78876"/><path d="M284.991 142.165a.642.642 0 11-1.286.001.642.642 0 011.286-.001z" fill="#FAFAFA"/><path d="M297.073 131.141h-7.327v2.369h7.327v-2.369z" fill="#263238"/><path d="M272.266 175.33l-7.783-.192.366-2.356 7.687.301-.27 2.247zm21.606-.051l-19.55-.141.257-2.157 19.274.051.019 2.247z" fill="#455A64"/><path d="M282.092 172.852v2.6a.713.713 0 00.643.764h5.385a.714.714 0 00.643-.764v-2.6a.714.714 0 00-.643-.764h-5.385a.714.714 0 00-.643.764zm5.823 2.414h-4.988v-2.202h4.988v2.202z" fill="#FAFAFA"/><path d="M295.55 173.051v2.202l4.125.077.058-2.349-4.183.07zm-40.938 116.048s0-.103.032-.295l.128-.841c.123-.764.303-1.849.527-3.249.476-2.838 1.157-6.908 1.993-11.935l6.568-39.367a4610.796 4610.796 0 006.388-39.406c.784-5.033 1.42-9.116 1.864-11.954.225-1.4.392-2.491.514-3.249.064-.359.109-.642.141-.841.032-.199.058-.289.058-.289.006.097.006.193 0 .289 0 .206-.058.488-.109.854-.103.758-.251 1.856-.45 3.255-.392 2.831-1.003 6.921-1.761 11.967-1.53 10.105-3.747 24.043-6.292 39.425a5148.907 5148.907 0 01-6.658 39.355c-.887 5.02-1.6 9.091-2.101 11.915-.251 1.394-.45 2.485-.592 3.21-.064.36-.122.642-.16.841-.039.199-.09.315-.09.315zm36.754.443c-.097 0 .07-25.038.36-55.893.289-30.854.604-55.892.694-55.892.09 0-.071 25.038-.36 55.899s-.604 55.886-.694 55.886zm6.427.437c0 .09-3.908.167-8.734.167-4.827 0-8.728-.077-8.728-.167 0-.09 3.908-.167 8.728-.167s8.734.07 8.734.167zm-33.368-.668c-.23.048-.465.069-.7.064l-1.928.064-6.305.154c-2.461.052-4.691.071-6.304.058-.81 0-1.459 0-1.928-.039a3.103 3.103 0 01-.707-.064 2.84 2.84 0 01.7-.07l1.928-.065 6.298-.154a207.78 207.78 0 016.305-.051c.81 0 1.459 0 1.928.039.24-.011.479.011.713.064z" fill="#455A64"/><path d="M314.084 136.528a15.891 15.891 0 01-.167-3.21 15.888 15.888 0 01.167-3.21c.168 1.061.224 2.137.167 3.21a15.33 15.33 0 01-.167 3.21z" fill="#263238"/><path d="M316.353 136.939a14.817 14.817 0 01-1.446-3.332 14.602 14.602 0 01-.9-3.518c.473 1.11.879 2.249 1.214 3.409a30.494 30.494 0 011.132 3.441z" fill="#263238"/></svg>