<svg width="24" height="24" fill="none" xmlns="http://www.w3.org/2000/svg"><path d="M16.177 7.454H13.85v1.89a.367.367 0 01-.363.37.369.369 0 01-.122-.022L12 9.213l-1.364.48a.365.365 0 01-.487-.35v-1.89H7.824v7.56h8.353v-7.56zM9.73 11.26h2.975a.37.37 0 110 .74H9.73a.37.37 0 110-.74zm4.541 2.326H9.73a.37.37 0 110-.74h4.541a.37.37 0 010 .74z" fill="#0091FF"/><path d="M12.119 8.472l.991.35V7.453h-2.22V8.82l.99-.349a.353.353 0 01.239 0z" fill="#0091FF"/><path d="M7.454 4.863H5.128v17.445h13.744V4.863H16.6v.202a.384.384 0 01-.376.38H7.8c-.205 0-.347-.175-.347-.38v-.202zm-.766 12.582h4.79a.37.37 0 110 .74h-4.79a.37.37 0 110-.74zm10.994 2.273a.37.37 0 01-.37.37H6.688a.37.37 0 110-.74h10.624a.37.37 0 01.37.37zM16.493 6.714a.37.37 0 01.37.37v8.3a.37.37 0 01-.37.37h-9.04a.37.37 0 01-.37-.37v-8.3a.37.37 0 01.37-.37h9.04zm-.634-3.739a1.182 1.182 0 00-1.166-1.178H9.33c-.64 0-1.137.538-1.137 1.178v1.73h7.665v-1.73zM12.245 0h-.466c-.618 0-1.125.476-1.158 1.057h2.782C13.369.476 12.863 0 12.245 0z" fill="#0091FF"/><path d="M20.017 3.383h-3.418v.74h2.658a.337.337 0 01.356.345v18.187c0 .205-.152.393-.356.393H4.744c-.204 0-.356-.188-.356-.393V4.468a.337.337 0 01.356-.345h2.71v-.74h-3.47a.611.611 0 00-.6.614V23.42a.582.582 0 00.6.58h16.033a.583.583 0 00.6-.58V3.997a.611.611 0 00-.6-.614z" fill="#0091FF"/></svg>