<svg width="24" height="24" fill="none" xmlns="http://www.w3.org/2000/svg"><path d="M8.95 8.594l2.378.836V5.8H6.33v3.63l2.372-.836a.367.367 0 01.249 0z" fill="#49525B"/><path d="M12.417 5.972c0-.059.006-.117.007-.173h-.32v4.179a.384.384 0 01-.379.389.383.383 0 01-.128-.022l-2.769-.972-2.767.972a.38.38 0 01-.508-.367V5.799H0v17.658h17.657V12.075c-2.942-.45-5.24-3.014-5.24-6.103zm-8.014 8.1H10.2a.389.389 0 010 .778H4.403a.389.389 0 110-.777zm8.847 3.832H4.403a.389.389 0 110-.777h8.847a.389.389 0 110 .777z" fill="#49525B"/><path d="M18.6.568a5.4 5.4 0 100 10.8 5.4 5.4 0 000-10.8zm1.407 7.448a.383.383 0 01-.546 0l-1.479-1.485a.38.38 0 01-.102-.274v-2.95a.389.389 0 11.777 0v2.789l1.36 1.37a.388.388 0 01-.01.55z" fill="#49525B"/></svg>