<svg width="24" height="24" fill="none" xmlns="http://www.w3.org/2000/svg"><path d="M0 15.718a.393.393 0 00.387.4h.569a2.363 2.363 0 014.344 0h10.31v-3H0v2.6zm2.034-10.43h1.322v7.119H2.034V5.288zM0 5.288h1.322v7.119H0V5.288zm4.068 0H5.39v7.119H4.068V5.288z" fill="#49525B"/><path d="M4.78 17.044a1.651 1.651 0 11-3.303 0 1.651 1.651 0 013.302 0zm14.823-8.532a1.152 1.152 0 00-1.02-.63h-2.261v2.694h4.34l-1.059-2.064zm-7.4-3.224h1.322v7.119h-1.322V5.288zm-2.033 0h1.322v7.119h-1.323V5.288zm-4.068 0h1.322v7.119H6.102V5.288zm2.034 0h1.322v7.119H8.136V5.288zm6.101 0h1.373v7.119h-1.373V5.288zm8.283 6.289l-1.313-.289h-4.885v4.83h.98a2.362 2.362 0 014.344 0H24v-2.694a1.878 1.878 0 00-1.48-1.847z" fill="#49525B"/><path d="M21.125 17.044a1.65 1.65 0 11-3.302 0 1.65 1.65 0 013.302 0z" fill="#49525B"/></svg>