<svg width="24" height="24" fill="none" xmlns="http://www.w3.org/2000/svg"><path d="M12 5.059a.347.347 0 01-.14.29.327.327 0 01-.313.045l-1.698-.596-1.699.596a.355.355 0 01-.472-.335V2.542H4.424v14.492h10.83V2.542H12V5.06zM7.077 9.305h3.632a.356.356 0 010 .712H7.077a.356.356 0 110-.712zm5.9 2.898c0 .197-.16.356-.357.356H7.077a.356.356 0 110-.712h5.543c.197 0 .356.16.356.356z" fill="#49525B"/><path d="M9.956 4.085l1.332.471V2.542H8.39v2.014l1.336-.47a.338.338 0 01.23 0zm4.828 15.085H0v3h14.912a3.887 3.887 0 01-.128-3zm5.911-17.34H24v1.73h-3.305V1.83zm-2.258 17.444a1.244 1.244 0 100 2.488 1.244 1.244 0 000-2.488z" fill="#49525B"/><path d="M18.437 17.336a3.182 3.182 0 100 6.364 3.182 3.182 0 000-6.364zm0 5.138a1.955 1.955 0 110-3.911 1.955 1.955 0 010 3.91zm1.546-5.529V.305h-2.44V16.73a3.88 3.88 0 012.44.216z" fill="#49525B"/></svg>