<svg width="24" height="24" fill="none" xmlns="http://www.w3.org/2000/svg"><path d="M20.768 18.687a.919.919 0 11-1.837 0 .919.919 0 011.837 0z" fill="#49525B"/><path d="M19.85 15.588c-.91 0-1.78.376-2.404 1.04-1.309 1.362-1.31 3.589 0 4.964l2.146 2.242a.356.356 0 00.515 0l2.145-2.241c1.31-1.363 1.31-3.59.002-4.964a3.294 3.294 0 00-2.404-1.04zm0 4.73a1.63 1.63 0 110-3.263 1.63 1.63 0 010 3.262z" fill="#49525B"/><path d="M17.339 23.288H6.05a1.22 1.22 0 010-2.44h4.144a1.856 1.856 0 100-3.712H2.77a1.246 1.246 0 010-2.492h18.432a1.525 1.525 0 100-3.05h-15a.814.814 0 010-1.628h5.924a.356.356 0 100-.712H6.203a1.525 1.525 0 100 3.051h15a.814.814 0 110 1.627H2.771a1.958 1.958 0 000 3.915h7.424a1.144 1.144 0 010 2.289H6.05a1.932 1.932 0 100 3.864h11.288a.356.356 0 100-.712zM13.924 5.017c.804.002 1.5.557 1.683 1.339h.18V4c0-.196-.182-.34-.378-.34H9.838v2.695h2.403a1.734 1.734 0 011.683-1.34zm-.647-4.44A1.075 1.075 0 0012.335 0h-.004L9.838.013V2.95h4.696L13.277.577zM3.33 5.017c.803.002 1.5.557 1.682 1.339h4.114V3.66H1.194v2.695h.453a1.733 1.733 0 011.682-1.34z" fill="#49525B"/><path d="M12.91 6.73a1.015 1.015 0 102.03 0 1.015 1.015 0 00-2.03 0zm-10.596 0a1.015 1.015 0 102.03-.001 1.015 1.015 0 00-2.03 0z" fill="#49525B"/></svg>