<svg width="24" height="24" fill="none" xmlns="http://www.w3.org/2000/svg"><path d="M12.116 13.257l.81.286V12.36h-1.853v1.182l.81-.286a.348.348 0 01.233 0zM7.991 5l.816.286V4.12H6.953v1.166l.807-.285a.34.34 0 01.231 0zm-4.125 8.257l.82.286V12.36H2.834v1.182l.804-.286a.335.335 0 01.23 0z" fill="#49525B"/><path d="M11.64 4.12H9.527v1.675a.362.362 0 01-.483.34L7.87 5.723l-1.173.412a.349.349 0 01-.467-.34V4.12H4.12v7.52h7.518V4.12zM5.895 7.416h2.587a.36.36 0 110 .721H5.896a.36.36 0 110-.72zm3.95 2.112h-3.95a.36.36 0 110-.721h3.95a.36.36 0 110 .72zm9.469 4.015l.813-.286a.361.361 0 01.239 0l.802.286V12.36h-1.854v1.182zm.566-9.423h-2.112v1.675a.353.353 0 01-.144.294.337.337 0 01-.32.046l-1.175-.412-1.175.412a.363.363 0 01-.482-.34V4.12H12.36v7.52h7.52V4.12zm-5.725 3.296h2.587a.36.36 0 010 .721h-2.588a.36.36 0 110-.72zm3.95 2.112h-3.95a.36.36 0 110-.721h3.95a.36.36 0 110 .72z" fill="#49525B"/><path d="M16.241 5l.806.286V4.12h-1.854v1.166l.812-.285a.353.353 0 01.236 0zM7.52 12.36H5.407v1.691a.366.366 0 01-.372.36.354.354 0 01-.119-.02l-1.173-.412-1.171.412a.343.343 0 01-.461-.34v-1.69H0v7.519h7.52v-7.52zm-5.754 3.348h2.588a.36.36 0 110 .721H1.766a.36.36 0 010-.72zm3.95 2.06h-3.95a.36.36 0 010-.72h3.95a.36.36 0 110 .72zM8.24 12.36v7.52h7.52v-7.52h-2.112v1.691a.358.358 0 01-.354.36.358.358 0 01-.12-.02l-1.173-.412-1.174.412a.356.356 0 01-.475-.34v-1.69H8.24zm5.735 4.687a.36.36 0 110 .721h-3.95a.36.36 0 110-.72h3.95zm-1.362-1.339a.36.36 0 110 .721h-2.588a.36.36 0 110-.72h2.588zm6.47-1.317a.37.37 0 01-.49-.34v-1.69H16.48v7.519H24v-7.52h-2.112v1.691a.35.35 0 01-.14.294.336.336 0 01-.315.047l-1.175-.412-1.175.411zm3.15 2.656a.36.36 0 010 .721h-3.95a.36.36 0 010-.72h3.95zm-1-.978a.36.36 0 01-.361.36h-2.588a.36.36 0 110-.72h2.588c.199 0 .36.16.36.36z" fill="#49525B"/></svg>