<svg width="24" height="24" fill="none" xmlns="http://www.w3.org/2000/svg"><path d="M8.704 16.624l-1.368-1.48-2.023.306a.36.36 0 01-.402-.447l.597-2.179h-.799c-1.776 0-3.215 1.385-3.215 3.1v5.037h7.21v-4.337zm2.016-2.22l1.668.255-.503-1.835h-.892L9.425 14.34v1.224l.974-1.049a.366.366 0 01.322-.11zm2.104-8.388c-.927.078-2.115.114-3.75.114-1.772 0-3.048-.042-3.975-.134v1.441c0 2.064 1.726 3.743 3.862 3.743 2.137 0 3.863-1.679 3.863-3.743v-1.42zM9.07 5.41c2.077 0 3.49-.062 4.445-.192.608-.083.953-.185 1.148-.271l-1.007-.328c-2.579.29-6.59.29-9.17 0l-1.009.328c.195.086.54.188 1.148.271.955.13 2.368.191 4.445.191z" fill="#49525B"/><path d="M7.735 14.513l.969 1.05V14.34l-1.57-1.516h-.879l-.503 1.835 1.666-.258a.359.359 0 01.317.112zm5.583-10.577l-.015-.35A3.742 3.742 0 009.547 0h-.951A3.743 3.743 0 004.84 3.588l-.016.345c2.45.248 6.045.25 8.494.003zM7.674 2.578a1.34 1.34 0 112.68 0 1.34 1.34 0 01-2.68 0zm11.094 14.638l.854.298v-1.24h-1.957v1.24l.857-.298a.384.384 0 01.246 0z" fill="#49525B"/><path d="M14.781 16.275V24h7.726v-7.725h-2.164v1.747a.366.366 0 01-.372.36.361.361 0 01-.12-.02l-1.209-.424-1.21.424a.367.367 0 01-.488-.34v-1.747h-2.163zm5.89 4.84a.36.36 0 110 .722h-4.055a.36.36 0 110-.721h4.055zm-1.398-1.39a.36.36 0 010 .721h-2.657a.36.36 0 010-.72h2.657zM9.013 1.96a.619.619 0 100 1.236.619.619 0 000-1.237z" fill="#49525B"/><path d="M12.632 12.824l.597 2.179a.351.351 0 01-.08.33.362.362 0 01-.323.116l-2.027-.306-1.374 1.481v4.337h4.635v-5.036a.364.364 0 01.354-.371h2.217c-.186-1.545-1.55-2.73-3.2-2.73h-.799zm-2.125-1.176a4.835 4.835 0 01-2.884.066v.587l1.448 1.384 1.436-1.383v-.654z" fill="#49525B"/></svg>