<svg width="24" height="24" fill="none" xmlns="http://www.w3.org/2000/svg"><path d="M12.417 5.972c0-.059.006-.117.007-.173h-.32v4.179a.384.384 0 01-.379.389.383.383 0 01-.128-.022l-2.769-.972-2.767.972a.38.38 0 01-.508-.367V5.799H0v17.658h17.657V12.075c-2.942-.45-5.24-3.014-5.24-6.103zm-8.014 8.1H10.2a.389.389 0 110 .778H4.403a.389.389 0 110-.777zm8.847 3.832H4.403a.389.389 0 110-.777h8.847a.389.389 0 110 .777z" fill="#49525B"/><path d="M6.33 9.43l2.372-.836a.37.37 0 01.25 0l2.376.836V5.8H6.33v3.63zM18.6.568a5.4 5.4 0 100 10.8 5.4 5.4 0 000-10.8zm3.777 7.858a.91.91 0 01-.925.927h-5.704c-.526 0-.978-.402-.978-.927V4.065c0-.525.452-.93.978-.93h.244v-.188a.389.389 0 11.777 0v.187h3.665v-.187a.389.389 0 11.777 0v.187h.241a.912.912 0 01.925.93v4.362z" fill="#49525B"/><path d="M21.452 3.912h-.24v.04a.389.389 0 11-.778 0v-.04h-3.665v.04a.389.389 0 11-.777 0v-.04h-.245c-.096 0-.2.057-.2.153v4.361c0 .097.103.15.2.15h5.705a.134.134 0 00.148-.15v-4.36a.137.137 0 00-.148-.153zM16.79 8.076h-.329a.389.389 0 110-.777h.33a.389.389 0 110 .777zm0-1.332h-.329a.389.389 0 110-.778h.33a.389.389 0 110 .778zm1.316 1.332h-.329a.389.389 0 110-.777h.33a.389.389 0 110 .777zm0-1.332h-.329a.389.389 0 110-.778h.33a.389.389 0 110 .778zm0-1.277h-.329a.389.389 0 110-.778h.33a.389.389 0 110 .778zm1.307 2.61h-.33a.389.389 0 010-.778h.33a.389.389 0 110 .777zm0-1.333h-.33a.389.389 0 010-.778h.33a.389.389 0 110 .778zm0-1.277h-.33a.389.389 0 010-.778h.33a.389.389 0 110 .778zm1.316 1.277h-.33a.389.389 0 110-.778h.33a.389.389 0 010 .778zm0-1.277h-.33a.389.389 0 110-.778h.33a.389.389 0 010 .778z" fill="#49525B"/></svg>