<svg width="158" height="105" fill="none" xmlns="http://www.w3.org/2000/svg"><path d="M158 102.232H0v.38h158v-.38z" fill="#3F3D56"/><path d="M55.376 71.751H17.388v30.751h37.987v-30.75z" fill="#3F3D56"/><path d="M37.61 93.58h-6.426v8.732h6.426V93.58z" fill="#0091FF"/><path d="M110.562 52.01c-1.232 2.62-11.615-.767-11.615-.767l-19.82-6.257-4.915-3.087-3.13-1.967 6.427-2.365.191.074 4.751 1.835 18.387 9.151s12.937-3.45 9.724 3.383z" fill="#A0616A"/><path d="M60.833 25.063s-2.48 1.002-2.767 3.809c-.287 2.807-.31 18.644-.31 18.644s6.479-3.747 9.963-3.823c3.484-.077 11.577-5.98 11.577-5.98S64.047 23.88 60.833 25.063z" fill="#D0CDE1"/><path opacity=".1" d="M60.833 25.063s-2.48 1.002-2.767 3.809c-.287 2.807-.31 18.644-.31 18.644s6.479-3.747 9.963-3.823c3.484-.077 11.577-5.98 11.577-5.98S64.047 23.88 60.833 25.063z" fill="#000"/><path d="M114.023 48.398l-.095-.196c-.029-.059-2.871-6.025-1.286-11.907 1.584-5.882 7.033-9.596 7.087-9.633l.18-.12.095.195c.029.06 2.871 6.026 1.286 11.908-1.584 5.882-7.033 9.595-7.087 9.632l-.18.121zm5.734-21.29c-.954.697-5.367 4.15-6.751 9.286-1.384 5.14.695 10.354 1.169 11.438.954-.697 5.367-4.15 6.75-9.286 1.385-5.14-.694-10.354-1.168-11.438z" fill="#3F3D56"/><path d="M106.696 38.595c1.584 5.882 7.011 9.525 7.011 9.525s2.857-5.894 1.273-11.776c-1.584-5.881-7.01-9.524-7.01-9.524s-2.858 5.894-1.274 11.775z" fill="#0091FF"/><path d="M114.108 48.316l-.216-.012c-.066-.003-6.638-.41-10.986-4.66-4.347-4.251-4.929-10.839-4.934-10.905l-.018-.217.216.012c.066.004 6.638.41 10.986 4.661 4.347 4.25 4.929 10.838 4.934 10.904l.018.217zM98.373 32.931c.142 1.176 1 6.729 4.797 10.44 3.796 3.712 9.345 4.424 10.52 4.536-.143-1.176-1.001-6.728-4.798-10.44-3.799-3.714-9.346-4.425-10.52-4.536z" fill="#3F3D56"/><path d="M118.78 37.331c-4.347 4.25-4.878 10.784-4.878 10.784s6.517-.358 10.864-4.608 4.878-10.783 4.878-10.783-6.517.357-10.864 4.607z" fill="#3F3D56"/><path d="M113.811 25.85a2.841 2.841 0 002.835-2.848 2.84 2.84 0 00-2.835-2.847 2.84 2.84 0 00-2.834 2.848 2.84 2.84 0 002.834 2.847z" fill="#0091FF"/><path d="M121.182 46.885h-14.058a3.184 3.184 0 00-3.177 3.191v3.489a3.184 3.184 0 003.177 3.19h14.058a3.184 3.184 0 003.177-3.19v-3.489a3.184 3.184 0 00-3.177-3.191z" fill="#D0CDE1"/><path d="M66.227 24.719c5.138 0 9.303-4.183 9.303-9.344 0-5.16-4.165-9.343-9.303-9.343-5.138 0-9.303 4.183-9.303 9.343s4.165 9.344 9.303 9.344z" fill="#2F2E41"/><path d="M85.142 76.876l-5.291.38s-.163 9.972-.851 12.528l9.072 7.213-1.89-6.074-1.04-14.047z" fill="#A0616A"/><path d="M88.585 97.204c-.376-.134-.324-.207-.324-.207v-.38l-9.246-7.453c-.09.335-.19.554-.299.62-.339.204-.824.873-1.306 1.646a7.421 7.421 0 00-.772 6.136l-.379 6.454h1.513l.377-5.884h1.89s3.213 4.176 4.158 5.694c.945 1.519 5.103 1.898 9.261-.949 3.514-2.406-2.824-4.947-4.873-5.677z" fill="#2F2E41"/><path d="M66.243 25.91c3.34 0 6.048-2.72 6.048-6.074 0-3.355-2.708-6.074-6.048-6.074s-6.048 2.72-6.048 6.074c0 3.355 2.708 6.074 6.048 6.074z" fill="#A0616A"/><path d="M69.55 23.158l-3.213 10.82-7.748-5.695s3.968-4.366 3.968-5.505c0-1.139 6.993.38 6.993.38z" fill="#A0616A"/><path d="M38.65 54.383s-9.261 11.2-.379 18.032c3.91 3.007 7.342 8.697 9.961 14.127a32.44 32.44 0 008.688 11.06 32.257 32.257 0 0012.536 6.323s31.562-37.014 20.79-47.454c-10.774-10.44-39.879-1.329-39.879-1.329l-11.718-.76z" fill="#2F2E41"/><path d="M64.869 44.94c.041 2.5-.435 5.244-2.595 5.836-4.158 1.14-4.536.57-4.536.57s-.756 1.328-.567 2.847c.189 1.519-1.796.285-1.796.285s-20.127 2.562-19.372-.285c.756-2.847 7.938-12.718 7.938-12.718S55.66 24.961 58.116 25.53c.083.02.168.042.257.067 2.502.733 6.749 3.965 7.114 5.248.378 1.33-1.134 9.681-1.134 9.681.307 1.452.48 2.93.516 4.413z" fill="#D0CDE1"/><path d="M67.47 6.207c1.706 0 3.09-1.39 3.09-3.103A3.097 3.097 0 0067.47 0a3.097 3.097 0 00-3.09 3.104 3.097 3.097 0 003.09 3.103z" fill="#2F2E41"/><path d="M70.947 5.026A3.113 3.113 0 0070.683.87a3.101 3.101 0 011.405 2.26 3.117 3.117 0 01-.651 2.286 3.092 3.092 0 01-2.07 1.153 3.077 3.077 0 01-2.51-.863 3.08 3.08 0 004.09-.681zm-3.02 6.004c3.517.96 5.916 3.409 5.359 5.47-.25.921-1.05 1.608-2.172 2l-.985-1.226-.045 1.488a7.82 7.82 0 01-.477.068l-1.25-2.646-.714 2.637a11.037 11.037 0 01-1.734-.328c-3.518-.96-5.917-3.409-5.36-5.47.558-2.06 3.861-2.952 7.378-1.992z" fill="#2F2E41"/><path d="M94.592 68.24c-2.457 1.518-3.969-9.302-3.969-9.302l-17.766-10.82-4.04-4.173-2.574-2.66 6.803-.759.169.118 4.178 2.92L93.08 56.85s3.969 9.871 1.512 11.39z" fill="#A0616A"/><path opacity=".1" d="M64.353 40.526c.307 1.452.48 2.93.516 4.413-1.321.241-2.514.329-3.351.143-3.402-.76-10.584 1.328-10.584 1.328s3.78-15.375 4.725-18.032a4.648 4.648 0 012.714-2.781c2.502.733 6.749 3.965 7.114 5.248.378 1.33-1.134 9.681-1.134 9.681zm9.827 1.519s-2.49 1.02-5.363 1.9l-2.574-2.66 6.803-.759.169.118c.608.871.965 1.4.965 1.4z" fill="#000"/><path d="M59.817 24.392s-2.646.38-3.59 3.037C55.28 30.086 51.5 45.46 51.5 45.46s7.182-2.088 10.584-1.328c3.402.759 12.663-3.037 12.663-3.037s-11.53-17.084-14.931-16.704z" fill="#D0CDE1"/><path d="M131.132 72.474l1.011-2.708 9.437-5.416 6.403-1.354-16.851 9.478zm-34.714 0l-1.01-2.708-9.438-5.416-6.403-1.354 16.851 9.478z" fill="#3F3D56"/><path d="M131.806 73.15H95.744l-3.033-14.216h42.128l-3.033 14.217z" fill="#3F3D56"/><path opacity=".1" d="M131.806 73.15H95.744l-3.033-14.216h42.128l-3.033 14.217z" fill="#000"/><path d="M131.974 72.304H95.576v30.012h36.398V72.304z" fill="#3F3D56"/><path d="M116.988 93.39h-6.426v8.732h6.426V93.39z" fill="#0091FF"/></svg>