<svg width="161" height="109" fill="none" xmlns="http://www.w3.org/2000/svg"><g clip-path="url(#clip0)"><path d="M140.797 31.437h-21.524c-2.913-7.874-4.179-15.196 0-20.691a10.728 10.728 0 013.152-7.599A10.765 10.765 0 01130.035 0a10.76 10.76 0 018.772 4.52c1.701 2.385 2.042 5.46 1.067 8.22-1.738 4.922-.677 11.637.923 18.697zM152.164 109a2.91 2.91 0 01-2.784-2.053l-.886-2.878a4.262 4.262 0 01-.115-2.056l.604-3.187h4.236l1.758 6.508a2.916 2.916 0 01-1.523 3.366c-.401.197-.843.3-1.29.3zm-30.864 0a2.914 2.914 0 002.784-2.053l.887-2.878a4.275 4.275 0 00.115-2.056l-.604-3.187h-4.236l-1.758 6.508A2.91 2.91 0 00121.3 109z" fill="#2F2E41"/><path d="M153.562 99.169h-4.694L128.489 60.53l-3.76 38.639h-4.14c-2.124-24.332-7.291-47.508 0-56.243l17.059 1.6 15.914 54.643z" fill="#2F2E41"/><path d="M129.462 16.804a5.72 5.72 0 005.725-5.715 5.72 5.72 0 00-5.725-5.716 5.72 5.72 0 00-5.724 5.716 5.72 5.72 0 005.724 5.715z" fill="#9F616A"/><path d="M137.534 33.094h-12.708l-2.176-10.06c4.221-1.244 5.227-4.14 4.351-8.001l6.869-.458c.39 3.111 1.102 6.012 5.496 6.516l-1.832 12.003z" fill="#9F616A"/><path d="M137.534 45.67c-7.21 2.733-13.076 2.647-17.173-1.144 1.849-6.089 1.959-13.586 1.144-21.834l2.29-1.03.802 7.317 11.334-.572 2.519-8.002 2.519.572c.193 9.921-.402 18.847-3.435 24.692z" fill="#E6E6E6"/><path d="M144.174 58.015l1.346 4.369a2.368 2.368 0 01-.358 2.101 2.377 2.377 0 01-2.87.756 2.371 2.371 0 01-1.394-2.407l.529-5.047-2.176-17.148 1.603-7.545h4.007l-.687 24.921zm-32.065-.908l-2.366 3.912a2.358 2.358 0 00-.162 2.126 2.374 2.374 0 004.199.352c.177-.28.292-.595.338-.923l.712-5.025 6.27-16.11 1.264-7.716-4.877-.961-5.378 24.345z" fill="#9F616A"/><path d="M147.723 34.009l-7.556-.114V20.748l1.163.17a5.554 5.554 0 014.736 4.983l1.657 8.108zm-32.285 1.371l7.556-.114V22.12l-1.164.17a5.567 5.567 0 00-3.232 1.672 5.548 5.548 0 00-1.503 3.31l-1.657 8.109z" fill="#E6E6E6"/><path d="M134.729 8.345c-2.432 1.374-7.105 2.002-10.533 1.029l-1.145-5.945h11.334l.344 4.916z" fill="#2F2E41"/><path d="M44.705 78.902H7.42v30.005h37.285V78.902z" fill="#E6E6E6"/><path d="M29.216 100.202h-6.307v8.52h6.307v-8.52zm61.973-19.753H55.795l-2.977-13.872h41.348l-2.977 13.872z" fill="#0091FF"/><path d="M160.927 108.943H0v-.405h161l-.073.405z" fill="#3F3D56"/><path d="M90.527 79.788l.993-2.642 9.262-5.285 6.285-1.32-16.54 9.247zm-34.071 0l-.992-2.642-9.262-5.285-6.285-1.32 16.54 9.247z" fill="#0091FF"/><path opacity=".1" d="M91.189 80.449H55.795l-2.977-13.872h41.348l-2.977 13.872z" fill="#000"/><path d="M91.355 79.623H55.629v29.284h35.726V79.623z" fill="#0091FF"/><path d="M76.645 100.198h-6.307v8.52h6.307v-8.52z" fill="#3F3D56"/><path d="M80.912 85.616h-14.84v4.63h14.84v-4.63zm-47.528 0h-14.84v4.63h14.84v-4.63z" fill="#fff"/></g><defs><clipPath id="clip0"><path fill="#fff" d="M0 0h161v109H0z"/></clipPath></defs></svg>