<svg width="220" height="126" fill="none" xmlns="http://www.w3.org/2000/svg"><g clip-path="url(#clip0)"><path opacity=".1" d="M220 83.303a35.095 35.095 0 01-5.023 18.163c0 6.698-3.104 12.769-8.138 17.194a27.858 27.858 0 01-4.054 2.962c-.058.036-.118.071-.177.106l-.325.194-.102.06a31.513 31.513 0 01-15.592 4.028H41.763c-9.986 0-19.026-3.498-25.576-9.152C9.637 111.205 5.6 103.381 5.6 94.752A35.075 35.075 0 010 75.662c0-19.18 15.239-34.73 34.038-34.73.666 0 1.326.024 1.981.06C47.816 20.757 74.423 6.645 105.335 6.645c19.004 0 36.375 5.33 49.681 14.137a33.338 33.338 0 0116.523-4.363c18.796 0 34.038 15.55 34.038 34.73a36.14 36.14 0 01-.192 3.633 34.755 34.755 0 0110.767 12.467A34.986 34.986 0 01220 83.303z" fill="#0091FF"/><path opacity=".1" d="M79.423 94.27c41.634 0 75.385-.909 75.385-2.03 0-1.123-33.751-2.032-75.385-2.032-41.634 0-75.384.91-75.384 2.031 0 1.122 33.75 2.032 75.384 2.032z" fill="#0091FF"/><g opacity=".7"><path opacity=".7" d="M51.346 77.245H27.308v13.35h24.038v-13.35z" fill="#65617D"/><path opacity=".1" d="M43.077 79.567h-7.308v1.548h7.308v-1.548z" fill="#000"/><path opacity=".1" d="M42.163 79.76h-5.48v1.161h5.48v-1.16z" fill="#000"/><path opacity=".7" d="M75.77 77.245H51.73v13.35h24.04v-13.35z" fill="#65617D"/><path opacity=".1" d="M67.5 79.567h-7.308v1.548H67.5v-1.548z" fill="#000"/><path opacity=".1" d="M66.587 79.76h-5.481v1.161h5.48v-1.16z" fill="#000"/><path opacity=".7" d="M51.346 63.509H27.308v13.35h24.038v-13.35z" fill="#65617D"/><path opacity=".1" d="M43.077 65.83h-7.308v1.548h7.308V65.83z" fill="#000"/><path opacity=".1" d="M42.163 66.024h-5.48v1.16h5.48v-1.16z" fill="#000"/><path opacity=".7" d="M75.77 63.509H51.73v13.35h24.04v-13.35z" fill="#65617D"/><path opacity=".1" d="M67.5 65.83h-7.308v1.548H67.5V65.83z" fill="#000"/><path opacity=".1" d="M66.587 66.024h-5.481v1.16h5.48v-1.16z" fill="#000"/><path opacity=".7" d="M51.346 49.579H27.308v13.35h24.038v-13.35z" fill="#65617D"/><path opacity=".1" d="M43.077 51.9h-7.308v1.548h7.308v-1.547z" fill="#000"/><path opacity=".1" d="M42.163 52.094h-5.48v1.16h5.48v-1.16z" fill="#000"/><path opacity=".7" d="M75.77 49.579H51.73v13.35h24.04v-13.35z" fill="#65617D"/><path opacity=".1" d="M67.5 51.9h-7.308v1.548H67.5v-1.547z" fill="#000"/><path opacity=".1" d="M66.587 52.094h-5.481v1.16h5.48v-1.16z" fill="#000"/><path opacity=".7" d="M75.77 35.649H51.73v13.35h24.04v-13.35z" fill="#65617D"/><path opacity=".1" d="M67.5 37.97h-7.308v1.548H67.5v-1.547z" fill="#000"/><path opacity=".1" d="M66.587 38.164h-5.481v1.161h5.48v-1.16z" fill="#000"/></g><g opacity=".7"><path opacity=".7" d="M100.193 77.052H76.154v13.35h24.039v-13.35z" fill="#65617D"/><path opacity=".1" d="M91.923 79.374h-7.307v1.547h7.307v-1.547z" fill="#000"/><path opacity=".1" d="M91.01 79.567h-5.48v1.16h5.48v-1.16z" fill="#000"/><path opacity=".7" d="M124.616 77.052h-24.039v13.35h24.039v-13.35z" fill="#65617D"/><path opacity=".1" d="M116.346 79.374h-7.307v1.547h7.307v-1.547z" fill="#000"/><path opacity=".1" d="M115.433 79.567h-5.481v1.16h5.481v-1.16z" fill="#000"/><path opacity=".7" d="M100.193 63.315H76.154v13.35h24.039v-13.35z" fill="#65617D"/><path opacity=".1" d="M91.923 65.637h-7.307v1.548h7.307v-1.548z" fill="#000"/><path opacity=".1" d="M91.01 65.83h-5.48v1.161h5.48v-1.16z" fill="#000"/><path opacity=".7" d="M124.616 63.315h-24.039v13.35h24.039v-13.35z" fill="#65617D"/><path opacity=".1" d="M116.346 65.637h-7.307v1.548h7.307v-1.548z" fill="#000"/><path opacity=".1" d="M115.433 65.83h-5.481v1.161h5.481v-1.16z" fill="#000"/><path opacity=".7" d="M100.193 49.386H76.154v13.349h24.039v-13.35z" fill="#65617D"/><path opacity=".1" d="M91.923 51.707h-7.307v1.548h7.307v-1.548z" fill="#000"/><path opacity=".1" d="M91.01 51.9h-5.48v1.161h5.48v-1.16z" fill="#000"/><path opacity=".7" d="M124.616 49.386h-24.039v13.349h24.039v-13.35z" fill="#65617D"/><path opacity=".1" d="M116.346 51.707h-7.307v1.548h7.307v-1.548z" fill="#000"/><path opacity=".1" d="M115.433 51.9h-5.481v1.161h5.481v-1.16z" fill="#000"/><path opacity=".7" d="M124.616 35.456h-24.039v13.35h24.039v-13.35z" fill="#65617D"/><path opacity=".1" d="M116.346 37.777h-7.307v1.548h7.307v-1.548z" fill="#000"/><path opacity=".1" d="M115.433 37.97h-5.481v1.162h5.481V37.97z" fill="#000"/></g><path opacity=".1" d="M168.902.021s-16.19-.983-14.286 10.432c0 0-.385 2.018 1.438 2.933 0 0 .029-.845 1.662-.557a7.545 7.545 0 001.759.085 3.653 3.653 0 002.15-.894s4.552-1.892 6.321-9.375c0 0 1.31-1.633 1.258-2.053l-2.733 1.174s.935 1.983.193 3.632c0 0-.089-3.56-.614-3.483-.106.018-1.419.687-1.419.687s1.606 3.454.394 5.965c0 0 .46-4.256-.896-5.715l-1.923 1.13s1.877 3.567.604 6.479c0 0 .327-4.465-1.01-6.205l-1.742 1.368s1.763 3.518.688 5.932c0 0-.14-5.199-1.065-5.591 0 0-1.525 1.354-1.758 1.907 0 0 1.208 2.554.458 3.9 0 0-.46-3.462-.837-3.482 0 0-1.519 2.295-1.676 3.87 0 0 .065-2.341 1.309-4.088 0 0-1.469.253-2.327 1.213 0 0 .237-1.624 2.702-1.765 0 0 1.256-1.741 1.591-1.847 0 0-2.45-.206-3.937.456 0 0 1.308-1.53 4.387-.834l1.721-1.414s-3.227-.443-4.596.046c0 0 1.575-1.354 5.059-.365l1.877-1.118s-2.752-.596-4.39-.387c0 0 1.73-.939 4.94.079l1.346-.606s-2.015-.398-2.606-.462c-.59-.064-.621-.226-.621-.226a6.953 6.953 0 013.787.423s2.842-1.064 2.792-1.244zm-19.969 2.904s-7.308-.445-6.452 4.715c0 0-.172.911.648 1.325 0 0 .013-.386.752-.253.262.044.528.057.794.039.359-.025.7-.167.971-.405 0 0 2.058-.853 2.858-4.235 0 0 .59-.739.567-.928l-1.235.53s.423.897.091 1.642c0 0-.041-1.61-.277-1.57-.048 0-.642.309-.642.309s.726 1.561.178 2.697c0 0 .208-1.923-.405-2.583l-.87.51s.85 1.612.273 2.928c0 0 .149-2.018-.455-2.803l-.787.617s.796 1.59.312 2.681c0 0-.064-2.35-.483-2.526 0 0-.688.61-.794.862 0 0 .546 1.161.207 1.761 0 0-.207-1.565-.384-1.571 0 0-.685 1.037-.758 1.741a3.804 3.804 0 01.592-1.847 2.062 2.062 0 00-1.051.547s.107-.731 1.221-.797c0 0 .577-.785.719-.834 0 0-1.108-.093-1.779.207 0 0 .59-.692 1.983-.377l.769-.639s-1.458-.193-2.077.022c0 0 .712-.612 2.287-.167l.846-.508s-1.243-.271-1.985-.173c0 0 .783-.425 2.233.035l.606-.273s-.912-.182-1.179-.209c-.268-.027-.281-.102-.281-.102a3.137 3.137 0 011.712.193s1.298-.48 1.275-.56z" fill="#0091FF"/><path d="M43.114 124.742c4.27 0 7.732-.589 7.732-1.315 0-.727-3.462-1.316-7.732-1.316-4.271 0-7.733.589-7.733 1.316 0 .726 3.462 1.315 7.733 1.315z" fill="#0091FF"/><path d="M46.312 121.275c.353-.289.61-.68.736-1.12.096-.443-.092-.967-.515-1.139-.473-.182-.979.149-1.362.481-.382.333-.823.714-1.323.643a2.035 2.035 0 00.623-1.898.797.797 0 00-.173-.387c-.263-.283-.738-.163-1.054.06-1 .708-1.279 2.076-1.284 3.304-.1-.443-.016-.905-.018-1.354-.002-.449-.127-.967-.51-1.205a1.507 1.507 0 00-.768-.182c-.449-.018-.95.029-1.256.36-.385.41-.283 1.099.048 1.547.33.449.836.738 1.302 1.049.372.223.69.528.929.892a.813.813 0 01.069.161h2.82a7.83 7.83 0 001.736-1.212z" fill="#0091FF"/><path d="M137.954 66.17a.883.883 0 00-.479-.694.886.886 0 00-.993.202.92.92 0 00-.192.302l-4.271 9.04-.961 35.599h1.538l.577-35.52 4.7-8.369a.928.928 0 00.081-.56z" fill="#3F3D56"/><path opacity=".1" d="M206.838 118.66a27.858 27.858 0 01-4.054 2.962.631.631 0 01-.075.089c-.152.13-.333.222-.528.267a31.514 31.514 0 01-15.593 4.028H80.854c-12.116-1.254-19.508-2.916-19.508-4.74 0-1.414 4.438-2.732 12.08-3.835a122.22 122.22 0 014.105-.53l.94-.11c.697-.08 1.413-.158 2.148-.234h.06l.769-.078a175.7 175.7 0 011.99-.193l.493-.045 1.255-.112c.816-.073 1.65-.144 2.5-.211.707-.055 1.425-.111 2.154-.166 7.396-.552 15.923-.967 25.202-1.236l2.65-.091.892-.02 1.885-.042.756-.016.794-.015.565-.01 2.654-.042 1.364-.02h.279c3.224-.038 6.509-.058 9.853-.06 6.612 0 13.024.08 19.133.23 3.508.086 6.908.194 10.202.326h.031c9.496.375 17.996.928 25.031 1.615l.128.014a222.3 222.3 0 015.12.557c1.509.182 2.927.373 4.242.569.456.067.898.137 1.329.205l.109.019c1.824.296 3.424.598 4.779.925z" fill="#0091FF"/><path d="M202.784 121.622a.631.631 0 01-.075.089c-.152.13-.333.222-.528.267a5.353 5.353 0 01-1.193.193h-.121c-.23.008-.461 0-.69-.023a3.3 3.3 0 00-.506-.033h-.023a3.573 3.573 0 00-.721.18 6.342 6.342 0 01-1.596.228h-.193c-.604 0-1.215-.021-1.821-.017h-.294c-1.039.027-2.071.193-3.11.211h-.332c-1.018-.025-2.058-.244-2.868-.863a1.145 1.145 0 01-.384-.433 1.237 1.237 0 01-.068-.581c.02-.35.087-.731.348-.967.165-.127.353-.219.554-.269.352-.114.706-.225 1.058-.335.352-.11.754-.228 1.133-.34l.073-.024.211-.063.137-.047c.165-.053.324-.126.473-.217a1.565 1.565 0 00.55-.597c.019-.037 0-.06-.014-.091-.032-.242-.057-.49-.1-.726a2.88 2.88 0 01-1.421-.809 4.615 4.615 0 01-.829-1.127c-.478-.906-.725-1.918-1.082-2.879-.548-1.463-1.346-2.813-2.15-4.152-.735-1.235-1.473-2.473-2.308-3.639-.556-.774-1.154-1.511-1.704-2.287a20.361 20.361 0 01-3.284-7.217 9.65 9.65 0 00-.398-1.466c-.331-.813-.937-1.474-1.406-2.217a7.369 7.369 0 01-1.018-2.626c-.096-.53-.257-1.103-.782-1.16l-.056.11c-1.088 2.128-2.206 4.295-3.846 6.032a6.257 6.257 0 00-.717.83 7.9 7.9 0 00-.462.894 5.812 5.812 0 01-1.021 1.503 2.942 2.942 0 01-.404.343 2.18 2.18 0 01-.633.319c-.089.027-.18.048-.273.062 0 .023.01.044.012.068.002.023.011.05.015.075a9.142 9.142 0 01-.352 4.63 1.837 1.837 0 01-.046.137c-.079.217-.166.43-.26.639-.234.512-.513 1.004-.732 1.524a7.4 7.4 0 00-.106.267c-.769 2.072-.577 4.386-.677 6.613a7.333 7.333 0 01-.171 1.447c-.131.536-.34 1.089-.456 1.643a2.795 2.795 0 00-.025 1.267l-.046.017c-.206.078-.415.147-.625.213v.029l.223 1.298c.064.372.139.774.396 1.037.07.058.135.123.193.194.151.24.017.557.046.841.042.403.411.745.354 1.146a.767.767 0 01-.159.325.776.776 0 01-.291.213 1.299 1.299 0 01-.297.094l-.063.014a4.09 4.09 0 01-.346.044c-1.433.144-2.885.287-4.304.043-.281-.048-.56-.112-.844-.135a6.152 6.152 0 00-1.077.044 52.503 52.503 0 01-7.921.155c-.687-.039-1.475-.151-1.839-.741-.302-.49-.192-1.122-.04-1.681a1.82 1.82 0 01.232-.581.443.443 0 01.043-.054c.354-.443 1.019-.47 1.592-.453l1.873.056c.185.015.37.001.55-.042.304-.089.535-.333.819-.47.358-.173.808-.194 1.066-.488l.032-.042c.046-.063.088-.127.127-.194 0-.013.018-.027.027-.041l.023-.034c.237-.314.65-.418.987-.618a.962.962 0 00.144-.102l.039-.035a3.944 3.944 0 01-.935-.946.942.942 0 01-.213-.375.542.542 0 01.023-.316.487.487 0 01.03-.071l.01-.02c.131-.259.4-.493.548-.758.006-.008.01-.018.014-.027.203-.387.244-.987-.058-1.298.154-2.548.85-5.031 1.004-7.586.061-1.012.036-2.028.082-3.044.047-1.015.154-2 .268-2.996.254-2.278.869-4.508.782-6.795a4.255 4.255 0 01.027-.639.36.36 0 010-.046c.062-.469.207-.922.429-1.339.279-.47.595-.918.944-1.339 1.183-1.547 2.604-3.095 3.025-4.999.218-.983.698-1.882 1.177-2.767.283-.526.577-1.066 1.029-1.453.245-.17.472-.364.679-.58.315-.41.327-.977.513-1.465.097-.253.245-.485.318-.746 0-.028.013-.053.019-.08.043-.263.065-.53.067-.797 0-.077.012-.153.021-.228a8.17 8.17 0 01.656-2.212c.041-.088.079-.18.118-.268a8.25 8.25 0 01-2.308-2.014 4.787 4.787 0 01-.56-.85c-.396-.791-.486-1.693-.673-2.56-.446-2.066-1.467-4.012-1.609-6.125-.043-.644 0-1.31-.224-1.919a3.823 3.823 0 00-.217-.48c-.034-.066-.067-.131-.102-.193l-.038-.074-.098-.193-.158.124a115.188 115.188 0 01-12.365 8.497l-.37.22a1.35 1.35 0 00-.488.403l-.042.075c-.089.184-.112.387-.193.58-.173.444-.617.726-1.071.858-.821.212-1.692.1-2.433-.316-.094-.048-.192-.098-.276-.154a3.755 3.755 0 01-.708.303c-.769.225-1.575.215-2.371.213-.796-.002-1.61 0-2.364.263-.504.172-.992.457-1.515.484-.06.004-.121.004-.181 0a2.615 2.615 0 01-.858-.253l-.157-.072a2.524 2.524 0 01-.239-.13 1.303 1.303 0 01-.232-.183.861.861 0 01-.216-.37.617.617 0 010-.308.197.197 0 01.066-.116.205.205 0 01.113-.029c.221-.002.441.017.658.056.127.018.256.025.384.022h.07a.829.829 0 00.576-.33.335.335 0 00.05-.092.41.41 0 00.035-.172.33.33 0 000-.045 2.714 2.714 0 01-.238-.118 1.72 1.72 0 01-.118-.068l-.023-.015a1.327 1.327 0 01-.192-.16.705.705 0 01-.098-.124.744.744 0 01-.114-.233 1.023 1.023 0 00-.478.014c-.21.058-.422.182-.629.224a.557.557 0 01-.318-.013c-.3-.108-.405-.476-.469-.791-.011-.06-.025-.122-.034-.184a.947.947 0 010-.36c.093-.27.27-.503.505-.664l.631-.532.046-.038c0-.053-.021-.105-.029-.157a1 1 0 010-.362c.093-.27.271-.502.506-.662l1.396-1.182c.262-.22.546-.452.887-.476.506-.034.909.387 1.288.726.477.425 1.056.774 1.693.816.303.014.606-.028.894-.123l.163-.055-.102-.214c-.055-.118-.111-.238-.165-.358.819-.052 1.563-.505 2.185-1.047.621-.542 1.153-1.182 1.78-1.714.677-.58 1.454-1.012 2.141-1.571 1.596-1.302 2.656-3.216 4.363-4.363.593-.4 1.277-.72 1.681-1.316.125-.193.219-.386.348-.58.41-.58 1.112-.847 1.69-1.25.579-.402 1.083-.992 1.554-1.56.335-.404.671-.808.991-1.224.294-.551.542-1.128.85-1.671.261-.46.565-.892.909-1.293.079-.154.16-.31.246-.46.087-.151.15-.254.231-.387.056-.087.114-.17.173-.255a11.945 11.945 0 00-.421-.699l-.038-.052a5.774 5.774 0 00-.543-.511 5.603 5.603 0 01-3.575-2.15 5.669 5.669 0 01-1.148-3.445 5.646 5.646 0 01.873-3.01 1.729 1.729 0 01-.255-.105 1.01 1.01 0 01-.358-.296.865.865 0 01-.148-.375c-.033-.32.015-.641.138-.937a4.503 4.503 0 01.193-.443c.859-1.741 2.692-2.811 4.523-2.886 1.975-.08 3.898.853 5.455 2.188a7.34 7.34 0 011.239 1.31c.813 1.137 1.181 2.592 1.288 4.033a6.19 6.19 0 01-.023 1.34 3.113 3.113 0 01-.188.74c-.035.091-.056.132-.087.194v.01a2.52 2.52 0 01-.094.177l-.017.026-.025.04c.015.037.032.076.05.112.017.037.032.072.052.107h.023c.384.03.74.085 1.132.116.185.009.368.037.547.085.384.116.675.399.998.627.8.569 1.784.834 2.571 1.422 1.154.867 1.731 2.298 2.431 3.581.923 1.718 2.427 3.18 3.09 5.019.3.834.601 1.667.904 2.5.59 1.63 1.181 3.269 1.983 4.807 1.115 2.14 2.625 4.063 3.519 6.311.089.225.255.41.469.522a41.01 41.01 0 013.24 5.454c.495 1.005.962 2.047 1.106 3.16.113.99.031 1.993-.24 2.952a14.47 14.47 0 01-.564 1.676 2.785 2.785 0 00-.192.597v.064c-.038.372.102.74.14 1.11a2.05 2.05 0 01-.148 1.02c-.119.227-.22.462-.302.705a.67.67 0 00-.015.089c-.063.42.102.843.192 1.263.339 1.517.277 3.096.193 4.643-.045.774.577 1.395 1.096 1.966.961 1.07 1.713 2.322 2.438 3.567.396.633.729 1.303.994 2.001.275.797.385 1.64.537 2.467.49 2.554 2.092 4.809 2.527 7.369a6.602 6.602 0 001.486 3.169c.233.242.447.5.641.774.134.218.24.452.317.697a5.21 5.21 0 01.264 1.766c-.031.287-.015.577.048.859.18.594.827.921 1.094 1.48.267.559.083 1.275.192 1.91.086.511.361.971.769 1.288-.153.136-.315.259-.48.387a1.945 1.945 0 01.59.764c.254.594.262 1.3.469 1.935.089.263.214.542.137.809a.9.9 0 00-.066.24c0 .174.181.288.25.446.026.08.03.165.012.247a.472.472 0 01-.112.22z" fill="url(#paint0_linear)"/><path d="M162.085 46.168c1.177-.32 2.225-.987 3.252-1.646l3.578-2.293c-.971-.077-1.809-.774-2.307-1.617-.498-.844-.704-1.825-.873-2.788-1.539.603-2.871 1.627-4.114 2.708-.492.428-1.538 1.074-1.69 1.741-.152.668.817 1.21 1.192 1.657.129.148 1.342 2.132.962 2.238z" fill="#FBBEBE"/><path opacity=".1" d="M162.085 46.168c1.177-.32 2.225-.987 3.252-1.646l3.578-2.293c-.971-.077-1.809-.774-2.307-1.617-.498-.844-.704-1.825-.873-2.788-1.539.603-2.871 1.627-4.114 2.708-.492.428-1.538 1.074-1.69 1.741-.152.668.817 1.21 1.192 1.657.129.148 1.342 2.132.962 2.238z" fill="#000"/><path d="M142.529 65.105c-.631.325-1.302.658-2.008.611-.634-.04-1.213-.387-1.69-.81-.385-.337-.781-.757-1.287-.722-.338.023-.623.254-.884.472l-1.395 1.174c-.234.16-.412.39-.505.658-.028.182-.017.368.032.546.064.313.17.679.47.785.3.107.626-.121.944-.209a1.105 1.105 0 011.09.323.652.652 0 01.192.422c0 .35-.384.58-.738.598-.354.017-.692-.099-1.042-.077a.157.157 0 00-.12.033.164.164 0 00-.059.11.733.733 0 00.225.673c.183.168.395.3.627.387.269.134.559.219.857.252.591.038 1.133-.29 1.693-.482.754-.255 1.565-.263 2.361-.261.796.002 1.604.013 2.368-.211.763-.225 1.488-.722 1.786-1.463a.356.356 0 00.033-.224.371.371 0 00-.162-.194c-1.073-.799-1.507-1.77-2.715-2.345l-.073-.046z" fill="#FBBEBE"/><path opacity=".1" d="M142.529 65.105c-.631.325-1.302.658-2.008.611-.634-.04-1.213-.387-1.69-.81-.385-.337-.781-.757-1.287-.722-.338.023-.623.254-.884.472l-1.395 1.174c-.234.16-.412.39-.505.658-.028.182-.017.368.032.546.064.313.17.679.47.785.3.107.626-.121.944-.209a1.105 1.105 0 011.09.323.652.652 0 01.192.422c0 .35-.384.58-.738.598-.354.017-.692-.099-1.042-.077a.157.157 0 00-.12.033.164.164 0 00-.059.11.733.733 0 00.225.673c.183.168.395.3.627.387.269.134.559.219.857.252.591.038 1.133-.29 1.693-.482.754-.255 1.565-.263 2.361-.261.796.002 1.604.013 2.368-.211.763-.225 1.488-.722 1.786-1.463a.356.356 0 00.033-.224.371.371 0 00-.162-.194c-1.073-.799-1.507-1.77-2.715-2.345l-.073-.046z" fill="#000"/><path d="M165.048 44.471a2.307 2.307 0 00-2.034-.238 4.385 4.385 0 00-1.752 1.175 8.098 8.098 0 00-1.237 1.642c-.327.58-.577 1.188-.904 1.767-.577 1.035-1.33 1.948-2.088 2.853-.471.563-.948 1.134-1.552 1.548-.604.414-1.279.668-1.688 1.242-.129.182-.222.387-.349.57-.401.593-1.084.91-1.678 1.307-1.704 1.141-2.764 3.041-4.356 4.335-.687.558-1.462.995-2.137 1.564-.629.528-1.154 1.16-1.78 1.702-.627.542-1.364.989-2.181 1.04.546 1.224 1.198 2.425 2.134 3.38.937.953 2.341 1.563 3.62 1.19.453-.133.898-.411 1.071-.852.054-.227.13-.448.227-.66.128-.17.295-.307.486-.4a114.973 114.973 0 0014.637-10.202c1.236-1.014 2.463-1.921 3.732-2.902a8.145 8.145 0 001.256-1.107 4.22 4.22 0 00.508-4.633c-.34-.564-.73-1.096-1.165-1.589a13.924 13.924 0 00-2.77-2.732z" fill="#0091FF"/><path opacity=".1" d="M165.048 44.471a2.307 2.307 0 00-2.034-.238 4.385 4.385 0 00-1.752 1.175 8.098 8.098 0 00-1.237 1.642c-.327.58-.577 1.188-.904 1.767-.577 1.035-1.33 1.948-2.088 2.853-.471.563-.948 1.134-1.552 1.548-.604.414-1.279.668-1.688 1.242-.129.182-.222.387-.349.57-.401.593-1.084.91-1.678 1.307-1.704 1.141-2.764 3.041-4.356 4.335-.687.558-1.462.995-2.137 1.564-.629.528-1.154 1.16-1.78 1.702-.627.542-1.364.989-2.181 1.04.546 1.224 1.198 2.425 2.134 3.38.937.953 2.341 1.563 3.62 1.19.453-.133.898-.411 1.071-.852.054-.227.13-.448.227-.66.128-.17.295-.307.486-.4a114.973 114.973 0 0014.637-10.202c1.236-1.014 2.463-1.921 3.732-2.902a8.145 8.145 0 001.256-1.107 4.22 4.22 0 00.508-4.633c-.34-.564-.73-1.096-1.165-1.589a13.924 13.924 0 00-2.77-2.732z" fill="#000"/><path d="M156.785 116.243c-.337.194-.75.302-.987.615-.077.101-.129.219-.211.316-.256.302-.71.315-1.066.487-.284.136-.515.387-.817.467a1.768 1.768 0 01-.552.042l-1.869-.056c-.593-.017-1.287.014-1.631.499a1.794 1.794 0 00-.235.581c-.144.555-.261 1.184.041 1.671.361.581 1.154.699 1.836.737 2.638.147 5.282.095 7.912-.154a6.21 6.21 0 011.073-.045c.285.023.563.087.844.136 1.417.241 2.867.1 4.298-.043.242-.012.48-.063.706-.151a.752.752 0 00.448-.536c.06-.398-.311-.737-.352-1.137-.029-.283.106-.598-.048-.838a1.408 1.408 0 00-.192-.194c-.258-.269-.333-.661-.396-1.029l-.337-1.987a.61.61 0 00-.161-.375.566.566 0 00-.239-.099c-1.465-.333-2.967-.029-4.423.157-.749.11-1.507.149-2.263.114-.327-.021-.454-.06-.699.155-.244.215-.375.487-.68.667zm35.386 2.392a3.266 3.266 0 01-.819.323c-.755.221-1.509.453-2.262.694-.2.05-.388.141-.552.267-.261.232-.329.612-.348.968-.025.196-.002.395.067.58.091.173.223.321.385.429.862.656 1.987.859 3.067.859 1.081 0 2.154-.183 3.235-.212 1.306-.035 2.646.151 3.902-.217.24-.089.489-.15.742-.182.169-.002.337.009.504.033a5.298 5.298 0 002.004-.184c.196-.043.378-.134.531-.265a.503.503 0 00.142-.545c-.069-.157-.246-.271-.248-.443a.826.826 0 01.063-.24c.079-.265-.048-.542-.136-.803-.248-.747-.208-1.606-.652-2.254-.444-.648-1.26-.915-2.035-1.018a5.63 5.63 0 00-1.894.054c-.702.151-1.358.467-2.046.668a6.67 6.67 0 01-2.462.234c-.55-.047-.361.04-.548.505a1.644 1.644 0 01-.64.749z" fill="#3F3D56"/><path d="M161.442 43.485c3.08 0 5.577-2.512 5.577-5.611 0-3.099-2.497-5.61-5.577-5.61s-5.577 2.511-5.577 5.61 2.497 5.61 5.577 5.61z" fill="#FBBEBE"/><path d="M201.873 116.628c-1.731 1.496-4.067 2.15-6.346 2.173-.962.01-1.96-.095-2.779-.596-.058-.317-.081-.66-.138-.977-.995-.209-1.766-1.023-2.247-1.925-.48-.902-.725-1.904-1.082-2.86-.546-1.454-1.346-2.795-2.146-4.126-.735-1.227-1.472-2.457-2.308-3.616-.554-.774-1.154-1.502-1.702-2.274a20.169 20.169 0 01-3.279-7.17 9.408 9.408 0 00-.398-1.456c-.331-.81-.936-1.467-1.404-2.204a7.308 7.308 0 01-1.017-2.61c-.094-.526-.256-1.095-.781-1.15-1.104 2.158-2.229 4.35-3.898 6.105a6.322 6.322 0 00-.717.824 7.847 7.847 0 00-.462.89 5.744 5.744 0 01-1.019 1.494 2.374 2.374 0 01-1.312.72 9.07 9.07 0 01-.63 5.513c-.233.511-.512.999-.731 1.515-.896 2.128-.689 4.529-.783 6.837a7.241 7.241 0 01-.169 1.438c-.233.944-.713 1.948-.481 2.892-2.411.927-5.09.869-7.644.478a3.67 3.67 0 01-1.425-.435 3.955 3.955 0 01-.935-.94.938.938 0 01-.213-.374c-.1-.441.385-.774.61-1.161.225-.387.265-1-.045-1.317.154-2.533.85-5.005 1.004-7.546.062-1.006.037-2.016.083-3.024.046-1.008.154-1.988.265-2.979.254-2.262.869-4.479.783-6.752-.026-.7.134-1.394.463-2.01.278-.469.593-.914.943-1.331 1.18-1.535 2.6-3.073 3.021-4.967.217-.977.698-1.87 1.175-2.749.283-.524.577-1.06 1.027-1.445.245-.17.472-.365.679-.58.315-.409.327-.968.513-1.456.096-.251.244-.483.315-.743.059-.286.088-.578.087-.87.062-.937.419-1.842.796-2.699a8.245 8.245 0 01-2.308-2 4.91 4.91 0 01-.557-.846c-.396-.785-.487-1.681-.673-2.542-.445-2.055-1.466-3.988-1.608-6.087-.042-.64 0-1.302-.221-1.907a6.025 6.025 0 00-.358-.745 3.076 3.076 0 01-.304-.751c-.123-.57.046-1.16 0-1.741-.046-.513-.263-.993-.371-1.494a7.13 7.13 0 01-.056-1.973c.048-.774.216-1.573.15-2.337a9.078 9.078 0 01.47-3.736 9.034 9.034 0 011.944-3.218l.044-.044c.367-.387.769-.73 1.1-1.14.45-.55.769-1.195 1.244-1.73.208-.237.443-.45.648-.69.189-.252.398-.487.625-.704a.964.964 0 01.87-.234c.038.288.128.567.265.824.4.03.756.087 1.154.118.184.009.367.037.546.085.375.114.675.387.996.621.8.567 1.783.83 2.569 1.414 1.154.861 1.731 2.283 2.427 3.558.921 1.709 2.423 3.162 3.077 4.988l.902 2.484c.591 1.621 1.181 3.248 1.981 4.777 1.113 2.128 2.621 4.045 3.515 6.272.09.224.255.407.468.519a40.588 40.588 0 013.236 5.417c.494.998.962 2.035 1.104 3.14.21 1.561-.213 3.14-.802 4.599-.095.209-.16.43-.192.657-.039.37.102.734.14 1.103.037.345-.014.694-.148 1.014-.12.225-.221.46-.302.7-.104.445.081.898.181 1.343.338 1.507.277 3.069.192 4.612-.044.774.577 1.388 1.094 1.955.962 1.062 1.712 2.304 2.437 3.544.394.629.726 1.295.992 1.989.275.791.385 1.629.537 2.451.488 2.536 2.088 4.779 2.523 7.323a6.513 6.513 0 001.485 3.148c.232.242.446.5.64.774.133.217.239.449.315.692.189.565.279 1.159.264 1.755a2.63 2.63 0 00.048.853c.181.59.827.915 1.092 1.471.266.555.083 1.267.192 1.898.083.509.355.968.76 1.284z" fill="#0091FF"/><path d="M143.683 63.364c-.631.325-1.302.658-2.008.611-.635-.04-1.214-.387-1.69-.81-.385-.337-.781-.757-1.287-.722-.338.023-.623.253-.885.472l-1.394 1.174c-.234.159-.412.39-.506.658-.027.182-.016.368.033.546.064.313.169.679.469.785.3.107.627-.122.945-.209a1.105 1.105 0 011.09.323.652.652 0 01.192.422c0 .35-.384.58-.738.598-.354.017-.693-.099-1.043-.078a.159.159 0 00-.178.144.744.744 0 00.225.673c.182.168.395.299.627.387.269.134.559.219.857.251.591.04 1.133-.29 1.693-.481.753-.256 1.565-.264 2.361-.261.796.001 1.604.013 2.367-.211.764-.225 1.489-.722 1.787-1.463a.356.356 0 00.033-.225.371.371 0 00-.162-.193c-1.073-.799-1.508-1.77-2.715-2.345l-.073-.046z" fill="#FBBEBE"/><path d="M158.729 34.426c-.333.054-.616.28-.931.407a1.595 1.595 0 01-1.315-.07 1.018 1.018 0 01-.36-.294c-.258-.36-.167-.883-.01-1.304.746-1.995 2.739-3.23 4.712-3.309 1.973-.079 3.892.848 5.448 2.173.463.382.878.82 1.236 1.302.812 1.132 1.179 2.577 1.287 4.009.064.6.025 1.208-.117 1.795a2.173 2.173 0 01-1.012 1.372c-.55.282-1.209.194-1.765-.077-.556-.271-1.033-.699-1.51-1.107a2.241 2.241 0 00-.752-.482.764.764 0 00-.813.194c-.258.311-.193.822-.427 1.16-.235.34-.723.388-1.135.388-.411 0-.829-.035-1.075-.364-.225-.298-.192-.733-.107-1.109.084-.375.228-.747.192-1.132-.079-.774-.752-1.25-.962-1.962-.136-.466.164-.663.133-1.085-.023-.371-.419-.553-.717-.505z" fill="#3F3D56"/><path opacity=".1" d="M176.25 87.79v.048c-1.104 2.157-2.229 4.35-3.898 6.104a6.35 6.35 0 00-.717.824 7.847 7.847 0 00-.462.89 5.744 5.744 0 01-1.019 1.494l-1.393.7 4.424-23.217 3.065 13.157zm-6.429-35.139a8.21 8.21 0 01-1.256 1.107c-1.269.967-2.5 1.88-3.732 2.902a113.32 113.32 0 01-3.024 2.391 3.034 3.034 0 01-.303-.75c-.123-.571.046-1.161 0-1.742-.047-.512-.264-.992-.372-1.493a7.17 7.17 0 01-.055-1.974c.048-.774.215-1.573.15-2.337a9.068 9.068 0 012.425-6.967l.044-.044c.207-.121.426-.22.654-.294a2.306 2.306 0 012.034.247 13.924 13.924 0 012.77 2.732c.435.493.825 1.025 1.165 1.589a4.227 4.227 0 01-.5 4.633z" fill="#000"/><path d="M166.202 42.73a2.313 2.313 0 00-2.035-.238 4.393 4.393 0 00-1.752 1.174 8.097 8.097 0 00-1.236 1.643c-.327.58-.577 1.188-.904 1.766-.577 1.035-1.331 1.949-2.089 2.854-.471.563-.948 1.134-1.551 1.548-.604.414-1.279.667-1.689 1.242-.129.182-.221.387-.348.57-.402.593-1.085.91-1.679 1.307-1.704 1.141-2.763 3.04-4.356 4.335-.686.558-1.461.995-2.136 1.564-.629.528-1.154 1.16-1.781 1.702s-1.363.989-2.181 1.039c.546 1.225 1.198 2.426 2.135 3.38.936.954 2.34 1.563 3.619 1.19.454-.132.898-.41 1.071-.852.055-.226.131-.447.227-.66a1.35 1.35 0 01.487-.4 114.972 114.972 0 0014.636-10.201c1.237-1.014 2.464-1.922 3.733-2.902a8.186 8.186 0 001.256-1.107 4.219 4.219 0 00.507-4.634 10.98 10.98 0 00-1.165-1.588 13.895 13.895 0 00-2.769-2.732z" fill="#0091FF"/><path opacity=".1" d="M161.65 39.803c-.384 0-.829-.035-1.075-.364-.223-.298-.192-.733-.108-1.108.085-.376.229-.747.193-1.132-.079-.774-.752-1.25-.962-1.962-.136-.466.164-.664.133-1.085-.027-.366-.421-.548-.719-.5-.333.055-.616.281-.931.407a1.595 1.595 0 01-1.316-.07 1.025 1.025 0 01-.359-.294c-.258-.36-.167-.882-.01-1.304 0-.015.014-.029.019-.044-.16.258-.296.532-.403.818-.158.422-.248.944.009 1.304.096.124.219.225.36.294a1.594 1.594 0 001.315.07c.316-.126.598-.352.931-.407.298-.048.692.134.719.5.031.421-.269.619-.132 1.085.205.712.878 1.195.961 1.962.039.387-.102.758-.192 1.131-.091.374-.116.811.107 1.109.247.329.687.36 1.076.364.388.004.888-.023 1.134-.387a1.65 1.65 0 00.206-.594c-.262.188-.627.21-.956.207zm6.402-.07c-.55.283-1.21.194-1.765-.077-.556-.271-1.033-.698-1.51-1.107a2.241 2.241 0 00-.752-.481.765.765 0 00-.813.193 1.477 1.477 0 00-.241.65.813.813 0 01.669-.072c.281.109.536.273.752.482.477.408.962.838 1.51 1.107s1.215.36 1.765.077a2.15 2.15 0 00.987-1.302c-.158.22-.364.402-.602.53z" fill="#000"/><path d="M120.192 122.904c3.187 0 5.77-2.598 5.77-5.804 0-3.205-2.583-5.804-5.77-5.804-3.186 0-5.769 2.599-5.769 5.804 0 3.206 2.583 5.804 5.769 5.804z" fill="#3F3D56"/><path opacity=".1" d="M120.192 122.904c3.187 0 5.77-2.598 5.77-5.804 0-3.205-2.583-5.804-5.77-5.804-3.186 0-5.769 2.599-5.769 5.804 0 3.206 2.583 5.804 5.769 5.804z" fill="#000"/><path d="M120.192 120.776c2.018 0 3.654-1.645 3.654-3.676 0-2.03-1.636-3.676-3.654-3.676s-3.653 1.646-3.653 3.676c0 2.031 1.635 3.676 3.653 3.676z" fill="#65617D"/><path opacity=".1" d="M120.192 120.776c2.018 0 3.654-1.645 3.654-3.676 0-2.03-1.636-3.676-3.654-3.676s-3.653 1.646-3.653 3.676c0 2.031 1.635 3.676 3.653 3.676z" fill="#000"/><path d="M115.769 108.007l3.785 8.61a.73.73 0 00.658.441.74.74 0 00.675-.414l4.498-9.217-9.616.58z" fill="#3F3D56"/><path opacity=".1" d="M115.769 108.007l3.785 8.61a.73.73 0 00.658.441.74.74 0 00.675-.414l4.498-9.217-9.616.58z" fill="#000"/><path d="M84.23 122.904c3.187 0 5.77-2.598 5.77-5.804 0-3.205-2.583-5.804-5.77-5.804-3.186 0-5.769 2.599-5.769 5.804 0 3.206 2.583 5.804 5.77 5.804z" fill="#3F3D56"/><path opacity=".1" d="M84.23 122.904c3.187 0 5.77-2.598 5.77-5.804 0-3.205-2.583-5.804-5.77-5.804-3.186 0-5.769 2.599-5.769 5.804 0 3.206 2.583 5.804 5.77 5.804z" fill="#000"/><path d="M84.23 120.776c2.019 0 3.655-1.645 3.655-3.676 0-2.03-1.636-3.676-3.654-3.676s-3.654 1.646-3.654 3.676c0 2.031 1.636 3.676 3.654 3.676z" fill="#65617D"/><path opacity=".1" d="M84.23 120.776c2.019 0 3.655-1.645 3.655-3.676 0-2.03-1.636-3.676-3.654-3.676s-3.654 1.646-3.654 3.676c0 2.031 1.636 3.676 3.654 3.676z" fill="#000"/><path d="M79.808 108.007l3.784 8.61a.736.736 0 001.056.333.738.738 0 00.277-.306l4.498-9.217-9.615.58z" fill="#3F3D56"/><path opacity=".1" d="M79.808 108.007l3.784 8.61a.736.736 0 001.056.333.738.738 0 00.277-.306l4.498-9.217-9.615.58z" fill="#000"/><path d="M138.915 66.556a.881.881 0 00-.479-.693.888.888 0 00-1.184.503l-3.31 8.267-.961 37.147h1.538l.577-37.067 3.739-7.596a.92.92 0 00.08-.561z" fill="#3F3D56"/><path d="M70.865 108.878l5.193-3.289 56.057-.484 1.443 3.773H70.865z" fill="#0091FF"/><path d="M70.865 112.36v-3.482l63.708-.619-.062 2.36H72.019v1.741h-1.154zm8.077 12.576c3.187 0 5.77-2.599 5.77-5.804 0-3.206-2.583-5.804-5.77-5.804-3.186 0-5.769 2.598-5.769 5.804 0 3.205 2.583 5.804 5.77 5.804z" fill="#3F3D56"/><path d="M78.942 122.808c2.018 0 3.654-1.646 3.654-3.676 0-2.03-1.636-3.676-3.654-3.676s-3.654 1.646-3.654 3.676c0 2.03 1.636 3.676 3.654 3.676z" fill="#65617D"/><path d="M74.52 110.039l3.784 8.609a.735.735 0 001.333.027l4.498-9.217-9.616.581zm49.23 14.897c3.186 0 5.769-2.599 5.769-5.804 0-3.206-2.583-5.804-5.769-5.804s-5.769 2.598-5.769 5.804c0 3.205 2.583 5.804 5.769 5.804z" fill="#3F3D56"/><path d="M123.75 122.808c2.018 0 3.654-1.646 3.654-3.676 0-2.03-1.636-3.676-3.654-3.676s-3.654 1.646-3.654 3.676c0 2.03 1.636 3.676 3.654 3.676z" fill="#65617D"/><path d="M119.327 110.039l3.785 8.609a.736.736 0 001.055.334.74.74 0 00.277-.307l4.498-9.217-9.615.581z" fill="#3F3D56"/><path d="M102.115 93.69H78.077v13.35h24.038V93.69z" fill="#65617D"/><path opacity=".1" d="M93.846 96.012H86.54v1.548h7.307v-1.548z" fill="#000"/><path opacity=".1" d="M92.933 96.205h-5.481v1.161h5.48v-1.16z" fill="#000"/><path d="M126.538 93.69H102.5v13.35h24.038V93.69z" fill="#65617D"/><path opacity=".1" d="M118.269 96.012h-7.307v1.548h7.307v-1.548z" fill="#000"/><path opacity=".1" d="M117.356 96.205h-5.481v1.161h5.481v-1.16z" fill="#000"/><path d="M102.115 79.954H78.077v13.35h24.038v-13.35z" fill="#65617D"/><path opacity=".1" d="M93.846 82.275H86.54v1.548h7.307v-1.547z" fill="#000"/><path opacity=".1" d="M92.933 82.469h-5.481v1.16h5.48v-1.16z" fill="#000"/><path d="M126.538 79.954H102.5v13.35h24.038v-13.35z" fill="#65617D"/><path opacity=".1" d="M118.269 82.275h-7.307v1.548h7.307v-1.547z" fill="#000"/><path opacity=".1" d="M117.356 82.469h-5.481v1.16h5.481v-1.16z" fill="#000"/><path d="M102.115 66.024H78.077v13.35h24.038v-13.35z" fill="#65617D"/><path opacity=".1" d="M93.846 68.346H86.54v1.547h7.307v-1.547z" fill="#000"/><path opacity=".1" d="M92.933 68.54h-5.481v1.16h5.48v-1.16z" fill="#000"/><path d="M126.538 66.024H102.5v13.35h24.038v-13.35z" fill="#65617D"/><path opacity=".1" d="M118.269 68.346h-7.307v1.547h7.307v-1.547z" fill="#000"/><path opacity=".1" d="M117.356 68.54h-5.481v1.16h5.481v-1.16z" fill="#000"/><path d="M126.538 52.094H102.5v13.35h24.038v-13.35z" fill="#65617D"/><path opacity=".1" d="M118.269 54.416h-7.307v1.548h7.307v-1.548z" fill="#000"/><path opacity=".1" d="M117.356 54.61h-5.481v1.16h5.481v-1.16z" fill="#000"/></g><defs><linearGradient id="paint0_linear" x1="168.813" y1="122.738" x2="168.813" y2="29.264" gradientUnits="userSpaceOnUse"><stop stop-color="gray" stop-opacity=".25"/><stop offset=".54" stop-color="gray" stop-opacity=".12"/><stop offset="1" stop-color="gray" stop-opacity=".1"/></linearGradient><clipPath id="clip0"><path fill="#fff" d="M0 0h220v126H0z"/></clipPath></defs></svg>