<svg width="127" height="116" fill="none" xmlns="http://www.w3.org/2000/svg"><g clip-path="url(#clip0)"><path d="M63.5 41.405c2.314 0 4.605.459 6.743 1.35a17.61 17.61 0 015.716 3.847 17.753 17.753 0 013.819 5.756 17.853 17.853 0 011.34 6.79v42.512H45.882V59.148c0-2.33.456-4.637 1.341-6.79a17.75 17.75 0 013.82-5.756 17.61 17.61 0 015.715-3.846 17.512 17.512 0 016.743-1.351z" fill="#E6E6E6"/><path d="M57.387 62.737h-3.164v10.574h3.164V62.737zM68.75 74.18h-10.5v9.56h10.5v-9.56zm0-11.443h-10.5v10.574h10.5V62.737zm.863-.869h3.164v-.217a9.372 9.372 0 00-.826-3.858 9.314 9.314 0 00-2.338-3.167v7.242zm-11.363 0h10.5V53.95a9.187 9.187 0 00-5.25-1.64 9.188 9.188 0 00-5.25 1.64v7.92zm-.863 12.312h-3.164v7.242c0 .615.243 1.204.674 1.639a2.293 2.293 0 001.627.679h.863v-9.56zm12.226 0v9.56h.863c.61 0 1.195-.244 1.627-.679a2.326 2.326 0 00.674-1.639V74.18h-3.164zM57.387 61.868v-7.242a9.311 9.311 0 00-2.337 3.168 9.374 9.374 0 00-.827 3.857v.217h3.164zm15.39.869h-3.164v10.574h3.164V62.737z" fill="#fff"/><path d="M78.602 76.787c1.033 0 1.87-.843 1.87-1.883s-.837-1.883-1.87-1.883c-1.033 0-1.87.843-1.87 1.883s.837 1.883 1.87 1.883z" fill="#3F3D56"/><path d="M19.655 56.833h-2.483v8.299h2.483v-8.3zm8.918 0h-8.24v8.299h8.24v-8.3zm3.161 0H29.25v8.299h2.484v-8.3zm-2.484-.683h2.484v-.17c0-1.044-.22-2.077-.649-3.028a7.308 7.308 0 00-1.835-2.485v5.683zm-.677 9.664h-8.24v7.503h8.24v-7.503zm-8.918 0h-2.483v5.684c0 .482.19.945.529 1.286a1.8 1.8 0 001.277.533h.677v-7.503zm9.595 0v7.503h.678a1.793 1.793 0 001.277-.533 1.819 1.819 0 00.529-1.286v-5.684H29.25zm-9.595-9.664v-5.683a7.309 7.309 0 00-1.835 2.485 7.357 7.357 0 00-.648 3.028v.17h2.483zm.677 0h8.241v-6.215a7.21 7.21 0 00-4.12-1.288 7.21 7.21 0 00-4.12 1.288v6.215z" fill="#0091FF"/><path d="M34.978 74.224H13.98a.507.507 0 01-.508-.512v-1.364a.514.514 0 01.508-.512h20.997a.507.507 0 01.508.512v1.364a.514.514 0 01-.508.512z" fill="#E6E6E6"/><path d="M97.754 56.833H95.27v8.299h2.484v-8.3zm8.918 0h-8.241v8.299h8.241v-8.3zm3.161 0h-2.484v8.299h2.484v-8.3zm-2.484-.683h2.484v-.17a7.362 7.362 0 00-.649-3.028 7.302 7.302 0 00-1.835-2.485v5.683zm-.677 9.664h-8.241v7.503h8.241v-7.503zm-8.918 0H95.27v5.684c0 .482.19.945.53 1.286a1.8 1.8 0 001.276.533h.678v-7.503zm9.595 0v7.503h.677a1.794 1.794 0 001.278-.533 1.833 1.833 0 00.529-1.286v-5.684h-2.484zm-9.595-9.664v-5.683a7.309 7.309 0 00-1.835 2.485 7.357 7.357 0 00-.649 3.028v.17h2.484zm.676 0h8.242v-6.215a7.212 7.212 0 00-4.121-1.288 7.21 7.21 0 00-4.12 1.288v6.215z" fill="#0091FF"/><path d="M113.076 74.224H92.079a.507.507 0 01-.508-.512v-1.364a.514.514 0 01.508-.512h20.997a.514.514 0 01.508.512v1.364a.514.514 0 01-.508.512z" fill="#E6E6E6"/><path d="M119.305 101.805H7.695a4.733 4.733 0 01-3.355-1.401 4.804 4.804 0 01-1.392-3.379V24.168A4.802 4.802 0 014.34 20.79a4.735 4.735 0 013.355-1.402h111.61a4.735 4.735 0 013.355 1.402 4.804 4.804 0 011.392 3.378v72.857a4.806 4.806 0 01-1.392 3.379 4.733 4.733 0 01-3.355 1.401zM7.695 19.678a4.448 4.448 0 00-3.151 1.317 4.511 4.511 0 00-1.308 3.173v72.857a4.512 4.512 0 001.308 3.174 4.45 4.45 0 003.15 1.317h111.611a4.452 4.452 0 003.152-1.317 4.514 4.514 0 001.307-3.174V24.168a4.513 4.513 0 00-1.307-3.173 4.45 4.45 0 00-3.152-1.317H7.695z" fill="#0091FF"/><path d="M119.14 101.5H7.86a4.726 4.726 0 01-3.344-1.394 4.768 4.768 0 01-1.388-3.36v-72.45a4.77 4.77 0 011.388-3.359 4.727 4.727 0 013.344-1.393h111.28a4.726 4.726 0 013.344 1.393 4.764 4.764 0 011.388 3.36v72.45a4.763 4.763 0 01-1.388 3.359 4.725 4.725 0 01-3.344 1.394zM7.86 19.832a4.44 4.44 0 00-3.142 1.309 4.48 4.48 0 00-1.303 3.156v72.45a4.48 4.48 0 001.303 3.156 4.438 4.438 0 003.142 1.309h111.28a4.44 4.44 0 003.142-1.31 4.48 4.48 0 001.303-3.155v-72.45a4.48 4.48 0 00-1.303-3.156 4.443 4.443 0 00-3.142-1.31H7.86z" fill="#0091FF"/><path d="M4.753 28.915a4.738 4.738 0 01-3.223-1.271 4.814 4.814 0 01-.518-6.473 4.75 4.75 0 012.98-1.775l58.33-19.3A7.022 7.022 0 0164.61.092l58.408 19.306a4.754 4.754 0 013.09 1.934 4.82 4.82 0 01.829 3.567 4.796 4.796 0 01-1.917 3.114 4.73 4.73 0 01-3.541.838c-.63-.09-57.463-8.263-57.981-8.284-.516.021-57.405 8.202-57.98 8.284-.253.042-.51.063-.766.063z" fill="#0091FF"/><path d="M88.517 90.297a1.362 1.362 0 00-.446-2.034l.267-3.092-1.827-.621-.315 4.372a1.374 1.374 0 00.554 1.726 1.348 1.348 0 001.767-.35zm9.113 24.041h-1.644l-.781-6.387h2.426v6.387z" fill="#FFB8B8"/><path d="M94.812 113.864h3.171v2.011h-5.168a2.022 2.022 0 01.585-1.422 1.985 1.985 0 011.412-.589z" fill="#2F2E41"/><path d="M93.898 110.1l-1.596.395-2.274-6.015 2.357-.583 1.513 6.203z" fill="#FFB8B8"/><path d="M91.049 110.318l3.08-.762.476 1.952-5.019 1.242a2.027 2.027 0 01.232-1.521 2 2 0 011.231-.911z" fill="#2F2E41"/><path d="M95.706 112.301a.6.6 0 01-.406-.156.612.612 0 01-.197-.391L93.21 94.003l-1.647 5.428 2.332 8.478a.617.617 0 01-.36.733l-1.854.746a.6.6 0 01-.676-.156.612.612 0 01-.124-.211l-2.859-8.257a7.526 7.526 0 01-.407-2.81l.399-8.91 10.505.447-.164 22.048a.617.617 0 01-.562.606l-2.04.155-.048.001z" fill="#2F2E41"/><path d="M93.966 69.322c1.951 0 3.533-1.593 3.533-3.558 0-1.965-1.582-3.557-3.533-3.557-1.95 0-3.532 1.592-3.532 3.557 0 1.965 1.581 3.558 3.532 3.558z" fill="#FFB8B8"/><path d="M96.564 90.07c-.93 0-2.086-.076-3.281-.155-1.634-.108-3.324-.22-4.585-.147a.996.996 0 01-.896-.393c-1.3-1.676.705-8.214.79-8.491l1.633-7.31.07.016-.07-.016c.359-1.608 1.506-2.794 2.993-3.095 1.392-.282 2.74.28 3.603 1.503.046.064.091.131.137.2 2.812 4.194 1.222 14.614 1.115 15.286.149.18.952 1.192.731 1.896-.09.286-.334.482-.725.58-.498.1-1.007.142-1.515.127z" fill="#CCC"/><path d="M88.755 90.074c-.32 0-.752-.119-1.334-.363-.25-.105-1.01-.423-.087-8.556a186.435 186.435 0 011.11-8.001l.007-.038.035-.016c.017-.008 1.677-.775 1.966-1.76.01-.034.021-.067.034-.099a.893.893 0 011.115-.552.95.95 0 01.568.401.956.956 0 01.143.684 6.7 6.7 0 01-.574 1.853c-.781 1.624-1.31 5.928-1.316 5.971-.03.368-.74 9.078-.876 9.739-.048.23-.135.513-.393.65a.837.837 0 01-.398.087zm3.859-.334a.289.289 0 01-.178-.061c-1.04-.796.643-10.437 1.64-13.763.2-.666.378-1.236.529-1.695a13 13 0 00.574-2.536c.055-.467.174-.734.365-.816.132-.057.288-.018.463.115.921-.046 1.816.333 2.646.75l.747.376.838 14.94c-.024.954-1.89 1.627-2.704 1.67-1.308.069-3.655.283-4.69.943a.43.43 0 01-.23.077z" fill="#2F2E41"/><path d="M87.946 86.937l-.037-.001-1.693-.105a.604.604 0 01-.55-.451.617.617 0 01-.014-.252l.766-5.11 1.441-7.17a1.29 1.29 0 01.603-.851 1.27 1.27 0 011.733.432 1.3 1.3 0 01.177.879l-1.145 7.184-.678 4.917a.617.617 0 01-.603.528zm6.666-17.703a3.746 3.746 0 002.842-1.21 3.803 3.803 0 00.992-2.943 3.815 3.815 0 00-1.523-2.702 3.757 3.757 0 00-3.017-.651c-.777-.475-1.68-.795-2.586-.714-.905.081-1.8.623-2.139 1.472-.338.85.026 1.97.867 2.314.54.222 1.15.114 1.725.025.576-.09 1.204-.147 1.705.152.502.3.727 1.102.278 1.476a1.558 1.558 0 00-.444 1.712c.226.587.842 1.06 1.3 1.07z" fill="#2F2E41"/><path d="M86.781 69.552c-.92 0-1.803.369-2.454 1.025a3.51 3.51 0 00-1.016 2.472 3.51 3.51 0 001.016 2.472 3.46 3.46 0 002.454 1.025c.921 0 1.804-.37 2.455-1.025a3.51 3.51 0 001.016-2.472 3.51 3.51 0 00-1.016-2.472 3.46 3.46 0 00-2.455-1.025z" fill="#0091FF"/><path d="M86.452 74.501a.42.42 0 01-.254-.085l-.004-.003-.955-.736a.425.425 0 01-.152-.45.429.429 0 01.354-.313.423.423 0 01.314.085l.619.478 1.462-1.92a.425.425 0 01.594-.08l-.009.013.01-.013a.428.428 0 01.078.6l-1.72 2.257a.426.426 0 01-.337.167z" fill="#fff"/><path d="M94.097 79.25H81.908a1.224 1.224 0 00-.873.364 1.244 1.244 0 00-.36.879v12.274a1.25 1.25 0 00.36.88 1.233 1.233 0 00.873.363h12.189a1.227 1.227 0 00.873-.364 1.244 1.244 0 00.361-.879V80.493a1.251 1.251 0 00-.361-.88 1.234 1.234 0 00-.873-.363z" fill="#0091FF"/><path d="M91.352 88.428l-5.755 1.129a1.305 1.305 0 01-.983-.202 1.323 1.323 0 01-.555-.842l-.442-2.288a1.33 1.33 0 01.2-.99c.195-.29.495-.491.837-.559l5.754-1.128a1.308 1.308 0 011.538 1.044l.443 2.287c.066.344-.006.7-.2.99a1.318 1.318 0 01-.837.56z" fill="#fff"/><path d="M90.2 85.725l-4.391.862a.306.306 0 01-.362-.246.312.312 0 01.244-.364l4.392-.862a.307.307 0 01.362.246.313.313 0 01-.133.319.305.305 0 01-.111.045zm-.853 1.276l-2.272.445a.305.305 0 01-.316-.133.31.31 0 01.001-.345.31.31 0 01.197-.132l2.272-.445a.307.307 0 01.362.246.313.313 0 01-.244.364z" fill="#0091FF"/><path d="M95.331 80.493v1.631H80.674v-1.631a1.249 1.249 0 01.762-1.149c.15-.062.31-.094.472-.094h12.189a1.225 1.225 0 01.873.364 1.244 1.244 0 01.361.879z" fill="#3F3D56"/><path d="M93.728 81.344a1.355 1.355 0 01.953-.633 1.339 1.339 0 011.093.33l2.775-1.35 1.226 1.498-3.946 1.851a1.352 1.352 0 01-2.287-.744 1.37 1.37 0 01.186-.952z" fill="#FFB8B8"/><path d="M97.583 82.794a.605.605 0 01-.592-.47l-.403-1.687a.615.615 0 01.28-.67l2.43-1.465-1.242-4.582a1.578 1.578 0 01.054-.985c.118-.297.323-.551.589-.727a1.538 1.538 0 011.775.055c.255.192.445.458.544.762l1.371 4.219a2.56 2.56 0 01-.923 2.864l-3.526 2.57a.604.604 0 01-.357.116z" fill="#2F2E41"/><path d="M101.6 116H86.93a.144.144 0 01-.144-.145.145.145 0 01.144-.145h14.67a.146.146 0 01.102.248.145.145 0 01-.102.042z" fill="#CCC"/></g><defs><clipPath id="clip0"><path fill="#fff" d="M0 0h127v116H0z"/></clipPath></defs></svg>