<svg width="134" height="99" fill="none" xmlns="http://www.w3.org/2000/svg"><g clip-path="url(#clip0)"><path d="M16.002 42.14c-.293 0-.59-.004-.882-.013l.007-.212c.418.013.845.017 1.265.011l.003.212c-.13.002-.261.003-.393.003zm1.668-.048l-.013-.212c.42-.025.843-.06 1.261-.103l.023.21c-.422.045-.85.08-1.271.105zm-3.823-.033c-.422-.033-.85-.075-1.269-.127l.026-.21c.416.051.84.093 1.26.125l-.017.212zm6.358-.233l-.031-.21c.416-.063.835-.136 1.246-.218l.041.208c-.414.082-.836.156-1.256.22zm-8.888-.078c-.418-.07-.84-.152-1.252-.242l.044-.207c.41.09.829.17 1.243.24l-.035.209zm11.389-.42l-.051-.206c.409-.1.82-.212 1.221-.331l.06.203c-.404.12-.818.232-1.23.334zm-13.881-.121A28.21 28.21 0 017.6 40.85l.064-.202c.4.127.81.246 1.215.354l-.054.205zm16.325-.604l-.069-.2a27.47 27.47 0 001.186-.444l.078.197c-.393.157-.795.308-1.194.447zm-18.76-.166a27.528 27.528 0 01-1.189-.47l.083-.195c.388.164.785.32 1.18.466l-.074.199zm21.125-.781l-.088-.193c.381-.173.764-.358 1.138-.55l.096.19a29.41 29.41 0 01-1.146.553zm2.266-1.159l-.104-.184c.365-.209.73-.428 1.083-.652l.113.18c-.356.225-.724.446-1.092.656zm2.153-1.363l-.122-.173c.344-.24.687-.492 1.02-.748l.13.168a27.85 27.85 0 01-1.028.753zm2.02-1.554l-.137-.161c.32-.27.64-.553.949-.838l.143.155c-.31.288-.632.572-.955.845zm1.872-1.731l-.151-.15c.295-.299.588-.609.868-.92l.158.141c-.283.314-.578.627-.875.929zm1.707-1.896l-.164-.135c.267-.325.53-.66.782-.997l.17.127c-.254.34-.52.677-.788 1.005zm1.527-2.045l-.175-.119c.237-.348.468-.706.688-1.064l.18.11a26.14 26.14 0 01-.692 1.073zm1.337-2.176l-.186-.103c.204-.368.401-.746.588-1.123l.19.093c-.188.38-.387.762-.592 1.133zm1.131-2.292l-.194-.084c.168-.386.33-.78.481-1.174l.198.076c-.152.396-.315.794-.485 1.183zm.916-2.387l-.201-.066c.132-.399.257-.806.37-1.211l.204.057c-.114.408-.24.819-.373 1.22zm.69-2.456l-.206-.048c.095-.408.181-.825.258-1.24l.208.04c-.077.416-.164.837-.26 1.248zm.462-2.509l-.21-.028c.057-.415.105-.839.143-1.258l.21.019c-.037.423-.086.85-.143 1.267zm.23-2.54l-.212-.01c.02-.42.029-.845.029-1.265h.212c0 .423-.01.852-.03 1.275zm-.32-4.318c-.042-.418-.1-.622-.162-1.038l.21-.03c.061.419.114.738.157 1.16l-.205-.092zm-.376-2.285c-.08-.414-.172-.83-.27-1.237l.205-.05c.1.41.192.83.273 1.246l-.208.04zm-.598-2.46a26.44 26.44 0 00-.384-1.207l.2-.069c.138.4.268.81.387 1.216l-.203.06zM41.71 4.09a27.78 27.78 0 00-.493-1.163l.194-.087c.173.385.34.78.495 1.172l-.197.078zm-1.037-2.303c-.19-.374-.39-.75-.597-1.114l.184-.105c.208.368.41.746.602 1.123l-.19.096zm-3.771 65.135c2.887 3.327 2.876 8.067 2.876 8.067s-4.692-.654-7.579-3.98c-2.887-3.326-2.876-8.066-2.876-8.066s4.692.653 7.579 3.98z" fill="#3F3D56"/><path d="M33.166 40.418c1.273 4.218 5.285 6.737 5.285 6.737s1.95-4.32.679-8.537c-1.272-4.218-5.285-6.737-5.285-6.737s-1.95 4.32-.678 8.537z" fill="#0091FF"/><path d="M34.83 39.456c3.242 2.98 3.763 7.691 3.763 7.691s-4.736-.121-7.978-3.102c-3.242-2.98-3.764-7.692-3.764-7.692s4.736.122 7.978 3.103zM45.064 51.88c-3.53 2.634-4.528 7.268-4.528 7.268s4.724.362 8.253-2.273c3.529-2.634 4.528-7.267 4.528-7.267s-4.724-.362-8.253 2.272zm2.372 34.953s-.031.04-.093.114H34.986a11.23 11.23 0 014.036-1.693c4.328-.818 8.414 1.579 8.414 1.579z" fill="#3F3D56"/><path d="M39.788 74.044a5.56 5.56 0 01-.047.224l-.047.22c-.034.156-.07.313-.106.47a35.478 35.478 0 01-5.197 11.989h-.49c2.424-3.484 4.25-7.594 5.29-12.069a32.492 32.492 0 00.2-.915c.067-.32.13-.641.188-.964 1.348-7.431.786-15.923-1.71-25.91l-.107-.425a.75.75 0 01-.013-.051l.392-.1c.045.174.09.349.132.524l.024.093c2.59 10.42 3.077 19.23 1.492 26.914zM27.69 33.894a3.844 3.844 0 003.843-3.845 3.844 3.844 0 10-3.843 3.845zm69.615 39.55c-2.417 2.657-2.497 6.52-2.497 6.52s3.836-.443 6.253-3.1c2.416-2.657 2.497-6.521 2.497-6.521s-3.837.444-6.254 3.1z" fill="#3F3D56"/><path d="M100.849 51.91c-1.116 3.414-4.435 5.391-4.435 5.391s-1.508-3.558-.392-6.972c1.117-3.414 4.435-5.392 4.435-5.392s1.509 3.558.392 6.973z" fill="#0091FF"/><path d="M99.512 51.094c-2.699 2.368-3.213 6.199-3.213 6.199s3.863-.01 6.562-2.379c2.699-2.368 3.213-6.199 3.213-6.199s-3.862.01-6.562 2.379zm-8.577 9.934c2.827 2.214 3.554 6.01 3.554 6.01s-3.857.206-6.684-2.009c-2.828-2.214-3.554-6.01-3.554-6.01s3.857-.205 6.684 2.009z" fill="#3F3D56"/><path d="M97.717 86.947h-.368a29.672 29.672 0 01-2.499-7.57 35.47 35.47 0 01-.563-4.89c-.245-5.115.503-10.792 2.254-17.202l.022-.078c.037-.14.077-.281.116-.424l.318.09-.01.04c-.033.116-.066.23-.097.346-1.766 6.43-2.519 12.114-2.272 17.228a35.554 35.554 0 00.523 4.648 29.275 29.275 0 002.576 7.812zm7.792-40.251a3.134 3.134 0 003.133-3.135 3.134 3.134 0 10-3.133 3.135z" fill="#3F3D56"/><path d="M71.697 71.689l-.09 2.798-.395 12.46h-11.5l-1.168-12.46-.576-6.157-3.051-10.073 19.83-3.968s1.526 5.8 2.135 10.073c.61 4.274-5.185 7.327-5.185 7.327z" fill="#2F2E41"/><path opacity=".2" d="M71.697 71.689l-.09 2.798-.395 12.46h-11.5l-1.168-12.46-.576-6.157-3.051-10.073 19.83-3.968s1.526 5.8 2.135 10.073c.61 4.274-5.185 7.327-5.185 7.327z" fill="#000"/><path d="M132.376 86.947H0V1.625L21.432 15.44h-.181v59.048h91.769v-.016l19.356 12.476z" fill="#0091FF"/><path d="M1.624 0l23.954 15.44h87.442V71.8L134 85.321V0H1.624z" fill="#3F3D56"/><path d="M75.946 3.293c-6.086 0-11.02 5.48-11.02 12.238v8.587h2.639l1.528-3.181-.382 3.181h16.966l1.389-2.892-.347 2.892h1.91v-6.742c0-7.778-5.678-14.083-12.683-14.083z" fill="#2F2E41"/><path d="M65.595 42.994l-1.83 7.021 17.084-.61-.305-5.8s-12.813-3.358-14.95-.61zM49.12 71.078l5.492 12.21 5.186-6.41-4.271-8.547-6.407 2.747zm24.712-48.841a7.019 7.019 0 007.017-7.021 7.019 7.019 0 00-7.017-7.021 7.019 7.019 0 00-7.017 7.02 7.019 7.019 0 007.017 7.022z" fill="#FFB9B9"/><path d="M84.205 24.374l-3.228 2.692-.433.36-.305 3.663H68.34s1.623-1.407 3.13-2.863c.03-.034.064-.07.1-.104.205-.198.388-.381.553-.546.088-.092.174-.177.25-.257a46.643 46.643 0 01.372-.387 12 12 0 00.879-1.032l.003-.003a3.63 3.63 0 00.204-.302c.915-1.527-1.22-4.58-1.22-4.58l6.712-3.357c.234 3.309 3.032 5.52 4.283 6.35.366.24.598.366.598.366z" fill="#FFB9B9"/><path d="M100.679 75.657c-4.576 1.221-4.881-7.937-4.881-7.937l-6.246-12.499a28.916 28.916 0 01-2.691-8.385l-1.436-9.031-.436.522v.003l-.784.39-4.766-7.63-1.336-2.137V26.51l4.576-2.137h1.83s.04-.006.11-.012c.843-.09 6.322-.455 6.603 4.896.11 2.1.1 3.84.043 5.205A40.332 40.332 0 0092.33 45.7c.323 1.326.676 2.477 1.028 3.094 1.22 2.137 5.492 18.926 5.492 18.926s6.406 6.716 1.83 7.937zM72.612 27.732l-1.157 2.109-.683 1.248-3.347 6.105s-.949.776-2.486 1.777c-2.557 1.664-6.749 3.947-10.937 4.329-6.712.61-.306-21.063-.306-21.063s2.136-8.547 5.187-7.632c3.05.916.61 3.969-1.526 9.769-2.135 5.8-.305 12.21-.305 12.21s6.407-3.968 9.763-7.02c1.748-1.591 3.25-2.022 4.283-2.067h.003a3.81 3.81 0 011.022.079c.168.034.332.086.489.155z" fill="#FFB9B9"/><path d="M73.625 25.9c-.013.034-.156.305-1.251 1.42.447-.446.865-.92 1.25-1.42z" fill="#D0CDE1"/><path d="M85.273 37.958l-.284.372-4.445 7.717S74.747 43.91 70.476 43.3a5.983 5.983 0 00-6.099 2.738l1.218-4.875-.656-2.192c-.076-.256-.165-.54-.26-.86-.915-3.053 2.441-6.411 2.441-6.411l3.978-4.203h.004c.342-.02.686.007 1.022.079-.165.165-.348.348-.553.546-.036.034-.07.07-.1.104-1.169 1.194-.562 1.526-.016 1.615.181.028.364.037.546.027 1.273.184 4.058-.934 6.102-1.868 1.391-.635 2.44-1.184 2.44-1.184l2.664-2.442.4-.367c.366.241.598.367.598.367h.305s.04-.006.11-.012l-1.39 1.03a5.166 5.166 0 00-2.076 4.476l4.119 8.09z" fill="#D0CDE1"/><path d="M68.646 46.657l-4.46 1.743s-24.218-9.374-27.88-1.742c-3.66 7.631 12.814 25.947 12.814 25.947l7.322-3.358-3.05-9.158s17.694 14.957 25.016 6.716c7.322-8.242 2.44-19.896 2.44-19.896s-4.575-3.61-12.202-.252zM55.832 79.93l-2.746 2.137s2.441 9.769 1.526 11.295c-.915 1.526-2.746 5.8.61 5.495 3.356-.306 7.017-5.495 7.322-7.327.305-1.831 2.44-7.326 2.44-7.326s3.662-8.547.916-8.852c-2.746-.306-7.12-.51-7.12-.51l-2.948 5.089zM79.08 6.664c-1.107-1.425-2.74-2.328-4.561-2.328h-.217c-4.171 0-7.553 3.777-7.553 8.436h1.398l.225-1.719.331 1.72h8.291l.695-1.455-.174 1.454h1.631c.761 3.782-.332 7.564-3.28 11.346h2.778l1.389-2.909-.347 2.91h5.296l1.042-6.692c0-5.011-2.91-9.26-6.945-10.763z" fill="#2F2E41"/><path d="M95.83 98.73H25.447V99H95.83v-.27z" fill="#3F3D56"/></g><defs><clipPath id="clip0"><path fill="#fff" d="M0 0h134v99H0z"/></clipPath></defs></svg>