<svg width="156" height="116" fill="none" xmlns="http://www.w3.org/2000/svg"><g clip-path="url(#clip0)"><path d="M112.259 68.815l1.227-.76c.117-.074.232-.153.35-.227a11.71 11.71 0 01-6.798-3.806 11.784 11.784 0 01-2.924-7.24 11.78 11.78 0 014.054-9.454 11.728 11.728 0 014.484-2.418l-.061 4.847 2.653-5.276a11.682 11.682 0 018.472 3.053 11.762 11.762 0 013.815 8.147c.01.225 0 .445 0 .66.923-1.057 1.761-2.19 2.316-3.43 1.124-2.515 1.15-5.362 1.057-8.822a696.613 696.613 0 00-.856-20.656 11.702 11.702 0 01-7.248-3.638 11.778 11.778 0 01-3.16-7.489 14.092 14.092 0 010-1.068c0-.087 0-.176.014-.264.023-.34.054-.679.106-1.012 0-.056.02-.109.03-.165.048-.282.106-.561.172-.837.027-.102.051-.206.079-.308.082-.3.165-.596.278-.887.034-.098.076-.192.112-.287.083-.214.174-.425.269-.635.051-.11.1-.22.155-.33.013-.028.024-.056.039-.084a11.73 11.73 0 015.805-5.48 11.673 11.673 0 017.955-.484l-.078 6.307 2.628-5.21a11.675 11.675 0 014.866 5.417 11.728 11.728 0 01.72 7.256h.013c-.018.084-.044.165-.064.248-.036.154-.076.308-.118.461-.056.196-.119.39-.183.582-.049.143-.097.29-.151.432a8.85 8.85 0 01-.259.613c-.053.119-.101.24-.165.356-.15.304-.314.6-.493.89-.06.101-.129.197-.193.297-.125.195-.252.388-.388.576-.084.115-.174.225-.263.34-.128.164-.26.329-.396.479a11.187 11.187 0 01-.741.773c-.1.097-.202.195-.307.287-.173.153-.353.3-.536.443-.092.073-.18.149-.276.218-.277.207-.563.4-.859.582-.056.033-.115.06-.164.094a9.982 9.982 0 01-.757.412c-.111.054-.226.102-.339.153-.212.096-.425.188-.644.272a10.95 10.95 0 01-.386.137c-.215.074-.434.142-.657.203-.132.036-.261.073-.394.104-.24.057-.485.105-.731.147-.017 0-.032 0-.048.01.162 2.905.306 5.813.432 8.722a11.75 11.75 0 012.893-3.765 11.674 11.674 0 0113.371-1.338l-2.071 5.696 4.261-4.106a11.748 11.748 0 013.779 8.12 11.536 11.536 0 01-.298 3.24 11.76 11.76 0 01-3.473 5.97 11.68 11.68 0 01-13.027 1.936 11.729 11.729 0 01-5.049-4.703c0 .295.021.592.03.887.077 3.053.174 6.851-1.343 10.244-1.026 2.3-2.681 4.168-4.315 5.84a72.25 72.25 0 01-3.296 3.164 11.728 11.728 0 01-4.232 3.532 73.345 73.345 0 01-5.766 4.032l-1.208.781a164.42 164.42 0 00-3.381 2.144c.197-.02.393-.042.593-.05 2.484-.117 4.94.562 7.015 1.938a11.76 11.76 0 014.525 5.716l-7.324 5.983 8.05-1.875a11.793 11.793 0 01-1.467 5.685 11.743 11.743 0 01-4.021 4.265 11.689 11.689 0 01-11.315.642c.18.228.363.454.544.68.359.45.717.896 1.067 1.34 4.765 6.055 6.092 11.805 3.731 16.189l-2.868-1.557c2.3-4.266-1.15-9.726-3.422-12.604-.344-.436-.695-.874-1.05-1.32-3.044-3.791-6.494-8.097-6.407-13.374.123-7.946 7.826-12.738 14.01-16.583z" fill="#F2F2F2"/><path d="M74.832 116c41.328 0 74.832-1.55 74.832-3.462 0-1.912-33.504-3.462-74.832-3.462-41.329 0-74.832 1.55-74.832 3.462C0 114.45 33.503 116 74.832 116z" fill="#3F3D56"/><path d="M135.287 111.247c.493-.908-.066-2.021-.703-2.832-.638-.811-1.415-1.649-1.398-2.685.023-1.484 1.592-2.36 2.847-3.146a13.92 13.92 0 002.554-2.062 3.75 3.75 0 00.787-1.055c.258-.58.252-1.24.235-1.876a134.346 134.346 0 00-.312-6.344" stroke="#3F3D56" stroke-width="4" stroke-miterlimit="10"/><path d="M141.681 91.135a2.318 2.318 0 00-1.15-1.896l-.516 1.025.015-1.24a2.293 2.293 0 00-2.753 1.255 2.307 2.307 0 00-.204 1.074 2.313 2.313 0 001.52 2.065 2.291 2.291 0 002.483-.62 2.313 2.313 0 00.597-1.663h.008zm-4.112 15.661a2.305 2.305 0 01-1.12 1.057 2.292 2.292 0 01-2.794-.768 2.311 2.311 0 011.528-3.628 2.303 2.303 0 012.496 1.476l-1.439 1.176 1.583-.37a2.31 2.31 0 01-.254 1.057zm-1.139-4.499a2.28 2.28 0 01-.889-.134 2.32 2.32 0 01-1.305-1.193 2.313 2.313 0 01-.214-.877 2.32 2.32 0 011.677-2.336l-.011.955.522-1.039a2.302 2.302 0 011.661.601 2.32 2.32 0 01.152 3.27 2.299 2.299 0 01-1.598.753h.005zm5.598-3.744a2.296 2.296 0 01-1.658-.599 2.314 2.314 0 01-.154-3.264 2.3 2.3 0 012.83-.46l-.407 1.122.838-.808a2.318 2.318 0 01.686 2.234 2.306 2.306 0 01-2.135 1.775z" fill="#57B793"/><path opacity=".1" d="M141.371 91.745c-.533.06-1.05.226-1.584.259s-1.121-.096-1.459-.513c-.182-.224-.273-.508-.427-.752a1.652 1.652 0 00-.58-.549 2.312 2.312 0 001.305 3.17 2.294 2.294 0 002.593-.767 2.32 2.32 0 00.413-.866c-.089.003-.176.01-.261.018zm.657 6.808a2.295 2.295 0 01-2.03-1.023 2.317 2.317 0 01-.164-2.274c.183.124.341.283.464.467.164.249.263.536.456.765.359.424.973.562 1.53.536.557-.027 1.092-.183 1.643-.234.075 0 .154-.014.231-.015a2.305 2.305 0 01-2.13 1.778zm-5.598 3.744a2.299 2.299 0 01-2.194-1.327 2.313 2.313 0 01-.214-.877c-.018-.362.05-.723.199-1.053.191.125.358.284.493.47.179.253.29.545.492.779.39.436 1.044.589 1.633.574.59-.015 1.121-.153 1.689-.196a2.305 2.305 0 01-2.098 1.63zm1.139 4.499a2.298 2.298 0 01-1.284 1.214 2.293 2.293 0 01-2.495-.576 2.298 2.298 0 01-.477-.765 2.305 2.305 0 01.052-1.769c.189.127.36.279.506.454.218.268.363.572.618.824.471.463 1.232.659 1.909.673.391.005.782-.013 1.171-.055z" fill="#000"/><path d="M131.811 110.2s1.818-.056 2.367-.448c.549-.392 2.793-.861 2.936-.231.143.63 2.735 3.132.68 3.142-2.055.01-4.774-.329-5.321-.659-.547-.33-.662-1.804-.662-1.804z" fill="#656380"/><path opacity=".2" d="M137.83 112.444c-2.054.017-4.774-.33-5.321-.659-.416-.254-.583-1.169-.638-1.591h-.06s.115 1.472.657 1.813c.542.341 3.266.673 5.321.66.593 0 .798-.218.787-.531-.077.186-.304.305-.746.308z" fill="#000"/><path d="M31.939 106.161c-1.193-2.215.164-4.929 1.715-6.904 1.55-1.975 3.45-4.029 3.408-6.546-.059-3.617-3.883-5.752-6.939-7.67a33.91 33.91 0 01-6.231-5.025c-.751-.77-1.479-1.591-1.916-2.574-.63-1.414-.614-3.022-.573-4.571.131-5.166.385-10.321.762-15.467" stroke="#3F3D56" stroke-width="4" stroke-miterlimit="10"/><path d="M16.355 57.122a5.63 5.63 0 012.806-4.616l1.258 2.498-.038-3.024a5.603 5.603 0 013.486.101 5.624 5.624 0 012.756 2.144 5.655 5.655 0 01-.23 6.65 5.603 5.603 0 01-6.383 1.804 5.625 5.625 0 01-2.73-2.178 5.656 5.656 0 01-.925-3.374v-.005zM26.38 95.296a5.627 5.627 0 002.597 2.523 5.602 5.602 0 006.69-1.455 5.649 5.649 0 001.323-3.376 5.638 5.638 0 00-2.444-4.92 5.607 5.607 0 00-6.389.037 5.64 5.64 0 00-2.047 2.656l3.51 2.865-3.862-.902a5.593 5.593 0 00.621 2.572zm2.774-10.95a5.61 5.61 0 003.802-1.257 5.657 5.657 0 001.194-7.412 5.624 5.624 0 00-3.214-2.396l.03 2.323-1.265-2.527h-.015a5.61 5.61 0 00-4.048 1.465 5.654 5.654 0 00-.37 7.97 5.614 5.614 0 003.894 1.836l-.008-.002zm-13.646-9.111a5.607 5.607 0 004.597-2.028 5.648 5.648 0 001.148-4.904 5.648 5.648 0 00-3.214-3.87 5.605 5.605 0 00-5.015.251l.986 2.732-2.035-1.974a5.616 5.616 0 00-1.824 3.894 5.643 5.643 0 002.024 4.603 5.61 5.61 0 003.333 1.296z" fill="#57B793"/><path opacity=".1" d="M17.11 58.626c1.298.143 2.56.547 3.861.628 1.301.08 2.732-.231 3.555-1.247.444-.547.666-1.24 1.04-1.836a3.994 3.994 0 011.416-1.337 5.656 5.656 0 01-1.13 6.603 5.618 5.618 0 01-4.359 1.551 5.61 5.61 0 01-4.043-2.251 5.652 5.652 0 01-.982-2.16c.218.01.432.026.642.049zm-1.601 16.609a5.61 5.61 0 004.938-2.507 5.657 5.657 0 00.41-5.538c-.447.3-.831.686-1.131 1.134-.401.607-.643 1.307-1.114 1.865-.876 1.032-2.37 1.37-3.728 1.308-1.357-.06-2.666-.45-4.016-.573a9.208 9.208 0 00-.567-.035 5.642 5.642 0 001.878 3.049 5.609 5.609 0 003.33 1.297zm13.645 9.111a5.604 5.604 0 002.773-.587 5.626 5.626 0 002.135-1.87 5.652 5.652 0 00.484-5.484c-.463.309-.866.7-1.188 1.154-.437.618-.71 1.33-1.22 1.901-.949 1.06-2.542 1.434-3.98 1.4-1.391-.03-2.732-.373-4.115-.48a5.644 5.644 0 001.931 2.793 5.613 5.613 0 003.18 1.173zm-2.774 10.95a5.628 5.628 0 002.597 2.523 5.602 5.602 0 006.69-1.455 5.649 5.649 0 001.324-3.376 5.582 5.582 0 00-.367-2.288 5.632 5.632 0 00-1.232 1.103c-.534.66-.887 1.394-1.505 2.004-1.15 1.131-3.005 1.6-4.656 1.649-.953.003-1.905-.05-2.852-.16z" fill="#000"/><path d="M70.843 109.455l-21.686 4.451-.492-.049-19.058-1.929V87.695l23.329-3.957 16.921 1.978.005.107.002.053.979 23.579z" fill="#0091FF"/><path opacity=".1" d="M70.843 109.455l-21.686 4.451-.493-.049V89.013l21.198-3.19.98 23.632z" fill="#000"/><path opacity=".05" d="M69.864 85.876l-.007.005-21.193 3.132-19.057-1.319 23.329-3.956 16.921 1.978.005.107.002.053z" fill="#000"/><path d="M94.664 110.444l-21.685 4.451-.493-.049-19.057-1.929V88.684l23.328-3.957 16.921 1.978.005.108.002.052.98 23.579z" fill="#3F3D56"/><path opacity=".1" d="M94.664 110.444l-21.685 4.451-.493-.049V90.002l21.197-3.19.981 23.632z" fill="#000"/><path opacity=".05" d="M93.685 86.865l-.007.005-21.192 3.132-19.057-1.318 23.328-3.957 16.921 1.978.005.108.002.052z" fill="#000"/><path d="M79.714 86.705L58.03 91.156l-.493-.049-19.057-1.929V64.945l23.328-3.957 16.921 1.978.006.107.001.053.98 23.58z" fill="#3F3D56"/><path opacity=".1" d="M79.714 86.705L58.03 91.156l-.493-.05V66.264l21.198-3.19.98 23.632z" fill="#000"/><path opacity=".05" d="M78.735 63.126l-.007.005-21.192 3.132-19.057-1.319 23.328-3.956 16.921 1.978.006.107.001.053z" fill="#000"/><path d="M92.035 87.72l-11.317 2.325-.258-.026-9.946-1.007V76.364l12.175-2.066 8.832 1.034.004.056v.026l.51 12.307z" fill="#3F3D56"/><path opacity=".1" d="M92.036 87.72l-11.318 2.325-.258-.026V77.053l11.065-1.665.51 12.333z" fill="#000"/><path opacity=".05" d="M91.525 75.414l-.004.004-11.061 1.635-9.946-.689 12.175-2.066 8.832 1.034.004.056v.026z" fill="#000"/><path d="M61.643 63.157L50.325 65.48l-.258-.024-9.945-1.008V51.801l12.175-2.066 8.832 1.034.003.056v.026l.51 12.306z" fill="#3F3D56"/><path opacity=".1" d="M61.643 63.157L50.326 65.48l-.258-.024V52.49l11.064-1.665.511 12.332z" fill="#000"/><path opacity=".05" d="M61.132 50.851l-.003.003-11.062 1.636-9.945-.69 12.175-2.065 8.832 1.034.003.056v.026z" fill="#000"/><path d="M81.521 62.663l-11.317 2.323-.258-.025L60 63.954V51.306l12.175-2.066 8.832 1.034.003.056v.026l.511 12.307z" fill="#0091FF"/><path opacity=".1" d="M81.522 62.663l-11.318 2.323-.258-.025V51.995l11.065-1.665.51 12.333z" fill="#000"/><path opacity=".05" d="M81.01 50.356l-.003.004-11.061 1.635L60 51.306l12.175-2.066 8.832 1.034.003.056v.026z" fill="#000"/><path d="M87.436 49.97l-11.318 2.322-.258-.025-9.946-1.007V38.612l12.175-2.065 8.832 1.033.004.056v.027l.51 12.306z" fill="#3F3D56"/><path opacity=".1" d="M87.436 49.97l-11.318 2.322-.258-.025V39.301l11.065-1.665.51 12.333z" fill="#000"/><path opacity=".05" d="M86.925 37.663l-.004.003-11.06 1.635-9.947-.689 12.175-2.065 8.832 1.033.004.056v.027z" fill="#000"/><path d="M95.144 24.113c-.12 1.072-.935 1.936-1.237 2.968-.453 1.558.329 3.23 1.406 4.45a9.823 9.823 0 003.094 2.315 9.79 9.79 0 003.744.94 2.94 2.94 0 001.13-.124c.325-.132.618-.334.859-.59.809-.816 1.244-1.945 1.416-3.084.173-1.14.107-2.298.04-3.447 0-.238-.044-.474-.128-.696a1.766 1.766 0 00-.446-.549 10.318 10.318 0 00-1.913-1.396c-.296-.165-.613-.33-.802-.615a2.01 2.01 0 01-.248-.737l-.212-1.082a2.132 2.132 0 00-.311-.877c-.373-.504-1.087-.573-1.713-.598l-2.3-.09c-.715-.029-1.654-.235-2.353-.093-.657.13-.435.734-.317 1.28.171.663.269 1.342.291 2.025z" fill="#FFC0C6"/><path opacity=".1" d="M95.144 24.113c-.12 1.072-.935 1.936-1.237 2.968-.453 1.558.329 3.23 1.406 4.45a9.823 9.823 0 003.094 2.315 9.79 9.79 0 003.744.94 2.94 2.94 0 001.13-.124c.325-.132.618-.334.859-.59.809-.816 1.244-1.945 1.416-3.084.173-1.14.107-2.298.04-3.447 0-.238-.044-.474-.128-.696a1.766 1.766 0 00-.446-.549 10.318 10.318 0 00-1.913-1.396c-.296-.165-.613-.33-.802-.615a2.01 2.01 0 01-.248-.737l-.212-1.082a2.132 2.132 0 00-.311-.877c-.373-.504-1.087-.573-1.713-.598l-2.3-.09c-.715-.029-1.654-.235-2.353-.093-.657.13-.435.734-.317 1.28.171.663.269 1.342.291 2.025z" fill="#000"/><path d="M109.751 72.376l-.976 10.736c-.255 2.815-.515 5.642-1.014 8.422a37.39 37.39 0 01-.614 2.855c-.667 2.623-1.635 5.187-1.947 7.875-.01.078-.018.165-.026.236-.065.594-.12 1.194-.329 1.748-.164.41-.396.784-.565 1.19-.329.811-.381 1.708-.422 2.586a11.113 11.113 0 00-3.827-1.318c-.657-.098-1.371-.165-1.807-.66-.493-.537-.435-1.36-.353-2.082.258-2.242.516-4.483.772-6.723.086-.964.25-1.919.493-2.855.089-.312.196-.618.304-.925.15-.422.3-.844.414-1.278a15.39 15.39 0 00.325-2.115c.265-2.255.583-4.505.863-6.759l.015-.118c.418-3.416.737-6.848.645-10.289a39.272 39.272 0 00-.067-1.53c-.046-.74-.114-1.132.493-1.596.675-.51 1.564-.868 2.336-1.203.415-.181 4.992-1.813 5.093-1.454.212.763.323 1.552.328 2.344.009.973-.035 1.946-.134 2.913z" fill="#605D82"/><path opacity=".1" d="M107.761 91.534a37.39 37.39 0 01-.614 2.855c-.667 2.623-1.635 5.187-1.947 7.875-.01.078-.018.165-.026.236-2.041-2.924-3.759-6.07-5.75-9.026.15-.422.3-.844.414-1.277a15.4 15.4 0 00.341-2.129c.265-2.255.584-4.505.863-6.759l.015-.118c.115.478.28.943.492 1.386 1.338 2.727 4.515 4.105 6.069 6.715.052.08.099.162.143.242z" fill="#000"/><path d="M91.204 67.56c.068 2.187.416 4.355.764 6.514l.718 4.451c.393 2.44.804 4.928 1.954 7.112.86 1.635 2.1 3.03 3.221 4.496 2.757 3.603 4.829 7.687 7.442 11.396.761 1.078 1.847 2.245 3.143 2.02.851-.147 1.469-.859 2.136-1.407.788-.646 1.738-1.119 2.359-1.93.621-.811.743-2.156-.099-2.733-.287-.197-.637-.27-.962-.396-1.303-.495-2.148-1.774-2.683-3.066-.536-1.293-.863-2.68-1.577-3.881-1.554-2.61-4.733-3.988-6.071-6.716-.749-1.527-.821-3.297-.877-4.99l-.146-4.338c-.016-.474-.028-.967.164-1.401.511-1.154 2.055-1.263 3.307-1.41A11.263 11.263 0 00108.05 70c.721-.39 1.425-.889 1.807-1.614.352-.66.4-1.436.441-2.184l.433-7.862c.038-.676.071-1.377-.164-2.01-.596-1.592-2.601-2.113-4.294-2.037-3.151.141-6.059 1.501-9.036 2.421a23.03 23.03 0 01-2.24.585c-.656.134-1.478.08-2.109.294-1.13.382-1.102 2.865-1.261 3.894a32.803 32.803 0 00-.423 6.075z" fill="#605D82"/><path d="M108.019 103.881c.278.282.368.695.44 1.084.402 2.159.611 4.35.625 6.546-.018.205.022.411.116.593a.757.757 0 00.307.248c.804.384 1.735-.152 2.406-.74 1.24-1.09 2.29-2.554 2.36-4.208.018-.425-.029-.855.045-1.276.108-.623.471-1.165.79-1.709.545-.927.986-1.913 1.314-2.938.122-.386.204-.87-.098-1.139a1.05 1.05 0 00-.357-.186l-3.631-1.352c-.315-.117-1.097 1.899-1.22 2.12-.304.539-.606.844-1.216.969-.609.126-1.362-.056-1.943.256-.986.526-.495 1.17.062 1.732zm-5.599 1.245a1.108 1.108 0 00-.276-.351 1.247 1.247 0 00-.557-.19c-.69-.118-1.508-.196-1.986.32-.447.483-.37 1.27-.743 1.814-.118.165-.279.313-.38.494a1.863 1.863 0 00-.165.887c-.02.839-.04 1.682.02 2.519.047.702.164 1.439.603 1.99.703.884 1.971 1.011 3.095 1.067l.911.047c.251.03.505.006.746-.069a1.211 1.211 0 00.644-.71c.475-1.184-.276-2.458-.739-3.645-.534-1.367-.439-2.882-1.173-4.173z" fill="#535070"/><path d="M94.881 18.071a.75.75 0 01.051-.352c.133-.236.481-.165.744-.106 1.057.267 2.17.025 3.26.087 1.089.063 2.315.609 2.533 1.68a7.938 7.938 0 002.009-2.07c.303-.454.565-.973.524-1.517-.059-.785-.714-1.371-1.314-1.87l-1.807-1.483a2.743 2.743 0 00-.812-.518c-.417-.143-.874-.074-1.314-.074-1.314 0-2.724-.602-3.895 0-.493.252-.86.686-1.214 1.108l-1.615 1.919a1.025 1.025 0 00-.26.44c-.046.234.074.465.117.7.075.43-.109.887.033 1.3.235.682 1.063.78 1.569 1.172.187.145.483.641.708.635.396-.009.672-.734.683-1.05z" fill="#3F3D56"/><path d="M97.621 23.73c2.859 0 5.175-2.324 5.175-5.192 0-2.868-2.316-5.193-5.175-5.193-2.858 0-5.174 2.325-5.174 5.193 0 2.868 2.316 5.193 5.174 5.193z" fill="#FFC0C6"/><path d="M98.834 29.901a2.501 2.501 0 00-2.433-1.685.728.728 0 01-.45-.057.624.624 0 01-.186-.231 9.207 9.207 0 01-.754-1.79c-.082-.276-.196-.6-.473-.671-.224-.058-.452.087-.602.264-.132.189-.276.37-.43.542-.657.584-1.807.051-2.495.587-.114.087-.207.2-.329.28a1.496 1.496 0 01-.38.165 36.33 36.33 0 00-3.923 1.538c.46 2.776.93 5.605 2.008 8.201.513 1.237 1.092 2.449 1.503 3.723.91 2.824.95 5.846.961 8.815 0 2.03 0 4.105-.657 6.027-.148.435-.329.867-.37 1.319-.04.451.094.962.464 1.233.214.141.46.228.714.252 1.136.165 2.279-.135 3.396-.396 2.995-.695 6.051-1.094 9.098-1.483l5.109-.66a2.984 2.984 0 001.058-.275c.935-.513 1.024-1.924.442-2.82-.277-.431-.67-.784-.905-1.239-.235-.455-.253-1.094.15-1.41.821-.642.575-1.834.614-2.876.11-2.915.095-5.827-.044-8.737a17.141 17.141 0 01-.03-1.814c.058-1.025.311-2.03.564-3.027l1.552-6.132c-.406-.643-1.183-1.052-1.917-1.236-.734-.185-1.502-.24-2.226-.465-1.479-.462-2.806-1.632-4.355-1.524a.797.797 0 00-.339.083c-.348.2-.294.704-.315 1.106-.049.892-.703 1.635-1.423 2.158-.719.523-1.544.902-2.206 1.497a.99.99 0 00-.391.738z" fill="#3F3D56"/><path d="M78.33 35.719a6.07 6.07 0 01-1.088.562c-.362.144-.748.257-1.043.508-.147.127-.27.28-.363.45a2.005 2.005 0 00.81 2.753c.316.166.67.244 1.026.226.475-.025.924-.218 1.359-.407l3.65-1.594c.618-.27 1.285-.582 1.578-1.192a.288.288 0 00.036-.19.311.311 0 00-.151-.165 8.185 8.185 0 01-2.125-2.011c-.15-.204-.328-.686-.545-.81-.772-.43-2.525 1.468-3.145 1.87zm39.02-1.294l1.346 1.543c.289.33.578.66.841 1.015a11.841 11.841 0 011.541 2.914c.292.77.535 1.59.434 2.408-.069.42-.182.83-.337 1.225-.247.76-.553 1.498-.915 2.209a12.53 12.53 0 01-1.024 1.545 36.027 36.027 0 01-3.412 3.915c-.46.457-.657 1.197-.853 1.813-.369 1.14-1.248 2.028-2.097 2.869a5.85 5.85 0 01-.902.778 2.918 2.918 0 01-1.643.468 1.805 1.805 0 01-.738-.153c-.581-.277-.877-.951-.938-1.594a3.42 3.42 0 01.283-1.708c.772-1.716 2.755-2.46 4.156-3.713.821-.733 1.451-1.657 2.072-2.568.42-.57.772-1.188 1.046-1.842.312-.839.191-1.831.465-2.682.115-.36.329-.686.445-1.043.117-.358.156-.782-.062-1.09a1.57 1.57 0 00-.61-.449c-.895-.454-1.897-1.041-2.068-2.035a2.187 2.187 0 01.401-1.555 6.418 6.418 0 011.128-1.187c.39-.353 1.049-.744 1.441-1.083z" fill="#FFC0C6"/><path d="M77.465 37.872c-.236-.481-.534-.973-1.013-1.212a1.86 1.86 0 00-1.479 0c-.465.202-.9.466-1.294.785l-1.16.859a2.857 2.857 0 00-.689.638 2.661 2.661 0 00-.358.99c-.164.802-.297 1.628-.182 2.44.184 1.32.972 2.46 1.84 3.463.542.623 1.212 1.252 2.037 1.28.356.012.752-.13.9-.455.052-.128.079-.266.08-.405.09-1.464-.433-2.893-1.04-4.227-.165-.363-.343-.739-.33-1.136a.307.307 0 01.05-.191.319.319 0 01.197-.097c.833-.165 2.269.484 2.852-.444.378-.613-.141-1.742-.41-2.288z" fill="#FFC0C6"/><path d="M94.608 16.438a.77.77 0 01.053-.353c.133-.238.481-.165.744-.106 1.056.267 2.17.025 3.26.088 1.089.062 2.313.608 2.533 1.68a7.995 7.995 0 002.009-2.071c.302-.455.565-.974.524-1.518-.059-.785-.716-1.372-1.314-1.868l-1.807-1.484a2.743 2.743 0 00-.81-.517c-.42-.144-.874-.075-1.315-.075-1.314 0-2.724-.601-3.895 0-.493.253-.86.686-1.214 1.108l-1.617 1.92c-.121.122-.21.273-.258.44-.046.233.075.464.117.7.076.428-.108.887.033 1.297.235.684 1.063.782 1.569 1.174.187.145.483.641.708.635.39-.008.665-.734.68-1.05zm-10.99 14.23a2.15 2.15 0 00-.542.506c-.19.288-.229.66-.391.956-.349.65-1.165.882-1.673 1.415a.526.526 0 00-.164.277.614.614 0 00.136.399l2.455 3.87c.821.073 1.6-.441 2.418-.372.304.024.618.13.91.04.209-.094.405-.214.583-.358.493-.31 1.137-.347 1.546-.754.41-.407.444-1.005.439-1.56a6.18 6.18 0 00-.146-1.435c-.362-1.484-1.494-2.628-2.203-3.944-.347-.64-.535-1.015-1.266-.575-.73.44-1.41 1.027-2.102 1.535zm29.803-1.957c.461.3.877.666 1.235 1.085.373.483.585 1.076.945 1.57.359.495.821.852 1.215 1.293.6.67 1.006 1.484 1.403 2.294a34.229 34.229 0 01-3.174 3.593c-.127.15-.295.26-.483.317a.772.772 0 01-.68-.279c-.177-.184-.302-.415-.471-.608a2.42 2.42 0 00-1.5-.727 10.278 10.278 0 00-1.701-.025.656.656 0 01-.363-.06.605.605 0 01-.197-.228c-.657-1.135-.452-2.559-.217-3.855l.538-2.967c.078-.567.229-1.12.448-1.649.204-.436.657-1.178 1.219-1.046.562.131 1.308.95 1.783 1.292z" fill="#3F3D56"/><path d="M66.571 50.464l-11.317 2.322-.258-.024-9.946-1.008V39.108l12.175-2.066 8.832 1.034.003.056v.026l.511 12.307z" fill="#0091FF"/><path opacity=".1" d="M66.572 50.464l-11.318 2.322-.258-.024V39.796l11.065-1.665.51 12.333z" fill="#000"/><path opacity=".05" d="M66.06 38.157l-.003.004-11.061 1.635-9.946-.69 12.175-2.065 8.832 1.034.003.056v.026z" fill="#000"/><path d="M72.486 37.935l-11.318 2.324-.258-.026-9.946-1.008V26.578l12.175-2.066 8.833 1.034.003.056v.026l.51 12.307z" fill="#3F3D56"/><path opacity=".1" d="M72.486 37.935l-11.318 2.324-.258-.026V27.267l11.065-1.665.51 12.333z" fill="#000"/><path opacity=".05" d="M71.975 25.628l-.003.004-11.062 1.635-9.946-.69 12.175-2.065 8.833 1.034.003.056v.026z" fill="#000"/></g><defs><clipPath id="clip0"><path fill="#fff" d="M0 0h156v116H0z"/></clipPath></defs></svg>