<svg width="184" height="116" fill="none" xmlns="http://www.w3.org/2000/svg"><g clip-path="url(#clip0)"><path d="M141.62 87.618c7.569-18.948 5.279-40.105-4.482-56.354L34.958 45.43l97.921-20.435C91.609-26.54 11.284 7.643 19.027 72.709L141.62 87.62z" fill="#E6E6E6"/><path d="M146.126 66.673H15.948v40.593h130.178V66.673z" fill="#0091FF"/><path d="M52.253 61.723c1.168.908 1.595 1.201 1.844 1.164 12.051 3.514 1.487 7.633-4.369.642l2.525-1.806zM12.487 98.85v8.251l5.932-.33-1.647-8.58-4.285.66zm32.957 0v8.251l-5.933-.33 1.648-8.58 4.285.66z" fill="#FFB8B8"/><path d="M27.318 56.278l8.898-.33C56.743 77.498 48.98 72.582 48.41 102.15l-10.876-3.3 2.307-20.461c.001 0 .609-.406.104-.416-3.158 1.087-5.461-12.366-12.298-10.805-7.78-.372-9.045 11.184-12.194 11.22L17.76 98.85l-10.875 3.3C5.667 69.658-.301 76.998 19.079 55.948l8.239.33zm-13.183 48.183s-1.318-2.641-2.966-1.321c-1.648 1.321-5.603 5.281-5.603 5.281s-9.557 4.29-3.625 6.93c5.932 2.64 10.876-3.63 10.876-3.63 5.65-1.18 8.91-1.935 5.913-8.107-1.701.737-4.109 1.591-4.595.847zm29.661 0s1.318-2.641 2.966-1.321c1.648 1.321 5.603 5.281 5.603 5.281s9.557 4.29 3.625 6.93c-5.932 2.64-10.876-3.63-10.876-3.63-5.65-1.18-8.91-1.935-5.913-8.107 1.701.737 4.109 1.591 4.595.847z" fill="#2F2E41"/><path d="M36.216 18.985c-.49 8.216-11.687 7.493-11.864 0 .49-8.215 11.687-7.492 11.864 0z" fill="#FFB8B8"/><path d="M27.647 23.276C30.53 32 23.724 27.25 33.25 34.166l3.625-7.26s-2.636-.99-2.307-4.62l-6.92.99z" fill="#FFB8B8"/><path d="M45.444 28.226l-9.825-2.246c.277 5.932-6.045 4.738-7.148 1.755l-9.393 5.441c3.943 14.703 2.944 15.31-2.306 24.752-2.004 1.832.992 2.882 3.601 1.88 1.99-1.23 3-2.323 5.132-2.045 10.074 2.1 18.461 2.596 19.788 1.776.475-.681-.014-31.195.15-31.313z" fill="#575A89"/><path d="M42.807 28.886c.33 0 2.028-.8 2.028-.8 4.939-.083 8.253 33.186 8.518 34.132l-3.295 2.31-5.273-13.53-1.978-22.112z" fill="#575A89"/><path d="M19.738 67.498c.168 1.246.455 15.233 5.459 8.7.656-4.768-1.576-6.19-2.163-9.36l-3.296.66z" fill="#FFB8B8"/><path d="M21.056 33.176l-1.01-.56c-2.707-.09-1.854 7.087-3 12.342-.935 6.122-.669 12.873.43 21.898.095 3.312 6.02 1.226 6.876.972 0 0-1.978-13.53-.99-15.84.99-2.31-2.306-18.812-2.306-18.812z" fill="#575A89"/><path d="M35.957 13.227a7.072 7.072 0 00-4.022-3.08l-1.23.986.478-1.15a6.5 6.5 0 00-1.215-.07l-1.107 1.425.459-1.376c-4.748.51-7.557 5.968-5.092 9.788.38-1.17.841-2.268 1.222-3.438.298.04.601.042.9.004l.463-1.08.13 1.035c1.433-.126 3.56-.4 4.919-.652l-.132-.794.79.66c.417-.096.664-.183.643-.25 1.011 1.632 2.013 2.675 3.024 4.307.384-2.302 1.061-4.216-.23-6.315z" fill="#2F2E41"/><path d="M138.335 71.57h-28.75v13.656h28.75V71.57z" fill="#fff"/><path d="M132.898 74.43h-17.876v1.638h17.876V74.43zm0 3.15h-17.876v1.637h17.876v-1.638zm0 3.148h-17.876v1.638h17.876v-1.638z" fill="#E6E6E6"/><path d="M84.549 74.814l-.936-1.622-.935-1.622-.935 1.622-.935 1.622h1.005v4.697h1.73v-4.697h1.005z" fill="#fff"/><path d="M147.915 108.234c4.253 0 7.7-3.452 7.7-7.711s-3.447-7.711-7.7-7.711-7.7 3.452-7.7 7.711 3.447 7.711 7.7 7.711z" fill="#3F3D56"/><path d="M149.315 103.94a3.415 3.415 0 003.413-3.417 3.415 3.415 0 00-3.413-3.417 3.414 3.414 0 00-3.412 3.417 3.414 3.414 0 003.412 3.417z" fill="#E6E6E6"/><path d="M143.059 105.912l16.8 7.01-.525 1.665-9.669-1.096-16.363-7.272 9.1 1.051.657-1.358z" fill="#3F3D56"/><path d="M157.91 112.606l20.895-68.638 5.088-9.049.018-.087c.017-.08.39-1.971-.529-3.341a2.991 2.991 0 00-2.023-1.276c-2.809-.528-9.091-.788-9.357-.798l-.051-.002-.049.006c-.172.024-4.187.611-5.095 4.123l-4.368 7.96-.017.058-19.776 65.104 1.088.332 19.759-65.048 4.383-7.989.017-.073c.642-2.642 3.711-3.26 4.119-3.33.642.027 6.547.29 9.137.776a1.88 1.88 0 011.286.788c.567.84.425 2.077.375 2.402l-5.057 8.993-.018.06-20.914 68.697 1.089.332z" fill="#3F3D56"/><path d="M160.965 48.087l-.202 1.121 15.091 2.73.202-1.121-15.091-2.73zm-2.819 9.323l-.227 1.116 14.983 3.062.228-1.116-14.984-3.062zm-5.018 16.673l-.313 1.095 14.628 4.191.313-1.095-14.628-4.191zm9.893 32.316l.415-1.061-14.199-5.568-.698-7.56 13.253 4.957 4.293 6.221.936-.648-4.496-6.515-15.285-5.717.929 10.067 14.852 5.824z" fill="#3F3D56"/><path d="M167.953 115.594c4.253 0 7.701-3.452 7.701-7.711 0-4.258-3.448-7.711-7.701-7.711-4.252 0-7.7 3.453-7.7 7.711 0 4.259 3.448 7.711 7.7 7.711z" fill="#3F3D56"/><path d="M169.966 111.651a3.414 3.414 0 003.412-3.417 3.414 3.414 0 00-3.412-3.417 3.415 3.415 0 00-3.413 3.417 3.415 3.415 0 003.413 3.417z" fill="#E6E6E6"/></g><defs><clipPath id="clip0"><path fill="#fff" d="M0 0h184v116H0z"/></clipPath></defs></svg>