<svg width="158" height="120" fill="none" xmlns="http://www.w3.org/2000/svg"><g clip-path="url(#clip0)"><path opacity=".1" d="M156.571 100.84c-1.469 6.24-4.357 12.626-9.6 16.185a18.23 18.23 0 01-.583.382 25.63 25.63 0 01-.875.509c-.076.042-.146.081-.227.12-.639.328-1.298.613-1.974.854-5 1.795-10.741 1.21-15.906-.325a56.204 56.204 0 01-2.876-.947 84.569 84.569 0 01-2.248-.841h-.017a5.979 5.979 0 01-.354-.145l-.388-.146c-.688-.272-1.375-.55-2.06-.833-.807-.329-1.614-.661-2.42-.989-2.319-.944-4.65-1.852-7.045-2.582a50.101 50.101 0 00-3.015-.822c-3.019-.736-6.091-1.246-9.167-1.724l-1.594-.244a210.332 210.332 0 00-4.877-.706 73.57 73.57 0 00-5.102-.506c-3.207-.195-6.414-.111-9.56.519-2.39.478-4.72 1.265-7.02 2.177-7.4 2.928-14.495 7.123-22.304 6.414-3.892-.352-7.556-1.926-11.104-3.555-5.092-2.337-10.172-4.871-14.61-8.222a39.625 39.625 0 01-3.58-3.035c-.031-.027-.062-.058-.093-.087l-.026-.026-.035-.033-.057-.055a39.605 39.605 0 01-2.392-2.548l-.685-.812a58.043 58.043 0 01-3.103-4.165l-.314-.453-.18-.267a99.799 99.799 0 01-1.786-2.785 244.851 244.851 0 01-2.624-4.354c-1.471-2.468-2.97-5.016-3.477-7.837-.295-1.69-.263-3.42.093-5.099.133-.644.3-1.28.502-1.907.03-.091.058-.18.09-.27.341-1 .744-1.98 1.204-2.931 3.168-6.64 8.802-13.001 8.6-20.34-.158-5.66-3.773-10.533-6.514-15.493-2.74-4.96-4.618-11.352-1.458-16.062 2.674-3.997 7.944-5.225 12.728-5.836 4.87-.634 9.776-.956 14.688-.966 3.722-.013 7.257.837 10.904.958 4.464.145 9.41-1.92 13.703-2.993l14.91-3.718C81.23 2.183 89.814.06 98.563 0c8.747-.06 17.811 2.177 24.434 7.868 2.268 1.952 4.252 4.346 5.167 7.19 1.904 5.913-1.1 12.549.729 18.485 1.582 5.113 6.314 8.467 10.305 12.046 15.107 13.562 22.018 35.54 17.373 55.251z" fill="#0091FF"/><path d="M120.909 106.739l-.646.421 1.222 8.737 3.031 1.724 22.456-.22-.407-5.145-25.656-5.517z" fill="#3A3768"/><path d="M121.508 116.482c-.688-.273-1.374-.551-2.06-.833v-4.225l1.881.855v.029l.153 3.589.026.585z" fill="#3A3768"/><path opacity=".1" d="M121.508 116.482c-.688-.273-1.374-.551-2.06-.833v-4.225l1.881.855v.029l.153 3.589.026.585z" fill="#000"/><path d="M145.271 118.038c-.638.328-1.297.613-1.974.853h-.016v-4.232l1.879.855v.03l.08 1.876.031.618z" fill="#3A3768"/><path opacity=".1" d="M145.271 118.038c-.638.328-1.297.613-1.974.853h-.016v-4.232l1.879.855v.03l.08 1.876.031.618z" fill="#000"/><path d="M146.971 113.626v3.773h-.583l-21.866.212a78.905 78.905 0 01-2.248-.842h-.018l-.37-4.413 25.085 1.27z" fill="#3A3768"/><path d="M122.268 116.778h-.018a5.604 5.604 0 01-.354-.145l-.413-.736-1.842-3.304-.193-.346-.552-.988 1.366-4.091 1.577 5.069.041.129.102 1.161.286 3.251zm-2.82-12.232h20.008l8.29 8.364-25.865-.55-2.433-7.814z" fill="#3A3768"/><path d="M147.746 112.91v1.211l-25.764-.605-.101-1.156 25.865.55z" fill="#3A3768"/><path opacity=".1" d="M147.746 112.91v1.211l-25.764-.605-.101-1.156 25.865.55z" fill="#000"/><path d="M129.563 96.78s-4.256.221-4.588 0c-.332-.22-7.168.275-7.646.33-.478.055-5.341.334-5.341.334l-.388 7.758 17.355-2.696.608-5.725z" fill="#F3B4B3"/><path opacity=".1" d="M129.563 96.78s-4.256.221-4.588 0c-.332-.22-7.168.275-7.646.33-.478.055-5.341.334-5.341.334l-.388 7.758 17.355-2.696.608-5.725z" fill="#000"/><path d="M89.988 88.77l19.596 4.568.793 11.988-23.105.09 2.716-16.645z" fill="#3A3768"/><path d="M104.966 67.757l-14.114 8.17 3.437 10.197.782 13.163 10.195-2.171 5.111-10.437 4.558-6.355-4.191-7.695-5.778-4.872z" fill="#3A3768"/><path d="M23.212 77.295s-4.79-9.918-2.388-18.182a16.6 16.6 0 00-.356-10.542 27.996 27.996 0 00-2.256-4.608" stroke="#535461" stroke-width="2" stroke-miterlimit="10"/><path d="M19.688 38.746c.21 1.277-1.506 5.358-1.506 5.358s-2.928-3.327-3.138-4.604c-.1-.613.048-1.24.412-1.745a2.36 2.36 0 013.284-.534c.507.363.848.911.948 1.525zm4.999 6.451c-.52 1.185-4.188 3.683-4.188 3.683s-.644-4.377-.123-5.563a2.348 2.348 0 011.299-1.242 2.363 2.363 0 011.8.036c.572.25 1.02.715 1.248 1.293a2.333 2.333 0 01-.036 1.793zm1.815 12.113c-1.051.761-5.484 1.075-5.484 1.075s1.665-4.103 2.716-4.864a2.361 2.361 0 013.287.516 2.336 2.336 0 01-.518 3.274h-.001zm-.702 9.475c-.906.927-5.22 1.98-5.22 1.98s.942-4.323 1.849-5.25a2.354 2.354 0 012.558-.541 2.356 2.356 0 011.29 1.25 2.334 2.334 0 01-.476 2.56zM15.662 49.918c1.067.74 5.504.965 5.504.965s-1.749-4.064-2.81-4.808a2.358 2.358 0 00-2.65-.093 2.348 2.348 0 00-1.045 1.492 2.335 2.335 0 001 2.444zm-.678 11.098c1.24.389 5.54-.718 5.54-.718s-2.887-3.363-4.127-3.752a2.364 2.364 0 00-1.767.185 2.335 2.335 0 00-.988 3.125c.277.546.759.962 1.34 1.16h.002zm.826 10.861c1.157.593 5.584.226 5.584.226s-2.276-3.8-3.432-4.392a2.359 2.359 0 00-3.168 1.012 2.333 2.333 0 00.298 2.586c.2.235.444.428.719.569z" fill="#0091FF"/><path opacity=".25" d="M19.688 38.746c.21 1.277-1.506 5.358-1.506 5.358s-2.928-3.327-3.138-4.604c-.1-.613.048-1.24.412-1.745a2.36 2.36 0 013.284-.534c.507.363.848.911.948 1.525zm4.999 6.451c-.52 1.185-4.188 3.683-4.188 3.683s-.644-4.377-.123-5.563a2.348 2.348 0 011.299-1.242 2.363 2.363 0 011.8.036c.572.25 1.02.715 1.248 1.293a2.333 2.333 0 01-.036 1.793zm1.815 12.113c-1.051.761-5.484 1.075-5.484 1.075s1.665-4.103 2.716-4.864a2.361 2.361 0 013.287.516 2.336 2.336 0 01-.518 3.274h-.001zm-.702 9.475c-.906.927-5.22 1.98-5.22 1.98s.942-4.323 1.849-5.25a2.354 2.354 0 012.558-.541 2.356 2.356 0 011.29 1.25 2.334 2.334 0 01-.476 2.56zM15.662 49.918c1.067.74 5.504.965 5.504.965s-1.749-4.064-2.81-4.808a2.358 2.358 0 00-2.65-.093 2.348 2.348 0 00-1.045 1.492 2.335 2.335 0 001 2.444zm-.678 11.098c1.24.389 5.54-.718 5.54-.718s-2.887-3.363-4.127-3.752a2.364 2.364 0 00-1.767.185 2.335 2.335 0 00-.988 3.125c.277.546.759.962 1.34 1.16h.002zm.826 10.861c1.157.593 5.584.226 5.584.226s-2.276-3.8-3.432-4.392a2.359 2.359 0 00-3.168 1.012 2.333 2.333 0 00.298 2.586c.2.235.444.428.719.569z" fill="#000"/><path d="M23.233 76.93s-8.417-7.134-9.583-15.659a16.652 16.652 0 00-4.622-9.494 28.136 28.136 0 00-3.936-3.299" stroke="#535461" stroke-width="2" stroke-miterlimit="10"/><path d="M4.322 43.11c.712 1.082.803 5.506.803 5.506s-4.03-1.86-4.742-2.942a2.337 2.337 0 011.512-3.64A2.362 2.362 0 014.32 43.11h.003zm7.196 3.879c0 1.295-2.333 5.056-2.333 5.056s-2.37-3.741-2.376-5.034a2.335 2.335 0 01.66-1.698 2.356 2.356 0 012.597-.535 2.352 2.352 0 011.284 1.297c.116.29.172.601.166.914h.002zm6.589 10.345c-.652 1.119-4.576 3.193-4.576 3.193s-.146-4.42.502-5.541a2.363 2.363 0 013.216-.853 2.334 2.334 0 01.857 3.202zm3.215 8.944c-.451 1.212-3.968 3.919-3.968 3.919s-.892-4.335-.446-5.553a2.349 2.349 0 011.23-1.286 2.364 2.364 0 011.782-.06 2.35 2.35 0 011.313 1.203c.262.556.294 1.193.09 1.773v.004zM5.188 54.948c1.277.247 5.424-1.338 5.424-1.338s-3.25-3.016-4.526-3.263a2.362 2.362 0 00-1.738.38 2.336 2.336 0 00-.628 3.22c.34.512.866.871 1.468 1.001zM9.082 65.36c1.291-.145 4.774-2.891 4.774-2.891s-4.008-1.91-5.3-1.765a2.36 2.36 0 00-1.576.866 2.335 2.335 0 00.371 3.293 2.36 2.36 0 001.73.497zm5.179 9.605c1.297.073 5.197-2.048 5.197-2.048s-3.627-2.556-4.924-2.632a2.36 2.36 0 00-1.674.607 2.34 2.34 0 001.401 4.073z" fill="#0091FF"/><path d="M97.804 103.34v6.192l-1.593-.244a215.886 215.886 0 00-4.878-.707l-.185-2.987-.014-.268-.21-3.383 6.24 1.264.18.036.46.097z" fill="#3A3768"/><path opacity=".1" d="M97.804 103.34v6.192l-1.593-.244a215.886 215.886 0 00-4.878-.707l-.185-2.987-.014-.268-.21-3.383 6.24 1.264.18.036.46.097z" fill="#000"/><path d="M90.106 102.758l-1.87 2.568-.199.268-.328.452-1.48 2.031c-3.207-.195-6.413-.111-9.56.519-2.39.479-4.72 1.265-7.02 2.177-.956-1.491-2.427-3.307-4.529-4.724a14.64 14.64 0 00-.711-.452 13.472 13.472 0 00-3.625-1.485l29.322-1.354zM15.455 99.62l3.567-5.06.312-.435.186-.266 1.63-2.313h-.05c-.584-.027-5.941-.243-11.704-.394.584.938 1.18 1.866 1.788 2.785l.179.267.303.447a58.013 58.013 0 003.104 4.166l.685.804zm89.584-31.864l-1.579 1.001-3.55 2.254-5.715 3.628-.423.267.135 4.199-25.112 1.213h-27.69l-7.47-1.859-.155-.039-.156-.04-1.477-.368-6.493-1.612-21.97-2.547c.132-.644.3-1.281.5-1.907l.091-.27c.341-1 .744-1.98 1.204-2.932 11.573-.808 24.901-.956 28.398-.98l.875-.008h70.587z" fill="#3A3768"/><path opacity=".1" d="M90.107 102.758l-29.32 1.35a13.56 13.56 0 014.337 1.938H87.72l2.388-3.288zM21.15 91.541l-1.627 2.314-.186.265-.312.436h-.577l-6.779.08-.309-.437-.18-.267a99.821 99.821 0 01-1.786-2.785c5.762.145 11.124.367 11.702.393l.054.001z" fill="#000"/><path d="M97.164 74.918v30.676h-37.87l-.543-5.134s-4.54-.262-9.767-1.106c-.3-.051-.603-.1-.91-.154a69.21 69.21 0 01-3.762-.75l-.249-.059a46.043 46.043 0 01-2.703-.712 36.937 36.937 0 01-1.777-.58c-1.972-.712-3.644-1.564-4.724-2.583l-.806-.02-9.01-.226h-.378l-5.331-.137-.491-.011-7.474.09-.18-.267a99.952 99.952 0 01-1.787-2.785 244.844 244.844 0 01-2.624-4.354c-1.47-2.468-2.969-5.016-3.476-7.837-.295-1.69-.264-3.42.093-5.099.133-.644.3-1.28.502-1.907h29.742l.18.054.987.29.156.046.156.047c2.69.798 8.224 2.39 9.646 2.39h2.493l12.907.032 11.94.034c8.647.02 17.126.043 21.664.055l3.396.007z" fill="#3A3768"/><path opacity=".1" d="M97.164 74.65v30.676h-37.87l-.543-5.135s-4.519-.261-9.734-1.103c-.174-.03-.35-.058-.527-.087a75.97 75.97 0 01-3.921-.763l-.18-.041-.117-.028-.317-.075a38.728 38.728 0 01-1.274-.316 36.38 36.38 0 01-1.358-.382 31.936 31.936 0 01-1.802-.592c-1.945-.707-3.592-1.552-4.665-2.559l-.364-.01-9.22-.232h-.37l-5.38-.145-.452-.012h-.226l-7.659.093a99.947 99.947 0 01-1.787-2.785A244.911 244.911 0 016.774 86.8c-1.47-2.467-2.97-5.016-3.477-7.837-.295-1.69-.263-3.42.094-5.099.133-.644.3-1.28.501-1.907.03-.091.058-.18.09-.27H33.64l.21.066c.208.062.56.17 1.02.305l.155.046c.05.014.1.032.154.046 2.713.794 8.178 2.363 9.59 2.363h2.624l13.05.033 11.908.03 21.842.059 2.972.014z" fill="#000"/><path opacity=".1" d="M97.164 74.918v30.676h-37.87l-.543-5.134s-4.54-.262-9.767-1.106c-.3-.051-.603-.1-.91-.154a69.21 69.21 0 01-3.762-.75l-.249-.059a46.043 46.043 0 01-2.703-.712 36.937 36.937 0 01-1.777-.58c-1.972-.712-3.644-1.564-4.724-2.583l-.806-.02-9.01-.226h-.378l-5.331-.137-.491-.011-7.474.09-.18-.267a99.952 99.952 0 01-1.787-2.785 244.844 244.844 0 01-2.624-4.354c-1.47-2.468-2.969-5.016-3.476-7.837-.295-1.69-.264-3.42.093-5.099.133-.644.3-1.28.502-1.907h29.742l.18.054.987.29.156.046.156.047c2.69.798 8.224 2.39 9.646 2.39h2.493l12.907.032 11.94.034c8.647.02 17.126.043 21.664.055l3.396.007z" fill="#000"/><path d="M105.039 67.757v4.86l-7.873 5.855-3.394-3.563 11.267-7.152z" fill="#3A3768"/><path opacity=".1" d="M105.039 67.757v4.86l-7.873 5.855-3.394-3.563 11.267-7.152z" fill="#000"/><path d="M109.113 73.114l-4.074-.498-7.873 5.856v3.064l11.947-8.422z" fill="#3A3768"/><path d="M110.834 67.757v10.175l2.623 2.883-16.291 15.66v-14.94l11.947-8.421-4.074-.498v-4.859h5.795z" fill="#3A3768"/><path opacity=".1" d="M110.834 67.757v10.175l2.623 2.883-16.291 15.66v-14.94l11.947-8.421-4.074-.498v-4.859h5.795z" fill="#000"/><path opacity=".1" d="M111.829 80.905l10.678-.58-.815 8.446-12.398 16.449.363-11.882h-9.502l11.674-12.433z" fill="#000"/><path d="M112.1 80.905l10.678-.58-.813 8.446-12.398 16.449.361-11.882h-9.5L112.1 80.905z" fill="#3A3768"/><path opacity=".1" d="M119.068 85.77h-5.43l-6.878 7.568h3.349l-.073 2.425 9.032-9.992z" fill="#000"/><path opacity=".1" d="M118.707 85.77h-5.43l-6.878 7.568h3.348l-.074 2.425 9.034-9.992z" fill="#000"/><path d="M118.888 85.77h-5.431l-6.877 7.568h3.348l-.074 2.425 9.034-9.992z" fill="#DCE6F2"/><path opacity=".1" d="M109.747 105.04l-12.4.376v-9.122l3.262-3.136h9.5l-.362 11.882z" fill="#000"/><path d="M109.567 105.22l-12.401.376v-9.122l3.262-3.136h9.5l-.361 11.882z" fill="#3A3768"/><path opacity=".1" d="M109.567 105.22l-12.401.376v-9.122l3.262-3.136h9.5l-.361 11.882z" fill="#000"/><path d="M144.611 109.747a8.601 8.601 0 01-1.99 1.118s-14.108.826-16.098.826c-1.02 0-2.99.27-4.684.539l-.508.078c-.658.106-1.248.206-1.69.29l-.192.035c-.391.067-.624.11-.624.11s-2.416.495-2.085.935c.102.132.2.517.292.987-2.32-.943-4.651-1.852-7.046-2.582a50.608 50.608 0 00-3.014-.821c.055-1.81.036-3.542-.177-4.406a5.414 5.414 0 01-.193-1.54c0-.061 0-.119.013-.176.081-.771.437-1.062.511-1.64.056-.435 1.094-.759 2.255-1.048l.273-.067.179-.043c.702-.168 1.407-.331 1.938-.509l.115-.041c.135-.047.268-.103.396-.166.032-.018.065-.034.094-.053 1.106-.661 12.326-2.421 13.21-2.695.883-.275 2.21-1.487 2.21-1.487a1.29 1.29 0 01.224-.54c.538-.779 1.825-1.229 1.953-1.272h.009l1.075-.826s4.288-.636 8.54 0c.323.048.642.103.961.167 1.17.218 2.307.584 3.384 1.09 1.218.595 2.263 1.403 2.978 2.496.39.6.671 1.266.829 1.964a11.879 11.879 0 01.283 1.888c.249 3.884-1.777 6.182-3.421 7.389z" fill="#F3B4B3"/><path opacity=".1" d="M48.73 97.751c-.108.423-.19.853-.244 1.286l-2.322.933-3.481-.329v-5.826s.497-2.422 1.437-2.53a.945.945 0 00.252-.072c-2.544 1.1-.06 7.06-.06 7.06 2.425-2.186 3.783-1.346 4.419-.522z" fill="#000"/><path d="M129.979 89.999l-13.515-6.531s-4.753 5.17-5.527 1.93 2.433-5.448 2.433-5.448l22.936 5.338-6.327 4.71z" fill="#FFCACE"/><path opacity=".05" d="M129.979 89.999l-13.515-6.531s-4.753 5.17-5.527 1.93 2.433-5.448 2.433-5.448l22.936 5.338-6.327 4.71z" fill="#000"/><path d="M137.355 65.966s-7.793 7.374-7.682 4.899a4.38 4.38 0 00-.112-1.058c-.351-1.699-1.448-4.166-2.316-5.95-.645-1.327-1.167-2.285-1.167-2.285s9.728-4.292 9.34-2.807c-.127.485.037 1.418.311 2.457.282 1.07.686 2.252 1.02 3.171.334.919.606 1.573.606 1.573z" fill="#FFCACE"/><path opacity=".1" d="M57.438 53.642s-1.105 3.026-.497 3.44l.497-3.44zm1.428 1.714s-.452 1.526 0 2.049v-2.05zm-25.469 32.18s3.98-1.375 3.869-.606c-.111.77-3.87.606-3.87.606zm-.774 3.743s2.159.99 2.71 0c.55-.99-2.71 0-2.71 0zm31.944-11.006s-4.42.771-4.476 1.542c-.056.77 4.476-1.542 4.476-1.542zm70.025-19.643c-1.186 1.926-2.178 3.797-4.611 3.797a6.716 6.716 0 01-2.736-.581c-.645-1.326-1.167-2.284-1.167-2.284s9.728-4.292 9.34-2.807c-.124.489-1.102.837-.826 1.875z" fill="#000"/><path d="M129.981 64.096c3.723 0 6.742-3.006 6.742-6.713 0-3.707-3.019-6.712-6.742-6.712-3.724 0-6.742 3.005-6.742 6.712s3.018 6.713 6.742 6.713z" fill="#FFCACE"/><path opacity=".1" d="M148.029 102.355a.477.477 0 01-.283-.238c-.387-.769-7.573-1.871-7.573-1.871l-1.552-2.86s-3.758.274-4.421-.436c-.664-.71-4.257-.826-4.228-1.045.007-.11.003-.219-.01-.328h.01l1.074-.826s14.869-2.201 16.692 5.723c.148.618.245 1.247.291 1.881zm-10.673-36.389s-7.794 7.374-7.683 4.899a4.38 4.38 0 00-.112-1.058l.022-.083s1.974-2.054 2.471-2.99c.344-.644 3.061-1.741 4.702-2.35.334.928.6 1.582.6 1.582z" fill="#000"/><path d="M138.019 64.096s-5.473 1.872-5.977 2.806c-.504.935-2.459 2.99-2.459 2.99l-1.784 7.63 1.049 10.51s.277 1.981-.111 2.695c-.387.714-.497 2.312.333 2.697.829.384.944 1.925.914 2.146-.031.22 3.562.33 4.227 1.045.665.716 4.422.436 4.422.436l1.54 2.86s7.186 1.1 7.573 1.871c.388.77 2.652-.111 1.167-2.202-1.486-2.091-.719-5.391-.719-5.391s-.437-14.527-2.77-17.939c0 0-3.316-7.922-3.869-8.253-.552-.331-3.869-2.636-3.536-3.901z" fill="#DCE6F2"/><path opacity=".1" d="M138.019 89.105s9.837 7.837 9.173 9.27c-.663 1.434-9.173-9.27-9.173-9.27zm.583 4.702s5.742 2.852 4.943 4.7l-4.943-4.7zm-6.883-7.103s3.094-.145 3.207.427l-3.207-.427zm-.664 2.401s4.532 1.127 4.532 1.788l-4.532-1.788z" fill="#000"/><path d="M135.15 81.971l-5.169 4.708s-3.353 1.241-3.9 2.425c-.546 1.185-4.642 1.788-4.863.895-.22-.894-6.3-5.819-6.3-5.819s-3.316-2.97-4.09-5.168c-.774-2.197-3.645-4.046-3.645-4.046s-8.732-2.337-7.405-5.583c1.327-3.247 10.271 2.692 10.271 2.692s5.528 3.96 6.414 5.172c.887 1.212 7.184 3.875 7.184 3.875-.058-.563 1.077-1.956 2.175-3.16a48.6 48.6 0 011.971-2.031l7.299 5.998.058.042z" fill="#FFCACE"/><path opacity=".1" d="M138.902 101.403s4.643 5.557 4.373 6.657c-.269 1.1-4.373-6.657-4.373-6.657zm-27.302 5.336c.111.166.553 2.032 2.653 3.137l-2.653-3.137zm4.754 1.569s-.111 2.177 1.492 2.723c1.604.546-1.492-2.723-1.492-2.723z" fill="#000"/><path d="M138.3 61.887a2.678 2.678 0 00-1.176-2.073 1.159 1.159 0 00.72-1.295c-.054.18-.27.249-.453.29a4.67 4.67 0 01-.292.058c.225-.427.411-.873.554-1.333.271-.98.127-2.021-.104-3.011-.309-1.337-.819-2.711-1.912-3.582a7.787 7.787 0 00-1.604-.9 8.351 8.351 0 00-1.603-.614c-.563-.13-1.146-.145-1.72-.22-1.114-.146-2.187-.524-3.314-.581-1.127-.057-2.373.276-2.95 1.208a1.54 1.54 0 00-.245.949c.061.587.551 1.068 1.109 1.306.559.238 1.155.242 1.719.422.663.212 1.312.48 1.975.71.354.122.722.254.984.515.419.415.47 1.047.57 1.618.154.871.473 1.705.94 2.457.165.266.353.533.395.84.053.372-.088.834.213 1.073.235.184.583.093.846-.064.262-.156.484-.373.78-.435.355-.075.729.097.991.337a1.942 1.942 0 01.635 1.492c-.014.346-.122.706 0 1.033.116.3.572.48.785.273a.752.752 0 00.057.106c.223.34.645.498 1.052.538.202.033.408.006.595-.077.363-.188.472-.643.453-1.04z" fill="#FFDFCF"/><path opacity=".1" d="M41.52 98.815h-1.442s-.884-2.365-.828-4.51c.019-.746.615-1.341 1.382-1.797l.889 6.307zm93.573-16.89a3.347 3.347 0 01-.274.212s-7.726-4.1-8.996-4.174c1.002-1.099 1.971-2.032 1.971-2.032l7.299 5.994z" fill="#000"/><path opacity=".1" d="M135.482 68.116s6.852 4.46 4.416 8.584c-2.436 4.125-4.416 5.437-4.416 5.437s-8.074-4.286-9.07-4.174c-.995.112 3.499-7.905 3.499-7.905l5.571-1.942z" fill="#000"/><path d="M135.15 67.95s6.851 4.46 4.415 8.585c-2.436 4.124-4.415 5.436-4.415 5.436s-8.075-4.284-9.066-4.174c-.991.11 3.499-7.905 3.499-7.905l5.567-1.942z" fill="#DCE6F2"/><path opacity=".1" d="M137.6 62.758c-.405-.043-.828-.2-1.052-.54-.022-.035-.039-.072-.057-.106-.213.207-.669.027-.784-.273-.126-.327-.016-.687 0-1.033a1.933 1.933 0 00-.636-1.492c-.265-.24-.634-.413-.991-.337-.292.062-.525.279-.78.435-.255.157-.611.248-.845.064-.301-.24-.161-.7-.213-1.074-.043-.306-.231-.573-.395-.839a6.976 6.976 0 01-.941-2.457c-.1-.572-.145-1.203-.568-1.618-.262-.261-.63-.393-.984-.515-.659-.23-1.312-.498-1.977-.71-.562-.18-1.166-.19-1.717-.422-.551-.233-1.049-.726-1.111-1.306a1.533 1.533 0 01.247-.95c.044-.071.092-.14.145-.206-.189.15-.351.332-.479.537a1.52 1.52 0 00-.245.948c.061.588.551 1.068 1.109 1.306.559.238 1.155.243 1.719.422.663.212 1.312.48 1.975.71.354.124.729.254.984.515.419.417.47 1.048.57 1.62.154.87.473 1.704.94 2.456.165.265.352.532.395.84.053.373-.089.835.213 1.073.233.185.583.094.846-.063.262-.157.484-.374.78-.435.355-.076.728.097.991.338a1.94 1.94 0 01.635 1.492c-.014.347-.122.707 0 1.032.116.3.57.482.785.273a.72.72 0 00.057.105c.223.34.645.498 1.051.54.202.033.409.005.596-.078a.729.729 0 00.309-.32 1.1 1.1 0 01-.572.068zm-.134-3.193l.083.058c.049-.051.093-.107.132-.166-.068.044-.139.08-.215.108z" fill="#000"/><path opacity=".1" d="M30.359 19.799s5.32-.32 4.694 3.393c0 0 .124.656-.472.953 0 0-.01-.274-.547-.181a2.439 2.439 0 01-.583.028 1.196 1.196 0 01-.706-.29s-1.497-.616-2.078-3.048c0 0-.438-.532-.413-.668l.898.382s-.308.644-.066 1.181c0 0 .03-1.161.202-1.13.035 0 .466.223.466.223s-.528 1.123-.13 1.94c0 0-.146-1.384.292-1.859l.632.367s-.616 1.162-.198 2.108c0 0-.108-1.452.331-2.018l.573.445s-.583 1.143-.226 1.928c0 0 .047-1.69.35-1.818 0 0 .501.435.583.621 0 0-.398.83-.146 1.268 0 0 .146-1.126.276-1.13 0 0 .498.746.55 1.257a2.712 2.712 0 00-.43-1.33c.289.055.554.192.765.395 0 0-.078-.528-.888-.58 0 0-.413-.567-.523-.6 0 0 .806-.068 1.294.145 0 0-.43-.498-1.442-.271l-.565-.46s1.06-.145 1.51.016c0 0-.518-.436-1.662-.12l-.617-.366s.906-.195 1.444-.125c0 0-.569-.305-1.624.026l-.438-.198s.664-.129.857-.145c.194-.016.205-.074.205-.074a2.303 2.303 0 00-1.245.138s-.94-.353-.923-.403zm109.865-5.041s5.323-.319 4.696 3.393c0 0 .124.657-.474.956 0 0-.009-.276-.545-.183a2.519 2.519 0 01-.583.029 1.203 1.203 0 01-.707-.29s-1.496-.616-2.078-3.048c0 0-.43-.531-.412-.668l.898.382s-.308.646-.066 1.181c0 0 .029-1.16.201-1.13.035 0 .467.223.467.223s-.528 1.125-.13 1.94c0 0-.146-1.384.292-1.859l.632.368s-.616 1.16-.198 2.108c0 0-.108-1.451.331-2.018l.573.445s-.583 1.144-.226 1.929c0 0 .047-1.691.35-1.819 0 0 .501.436.583.622 0 0-.398.83-.146 1.268 0 0 .146-1.128.276-1.132 0 0 .498.746.551 1.258a2.71 2.71 0 00-.438-1.33c.288.054.554.191.764.394 0 0-.077-.527-.888-.58 0 0-.412-.566-.523-.601 0 0 .806-.067 1.295.145 0 0-.43-.498-1.442-.271l-.56-.445s1.061-.145 1.51.015c0 0-.517-.435-1.661-.12l-.617-.366s.904-.195 1.443-.124c0 0-.568-.306-1.624.025l-.437-.196s.663-.13.857-.145c.194-.015.204-.074.204-.074a2.307 2.307 0 00-1.245.138s-.937-.36-.923-.42zM55.75 9.676s3.963 3.551.867 5.71c0 0-.383.55-1.02.336 0 0 .19-.2-.254-.515a2.495 2.495 0 01-.426-.39 1.191 1.191 0 01-.291-.706s-.611-1.493.729-3.614c0 0 .078-.677.188-.762l.357.906s-.677.235-.89.782c0 0 .848-.792.948-.65.022.03.168.488.168.488s-1.17.41-1.471 1.27c0 0 .883-1.08 1.536-1.096l.181.705s-1.264.377-1.647 1.338c0 0 .963-1.094 1.676-1.18l.083.726s-1.224.39-1.539 1.193c0 0 1.243-1.161 1.548-1.027 0 0 .037.663-.04.844 0 0-.874.302-1.012.784 0 0 .912-.684 1.003-.6 0 0-.184.879-.514 1.275.321-.35.545-.776.65-1.238.163.242.251.526.254.818 0 0 .322-.425-.213-1.032 0 0 .116-.69.063-.792 0 0 .614.524.802 1.016 0 0 .055-.655-.818-1.213l-.067-.726s.847.652 1.048 1.083c0 0-.048-.677-1.081-1.264l-.17-.694s.774.505 1.102.937c0 0-.18-.618-1.158-1.135l-.171-.452s.558.378.708.502c.15.123.197.093.197.093a2.291 2.291 0 00-.972-.786s-.407-.904-.354-.934zm55.382 21.491s3.964 3.55.866 5.71c0 0-.382.55-1.02.334 0 0 .191-.2-.252-.515a2.32 2.32 0 01-.426-.39 1.198 1.198 0 01-.292-.705s-.609-1.492.729-3.614c0 0 .077-.678.187-.762l.357.905s-.676.236-.891.783c0 0 .849-.791.951-.65.02.029.167.487.167.487s-1.167.414-1.475 1.272c0 0 .885-1.079 1.537-1.096l.18.707s-1.262.375-1.647 1.338c0 0 .964-1.096 1.676-1.182l.085.719s-1.226.392-1.539 1.193c0 0 1.242-1.154 1.546-1.028 0 0 .038.665-.038.846 0 0-.874.3-1.02.783 0 0 .913-.684 1.003-.598 0 0-.184.87-.513 1.272a2.72 2.72 0 00.65-1.237c.163.242.251.526.254.818 0 0 .323-.425-.213-1.032 0 0 .116-.69.062-.792 0 0 .614.524.804 1.016 0 0 .054-.655-.818-1.214l-.069-.725s.849.65 1.05 1.08c0 0-.048-.675-1.082-1.262l-.17-.695s.774.507 1.102.938c0 0-.181-.619-1.158-1.134l-.167-.451s.557.379.708.503c.152.125.195.093.195.093a2.293 2.293 0 00-.972-.786s-.401-.9-.347-.93zm43.036-21.083s3.962 3.55.866 5.71c0 0-.382.55-1.021.334 0 0 .19-.2-.254-.515a2.477 2.477 0 01-.425-.39 1.19 1.19 0 01-.292-.706s-.611-1.492.729-3.613c0 0 .079-.678.188-.76l.357.903s-.676.236-.89.783c0 0 .848-.791.95-.65.02.028.168.487.168.487s-1.175.415-1.48 1.27c0 0 .884-1.078 1.537-1.096l.18.707s-1.264.377-1.647 1.338c0 0 .964-1.096 1.676-1.181l.084.718s-1.225.392-1.538 1.193c0 0 1.242-1.154 1.546-1.027 0 0 .037.664-.039.846 0 0-.875.3-1.02.783 0 0 .912-.683 1.002-.599 0 0-.183.878-.513 1.273.322-.35.545-.776.649-1.238.163.242.252.527.255.818 0 0 .322-.425-.213-1.031 0 0 .115-.69.063-.793 0 0 .614.524.802 1.016 0 0 .055-.655-.818-1.215l-.067-.725s.847.65 1.048 1.08c0 0-.048-.675-1.08-1.262l-.171-.694s.774.505 1.102.937c0 0-.18-.617-1.166-1.134l-.167-.451s.558.38.708.503c.15.124.197.093.197.093a2.303 2.303 0 00-.973-.786s-.387-.897-.333-.926zM50.27 25.8s-.382 5.294-3.997 4.187c0 0-.67.038-.888-.592 0 0 .276.027.254-.514-.008-.195.009-.39.048-.58.052-.256.186-.487.382-.66 0 0 .809-1.395 3.31-1.65 0 0 .584-.355.72-.32l-.5.836s-.601-.388-1.166-.22c0 0 1.15.18 1.1.347a8.39 8.39 0 01-.292.436s-1.05-.668-1.914-.382c0 0 1.398.032 1.812.534l-.45.58s-1.073-.761-2.072-.472c0 0 1.458.084 1.967.592l-.52.506s-1.062-.725-1.895-.476c0 0 1.678.267 1.766.58 0 0-.505.436-.696.488 0 0-.774-.5-1.241-.315 0 0 1.1.298 1.09.42 0 0-.81.395-1.325.379.474.038.95-.048 1.38-.25a1.497 1.497 0 01-.492.702s.535-.007.688-.8c0 0 .616-.333.666-.435 0 0-.04.804-.318 1.259 0 0 .553-.359.46-1.388l.531-.498s0 1.067-.212 1.49c0 0 .505-.453.336-1.626l.446-.56s.075.919-.065 1.44c0 0 .377-.52.188-1.604l.253-.41s.043.671.037.871c-.006.2.047.212.047.212.124-.405.133-.837.026-1.247 0 0 .48-.883.536-.86zm61.212-5.945s-.382 5.295-3.995 4.187c0 0-.671.037-.888-.592 0 0 .274.026.252-.515-.007-.195.01-.39.048-.58.052-.256.186-.487.382-.66 0 0 .811-1.396 3.311-1.65 0 0 .583-.354.718-.32l-.498.837s-.602-.387-1.166-.22c0 0 1.148.181 1.099.348a9.988 9.988 0 01-.283.435s-1.05-.669-1.916-.383c0 0 1.398.032 1.812.536l-.449.58s-1.074-.762-2.071-.473c0 0 1.458.086 1.965.592l-.518.508s-1.062-.726-1.895-.477c0 0 1.678.268 1.766.58 0 0-.505.436-.694.49 0 0-.776-.501-1.244-.317 0 0 1.102.297 1.091.42 0 0-.809.395-1.325.38.474.037.95-.049 1.38-.25-.092.277-.263.52-.493.702 0 0 .535 0 .689-.8 0 0 .618-.333.666-.436 0 0-.04.804-.318 1.257 0 0 .552-.359.459-1.388l.532-.498s0 1.067-.213 1.49c0 0 .506-.453.337-1.626l.446-.559s.075.918-.065 1.44c0 0 .379-.521.188-1.605l.253-.41s.043.672.037.871c-.006.2.046.212.046.212.125-.405.135-.837.027-1.246 0 0 .47-.884.527-.86zM146.638.126s-.38 5.295-3.995 4.187c0 0-.669.037-.888-.592 0 0 .275.026.252-.515a2.4 2.4 0 01.05-.58c.051-.256.186-.487.382-.66 0 0 .809-1.396 3.309-1.65 0 0 .583-.354.718-.32l-.497.837s-.602-.387-1.166-.22c0 0 1.149.18 1.099.348-.01.033-.291.435-.291.435s-1.05-.669-1.916-.383c0 0 1.398.032 1.812.536l-.447.58s-1.065-.762-2.066-.472c0 0 1.458.086 1.965.593l-.517.507s-1.063-.725-1.896-.477c0 0 1.677.268 1.764.58 0 0-.504.436-.694.49 0 0-.774-.501-1.243-.317 0 0 1.102.298 1.09.421 0 0-.809.395-1.325.379.474.038.95-.048 1.381-.25a1.492 1.492 0 01-.493.703s.536 0 .688-.801c0 0 .618-.333.666-.436 0 0-.038.804-.318 1.257 0 0 .553-.358.461-1.387l.532-.498s0 1.066-.214 1.489c0 0 .507-.453.338-1.626l.446-.558s.075.917-.067 1.44c0 0 .379-.522.188-1.606l.254-.41s.042.673.038.872c-.005.198.046.212.046.212.125-.406.134-.837.027-1.247 0 0 .478-.885.527-.86z" fill="#0091FF"/><path opacity=".1" d="M112.686 86.68l5.233.221m-6.084.709l5.233.222m-6.084.706l5.233.223m-6.086.708l5.233.222m-6.084.707l5.233.223m-6.085.707l5.234.222m-6.087.708l5.234.222m-6.085.707l5.233.222" stroke="#000" stroke-miterlimit="10"/><path d="M94.834 39.783l.965-2.558 9.005-5.115 6.11-1.28-16.08 8.953zm-33.126 0l-.965-2.558-9.005-5.115-6.11-1.28 16.08 8.953z" fill="#0091FF"/><path opacity=".1" d="M95.477 40.422H61.064L58.17 26.994h40.2l-2.894 13.428z" fill="#000"/><path d="M95.638 39.623H60.904v28.346h34.734V39.623z" fill="#0091FF"/><path d="M81.337 59.539h-6.132v8.247h6.132v-8.247z" fill="#3F3D56"/><path d="M85.485 45.424H71.057v4.482h14.428v-4.482z" fill="#fff"/></g><defs><clipPath id="clip0"><path fill="#fff" d="M0 0h158v120H0z"/></clipPath></defs></svg>