<svg width="177" height="133" fill="none" xmlns="http://www.w3.org/2000/svg"><path opacity=".1" d="M103.615 67.986l.336-.096c-.095-.315-.122-.57-.044-.688.386-.57 5.32-1.764 5.948-2.717.627-.953 2.084-1.539 2.084-1.539s1.502-.91 1.604-1.732c.102-.822-.294-1.435-.395-1.795-.1-.361-.355-3.845-.355-3.845s-1.691-12.393 5.851-11.317c0 0 4.04 1.796 3.843 6.2a72.465 72.465 0 01-.927 8.467s.826 6.629-2.612 8.338c-3.439 1.708-6.621 3.113-6.621 3.113s-5.378.578-6.048.82c-.253.09-.711-.38-1.159-1.028l-.255.238-4.382 4.104s-5.655 1.196-7.228-1.058c-1.329-1.896 7.521-4.643 10.36-5.465z" fill="#000"/><path d="M93.46 73.273c1.573 2.254 7.228 1.06 7.228 1.06l4.382-4.106.59-.556-.99-2.104s-.314.087-.854.241c-2.833.824-11.684 3.57-10.356 5.465z" fill="#EFB7B9"/><path d="M177 116.37H0v.088h177v-.088zm-22.773 5.695h-6.687v.089h6.687v-.089zm-40.055-.616H103.74v.089h10.432v-.089zm33.014-2.669h-16.677v.089h16.677v-.089zm-124.732.595h-3.883v.089h3.883v-.089zm16.801 0h-13.65v.089h13.65v-.089zm40.448 1.494H60.534v.089h19.17v-.089zm4.195-20.288H15.544a2.02 2.02 0 01-2.018-2.021V2.474A2.021 2.021 0 0115.544.47h68.354a2.021 2.021 0 012.021 2.021V98.56a2.021 2.021 0 01-2.021 2.021zM15.544.541a1.933 1.933 0 00-1.93 1.933V98.56a1.933 1.933 0 001.93 1.933h68.354a1.936 1.936 0 001.933-1.933V2.474A1.937 1.937 0 0083.898.54H15.544zm144.928 100.04H92.115a2.025 2.025 0 01-2.022-2.021V2.474A2.025 2.025 0 0192.115.47h68.357a2.024 2.024 0 012.014 2.004V98.56a2.023 2.023 0 01-2.014 2.021zM92.115.541a1.937 1.937 0 00-1.933 1.933V98.56a1.936 1.936 0 001.933 1.933h68.357a1.939 1.939 0 001.933-1.933V2.474A1.938 1.938 0 00160.472.54H92.115z" fill="#EBEBEB"/><path d="M22.231 75.394h26.405V9.408H22.231v65.986z" fill="#E6E6E6"/><path d="M18.408 75.394H47.96V9.408H18.408v65.986z" fill="#F5F5F5"/><path d="M44.912 72.343v-59.89H21.456v59.89h23.456z" fill="#fff"/><path d="M54.636 75.394h26.405V9.408H54.636v65.986z" fill="#E6E6E6"/><path d="M50.813 75.394h29.552V9.408H50.813v65.986z" fill="#F5F5F5"/><path d="M77.317 72.343v-59.89H53.861v59.89h23.456z" fill="#fff"/><path d="M99.148 90.436H77.505v25.934h21.644V90.436zm0-.001H77.505l-4.871-4.96h21.643l4.871 4.96z" fill="#E0E0E0"/><path d="M64.839 85.476h-21.64l-4.09 4.96h21.644l4.086-4.96zM39.113 116.37h38.395V90.436H39.113v25.934z" fill="#F5F5F5"/><path d="M74.726 109.442h2.782V97.36h-2.782v12.082zM52.17 94.889v10.51h10.51v-10.51H52.17zm-13.014 0v10.51h10.51v-10.51h-10.51zm13.013 11.161v.857h10.51v-.857H52.17zm-13.013 0v.857h10.51v-.857h-10.51zm13.01 2.51v.857h10.51v-.857h-10.51zm-13.01 0v.857h10.51v-.857h-10.51zm13.014 2.507v.856h10.51v-.856H52.17zm-13.014.003v.857h10.51v-.857h-10.51z" fill="#F0F0F0"/><path d="M83.739 97.363h-6.234v12.082h6.234V97.363zm23.605 19.007h10.393V58.055h-10.393v58.315zm11.009-31.825h19.059V60.597h-19.059v23.948zm6.963-30.717c-.326-9.225-.676-26.139.039-30.762l1.165-.903s-.255 8.471-.39 22.6c-.134 14.128-.301 6.966-.156 9.065h-.658z" fill="#E6E6E6"/><path d="M122.65 29.307c-2.701-1.95-8.389-3.338-14.28-3.331-2.315 0 6.885 2.269 10.62 4.768 2.896 1.944 6.085 5.21 7.126 7.023-.51-3.816-.761-6.499-3.466-8.46z" fill="#E6E6E6"/><path d="M128.073 34.387c2.478-2.029 8.011-3.593 13.891-3.767 2.312-.07-6.623 2.478-10.067 5.09-2.673 2.029-5.502 5.388-6.337 7.23.078-3.824.028-6.521 2.513-8.553z" fill="#E6E6E6"/><path d="M88.5 132.356c37.907 0 68.637-1.794 68.637-4.007 0-2.213-30.73-4.007-68.637-4.007s-68.637 1.794-68.637 4.007c0 2.213 30.73 4.007 68.637 4.007z" fill="#F5F5F5"/><path opacity=".1" d="M103.819 67.808c.194.674.724 1.684 1.251 2.42l.59-.557-.99-2.104s-.317.087-.851.241z" fill="#000"/><path d="M118.849 44.08s4.039 1.794 3.841 6.2a72.895 72.895 0 01-.925 8.466s.826 6.629-2.613 8.338c-3.438 1.708-6.62 3.113-6.62 3.113s-5.38.58-6.048.82c-.669.239-2.758-3.421-2.372-3.992.385-.57 5.323-1.765 5.952-2.716.629-.952 2.084-1.539 2.084-1.539s1.502-.91 1.604-1.732c.103-.822-.294-1.435-.395-1.796-.1-.36-.355-3.842-.355-3.842s-1.696-12.395 5.847-11.32z" fill="#DCE6F2"/><path opacity=".1" d="M116.182 58.565s5.542.93 5.006 2.871c0 0-2.012-2.096-5.006-2.871zm-.042.786s3.047 2.49 2.451 2.617c-.596.128-2.451-2.617-2.451-2.617zm-1.464.868s.816 1.674.314 1.56c-.502-.113-.314-1.56-.314-1.56z" fill="#000"/><path d="M121.173 27.547c.154.03.302.088.436.169.157.13.157.354.197.55.046.271.154.529.314.752a1.125 1.125 0 01-.523-.086c.026.215.079.427.157.63a.507.507 0 01-.472-.289 3.09 3.09 0 01-.197-.552.442.442 0 00-.075-.158c-.145-.171-.414-.094-.637-.072a1.045 1.045 0 01-.957-.46c-.237-.36-.251-1.284.315-1.381.591-.098.96.718 1.442.897z" fill="#965D7B"/><path opacity=".1" d="M121.625 27.91c-.015-.078-.024-.158-.041-.235.149.13.157.353.196.55.02.113.051.224.093.332a1.798 1.798 0 01-.248-.647zm-.051 1.3a2.632 2.632 0 01-.157-.63c.158.067.328.097.499.087.049.111.11.216.181.315a1.121 1.121 0 01-.523-.085c.027.216.079.428.158.63a.508.508 0 01-.472-.288 1.215 1.215 0 01-.095-.225.476.476 0 00.409.197zm-1.381-1.07c.224-.023.494-.1.639.072.035.047.06.1.076.157.014.041.026.084.037.127-.149-.119-.391-.056-.594-.035a1.051 1.051 0 01-.957-.46.887.887 0 01-.105-.247 1.054 1.054 0 00.904.386z" fill="#000"/><path d="M116.439 40.555l-2.399 2.888.313 2.915 2.899-4.543-.813-1.26z" fill="#DCE6F2"/><path opacity=".1" d="M114.042 43.443l.294 2.742.019.173 2.615-4.1.282-.444-.082-.127-.73-1.132-.162.195-2.236 2.693z" fill="#000"/><path d="M112.796 36.644c.812.233 1.587 1.033 2.262 2.005.456.67.864 1.372 1.221 2.1.221.445.416.872.578 1.243l.114.265c.273.647.426 1.08.426 1.08s6.213-4.677 5.23-4.992c-.33-.106-.764-.814-1.194-1.707l-.053-.114a29.362 29.362 0 01-.777-1.814 54.894 54.894 0 01-.847-2.31s-9.437 3.535-6.96 4.244z" fill="#EFB7B9"/><path d="M109.079 32.137s-1.434 2.598-3.361 2.244c-1.927-.355-1.134-1.395-1.134-1.395l4.495-.85z" fill="#444053"/><path d="M111.859 122.087c1.27.581 4.144 0 4.144 0l1.211-.076a511.62 511.62 0 005.138-.346c1.359-.112 1.025-.67 1.025-.67v-3.368l-6.594-1.673s-2.606.893-3.32 1.673c-.678.743-1.074.171-2.284.386-.06.011-.123.023-.189.039-1.148.263-1.771.367-2.139 1.32-.074.2-.133.405-.178.614-.339 1.534 1.916 1.523 3.186 2.101z" fill="#A36468"/><path opacity=".1" d="M108.851 119.372c.236.147.485.275.743.381.865.395 1.687.877 2.562 1.25.874.373 1.817.64 2.764.569.495-.037 1.001-.158 1.475-.016.293.113.569.266.819.455a511.62 511.62 0 005.138-.346c1.359-.112 1.025-.67 1.025-.67v-.393c-.049 0-.104-.015-.167-.019a2.947 2.947 0 00-.959.143c-.683.186-1.362.369-2.045.551a1.62 1.62 0 00-.786-1.005 2.51 2.51 0 00-1.268-.291c-1.059.014-2.061.517-3.118.567a1.718 1.718 0 01-.863-.145c-.145-.072-.272-.178-.414-.258a2.99 2.99 0 00-.712-.241 15.753 15.753 0 01-2.037-.658c-.189-.074-.409-.208-.384-.41.033-.268.453-.299.563-.545a.322.322 0 00-.013-.279 3.584 3.584 0 00-.188.04c-1.144.263-1.767.367-2.135 1.32z" fill="#000"/><path d="M113.202 129.457c1.494.684 4.876 0 4.876 0l1.423-.083c1.844-.118 4.949-.315 6.045-.408 1.6-.132 1.206-.787 1.206-.787v-3.971l-7.759-1.968s-3.067 1.05-3.907 1.968c-.798.874-1.258.202-2.688.454a4.61 4.61 0 00-.222.045c-1.351.315-2.084.434-2.517 1.555a5.154 5.154 0 00-.209.723c-.39 1.805 2.257 1.79 3.752 2.472z" fill="#A36468"/><path opacity=".1" d="M109.662 126.262c.278.174.57.324.873.449 1.018.464 1.987 1.031 3.016 1.471 1.028.439 2.137.751 3.253.669.582-.043 1.178-.189 1.73-.019.346.135.671.317.967.542 1.844-.118 4.949-.315 6.045-.408 1.6-.132 1.206-.787 1.206-.787v-.463a2.138 2.138 0 00-.196-.023 3.443 3.443 0 00-1.13.169l-2.405.649a1.92 1.92 0 00-.344-.688 1.918 1.918 0 00-.588-.495 2.93 2.93 0 00-1.493-.343c-1.246.017-2.424.608-3.668.668a2.037 2.037 0 01-1.013-.169c-.172-.087-.315-.211-.488-.304a3.408 3.408 0 00-.838-.283 18.852 18.852 0 01-2.385-.775c-.221-.088-.481-.246-.451-.482.039-.315.533-.353.664-.643a.374.374 0 00-.016-.327 4.61 4.61 0 00-.222.045c-1.351.303-2.084.426-2.517 1.547z" fill="#000"/><path d="M116.583 102.213l.42 9.895s.629 2.021.288 2.599c-.341.578-.917 1.154-.708 1.496.209.342 2.726 4.037 3.539 2.619.814-1.417 1.616-7.559 1.616-7.559l-.75-7.587-4.405-1.463zm-1.821-24.653l-1.167 1.562V92.71s-.341 3.623 0 4.37c.341.749 2.072 2.245 2.072 2.245l1.455-7.48-.315-7.915-2.045-6.37z" fill="#444053"/><path opacity=".1" d="M116.583 102.213l.42 9.895s.629 2.021.288 2.599c-.341.578-.917 1.154-.708 1.496.209.342 2.726 4.037 3.539 2.619.814-1.417 1.616-7.559 1.616-7.559l-.75-7.587-4.405-1.463zm-1.821-24.653l-1.167 1.562V92.71s-.341 3.623 0 4.37c.341.749 2.072 2.245 2.072 2.245l1.455-7.48-.315-7.915-2.045-6.37z" fill="#000"/><path d="M113.595 71.764v7.35l1.31 5.722s.42 13.807.054 15.486c-.367 1.679 1.258 3.255 1.258 3.255s.944.106.944.839c0 .734 1.573 2.835 1.573 2.835l-.052 4.095s-.683 7.665.366 9.134c1.049 1.47-.366 1.681-.366 1.681 1.31 4.304 7.602 3.307 8.17 2.835.567-.473 0-9.765 0-9.765s-1.407-14.174-2.508-14.804c-1.101-.63-.053-1.417-.42-2.362-.366-.945.367-3.517.367-3.517s.314-3.046 1.101-4.515c.786-1.47.683-5.512.683-5.512s2.202-2.94 2.856-4.095c.654-1.154 1.076-4.147.919-6.405-.107-1.526-.908-3.748-1.416-5.027-.244-.613-.42-1.01-.42-1.01l-.149.04-8.592 2.252-5.678 1.488z" fill="#444053"/><path opacity=".1" d="M112.796 36.644c.811.233 1.587 1.033 2.262 2.005h.176a5.612 5.612 0 004.876-2.824 5.57 5.57 0 00.494-1.126c-.486-1.236-.846-2.31-.846-2.31s-9.44 3.546-6.962 4.255z" fill="#000"/><path d="M109.611 32.707a5.632 5.632 0 004.501 5.526 5.614 5.614 0 004.802-1.26 5.624 5.624 0 001.934-4.577 5.638 5.638 0 00-1.312-3.308 5.618 5.618 0 00-8.985.489 5.62 5.62 0 00-.932 2.717c-.003.139-.008.276-.008.413z" fill="#EFB7B9"/><path opacity=".1" d="M114.336 46.185l.019.173 2.616-4.095c.273.648.426 1.08.426 1.08s6.213-4.683 5.23-4.998c-.33-.105-.764-.814-1.194-1.707l-.053-.114c-.457 1.361-3.107 4.081-4.21 5.17-.127.127-.232.23-.314.306l-.168.158-.089.088c-.401.414-2.093 2.241-2.263 3.939z" fill="#000"/><path d="M112.381 60.078l.286 9.225.05 1.642s3.392-.315 6.556-.661c2.548-.279 4.95-.58 5.32-.756.472-.222 1.483-.394 2.281-.503.616-.083 1.101-.127 1.101-.127s.181.053.459.104c.607.11 1.674.2 2.295-.34.794-.692-1.293-3.204-1.814-3.807l-.114-.13.196-1.82.511-4.717s.315-2.716.787-4.173c.126-.414.217-.838.272-1.268.175-1.33.085-2.682-.264-3.978a8.577 8.577 0 01-.283-1.683c-.079-1.457-4.523-7.087-5.624-7.6a2.335 2.335 0 01-1.126-1.124 2.128 2.128 0 01-.171-.49c-.472-2.047-1.666-1.234-1.666-1.234-.288 1.601-4.744 5.84-4.744 5.84l-.088.09c-.442.453-2.411 2.582-2.271 4.4a5.348 5.348 0 01-.298 1.99 33.722 33.722 0 00-1.549 8.82l-.102 2.3z" fill="#DCE6F2"/><path opacity=".1" d="M118.694 49.125s1.101 2.677 1.927 3.11c.826.434-2.32.914-1.927-3.11zm-.825 5s2.516.315 2.516.788c0 .472-2.516-.788-2.516-.788zm-2.635 3.072s3.657 7.795 4.68 8.031c1.022.237-4.68-8.031-4.68-8.031zm1.524-14.323l3.025 1.317 3.651-5.522a2.13 2.13 0 01-.172-.49c-.472-2.047-1.666-1.234-1.666-1.234-.287 1.602-4.744 5.841-4.744 5.841l-.094.088z" fill="#000"/><path d="M116.601 42.56l3.025 1.316 3.651-5.522a2.13 2.13 0 01-.172-.49c-.472-2.047-1.666-1.234-1.666-1.234-.287 1.602-4.744 5.841-4.744 5.841l-.094.088z" fill="#DCE6F2"/><path opacity=".1" d="M112.717 70.945s3.392-.315 6.556-.661l-5.678 1.488v1.732c.249.226.464.342.604.282.654-.275 5.995-1.142 5.995-1.142s3.101-1.574 6.449-3.464a3.716 3.716 0 001.226-1.142c.619-.896.921-2.047 1.051-3.177.074-.647.101-1.298.082-1.95a15.948 15.948 0 00-.201-2.203c.323-2.823.481-5.662.472-8.504-.04-4.41-4.169-5.985-4.169-5.985-7.589-.669-5.236 11.615-5.236 11.615s.439 3.465.558 3.82c.12.354.549.944.491 1.771-.058.827-1.508 1.816-1.508 1.816s-1.416.665-2 1.649c-.424.726-3.183 1.71-4.742 2.413l.05 1.642zm-2.542-41.735c-.002.26.051.517.158.753.08.193.174.38.28.56.165.333.4.625.689.858.363.26.822.332 1.258.438.436.105.889.274 1.137.645.135.24.225.5.266.772.042.27.15.527.315.746a.617.617 0 00.736.177.752.752 0 00.285-.367c.179-.405.224-.854.297-1.29.072-.436.174-.885.442-1.236.267-.351.741-.583 1.161-.446a1.12 1.12 0 01.629.611c.116.278.196.57.237.87.195 1.068.426 2.13.691 3.187a.293.293 0 00.052.12.226.226 0 00.157.066c.352.047.691-.2 1.046-.173a.6.6 0 01.109.017 5.636 5.636 0 00-.568-6.426l-.029-.008a1.7 1.7 0 01-.629-.396 6.667 6.667 0 01-.629-.73l-.126-.157a7.142 7.142 0 00-1.227-1.167 1.246 1.246 0 00-.418-.227 1.239 1.239 0 00-.396-.012 9.996 9.996 0 01-1.638.061 10.49 10.49 0 00-1.15-.117c-.995.029-1.845.733-2.474 1.504-.338.396-.64.85-.661 1.367z" fill="#000"/><path d="M120.865 30.097c.219.36.613.603.761.997.217.572-.149 1.284.187 1.794.112.172.296.3.359.496.107.332-.186.687-.11 1.028.075.342.525.63.406.964a.632.632 0 01-.346.315 1.354 1.354 0 01-.787.175c-.429-.07-.749-.493-1.184-.524-.354-.026-.692.22-1.045.174a.235.235 0 01-.157-.067.277.277 0 01-.052-.12 51.7 51.7 0 01-.692-3.188 3.407 3.407 0 00-.236-.869 1.133 1.133 0 00-.629-.611c-.42-.135-.892.095-1.161.446-.269.35-.371.8-.443 1.236-.073.436-.118.885-.296 1.29a.752.752 0 01-.286.368c-.236.137-.554.029-.735-.176a1.644 1.644 0 01-.315-.748 2.264 2.264 0 00-.265-.77c-.249-.372-.704-.54-1.138-.646-.434-.105-.892-.18-1.258-.44a2.592 2.592 0 01-.689-.855c-.233-.406-.45-.847-.431-1.314.02-.51.323-.966.645-1.363.629-.771 1.48-1.476 2.476-1.502.385.016.769.055 1.15.116a9.832 9.832 0 001.637-.063c.132-.015.266-.01.396.015.153.046.295.123.417.226.454.339.867.73 1.229 1.166.233.31.486.604.758.882.178.177.393.313.629.398.157.044.315.013.464.061.464.147.525.753.741 1.11z" fill="#965D7B"/><path opacity=".1" d="M105.718 34.38c1.258.23 2.301-.788 2.878-1.532.178-.225.339-.463.483-.711l-4.319.815-.175.034s-.794 1.04 1.133 1.393zm16.344-.418a1.303 1.303 0 01.091-.605c0 .016.014.032.019.047.068.211-.024.43-.082.65a.484.484 0 01-.028-.092zm-.374-2.578a3.48 3.48 0 01-.013.653 3.48 3.48 0 01.013-.653zm-10.925-1.473c.166.332.401.624.689.857.364.26.821.332 1.259.438.437.105.888.274 1.137.646.134.239.224.5.266.771.041.272.149.53.314.748.181.205.499.315.735.177a.752.752 0 00.286-.369c.178-.404.225-.852.296-1.29.071-.437.176-.885.443-1.236.268-.351.741-.583 1.161-.445a1.117 1.117 0 01.629.61c.117.279.196.571.236.87.196 1.07.427 2.132.692 3.187a.29.29 0 00.052.12.24.24 0 00.158.068c.352.045.69-.2 1.044-.175.436.032.755.454 1.185.523.273.024.548-.037.786-.175a.852.852 0 00.288-.205.421.421 0 01.058.367.614.614 0 01-.346.315 1.32 1.32 0 01-.786.175c-.43-.07-.749-.491-1.185-.523-.354-.025-.692.22-1.044.175a.24.24 0 01-.158-.068.29.29 0 01-.052-.12 50.776 50.776 0 01-.692-3.187 3.407 3.407 0 00-.236-.87 1.115 1.115 0 00-.629-.61c-.42-.137-.892.094-1.161.445-.269.352-.371.8-.443 1.237-.072.436-.118.885-.296 1.29a.752.752 0 01-.286.368c-.236.137-.554.028-.735-.176a1.655 1.655 0 01-.314-.748 2.298 2.298 0 00-.266-.772c-.249-.372-.703-.539-1.137-.646-.434-.107-.892-.178-1.259-.438a2.593 2.593 0 01-.689-.856c-.232-.405-.449-.846-.431-1.314.004-.06.01-.12.019-.18.076.361.216.705.412 1.016z" fill="#000"/><path opacity=".1" d="M110.326 29.959a5.582 5.582 0 00-.7 2.338c1.402-.787 2.72-1.652 3.385-1.952 1.16-.525 5.495-.446 7.124-.397a5.468 5.468 0 00-.594-.86 5.624 5.624 0 00-9.222.868l.007.003zm-5.002 3.753c.757.233 1.992-.218 3.272-.864.178-.225.339-.463.483-.711l-4.319.815c-.286.196-.359.474.564.76z" fill="#000"/><path d="M114.899 24.498s4.129-.236 5.29 2.008l.187 1.99.315-.035.062 1.353s-6.31-.276-7.746.373c-1.436.649-5.899 3.918-7.687 3.367-1.789-.551.157-1.063.157-1.063s2.462-1.044 2.462-1.863.61-5.145 6.96-6.13z" fill="#444053"/><path opacity=".1" d="M122.863 98.235s-2.635 2.559-3.775 2.362c0 0 3.224-.275 3.775-2.362zm.55 1.186s-.236 1.317-.865 1.188c-.629-.13.865-1.188.865-1.188zm-4.129 22.004s3.74 2.914 3.11 2.993c-.631.078-3.11-2.993-3.11-2.993z" fill="#000"/><path opacity=".1" d="M92.192 78.897l2.212.425v-3.27l-2.072-.524-.14 3.369zm12.996-1.339v2.164l2.468-.252v-1.912h-2.468zm3.219.682v1.151l2.467-.253v-.898h-2.467z" fill="#fff"/><path opacity=".1" d="M100.999 76.41c1.691 2.166 7.275.67 7.275.67l4.149-4.334.563-.588-1.101-2.047s-.314.104-.84.286c-2.781.974-11.47 4.191-10.046 6.013z" fill="#000"/><path opacity=".1" d="M111.209 70.082c.23.662.813 1.641 1.378 2.348l.563-.587-1.101-2.047s-.316.103-.84.286z" fill="#000"/><path d="M124.947 45.59s4.129 1.574 4.168 5.984a72.57 72.57 0 01-.472 8.505s1.18 6.575-2.163 8.465c-3.342 1.89-6.449 3.464-6.449 3.464s-5.34.867-5.996 1.142c-.656.276-2.935-3.268-2.581-3.858.354-.59 5.216-2.048 5.793-3.032.578-.984 1.999-1.647 1.999-1.647s1.451-.991 1.509-1.818c.058-.827-.37-1.417-.491-1.772-.121-.354-.56-3.819-.56-3.819s-2.347-12.292 5.243-11.614z" fill="#DCE6F2"/><path opacity=".1" d="M123.059 60.189s5.584.63 5.151 2.598c0 0-2.121-1.986-5.151-2.598zm0 .787s3.17 2.323 2.588 2.48c-.582.158-2.588-2.48-2.588-2.48zm-1.415.945s.904 1.629.393 1.544c-.511-.086-.393-1.544-.393-1.544z" fill="#000"/><path opacity=".1" d="M94.745 45.862s4.8-3.596 6.517.3c0 0 .524.543.148 1.193 0 0-.18-.254-.63.167a2.73 2.73 0 01-.525.384 1.347 1.347 0 01-.845.158s-1.786.344-3.844-1.594c0 0-.734-.236-.804-.375l1.084-.19s.113.798.672 1.155c0 0-.69-1.111-.511-1.192.036-.017.577-.079.577-.079s.201 1.39 1.082 1.914c0 0-1.002-1.214-.878-1.939l.823-.044s.14 1.479 1.121 2.115c0 0-1.001-1.305-.943-2.112l.814.066s.166 1.438.985 1.961c0 0-1.005-1.625-.799-1.934 0 0 .744.106.928.229 0 0 .143 1.03.647 1.291 0 0-.559-1.157-.446-1.238 0 0 .933.395 1.3.846a3.07 3.07 0 00-1.23-.99 1.69 1.69 0 01.962-.1s-.399-.45-1.189.008c0 0-.74-.279-.865-.244 0 0 .716-.562 1.309-.66 0 0-.714-.205-1.524.63l-.817-.084s.908-.787 1.428-.92c0 0-.76-.095-1.635.916l-.806.036s.728-.743 1.277-1.011c0 0-.722.063-1.508 1.028l-.536.087s.542-.532.712-.671c.17-.139.146-.197.146-.197a2.585 2.585 0 00-1.083.901s-1.093.253-1.114.189z" fill="#0091FF"/><path d="M96.596 59.719H60.144v68.626h36.452V59.719z" fill="#0091FF"/><path d="M103.361 58.883H63.497v.84h39.864v-.84z" fill="#0091FF"/><path opacity=".3" d="M103.361 58.883H63.497v.84h39.864v-.84z" fill="#000"/><path d="M96.6 128.349h10.117V59.722H96.599v68.627z" fill="#0091FF"/><path opacity=".2" d="M96.6 128.349h10.117V59.722H96.599v68.627z" fill="#000"/><path opacity=".1" d="M93.654 62.993h-2.04a.33.33 0 00-.329.33v2.053a.33.33 0 00.33.329h2.039a.33.33 0 00.329-.33v-2.053a.33.33 0 00-.33-.329z" fill="#000"/><path opacity=".3" d="M88.089 62.993h-2.04a.33.33 0 00-.328.33v2.053a.33.33 0 00.329.329h2.039a.33.33 0 00.33-.33v-2.053a.33.33 0 00-.33-.329zm-5.561 0h-2.04a.33.33 0 00-.329.33v2.053a.33.33 0 00.33.329h2.039a.33.33 0 00.329-.33v-2.053a.33.33 0 00-.33-.329z" fill="#000"/><path opacity=".1" d="M76.963 62.993h-2.04a.33.33 0 00-.328.33v2.053a.33.33 0 00.329.329h2.039a.33.33 0 00.33-.33v-2.053a.33.33 0 00-.33-.329z" fill="#000"/><path opacity=".3" d="M71.402 62.993h-2.04a.33.33 0 00-.329.33v2.053a.33.33 0 00.33.329h2.039a.33.33 0 00.329-.33v-2.053a.33.33 0 00-.33-.329zm-5.565 0h-2.04a.33.33 0 00-.329.33v2.053a.33.33 0 00.33.329h2.038a.33.33 0 00.33-.33v-2.053a.33.33 0 00-.33-.329z" fill="#000"/><path opacity=".1" d="M95.406 67.259H61.334v10.744h34.072V67.259z" fill="#000"/><path d="M93.477 68.795h-.96a.46.46 0 00-.46.46v6.755c0 .254.206.46.46.46h.96a.46.46 0 00.46-.46v-6.754a.46.46 0 00-.46-.46z" fill="#0091FF"/><path opacity=".1" d="M89.6 68.795h-.959a.46.46 0 00-.46.46v6.755c0 .254.206.46.46.46h.96a.46.46 0 00.46-.46v-6.754a.46.46 0 00-.46-.46z" fill="#000"/><path d="M85.72 68.795h-.959a.46.46 0 00-.46.46v6.755c0 .254.206.46.46.46h.96a.46.46 0 00.46-.46v-6.754a.46.46 0 00-.46-.46zm-3.88 0h-.958a.46.46 0 00-.46.46v6.755c0 .254.205.46.46.46h.959a.46.46 0 00.46-.46v-6.754a.46.46 0 00-.46-.46z" fill="#0091FF"/><path opacity=".3" d="M71.094 70.916a1.238 1.238 0 112.477 0 1.238 1.238 0 01-2.477 0z" fill="#fff"/><path opacity=".1" d="M77.115 74.346a1.24 1.24 0 11-2.479-.007 1.24 1.24 0 012.48.007zm-2.478-3.43a1.24 1.24 0 112.479 0 1.24 1.24 0 01-2.479 0zm-1.065 3.43a1.239 1.239 0 11-2.478-.007 1.239 1.239 0 012.478.007z" fill="#000"/><path opacity=".3" d="M68.055 74.533a2.687 2.687 0 10-3.8-3.8 2.687 2.687 0 003.8 3.8z" fill="#fff"/><path opacity=".1" d="M95.406 79.476H61.334v10.743h34.072V79.477z" fill="#000"/><path d="M93.477 81.012h-.96a.46.46 0 00-.46.46v6.754c0 .255.206.46.46.46h.96a.46.46 0 00.46-.46v-6.754a.46.46 0 00-.46-.46z" fill="#0091FF"/><path opacity=".1" d="M89.6 81.012h-.959a.46.46 0 00-.46.46v6.754c0 .255.206.46.46.46h.96a.46.46 0 00.46-.46v-6.754a.46.46 0 00-.46-.46z" fill="#000"/><path d="M85.72 81.012h-.959a.46.46 0 00-.46.46v6.754c0 .255.206.46.46.46h.96a.46.46 0 00.46-.46v-6.754a.46.46 0 00-.46-.46zm-3.88 0h-.958a.46.46 0 00-.46.46v6.754c0 .255.205.46.46.46h.959a.46.46 0 00.46-.46v-6.754a.46.46 0 00-.46-.46z" fill="#0091FF"/><path opacity=".3" d="M71.094 83.136a1.238 1.238 0 112.477 0 1.238 1.238 0 01-2.477 0zm4.782 4.666a1.239 1.239 0 100-2.478 1.239 1.239 0 000 2.478z" fill="#fff"/><path opacity=".1" d="M74.637 83.136a1.24 1.24 0 112.479 0 1.24 1.24 0 01-2.479 0zm-2.304 4.666a1.239 1.239 0 100-2.478 1.239 1.239 0 000 2.478z" fill="#000"/><path opacity=".3" d="M66.155 87.536a2.687 2.687 0 100-5.374 2.687 2.687 0 000 5.374z" fill="#fff"/><path opacity=".1" d="M95.406 91.695H61.334v10.744h34.072V91.696z" fill="#000"/><path d="M93.477 93.228h-.96a.46.46 0 00-.46.46v6.755c0 .254.206.46.46.46h.96a.46.46 0 00.46-.46v-6.754a.46.46 0 00-.46-.46z" fill="#0091FF"/><path opacity=".1" d="M89.6 93.228h-.959a.46.46 0 00-.46.46v6.755c0 .254.206.46.46.46h.96a.46.46 0 00.46-.46v-6.754a.46.46 0 00-.46-.46z" fill="#000"/><path d="M85.72 93.228h-.959a.46.46 0 00-.46.46v6.755c0 .254.206.46.46.46h.96a.46.46 0 00.46-.46v-6.754a.46.46 0 00-.46-.46zm-3.88 0h-.958a.46.46 0 00-.46.46v6.755c0 .254.205.46.46.46h.959a.46.46 0 00.46-.46v-6.754a.46.46 0 00-.46-.46z" fill="#0091FF"/><path opacity=".3" d="M71.094 95.342a1.239 1.239 0 112.477.007 1.239 1.239 0 01-2.477-.007zm4.782 4.676a1.239 1.239 0 100-2.477 1.239 1.239 0 000 2.477z" fill="#fff"/><path opacity=".1" d="M74.637 95.342a1.24 1.24 0 112.48.007 1.24 1.24 0 01-2.48-.007zm-2.304 4.676a1.239 1.239 0 100-2.477 1.239 1.239 0 000 2.477zm-6.178-.265a2.687 2.687 0 100-5.374 2.687 2.687 0 000 5.374zm29.251 4.159H61.334v10.744h34.072v-10.744z" fill="#000"/><path d="M93.477 105.449h-.96a.46.46 0 00-.46.46v6.754c0 .254.206.46.46.46h.96a.46.46 0 00.46-.46v-6.754a.46.46 0 00-.46-.46z" fill="#0091FF"/><path opacity=".1" d="M89.6 105.449h-.959a.46.46 0 00-.46.46v6.754c0 .254.206.46.46.46h.96a.46.46 0 00.46-.46v-6.754a.46.46 0 00-.46-.46z" fill="#000"/><path d="M85.72 105.449h-.959a.46.46 0 00-.46.46v6.754c0 .254.206.46.46.46h.96a.46.46 0 00.46-.46v-6.754a.46.46 0 00-.46-.46zm-3.88 0h-.958a.46.46 0 00-.46.46v6.754c0 .254.205.46.46.46h.959a.46.46 0 00.46-.46v-6.754a.46.46 0 00-.46-.46z" fill="#0091FF"/><path opacity=".3" d="M72.333 108.812a1.24 1.24 0 100-2.478 1.24 1.24 0 000 2.478zm3.543 3.426a1.24 1.24 0 100-2.478 1.24 1.24 0 000 2.478zm0-3.426a1.24 1.24 0 100-2.478 1.24 1.24 0 000 2.478z" fill="#fff"/><path opacity=".1" d="M72.333 112.238a1.24 1.24 0 100-2.478 1.24 1.24 0 000 2.478z" fill="#000"/><path opacity=".3" d="M66.155 111.973a2.687 2.687 0 100-5.374 2.687 2.687 0 000 5.374z" fill="#fff"/><path opacity=".1" d="M95.406 116.129H61.334v10.744h34.072v-10.744z" fill="#000"/><path d="M93.477 117.665h-.96a.46.46 0 00-.46.46v6.755c0 .254.206.46.46.46h.96a.46.46 0 00.46-.46v-6.755a.46.46 0 00-.46-.46z" fill="#0091FF"/><path opacity=".1" d="M89.6 117.665h-.959a.46.46 0 00-.46.46v6.755c0 .254.206.46.46.46h.96a.46.46 0 00.46-.46v-6.755a.46.46 0 00-.46-.46z" fill="#000"/><path d="M85.72 117.665h-.959a.46.46 0 00-.46.46v6.755c0 .254.206.46.46.46h.96a.46.46 0 00.46-.46v-6.755a.46.46 0 00-.46-.46zm-3.88 0h-.958a.46.46 0 00-.46.46v6.755c0 .254.205.46.46.46h.959a.46.46 0 00.46-.46v-6.755a.46.46 0 00-.46-.46z" fill="#0091FF"/><path opacity=".3" d="M72.333 121.028a1.24 1.24 0 100-2.478 1.24 1.24 0 000 2.478zm3.543 3.427a1.24 1.24 0 100-2.478 1.24 1.24 0 000 2.478zm0-3.427a1.24 1.24 0 100-2.478 1.24 1.24 0 000 2.478z" fill="#fff"/><path opacity=".1" d="M72.333 124.455a1.24 1.24 0 100-2.478 1.24 1.24 0 000 2.478z" fill="#000"/><path opacity=".3" d="M66.155 124.189a2.687 2.687 0 100-5.374 2.687 2.687 0 000 5.374z" fill="#fff"/><path d="M61.157 42.982h26.302l3.7 15.066H64.855l-3.7-15.066zM72.29 58.048l.103.832h28.1l-.102-.832h-28.1z" fill="#0091FF"/><path d="M86.673 42.982l3.7 15.066h.003l.103.832h-25.52l-.103-.832-3.7-15.066h25.517z" fill="#0091FF"/><path opacity=".6" d="M86.673 42.982l3.7 15.066h.003l.103.832h-25.52l-.103-.832-3.7-15.066h25.517z" fill="#fff"/><path opacity=".3" d="M76.074 34.068l-.166-.085c-.213-.11-5.18-2.754-5.884-6.227a30.597 30.597 0 01-.517-6.754v-.312l.312-.02c.039 0 3.742-.295 6.131-1.063l.11-.035.106.035c2.39.761 6.093 1.062 6.132 1.062l.311.021v.312a30.603 30.603 0 01-.481 6.754c-.708 3.473-5.664 6.117-5.884 6.227l-.17.085zm-5.87-12.712c-.044 2.1.13 4.2.518 6.266.566 2.81 4.492 5.168 5.352 5.664.857-.482 4.783-2.832 5.35-5.664.39-2.065.563-4.165.516-6.266a32.625 32.625 0 01-5.866-1.023 32.708 32.708 0 01-5.87 1.023z" fill="#0091FF"/><path d="M76.074 32.1c-1.483-.906-3.982-2.783-4.364-4.684a28.26 28.26 0 01-.503-5.154c1.643-.17 3.27-.465 4.867-.885 1.596.42 3.222.716 4.864.885a28.478 28.478 0 01-.502 5.154c-.383 1.901-2.882 3.778-4.362 4.684z" fill="#0091FF"/><path opacity=".3" d="M50.944 128.349h-.708V45.626a7.693 7.693 0 017.682-7.682h15.788a2.018 2.018 0 002.01-2.014h.709a2.722 2.722 0 01-2.719 2.722H57.918a6.98 6.98 0 00-6.974 6.974v82.723z" fill="#0091FF"/><path d="M101.156 76.095c1.691 2.166 7.275.67 7.275.67l4.149-4.335.563-.587-1.101-2.047s-.314.103-.84.286c-2.781.973-11.47 4.191-10.046 6.013z" fill="#EFB7B9"/></svg>