<svg width="163" height="111" fill="none" xmlns="http://www.w3.org/2000/svg"><path d="M100.689 109.037c-.068-.067-1.67-1.696-3.028-5.562-1.246-3.546-2.504-9.73-1.417-19.053 2.058-17.661-8.497-28.917-8.604-29.029l.312-.3c.028.027 2.741 2.892 5.156 7.92a39.06 39.06 0 013.566 21.46c-2.055 17.631 4.257 24.192 4.321 24.256l-.306.308zm-16.29-53.94a2.82 2.82 0 002.815-2.826 2.82 2.82 0 00-2.815-2.826 2.82 2.82 0 00-2.815 2.826 2.82 2.82 0 002.815 2.826z" fill="#F2F2F2"/><path d="M95.489 63.12a2.82 2.82 0 002.814-2.826 2.82 2.82 0 00-2.814-2.826 2.82 2.82 0 00-2.815 2.826 2.82 2.82 0 002.814 2.826zm-4.247 8.202a2.82 2.82 0 002.815-2.826 2.82 2.82 0 00-2.815-2.826 2.82 2.82 0 00-2.815 2.826 2.82 2.82 0 002.815 2.826zm-30.575-26.38a2.82 2.82 0 002.815-2.826 2.82 2.82 0 00-2.815-2.826 2.82 2.82 0 00-2.815 2.826 2.82 2.82 0 002.816 2.826zm90.255-20.506a4.22 4.22 0 004.213-4.229 4.22 4.22 0 00-4.213-4.229c-2.326 0-4.212 1.894-4.212 4.23a4.22 4.22 0 004.212 4.228zm4.882 19.942a4.22 4.22 0 004.213-4.229 4.22 4.22 0 00-4.213-4.229c-2.326 0-4.212 1.894-4.212 4.23a4.22 4.22 0 004.212 4.228zm-12.764 5.209a4.22 4.22 0 004.213-4.23 4.22 4.22 0 00-4.213-4.228 4.22 4.22 0 00-4.212 4.229 4.22 4.22 0 004.212 4.229zm5.913 12.816c2.326 0 4.212-1.893 4.212-4.23a4.22 4.22 0 00-4.212-4.228 4.22 4.22 0 00-4.213 4.229 4.22 4.22 0 004.213 4.229zm-18.852 5.777a4.22 4.22 0 004.213-4.23 4.22 4.22 0 00-4.213-4.229c-2.326 0-4.212 1.894-4.212 4.23a4.22 4.22 0 004.212 4.228z" fill="#F2F2F2"/><path d="M41.114 90.32c-1.404 5.21-6.214 8.438-6.214 8.438s-2.533-5.222-1.129-10.433c1.404-5.211 6.214-8.439 6.214-8.439s2.533 5.222 1.129 10.433z" fill="#0091FF"/><path d="M28.34 90.32c1.404 5.21 6.213 8.438 6.213 8.438s2.533-5.222 1.13-10.433c-1.405-5.211-6.215-8.439-6.215-8.439s-2.533 5.222-1.129 10.433z" fill="#0091FF"/><path d="M30.403 89.2c3.853 3.765 4.324 9.554 4.324 9.554s-5.777-.317-9.63-4.083c-3.853-3.765-4.324-9.554-4.324-9.554s5.776.317 9.63 4.082z" fill="#3F3D56"/><path d="M39.05 89.2c-3.853 3.765-4.324 9.554-4.324 9.554s5.777-.317 9.63-4.083c3.853-3.765 4.324-9.554 4.324-9.554s-5.777.317-9.63 4.082z" fill="#3F3D56"/><path d="M92.682 86.409a2.82 2.82 0 002.815-2.826 2.82 2.82 0 00-2.815-2.826 2.82 2.82 0 00-2.815 2.826 2.82 2.82 0 002.815 2.826zm9.683 22.324s-4.378-6.087 2.593-13.167l-2.593 13.167zm-3.392.702s-2.993-6.881-12.61-4.459l12.61 4.459zm15.652-8.685c-.012-.142-.264-3.56 1.924-9.286 2.008-5.254 6.552-13.525 16.799-23.089 19.413-18.117 18.264-41.222 18.25-41.454l.647-.039c.004.059.328 5.966-1.78 14.046a58.29 58.29 0 01-16.676 27.924c-19.38 18.087-18.529 31.709-18.519 31.845l-.645.053z" fill="#F2F2F2"/><path d="M116.828 102.037s.895-11.2 15.679-12.476l-15.679 12.476zm-4.544-2.505s3.241-10.755-10.058-17.362l10.058 17.362z" fill="#F2F2F2"/><path d="M89.624 15.758s-1.675-.875-4.524.308c0 0-29.198 6.016-28.187 11.46 1.011 5.444 1.848 8.553 3.866 9.18 0 0 6.96 3.207 5.524 8.442l-.724 3.041 59.824-19.514s-2.297-9.535-.95-11.93c1.348-2.396-.989-12.06-3.617-11.508-2.627.551-32.616 8.505-31.212 10.52z" fill="#3F3D56"/><path d="M59.269 28.116c6.148-2.094 11.768-4.741 16.604-8.213 2.087 6.183 4.808 11.722 8.482 16.293-6.372.81-12.145 3.835-17.375 8.878-.655-5.98-3.477-11.59-7.711-16.958z" fill="#0091FF"/><path d="M61.251 36.204s-16.63 9.908-7.007 15.576l1.508.788 5.036 17.805 82.782-26.225-4.534-17.543.376-2.368s3.943-9.65-15.254-6.608l-.672 9.403L67.583 44.32s-3.356-9.34-6.332-8.116z" fill="#3F3D56"/><path d="M67.176 67.084l-5.221 1.654 1.246 3.964 5.221-1.654-1.246-3.964zm75.141-23.804l-5.222 1.654 1.246 3.964 5.221-1.654-1.245-3.964zm-47.352-7.142s-15.26-4.936-27.985 8.936l-2.495 8.101 2.62 5.215s32.381-9.696 31.678-13.269c-.703-3.573-3.818-8.983-3.818-8.983zm29.198-9.179s-24.084-.103-28.448 9.012l3.986 9.843s32.73-7.697 32.717-9.52c-.013-1.824-.682-4.846-.682-4.846l-7.573-4.49z" fill="#3F3D56"/><path opacity=".1" d="M124.163 26.959s-24.084-.103-28.448 9.012l.089.22-.085-.151s-16.015-4.838-28.739 9.034l-2.495 8.101 2.62 5.215s31.41-9.217 32.424-13.002l.173.426s32.73-7.697 32.717-9.52c-.013-1.824-.683-4.846-.683-4.846l-7.573-4.49z" fill="#000"/><path d="M122.886 9.086c-6.231 1.83-12.347 2.9-18.291 2.843 1.825 6.266 2.763 12.37 2.368 18.229 5.681-3.008 12.138-3.858 19.304-2.741-2.881-5.274-3.778-11.494-3.381-18.33z" fill="#0091FF"/><path d="M94.242 47.852l-.043-.007a.028.028 0 00-.032.024l-.129.815a.028.028 0 00.023.033l.044.007a.028.028 0 00.032-.024l.128-.816a.028.028 0 00-.023-.032z" fill="#464353"/><path d="M41.722 109.933H27.817l-2.418-8.278a3.393 3.393 0 011.725-3.978 3.36 3.36 0 011.509-.357h12.163a3.36 3.36 0 012.685 1.339 3.39 3.39 0 01.56 2.956l-2.32 8.318zM27.985 47.461a2.172 2.172 0 01-2.012-1.35 2.194 2.194 0 01.472-2.382 2.175 2.175 0 012.373-.474 2.18 2.18 0 011.345 2.02 2.187 2.187 0 01-2.179 2.186zm0-4.036a1.837 1.837 0 00-1.703 1.142 1.857 1.857 0 00.4 2.016 1.84 1.84 0 003.146-1.308c0-.49-.195-.961-.54-1.308a1.84 1.84 0 00-1.303-.542zm79.406-5.887a2.17 2.17 0 01-2.012-1.35 2.193 2.193 0 01.472-2.382 2.17 2.17 0 013.35.331 2.191 2.191 0 01-.271 2.76c-.408.41-.962.64-1.539.641zm0-4.036a1.838 1.838 0 00-1.703 1.142 1.85 1.85 0 001.343 2.522 1.837 1.837 0 001.892-.786 1.859 1.859 0 00-.23-2.336 1.84 1.84 0 00-1.302-.542zM71.708 21.695h-4.355v-4.372h4.355v4.372zm-4.02-.336h3.685v-3.7h-3.685v3.7z" fill="#3F3D56"/><path opacity=".1" d="M140.5 53.98a.65.65 0 00.031-.043l-.031.042z" fill="url(#paint0_linear)"/><path d="M144.792 56.075a3.591 3.591 0 00-.335-1.495l-2.082-5.004s-.076.105-.205.248c-.152-1.277-.732-3.712-2.92-3.869-2.975-.217-4.02 1.305-3.421 1.45.6.145 3.125 1.16 3.125 1.16l1.172 1.933a1.515 1.515 0 01-.063-.047l.043.176-.043-.032.043.177-.043-.032 1.132 4.692-2.312 2.121s-2.231 1.088-3.35 1.01a4.007 4.007 0 00-.635.013l.084-.056.737-.49c.569-.38 1.164-.788 1.449-1.4v-.01c.025-.044.048-.09.07-.135.3-.644.196-1.386.211-2.092.033-.43.04-.86.02-1.29a3.727 3.727 0 00-.346-1.177 4.324 4.324 0 00-1.557-1.85 3.15 3.15 0 00-2.373-.45 1.594 1.594 0 01-.404.071c-.265 0-.493-.168-.736-.27a1.534 1.534 0 00-1.765.504c-.168.222-.253.486-.422.702-.252.32-.659.523-.828.89l-.017.041a.837.837 0 00-.058.105c-.168.363-.057.785-.093 1.177a3.187 3.187 0 01-.335 1.009.837.837 0 00.2-.1 3.473 3.473 0 00-.049 2.765 6.146 6.146 0 01-.657 2.046l-.021.02h-.01l-.061.047-.067.045c.077-.12.166-.245.267-.375-.148.178-.838.86-2.275.032-1.637-.942-5.503-.942-5.503-.942l-3.853-1.734c.07-1.22.397-5.989 1.172-6.242a2.355 2.355 0 01-.229.075l.018-.03.019-.027.018-.025.02-.024.019-.02.02-.02.018-.015.022-.017.018-.012.024-.012.03-.013s-.081.032-.211.069l.068-.114a.335.335 0 01.143-.101l-.102.037.995-1.632s2.528-1.009 3.124-1.16c.596-.152-.446-1.669-3.421-1.45-2.01.148-2.663 2.22-2.874 3.545-.009-.021-.019-.042-.027-.065l-2.962 7.7s0 .036.018.098l-.018.047s0 .036.018.098l-.018.047s.223 1.668 1.859 2.321l6.174 3.7s2.68 1.594 2.68 5.584c0 3.989.521 10.296.521 10.296l.29.168c-.466 1.303-1.365 3.63-2.002 4.036-.893.58-3.124 5.584-3.124 5.584h.067l-.066.145h.335l-1.821 3.55s-.594 1.594 0 2.61c.595 1.016.446 3.118.446 3.118s1.189 3.407 2.156 5.004c.491.81.58 1.806.546 2.591l-2.034 3.354s-.966.869-1.71.725c-.348-.068-.697.373-.655.817v.19c0 .015.003.03.008.045v.016l.01.035v.017l.012.035v.015l.019.042.026.047v.012l.024.035.012.016.023.03.013.015.029.032.012.012.045.042.043.035.017.012.037.025.02.013.04.024.022.012.052.027h.013l.071.03h.02l.057.02.028.009.056.016.03.009.062.015h.028l.096.018.094.014h.844l.104-.01h.048l.158-.02c3.049-.436 6.619-2.03 6.619-2.03.019-.213.028-.426.025-.639.01-.87-.138-2.599-1.402-3.082h-.066c-.311-.965-.564-2.186-.343-3.225.445-2.103-1.265-5.944-1.265-7.25 0-.29-.372-.942.372-1.886.347-.439 1.144-1.192 1.89-2.018-.078.117-.163.23-.255.336.032.01.065.016.099.02-.032.04-.064.083-.099.125 0 0 .99.321 1.791-1.098a4.53 4.53 0 00.144-.28c.817-1.74 2.9-4.204 3.942-4.06.96.133 3.122 1.995 3.57 3.307.035.104.06.21.073.32.149 1.305 2.083 1.45 2.083 1.45l-.118-.159.074.009c.423.656.811 1.336 1.161 2.035.595 1.305.521 2.174.521 2.174-1.637 3.335-1.042 5.365-1.042 7.4a9.057 9.057 0 01-.168 1.643c-1.06.658-1.248 3.578-1.248 3.578l.01.011v.133s2.187 2.276 5.09 2.563l.136.012h1.14l.049-.01h.037l.047-.01.033-.008.045-.012.031-.009.043-.013.029-.01.042-.015.026-.01.041-.017.023-.01.04-.017.022-.01.038-.019.021-.01.036-.02.017-.01.035-.022.015-.01.034-.024.013-.01.032-.025.012-.008.03-.027.01-.009.03-.028.029-.031.027-.031.025-.034.021-.035.021-.037.018-.039a.638.638 0 00.054-.336.63.63 0 00-.153-.485.608.608 0 00-.462-.207c-.893 0-1.34-1.009-1.34-1.009l-1.575-3.737-.039-.01c.067-.368.126-.726.151-.969.045-.449.948-2.677 1.628-4.308a10.17 10.17 0 00.759-3.063 8.791 8.791 0 01.29-1.618 3.43 3.43 0 00-.055-2.018 7.647 7.647 0 01-.359-1.726c-.078-.896-.445-1.803-.807-2.506h.032l-.049-.158.049.012s-1.488-4.857-2.232-5.51c-.539-.472-1.78-2.69-2.451-4.078.133-.18.256-.368.369-.562l-.022-.109.022-.035-.022-.11.022-.035s-.756-3.76-.784-6.462c.008-.867.104-1.599.335-2.018 0 0 .298-4.567 2.68-5.437l6.179-5.501s.66-.404.628-1.479c-.003-.047-.003-.094-.005-.144zm-16.907 2.758l.067-.103-.067.103zm5.272.168s-.011.07-.041.184a2.413 2.413 0 01-.222-.529c.196-.043.389-.103.575-.178.115.132.263.23.429.286a7.04 7.04 0 00-.741.239V59zm1.491 30.544c.168.25.335.518.503.79-.159-.23-.354-.523-.503-.789v-.001z" fill="url(#paint1_linear)"/><path d="M119.931 87.274l-2.136 4.289s-.569 1.572 0 2.573c.57 1 .428 3.074.428 3.074s1.139 3.364 2.065 4.933c.927 1.569.357 3.868.357 3.868l3.702.429s-1.424-2.788-1.005-4.862c.419-2.074-1.211-5.86-1.211-7.15 0-.285-.357-.93.357-1.858.713-.928 3.417-3.288 3.35-4.647l-5.907-.649zm18.877-1s1.367 1.9 1.526 3.75c.048.578.16 1.148.335 1.7.21.642.229 1.332.054 1.985a8.902 8.902 0 00-.278 1.596 10.321 10.321 0 01-.727 3.027c-.652 1.61-1.508 3.806-1.558 4.248-.072.715-.428 2.431-.428 2.431l-2.848 1.073s.855-2.074.855-4.075c0-2.002-.57-4.003 1.005-7.293 0 0 .072-.857-.503-2.144-.574-1.287-2.777-4.647-2.777-4.647l5.344-1.651z" fill="#F7BBC3"/><path opacity=".1" d="M134.198 88.823c-.235.256.973 1.884.973 1.884s-1.851-.143-1.993-1.43a1.69 1.69 0 00-.072-.314c-.429-1.293-2.5-3.128-3.418-3.26-1.005-.142-2.99 2.288-3.774 4.003-.045.1-.091.19-.138.276-.765 1.4-1.713 1.083-1.713 1.083.502-.622.606-1.115.449-1.514-.624-1.542-5.291-1.496-5.291-1.496s2.136-4.933 2.99-5.505c.855-.572 2.208-4.862 2.208-4.862s10.184-1.144 10.255-.644c.07.5 2.065 4.433 2.777 5.076.712.642 2.136 5.437 2.136 5.437-2.421-.715-5.091 1.036-5.376 1.251l-.013.015z" fill="#000"/><path d="M134.198 88.68c-.235.256.973 1.884.973 1.884s-1.851-.143-1.993-1.43a1.69 1.69 0 00-.072-.314c-.429-1.293-2.5-3.128-3.418-3.26-1.005-.142-2.99 2.288-3.774 4.003-.045.1-.091.19-.138.276-.765 1.4-1.71 1.081-1.71 1.081.503-.622.606-1.115.449-1.513-.623-1.542-5.29-1.497-5.29-1.497s2.136-4.933 2.99-5.505c.854-.571 2.208-4.862 2.208-4.862s10.184-1.143 10.254-.644c.07.5 2.066 4.433 2.777 5.076.712.642 2.136 5.434 2.136 5.434-2.42-.715-5.091 1.036-5.375 1.251l-.017.02z" fill="#8499F0"/><path opacity=".1" d="M120.823 104.683l-1.959 3.325s-.926.857-1.638.714c-.712-.142-1.424 2.002 1.496 1.573 2.92-.429 6.337-2.001 6.337-2.001s.32-2.896-1.316-3.532l-2.92-.079zm17.233-1.149l1.531 3.611s.427 1.009 1.281 1.009c.855 0 1.14 1.788-1.638 1.502-2.777-.286-4.843-2.503-4.843-2.503s.214-3.431 1.496-3.646a5.445 5.445 0 012.173.027z" fill="#000"/><path d="M120.823 104.826l-1.959 3.325s-.926.857-1.638.714c-.712-.143-1.424 2.002 1.496 1.573 2.92-.429 6.337-2.001 6.337-2.001s.32-2.897-1.316-3.532l-2.92-.079zm17.233-1.144l1.531 3.611s.427 1.009 1.281 1.009c.855 0 1.14 1.788-1.638 1.502-2.777-.286-4.843-2.503-4.843-2.503s.214-3.431 1.496-3.646a5.445 5.445 0 012.173.027z" fill="#B77983"/><path opacity=".1" d="M134.317 76.907c.072.505 2.065 4.434 2.777 5.076.653.59 1.908 4.679 2.109 5.342.129.025.257.053.384.09 0 0-1.424-4.79-2.136-5.433-.712-.645-2.706-4.577-2.778-5.076-.013-.1-.43-.135-1.085-.125.446.012.717.047.729.126zm-4.986 8.652c-1.005-.143-2.99 2.287-3.774 4.002-.045.1-.091.19-.137.276-.443.808-.944 1.043-1.29 1.099.229.042 1.005.077 1.646-1.099.047-.086.093-.176.138-.276.718-1.574 2.454-3.747 3.506-3.985l-.089-.017zm4.867 3.121l.012-.012c.229-.168 2.01-1.345 3.961-1.417-2.085-.073-4.074 1.234-4.318 1.417l-.012.012c-.206.226.702 1.514.925 1.817.133.03.268.052.403.065 0 0-1.206-1.628-.971-1.882z" fill="#000"/><path d="M115.872 49.956s0-4.36 2.848-4.576c2.848-.215 3.853 1.287 3.275 1.43-.578.143-2.99 1.143-2.99 1.143l-1.566 2.646-1.567-.643zm25.784 1.001s0-4.36-2.848-4.576c-2.848-.215-3.853 1.286-3.275 1.43.578.142 2.99 1.143 2.99 1.143l1.567 2.646 1.566-.643zm-12.9 4.504s.215 2.86-1.566 4.504c-1.781 1.645 4.136 3.71 4.136 3.71l2.635-3.145s-2.136-1.287-1.005-3.503l-4.2-1.566z" fill="#F7BBC3"/><path opacity=".1" d="M128.192 58.821s-.642 1.01-2.208.073c-1.566-.937-5.269-.937-5.269-.937l-3.702-1.716s.285-6.148 1.139-6.434c0 0-1.708.715-2.208-.715l-2.848 7.578s.215 1.645 1.781 2.288l5.91 3.646s2.564 1.572 2.564 5.504c0 3.932.502 10.152.502 10.152s8.254 5.01 11.604-.851c0 0-1.353-6.934-.427-8.652 0 0 .285-4.504 2.563-5.361l5.906-5.44s1.139-.714.284-2.788l-1.993-4.932s-1.211 1.715-2.208.857l1.139 4.862-2.278 2.145s-2.136 1.073-3.205 1.009c-1.069-.064-2.278.429-2.278.429s-.503 2.859-2.778 2.573c.003-.002-4.34-.217-1.99-3.29z" fill="#000"/><path opacity=".1" d="M128.192 58.535s-.642 1.01-2.208.073c-1.566-.937-5.269-.932-5.269-.932l-3.702-1.715s.285-6.15 1.139-6.435c0 0-1.708.715-2.208-.715l-2.848 7.578s.215 1.645 1.781 2.288l5.909 3.653s2.563 1.572 2.563 5.504c0 3.932.502 10.152.502 10.152s8.256 4.998 11.606-.856c0 0-1.353-6.935-.427-8.652 0 0 .285-4.504 2.563-5.361l5.906-5.441s1.139-.715.284-2.788l-1.993-4.933s-1.211 1.715-2.208.858l1.139 4.862-2.278 2.144s-2.136 1.073-3.205 1.009c-1.069-.064-2.278.429-2.278.429s-.503 2.859-2.778 2.573c.003-.005-4.34-.222-1.99-3.295z" fill="#000"/><path d="M128.189 58.683l-.029.04.029-.04zm15.31-.863l-5.911 5.434c-2.278.858-2.563 5.362-2.563 5.362-.926 1.716.427 8.651.427 8.651-3.35 5.863-11.607.858-11.607.858s-.017-.205-.044-.567c-.023-.316-.055-.753-.09-1.273-.047-.672-.101-1.485-.151-2.366-.112-1.926-.214-4.17-.214-5.945 0-3.932-2.563-5.505-2.563-5.505l-4.423-2.738-1.478-.911c-1.566-.645-1.78-2.288-1.78-2.288l2.847-7.578c.466 1.335 1.989.799 2.187.723-.838.38-1.118 6.426-1.118 6.426l3.703 1.716s3.702 0 5.27.93c1.34.79 1.995.185 2.163-.015-2.252 3.027 2.038 3.23 2.038 3.23 2.279.287 2.778-2.573 2.778-2.573s1.211-.504 2.278-.428c1.067.075 3.205-1.01 3.205-1.01l2.278-2.144-1.139-4.862c1.005.858 2.208-.858 2.208-.858l1.993 4.933c.85 2.082-.294 2.799-.294 2.799z" fill="#D39999"/><path opacity=".1" d="M128.757 55.747c.021.45-.002.9-.069 1.345a3.5 3.5 0 001.622 1.8 3.479 3.479 0 002.399.308 2.534 2.534 0 01.252-1.877l-4.204-1.576z" fill="#000"/><path d="M131.931 59a3.497 3.497 0 003.49-3.504 3.497 3.497 0 00-3.49-3.503 3.496 3.496 0 00-3.489 3.503A3.496 3.496 0 00131.931 59z" fill="#F7BBC3"/><path opacity=".1" d="M131.874 53.503c-.03.355-.055.734.107 1.05.091.159.204.304.335.43l.731.755c.23.204.409.459.521.745.211.707-.412 1.408-.392 2.147a.952.952 0 001.079.4c.161-.062.313-.147.45-.25l.706-.485c.544-.374 1.114-.777 1.387-1.38.286-.633.189-1.367.202-2.063.032-.423.038-.849.019-1.273a3.77 3.77 0 00-.335-1.167 4.244 4.244 0 00-1.491-1.822 2.955 2.955 0 00-2.272-.442c-.125.04-.254.063-.385.069-.253 0-.471-.168-.704-.267a1.44 1.44 0 00-1.69.489c-.154.219-.243.48-.404.691-.239.316-.63.517-.792.878-.163.362-.054.775-.089 1.166a3.23 3.23 0 01-.316 1c.395-.138.588-.572.837-.904a2.223 2.223 0 011.633-.831c.218-.01.622-.027.795.14.231.21.092.669.068.924z" fill="#000"/><path d="M131.94 53.36c-.031.355-.056.734.107 1.05.09.159.203.304.335.43l.73.755c.23.204.409.459.521.745.211.707-.412 1.408-.392 2.146a.954.954 0 001.079.4c.167-.062.325-.149.467-.257l.706-.484c.544-.373 1.114-.777 1.387-1.379.286-.634.189-1.367.202-2.064.032-.423.038-.848.019-1.273a3.77 3.77 0 00-.335-1.167 4.244 4.244 0 00-1.491-1.821 2.955 2.955 0 00-2.272-.443c-.125.04-.254.063-.385.07-.253 0-.471-.169-.704-.268a1.44 1.44 0 00-1.69.49c-.154.218-.243.479-.404.69-.239.317-.63.517-.792.879-.163.361-.054.775-.089 1.165-.05.349-.157.687-.316 1 .395-.137.588-.571.837-.904a2.224 2.224 0 011.634-.831c.217-.01.621-.027.794.14.219.216.08.67.052.931z" fill="#74585E"/><path opacity=".1" d="M128.164 58.717a.63.63 0 00.03-.04l-.03.04zm12.056-7.521a.915.915 0 01-.635-.239l.069.29a1 1 0 00.566-.051zm-12.623 7.893c-1.784 2.75 2.233 2.95 2.233 2.95.306.042.618.02.915-.066a2.367 2.367 0 01-.558 0s-4.305-.214-2.024-3.25a1.153 1.153 0 01-.566.366zm7.289-.054a2.98 2.98 0 00.856-.103c-.166.03-.334.04-.502.032a4.656 4.656 0 00-1.319.133 4.16 4.16 0 01.965-.062zm8.901-4.003l-1.994-4.933a3.54 3.54 0 01-.258.315l1.896 4.684c.855 2.073-.284 2.788-.284 2.788l-5.91 5.434c-2.279.858-2.564 5.362-2.564 5.362-.926 1.715.428 8.651.428 8.651-.898 1.573-2.15 2.355-3.502 2.677 1.486-.254 2.88-1.039 3.853-2.75 0 0-1.353-6.933-.427-8.65 0 0 .285-4.504 2.563-5.362l5.911-5.427s1.144-.717.288-2.789zm-25.635-5.362c-.146.057-.297.1-.45.13-.781.688-1.044 6.376-1.044 6.376l3.702 1.715s3.702 0 5.271.93c.767.456 1.311.448 1.675.321-.335.02-.766-.069-1.312-.392-1.566-.93-5.27-.93-5.27-.93l-3.713-1.713s.285-6.15 1.141-6.437zm-.619.159c-.542.07-1.285-.009-1.587-.873l-.167.445c.465.665 1.318.544 1.754.428zm6.03 24.088c-.112-1.925-.214-4.169-.214-5.945 0-3.932-2.563-5.505-2.563-5.505l-4.426-2.736c2.58.673 6.012 1.832 6.32 3.195.503 2.217 1.424 2.43 1.069 6.223a43.12 43.12 0 00-.186 4.768zm.67 5.458s.642 2.001-1.139 3.288l1.139-3.288zm9.976 0s.215 1.502 1.069 2.073l-1.069-2.073zm-9.15 28.774s-3.417 1.572-6.337 2.001c-1.481.217-2.027-.227-2.113-.698-.097.55.336 1.247 2.113.984 2.92-.429 6.337-2.001 6.337-2.001.022-.238.03-.476.024-.715-.012.262-.024.429-.024.429zm14.241 1.502c-2.777-.286-4.843-2.503-4.843-2.503s.106-1.692.612-2.773c-.568 1.068-.684 2.916-.684 2.916s2.066 2.217 4.843 2.503c1.419.146 2.039-.249 2.192-.673-.233.365-.863.659-2.12.53z" fill="#000"/><defs><linearGradient id="paint0_linear" x1="167.584" y1="71.624" x2="167.584" y2="71.614" gradientUnits="userSpaceOnUse"><stop stop-color="gray" stop-opacity=".25"/><stop offset=".54" stop-color="gray" stop-opacity=".12"/><stop offset="1" stop-color="gray" stop-opacity=".1"/></linearGradient><linearGradient id="paint1_linear" x1="26383" y1="50161.2" x2="26383" y2="24234.7" gradientUnits="userSpaceOnUse"><stop stop-color="gray" stop-opacity=".25"/><stop offset=".54" stop-color="gray" stop-opacity=".12"/><stop offset="1" stop-color="gray" stop-opacity=".1"/></linearGradient></defs></svg>