<svg width="203" height="124" fill="none" xmlns="http://www.w3.org/2000/svg"><g clip-path="url(#clip0)"><path d="M195.622 96.05s6.393 6.797 6.669 13.918c.276 7.121-5.473 13.179-5.473 13.179H1.518S-5.796 93.876 16.88 94.061c0 0-14.121-32.924 5.06-55.398C41.12 16.19 67.751 26.687 67.751 26.687S64.855 9.762 76.4 3.612l.275-.138.276-.14c11.73-5.826 20.515 3.053 20.515 3.053s2.944-2.728 6.853-4.578a4.47 4.47 0 01.506-.231c2.162-.971 4.6-1.665 6.946-1.434 6.761.648 9.613 8.601 9.613 8.601s4.232-2.173 10.809-3.884c.184-.046.322-.093.506-.139 9.843-2.497 24.608-3.884 38.315 4.023 23.32 13.41 20.1 34.543 20.1 34.543s21.48 8.6 6.44 32.646c0 0 4.875 4.81 4.829 10.127-.092 5.272-6.761 9.988-6.761 9.988z" fill="#E0F0F8"/><path opacity=".1" d="M46.264 73.413l-.299-.086c.086-.281.11-.508.04-.614-.343-.508-4.727-1.573-5.284-2.423-.558-.85-1.852-1.373-1.852-1.373s-1.334-.811-1.425-1.545c-.09-.733.261-1.28.35-1.601.09-.322.317-3.43.317-3.43s1.502-11.053-5.199-10.094c0 0-3.589 1.602-3.414 5.53.127 2.532.402 5.054.823 7.553 0 0-.733 5.912 2.321 7.436a161.108 161.108 0 005.882 2.778s4.778.515 5.373.73c.225.082.632-.338 1.03-.916l.227.212 3.893 3.661s5.024 1.066 6.42-.944c1.182-1.691-6.68-4.141-9.203-4.874z" fill="#000"/><path d="M114.071 78.709c0 1.248-1.012 2.312-2.3 2.312a2.313 2.313 0 010-4.624c1.288.046 2.3 1.063 2.3 2.312z" fill="#FF5447"/><path d="M114.071 78.709c0 1.248-1.012 2.312-2.3 2.312a2.313 2.313 0 010-4.624c1.288.046 2.3 1.063 2.3 2.312z" fill="#FF5447"/><path d="M114.071 78.709c0 1.248-1.012 2.312-2.3 2.312a2.313 2.313 0 010-4.624c1.288.046 2.3 1.063 2.3 2.312z" fill="#FF5447"/><path d="M110.575 78.524c0-.925.552-1.757 1.38-2.081h-.138a2.313 2.313 0 000 4.624c.322 0 .644-.092.92-.185-1.196-.139-2.162-1.11-2.162-2.358z" fill="#EB4336"/><path d="M146.912 78.709c0 1.248-1.012 2.312-2.3 2.312a2.313 2.313 0 010-4.624c1.288.046 2.3 1.063 2.3 2.312z" fill="#FF5447"/><path d="M146.912 78.709c0 1.248-1.012 2.312-2.3 2.312a2.313 2.313 0 010-4.624c1.288.046 2.3 1.063 2.3 2.312z" fill="#FF5447"/><path d="M146.912 78.709c0 1.248-1.012 2.312-2.3 2.312a2.313 2.313 0 010-4.624c1.288.046 2.3 1.063 2.3 2.312z" fill="#F4F4F2"/><path d="M143.416 78.524c0-.925.552-1.757 1.38-2.081h-.138a2.313 2.313 0 000 4.624c.322 0 .644-.092.92-.185-1.242-.139-2.162-1.11-2.162-2.358z" fill="#E3E3E3"/><path d="M125.984 78.709c0 1.248-1.012 2.312-2.3 2.312a2.313 2.313 0 010-4.624c1.242.046 2.3 1.063 2.3 2.312z" fill="#FF5447"/><path d="M125.984 78.709c0 1.248-1.012 2.312-2.3 2.312a2.313 2.313 0 010-4.624c1.242.046 2.3 1.063 2.3 2.312z" fill="#FF5447"/><path d="M125.984 78.709c0 1.248-1.012 2.312-2.3 2.312a2.313 2.313 0 010-4.624c1.242.046 2.3 1.063 2.3 2.312z" fill="#7AB46F"/><path d="M122.442 78.524c0-.925.552-1.757 1.38-2.081h-.138a2.313 2.313 0 000 4.624c.322 0 .644-.092.92-.185-1.196-.139-2.162-1.11-2.162-2.358z" fill="#2F8D45"/><path d="M65.913 78.709c0 1.248-1.012 2.312-2.3 2.312a2.313 2.313 0 010-4.624c1.288.046 2.3 1.063 2.3 2.312z" fill="#FF5447"/><path d="M65.913 78.709c0 1.248-1.012 2.312-2.3 2.312a2.313 2.313 0 010-4.624c1.288.046 2.3 1.063 2.3 2.312z" fill="#FF5447"/><path d="M65.913 78.709c0 1.248-1.012 2.312-2.3 2.312a2.313 2.313 0 010-4.624c1.288.046 2.3 1.063 2.3 2.312z" fill="#DEFCFF"/><path d="M62.417 78.524c0-.925.552-1.757 1.38-2.081h-.138a2.313 2.313 0 000 4.624c.322 0 .644-.092.92-.185-1.242-.139-2.162-1.11-2.162-2.358z" fill="#8DD8E0"/><path d="M140.794 78.709c0 1.248-1.011 2.312-2.299 2.312a2.313 2.313 0 010-4.624c1.288.046 2.299 1.063 2.299 2.312z" fill="#FF5447"/><path d="M140.794 78.709c0 1.248-1.011 2.312-2.299 2.312a2.313 2.313 0 010-4.624c1.288.046 2.299 1.063 2.299 2.312z" fill="#FF5447"/><path d="M140.794 78.709c0 1.248-1.011 2.312-2.299 2.312a2.313 2.313 0 010-4.624c1.288.046 2.299 1.063 2.299 2.312z" fill="#303030"/><path d="M137.299 78.524c0-.925.552-1.757 1.38-2.081h-.138a2.313 2.313 0 000 4.624c.322 0 .643-.092.919-.185-1.241-.139-2.161-1.11-2.161-2.358z" fill="#171717"/><path d="M60.301 78.709c0 1.248-1.012 2.312-2.3 2.312a2.313 2.313 0 010-4.624c1.242.046 2.3 1.063 2.3 2.312z" fill="#FF5447"/><path d="M60.301 78.709c0 1.248-1.012 2.312-2.3 2.312a2.313 2.313 0 010-4.624c1.242.046 2.3 1.063 2.3 2.312z" fill="#FF5447"/><path d="M60.301 78.709c0 1.248-1.012 2.312-2.3 2.312a2.313 2.313 0 010-4.624c1.242.046 2.3 1.063 2.3 2.312z" fill="#1253A3"/><path d="M56.76 78.524c0-.925.551-1.757 1.38-2.081H58a2.313 2.313 0 000 4.624c.322 0 .644-.092.92-.185-1.196-.139-2.162-1.11-2.162-2.358z" fill="#074491"/><path d="M199.946 123.517H1.15c-.184 0-.368-.185-.368-.37s.184-.37.368-.37h198.796c.184 0 .368.185.368.37s-.184.37-.368.37z" fill="#396091"/><path d="M145.992 88.373h-86.61c-4.738 0-8.556-3.838-8.556-8.6h103.721c0 4.716-3.817 8.6-8.555 8.6z" fill="#FBD5AF"/><path d="M67.292 122.823h-5.795L58.829 87.31H69.96l-2.668 35.513z" fill="#F5C698"/><path d="M68.718 87.31l-2.668 35.513h1.242L69.96 87.31h-1.242z" fill="#F3A769"/><path d="M68.305 91.564H60.53c-1.794 0-3.266-1.48-3.266-3.283h14.351c-.046 1.803-1.518 3.283-3.311 3.283z" fill="#FBD5AF"/><path d="M69.316 122.823h-9.843c0-1.156.966-2.127 2.116-2.127h5.612c1.195 0 2.115.925 2.115 2.127z" fill="#F3A769"/><path d="M144.06 122.777h-5.842l-2.621-35.005h11.131l-2.668 35.005z" fill="#F5C698"/><path d="M149.534 86.894H55.84c-2.76 0-5.014-2.266-5.014-5.04v1.479c0 2.774 2.254 5.04 5.014 5.04h93.74c2.76 0 5.013-2.266 5.013-5.04v-1.48c-.046 2.775-2.299 5.04-5.059 5.04z" fill="#F3A769"/><path d="M135.505 87.772l2.668 35.005h1.242l-2.668-35.005h-1.242z" fill="#F3A769"/><path d="M144.98 91.61h-7.773c-1.794 0-3.266-1.48-3.266-3.283h14.351c-.046 1.803-1.518 3.283-3.312 3.283z" fill="#FBD5AF"/><path d="M145.992 122.777h-9.843c0-1.156.966-2.127 2.116-2.127h5.611c1.15 0 2.116.971 2.116 2.127z" fill="#F3A769"/><path d="M161.033 84.026H44.754c-1.471 0-2.621-1.202-2.621-2.635a2.627 2.627 0 012.621-2.636h116.279c1.472 0 2.622 1.202 2.622 2.636.046 1.48-1.15 2.635-2.622 2.635z" fill="#F5C698"/><path d="M161.079 82.27H44.709c-1.15 0-2.117-.74-2.438-1.758a2.631 2.631 0 00-.138.832v.093c0 1.434 1.15 2.636 2.621 2.636h116.371a2.628 2.628 0 002.622-2.636v-.093a2.43 2.43 0 00-.138-.832c-.414 1.017-1.38 1.757-2.53 1.757z" fill="#F3A769"/><path d="M76.952 3.289v29.224c0 .139-.138.278-.276.278s-.276-.139-.276-.278V3.566l.276-.139.276-.138zm27.92-1.758v30.982c0 .139-.138.278-.276.278s-.276-.139-.276-.278V1.763c.184-.047.368-.14.552-.232zm27.827 3.145v28.67c0 .138-.138.277-.276.277s-.276-.139-.276-.277V4.768c.23 0 .368-.046.552-.092z" fill="#23508A"/><path d="M79.803 29.045H73.64v2.96h6.163v-2.96z" fill="#23508A"/><path d="M76.676 30.479c-6.854 0-12.42 2.312-12.42 5.179H89.05c.046-2.867-5.52-5.18-12.373-5.18zm31.001-1.434h-6.163v2.96h6.163v-2.96z" fill="#23508A"/><path d="M104.595 30.479c-6.853 0-12.418 2.312-12.418 5.179h24.791c0-2.867-5.519-5.18-12.373-5.18zm30.956-1.48h-6.164v2.96h6.164v-2.96z" fill="#23508A"/><path d="M132.423 30.432c-6.853 0-12.419 2.313-12.419 5.18h24.792c.046-2.867-5.519-5.18-12.373-5.18z" fill="#23508A"/><path opacity=".49" d="M64.303 35.611h24.792l7.221 43.098H55.701l8.602-43.098z" fill="#FEE952"/><path opacity=".49" d="M92.177 35.611h24.791l7.268 43.098h-40.66l8.6-43.098z" fill="#FEE952"/><path opacity=".49" d="M120.05 35.611h24.792l7.221 43.098h-40.614l8.601-43.098z" fill="#FEE952"/><path opacity=".1" d="M40.026 129.526c13.591 0 24.61-2.098 24.61-4.686s-11.019-4.687-24.61-4.687c-13.59 0-24.608 2.099-24.608 4.687s11.017 4.686 24.608 4.686z" fill="#0091FF"/><path d="M55.286 78.129c-1.397 2.01-6.42.945-6.42.945l-3.894-3.662-.524-.496.879-1.877s.28.077.759.215c2.517.735 10.38 3.184 9.2 4.874z" fill="#EFB7B9"/><path opacity=".1" d="M46.083 73.254c-.172.601-.643 1.502-1.111 2.158l-.524-.496.879-1.877s.282.077.756.215z" fill="#000"/><path d="M32.73 52.09s-3.588 1.6-3.412 5.529c.127 2.531.4 5.053.822 7.552 0 0-.734 5.913 2.32 7.437a161.108 161.108 0 005.882 2.777s4.78.517 5.373.73c.594.214 2.45-3.05 2.108-3.56-.343-.508-4.73-1.574-5.288-2.422-.559-.849-1.852-1.373-1.852-1.373s-1.334-.812-1.425-1.545c-.09-.733.261-1.28.35-1.602.09-.321.317-3.427.317-3.427S39.43 51.13 32.73 52.09z" fill="#DCE6F2"/><path opacity=".1" d="M35.099 65.01s-4.923.828-4.447 2.56c0 0 1.788-1.87 4.447-2.56zm.038.7s-2.707 2.221-2.177 2.335c.53.114 2.177-2.335 2.177-2.335zm1.301.774s-.726 1.494-.28 1.392c.446-.1.28-1.392.28-1.392z" fill="#000"/><path d="M30.665 37.343a1.184 1.184 0 00-.387.15c-.14.117-.14.316-.175.49a1.616 1.616 0 01-.28.672 1 1 0 00.466-.078c-.024.193-.07.381-.14.562a.45.45 0 00.42-.257c.073-.158.132-.323.174-.493a.409.409 0 01.067-.14c.129-.153.368-.085.566-.065a.925.925 0 00.85-.41c.21-.322.224-1.145-.28-1.232-.525-.087-.852.64-1.281.8z" fill="#965D7B"/><path opacity=".1" d="M30.264 37.666c.013-.07.021-.14.036-.21-.132.117-.14.315-.174.49a1.596 1.596 0 01-.083.297c.11-.176.185-.372.221-.577zm.045 1.16c.07-.18.116-.37.14-.562a.995.995 0 01-.444.077 1.625 1.625 0 01-.16.281.99.99 0 00.464-.075c-.024.192-.07.38-.14.561a.452.452 0 00.42-.257c.034-.063.062-.13.083-.2a.42.42 0 01-.363.175zm1.227-.956c-.199-.019-.44-.088-.568.066a.435.435 0 00-.067.14 1.502 1.502 0 00-.033.112c.132-.105.348-.049.528-.03a.929.929 0 00.85-.41.78.78 0 00.093-.221.932.932 0 01-.803.344z" fill="#000"/><path d="M34.871 48.945l2.131 2.576-.278 2.6-2.575-4.053.722-1.123z" fill="#DCE6F2"/><path opacity=".1" d="M37 51.52l-.26 2.447-.017.154-2.324-3.658-.25-.395.072-.113.649-1.01.144.174L37 51.52z" fill="#000"/><path d="M38.108 45.456c-.721.208-1.41.922-2.01 1.789a15.304 15.304 0 00-1.084 1.874c-.197.396-.37.777-.515 1.108l-.1.236c-.243.578-.379.964-.379.964s-5.52-4.172-4.646-4.453c.293-.094.679-.727 1.06-1.523l.048-.101c.242-.511.48-1.082.69-1.619.432-1.102.752-2.06.752-2.06s8.385 3.153 6.184 3.785z" fill="#EFB7B9"/><path d="M41.41 41.436s1.274 2.318 2.986 2.002c1.712-.316 1.008-1.245 1.008-1.245l-3.994-.757z" fill="#444053"/><path d="M38.94 121.669c-1.129.518-3.682 0-3.682 0l-1.076-.067c-1.397-.09-3.736-.242-4.564-.31-1.207-.099-.91-.597-.91-.597v-3.004l5.857-1.492s2.316.796 2.95 1.492c.602.663.955.153 2.03.344.052.01.108.021.167.035 1.02.235 1.573.327 1.9 1.177.066.179.119.362.158.548.302 1.368-1.702 1.358-2.83 1.874z" fill="#A36468"/><path opacity=".1" d="M41.612 119.247c-.21.132-.43.246-.66.34-.768.353-1.499.783-2.276 1.116-.777.332-1.614.57-2.455.507-.44-.033-.89-.141-1.31-.014-.26.101-.506.237-.729.406-1.397-.09-3.736-.242-4.564-.309-1.207-.1-.91-.597-.91-.597v-.352c.043 0 .091-.012.147-.017.29-.004.578.039.853.128.606.166 1.21.329 1.816.492a1.446 1.446 0 01.7-.896 2.21 2.21 0 011.125-.26c.94.013 1.831.461 2.77.506a1.52 1.52 0 00.767-.13c.129-.064.242-.158.368-.23.201-.098.414-.17.633-.215.616-.154 1.22-.35 1.81-.587.167-.066.363-.186.34-.365-.029-.239-.402-.267-.5-.486a.287.287 0 01.011-.249c.053.01.11.021.168.035 1.016.235 1.57.327 1.896 1.177z" fill="#000"/><path d="M37.747 128.243c-1.328.61-4.332 0-4.332 0l-1.265-.074c-1.637-.105-4.396-.281-5.37-.364-1.421-.118-1.072-.702-1.072-.702v-3.542l6.894-1.756s2.725.937 3.47 1.756c.71.78 1.119.18 2.39.405.062.011.128.025.196.041 1.2.281 1.852.386 2.236 1.386.078.21.14.426.186.645.346 1.61-2.005 1.597-3.333 2.205z" fill="#A36468"/><path opacity=".1" d="M40.891 125.393a5.156 5.156 0 01-.775.4c-.904.415-1.765.921-2.68 1.312-.913.392-1.898.671-2.89.597-.516-.037-1.046-.168-1.536-.016a3.55 3.55 0 00-.86.483c-1.637-.106-4.396-.281-5.37-.364-1.421-.118-1.072-.702-1.072-.702v-.413a1.71 1.71 0 01.175-.02c.34-.006.68.045 1.003.15l2.137.579a1.7 1.7 0 01.829-1.055 2.596 2.596 0 011.326-.306c1.106.015 2.153.542 3.259.595.307.029.617-.023.9-.15.152-.077.279-.188.433-.271.236-.116.486-.201.744-.253a16.748 16.748 0 002.119-.691c.197-.079.427-.219.401-.43-.035-.281-.474-.314-.59-.573a.34.34 0 01.014-.292c.063.011.129.025.197.041 1.2.269 1.852.379 2.236 1.379z" fill="#000"/><path d="M34.743 103.942l-.373 8.827s-.56 1.802-.256 2.317c.303.516.815 1.03.629 1.335-.186.305-2.422 3.6-3.145 2.336-.722-1.264-1.435-6.743-1.435-6.743l.667-6.767 3.913-1.305zm1.617-21.99l1.038 1.394v12.12s.303 3.231 0 3.898c-.304.667-1.84 2.002-1.84 2.002l-1.293-6.673.28-7.058 1.816-5.683z" fill="#444053"/><path opacity=".1" d="M34.743 103.942l-.373 8.827s-.56 1.802-.256 2.317c.303.516.815 1.03.629 1.335-.186.305-2.422 3.6-3.145 2.336-.722-1.264-1.435-6.743-1.435-6.743l.667-6.767 3.913-1.305zm1.617-21.99l1.038 1.394v12.12s.303 3.231 0 3.898c-.304.667-1.84 2.002-1.84 2.002l-1.293-6.673.28-7.058 1.816-5.683z" fill="#000"/><path d="M37.398 76.783v6.556l-1.165 5.103s-.373 12.316-.047 13.813c.326 1.498-1.118 2.904-1.118 2.904s-.838.094-.838.749c0 .654-1.398 2.528-1.398 2.528l.046 3.653s.607 6.837-.325 8.147c-.932 1.311.325 1.499.325 1.499-1.164 3.839-6.753 2.95-7.258 2.529-.504-.422 0-8.71 0-8.71s1.25-12.643 2.227-13.205c.979-.562.048-1.264.374-2.107.325-.843-.326-3.137-.326-3.137s-.28-2.716-.978-4.027c-.699-1.31-.607-4.917-.607-4.917s-1.956-2.622-2.537-3.652c-.582-1.03-.956-3.699-.817-5.713.096-1.361.807-3.344 1.258-4.484.217-.547.373-.9.373-.9l.133.034 7.633 2.01 5.045 1.327z" fill="#444053"/><path opacity=".1" d="M38.108 45.457c-.721.207-1.41.921-2.01 1.788h-.156a4.973 4.973 0 01-2.503-.674 5.005 5.005 0 01-1.83-1.845 4.951 4.951 0 01-.438-1.004c.432-1.103.752-2.061.752-2.061s8.386 3.163 6.185 3.796z" fill="#000"/><path d="M40.937 41.945a5.044 5.044 0 01-.509 2.217 5.016 5.016 0 01-1.43 1.764 4.982 4.982 0 01-4.322.885 4.988 4.988 0 01-2.004-1.06 5.045 5.045 0 01-.553-7.034 4.978 4.978 0 017.983.436 5.04 5.04 0 01.828 2.424c.003.123.007.245.007.368z" fill="#EFB7B9"/><path opacity=".1" d="M36.74 53.967l-.017.154-2.324-3.652c-.243.577-.379.963-.379.963s-5.52-4.177-4.646-4.458c.293-.094.679-.727 1.06-1.523l.048-.101c.405 1.213 2.76 3.64 3.74 4.612.113.112.206.205.279.272l.15.14.078.08c.356.369 1.86 1.998 2.01 3.513z" fill="#000"/><path d="M38.477 66.36l-.255 8.227-.045 1.465s-3.012-.28-5.824-.59c-2.264-.248-4.398-.517-4.726-.674-.42-.198-1.318-.351-2.026-.448a25.097 25.097 0 00-.979-.114s-.16.048-.408.093c-.54.098-1.487.178-2.038-.304-.706-.616 1.148-2.857 1.61-3.395l.103-.117-.175-1.622-.454-4.207s-.28-2.424-.699-3.723a6.908 6.908 0 01-.242-1.13 9.102 9.102 0 01.235-3.55c.133-.49.217-.993.252-1.5.07-1.3 4.017-6.322 4.995-6.779a2.08 2.08 0 001.001-1.003c.068-.139.12-.285.152-.437.42-1.826 1.48-1.101 1.48-1.101.256 1.429 4.215 5.21 4.215 5.21l.078.079c.393.404 2.142 2.304 2.018 3.925a4.781 4.781 0 00.264 1.775 30.172 30.172 0 011.377 7.867l.09 2.052z" fill="#DCE6F2"/><path opacity=".1" d="M32.867 56.59s-.978 2.387-1.711 2.774c-.734.386 2.06.815 1.711-2.775zm.733 4.46s-2.235.28-2.235.702c0 .421 2.236-.703 2.236-.703zm2.342 2.739s-3.25 6.953-4.158 7.164c-.908.21 4.158-7.164 4.158-7.164zm-1.354-12.775L31.9 52.188l-3.243-4.925c.068-.139.12-.285.152-.437.42-1.826 1.48-1.101 1.48-1.101.256 1.428 4.215 5.21 4.215 5.21l.084.079z" fill="#000"/><path d="M34.727 50.733l-2.687 1.174-3.244-4.925c.069-.139.12-.285.153-.437.419-1.826 1.48-1.101 1.48-1.101.255 1.428 4.214 5.21 4.214 5.21l.084.079z" fill="#DCE6F2"/><path opacity=".1" d="M38.178 76.052s-3.013-.28-5.825-.59l5.045 1.328v1.545c-.221.2-.413.305-.537.251-.581-.245-5.325-1.018-5.325-1.018s-2.756-1.405-5.73-3.09a3.313 3.313 0 01-1.09-1.018c-.55-.8-.817-1.827-.933-2.834a12.32 12.32 0 01-.073-1.74c.014-.658.074-1.315.179-1.965a64.953 64.953 0 01-.42-7.585c.035-3.934 3.704-5.338 3.704-5.338 6.742-.597 4.652 10.36 4.652 10.36s-.39 3.09-.496 3.406c-.107.316-.488.843-.436 1.58.051.738 1.34 1.62 1.34 1.62s1.258.593 1.776 1.471c.377.648 2.828 1.526 4.213 2.152l-.044 1.465zm2.258-37.226a1.6 1.6 0 01-.14.672 4.233 4.233 0 01-.249.5 2.302 2.302 0 01-.612.764c-.323.232-.73.296-1.118.39-.387.094-.79.245-1.01.576-.12.213-.2.447-.236.689-.037.241-.133.47-.28.666a.55.55 0 01-.654.157.664.664 0 01-.253-.328c-.159-.36-.2-.76-.264-1.15-.064-.39-.155-.79-.392-1.103-.238-.313-.659-.52-1.032-.397a.996.996 0 00-.559.545 3.135 3.135 0 00-.21.775 44.524 44.524 0 01-.614 2.843.262.262 0 01-.046.107.2.2 0 01-.14.06c-.313.041-.613-.18-.93-.155a.533.533 0 00-.096.015 5.04 5.04 0 01.505-5.731l.025-.007c.21-.075.4-.196.559-.354a5.92 5.92 0 00.559-.65l.112-.141a6.386 6.386 0 011.09-1.041c.11-.09.236-.16.371-.202.116-.023.235-.027.352-.012.483.059.97.077 1.455.055.339-.053.68-.088 1.022-.104.884.026 1.639.653 2.198 1.342.3.352.569.758.587 1.22z" fill="#000"/><path d="M30.939 39.617c-.194.32-.545.538-.677.89-.192.51.133 1.144-.166 1.6-.099.152-.262.266-.318.442-.095.296.165.612.098.917-.068.305-.467.562-.361.86a.56.56 0 00.307.28c.212.123.456.177.7.157.38-.064.664-.44 1.051-.468.315-.023.615.196.928.156a.209.209 0 00.14-.06.245.245 0 00.046-.108c.235-.94.44-1.888.615-2.843.036-.266.106-.527.21-.775a1.006 1.006 0 01.559-.545c.373-.121.792.084 1.03.397.24.314.33.714.395 1.103.064.39.105.79.263 1.15a.671.671 0 00.254.33c.21.121.492.025.653-.158.147-.195.243-.425.279-.667a2.01 2.01 0 01.236-.687c.221-.332.625-.482 1.01-.576.386-.094.793-.16 1.118-.392a2.31 2.31 0 00.613-.763c.206-.362.4-.756.383-1.173-.019-.455-.287-.861-.574-1.215-.559-.688-1.315-1.316-2.199-1.34a8.568 8.568 0 00-1.022.104 8.709 8.709 0 01-1.454-.056 1.137 1.137 0 00-.352.012c-.136.042-.262.11-.37.203a6.39 6.39 0 00-1.092 1.04 8.265 8.265 0 01-.674.786 1.51 1.51 0 01-.559.355c-.14.04-.28.011-.412.055-.412.13-.467.672-.658.989z" fill="#965D7B"/><path opacity=".1" d="M44.396 43.437c-1.118.206-2.044-.703-2.557-1.366a5.515 5.515 0 01-.43-.635l3.838.728.155.03s.706.928-1.006 1.242zm-14.521-.373a1.175 1.175 0 00-.08-.54c0 .015-.013.029-.017.043-.06.188.02.383.072.579a.422.422 0 00.025-.082zm.333-2.299c-.014.194-.01.389.011.583.014-.195.01-.39-.011-.583zm9.705-1.314a2.302 2.302 0 01-.612.764c-.323.232-.73.297-1.118.39-.388.095-.79.245-1.01.577-.12.213-.2.446-.236.688a1.474 1.474 0 01-.28.667c-.16.183-.443.281-.652.158a.67.67 0 01-.255-.329c-.158-.361-.2-.76-.263-1.15-.062-.391-.156-.79-.394-1.103-.237-.313-.658-.52-1.03-.398a.997.997 0 00-.56.545 3.077 3.077 0 00-.21.776 45.224 45.224 0 01-.614 2.843.244.244 0 01-.047.107.209.209 0 01-.14.06c-.312.04-.613-.178-.927-.156-.387.028-.67.405-1.052.467a1.176 1.176 0 01-.7-.156.748.748 0 01-.255-.183.38.38 0 00-.052.327.548.548 0 00.308.281c.211.124.455.178.699.156.381-.062.665-.438 1.052-.466.314-.023.615.197.928.156a.209.209 0 00.14-.06.244.244 0 00.046-.107c.234-.937.44-1.885.614-2.844a3.11 3.11 0 01.21-.775 1.004 1.004 0 01.56-.545c.372-.122.791.084 1.03.398.24.313.33.713.394 1.102.065.39.105.79.263 1.15a.67.67 0 00.255.33c.21.122.491.025.652-.158.147-.196.243-.425.28-.667a2.03 2.03 0 01.236-.688c.22-.332.624-.48 1.01-.576.386-.096.792-.16 1.118-.391a2.3 2.3 0 00.612-.764c.207-.361.4-.755.383-1.172a1.508 1.508 0 00-.017-.16 2.767 2.767 0 01-.366.906z" fill="#000"/><path opacity=".1" d="M40.302 39.493c.358.64.57 1.353.622 2.086-1.245-.702-2.416-1.473-3.008-1.742-1.03-.467-4.88-.397-6.329-.354a5.062 5.062 0 011.681-1.781 4.982 4.982 0 017.04 1.788l-.006.003zm4.444 3.347c-.673.209-1.77-.193-2.907-.769a5.525 5.525 0 01-.43-.635l3.838.728c.255.174.319.423-.501.677z" fill="#000"/><path d="M36.24 34.623s-3.669-.21-4.7 1.791l-.166 1.774-.28-.03-.056 1.206s5.607-.246 6.882.333c1.276.579 5.24 3.495 6.83 3.003 1.589-.491-.14-.948-.14-.948s-2.187-.931-2.187-1.662c0-.73-.542-4.589-6.184-5.467z" fill="#444053"/><path opacity=".1" d="M29.164 100.394s2.34 2.283 3.354 2.107c0 0-2.865-.246-3.354-2.107zm-.489 1.058s.21 1.174.769 1.059c.559-.115-.769-1.059-.769-1.059zm3.668 19.627s-3.323 2.599-2.763 2.669c.56.07 2.763-2.669 2.763-2.669z" fill="#000"/><path opacity=".1" d="M56.413 83.145l-1.965.38v-2.919l1.84-.466.125 3.005zM44.867 81.95v1.93l-2.192-.224v-1.705h2.192zm-2.861.61v1.026l-2.19-.226v-.8h2.19z" fill="#fff"/><path opacity=".1" d="M48.589 80.927c-1.503 1.931-6.464.597-6.464.597l-3.686-3.866-.5-.524.978-1.826s.28.092.746.255c2.47.868 10.19 3.739 8.926 5.364z" fill="#000"/><path d="M48.449 80.646c-1.503 1.931-6.463.597-6.463.597l-3.687-3.866-.5-.524.978-1.826s.28.093.746.255c2.47.869 10.19 3.739 8.926 5.364z" fill="#EFB7B9"/><path opacity=".1" d="M39.518 75.282c-.204.59-.723 1.464-1.224 2.095l-.5-.524.977-1.826s.281.093.747.255z" fill="#000"/><path d="M27.312 53.436s-3.668 1.404-3.703 5.338a64.974 64.974 0 00.42 7.585s-1.049 5.865 1.92 7.551c2.97 1.686 5.73 3.09 5.73 3.09s4.745.773 5.327 1.019c.583.246 2.608-2.915 2.294-3.442-.315-.526-4.634-1.826-5.147-2.704-.513-.878-1.776-1.47-1.776-1.47s-1.289-.883-1.34-1.62c-.052-.738.328-1.265.436-1.58.107-.317.497-3.407.497-3.407s2.085-10.964-4.658-10.36z" fill="#DCE6F2"/><path opacity=".1" d="M28.99 66.458s-4.961.562-4.577 2.318c0 0 1.885-1.772 4.576-2.318zm0 .702s-2.816 2.072-2.3 2.213c.518.14 2.3-2.213 2.3-2.213zm1.257.843s-.803 1.453-.35 1.377c.455-.076.35-1.377.35-1.377z" fill="#000"/></g><defs><clipPath id="clip0"><path fill="#fff" d="M0 0h203v124H0z"/></clipPath></defs></svg>