<svg width="16" height="16" viewBox="0 0 16 16" fill="none" xmlns="http://www.w3.org/2000/svg">
<g clip-path="url(#clip0)">
<path d="M5.97188 5.87672C5.91345 5.81859 5.83317 5.78516 5.75098 5.78516C5.66845 5.78516 5.58782 5.81859 5.52973 5.87672C5.4716 5.93484 5.43848 6.01547 5.43848 6.09766C5.43848 6.17984 5.4716 6.26047 5.52973 6.31859C5.58813 6.37672 5.66848 6.41016 5.75098 6.41016C5.83317 6.41016 5.91345 6.37672 5.97188 6.31859C6.03001 6.26047 6.06348 6.17984 6.06348 6.09766C6.06348 6.01547 6.03004 5.93484 5.97188 5.87672Z" fill="#3F3D56"/>
<path d="M10.2602 14.7827L9.59353 13.5953C9.64081 13.5544 9.67519 13.5 9.69138 13.4387C9.71263 13.3581 9.70082 13.2724 9.65856 13.2006L8.55713 11.3278L8.71731 11.2353C8.78909 11.1938 8.84147 11.1256 8.86291 11.0455C8.88438 10.9655 8.87313 10.8802 8.83169 10.8084L6.56522 6.88277C6.4789 6.73333 6.28778 6.68208 6.13834 6.7684C5.98887 6.85468 5.93765 7.0458 6.02396 7.19527L8.13419 10.8503L6.5104 11.7878L1.72686 3.50248L3.35065 2.56501L4.89028 5.23171C4.97662 5.38117 5.16774 5.43243 5.31715 5.34608C5.46662 5.2598 5.51784 5.06867 5.43153 4.91921L2.79871 0.359103C2.60914 0.0308207 2.18789 -0.082117 1.85949 0.107446L0.344141 0.982354C0.185047 1.07417 0.0712965 1.22245 0.0237339 1.39985C-0.0238287 1.57726 0.000608863 1.76254 0.0924215 1.92157L0.873079 3.27373L0.569016 3.4493C0.139797 3.69711 -0.00779741 4.24792 0.240016 4.67717L1.88877 7.5329C1.94668 7.63315 2.05168 7.68918 2.15971 7.68918C2.21271 7.68918 2.26646 7.67568 2.31564 7.64727C2.46511 7.56099 2.51633 7.36987 2.43002 7.2204L0.781267 4.36467C0.705766 4.23389 0.750704 4.06605 0.881517 3.99052L1.18558 3.81495L6.12537 12.3709C6.18328 12.4712 6.28828 12.5272 6.39631 12.5272C6.44931 12.5272 6.50306 12.5137 6.55225 12.4853L6.71678 12.3903L7.82075 14.2674C7.87894 14.3664 7.98325 14.4215 8.09041 14.4215C8.12219 14.4215 8.15409 14.416 8.18522 14.406L8.85 15.5901C8.85063 15.5912 8.85122 15.5923 8.85188 15.5934C8.96038 15.7814 9.1356 15.9158 9.34522 15.972C9.41522 15.9907 9.48625 16 9.55681 16C9.6976 16 9.83653 15.9631 9.96175 15.8908C10.3491 15.6671 10.4827 15.1704 10.2602 14.7827ZM0.633704 1.60907C0.622985 1.59054 0.624391 1.57304 0.627454 1.5616C0.630516 1.55017 0.638048 1.53432 0.656641 1.5236L2.17202 0.648697C2.20189 0.631509 2.24027 0.641728 2.25749 0.671603L3.03815 2.02379L1.41436 2.96126L0.633704 1.60907ZM7.25809 12.0778L8.01581 11.6403L8.96009 13.2459L8.20237 13.6834L7.25809 12.0778ZM9.64928 15.3496C9.60585 15.3747 9.55538 15.3813 9.50697 15.3684C9.4591 15.3555 9.41897 15.3249 9.39388 15.2823L8.73031 14.1003L9.05506 13.9128L9.71606 15.0902C9.71669 15.0913 9.71728 15.0924 9.71794 15.0934C9.76963 15.183 9.73885 15.2979 9.64928 15.3496Z" fill="#3F3D56"/>
<path d="M15.6876 12.8122H11.1772C11.0047 12.8122 10.8647 12.9521 10.8647 13.1247C10.8647 13.2973 11.0047 13.4372 11.1772 13.4372H15.6876C15.8602 13.4372 16.0001 13.2973 16.0001 13.1247C16.0001 12.9521 15.8602 12.8122 15.6876 12.8122Z" fill="#3F3D56"/>
<path d="M15.6874 10.2498H9.90625C9.73369 10.2498 9.59375 10.3897 9.59375 10.5623C9.59375 10.7348 9.73369 10.8748 9.90625 10.8748H15.6874C15.86 10.8748 15.9999 10.7348 15.9999 10.5623C15.9999 10.3897 15.86 10.2498 15.6874 10.2498Z" fill="#3F3D56"/>
<path d="M15.6875 15.3746H12.2187C12.0462 15.3746 11.9062 15.5145 11.9062 15.6871C11.9062 15.8597 12.0462 15.9996 12.2187 15.9996H15.6875C15.8601 15.9996 16 15.8597 16 15.6871C16 15.5145 15.8601 15.3746 15.6875 15.3746Z" fill="#3F3D56"/>
<path d="M8.96068 7.77888C8.90256 7.72075 8.82193 7.68732 8.73975 7.68732C8.65725 7.68732 8.57693 7.72075 8.51881 7.77888C8.46037 7.837 8.42725 7.91763 8.42725 7.99981C8.42725 8.082 8.46037 8.16262 8.51881 8.22075C8.57693 8.27887 8.65756 8.31231 8.73975 8.31231C8.82193 8.31231 8.90225 8.27887 8.96068 8.22075C9.01878 8.16262 9.05225 8.082 9.05225 7.99981C9.05225 7.91763 9.01881 7.837 8.96068 7.77888Z" fill="#3F3D56"/>
<path d="M15.6872 7.68732H10.1636C9.99101 7.68732 9.85107 7.82722 9.85107 7.99981C9.85107 8.1724 9.99101 8.31231 10.1636 8.31231H15.6872C15.8598 8.31231 15.9997 8.1724 15.9997 7.99981C15.9997 7.82719 15.8598 7.68732 15.6872 7.68732Z" fill="#3F3D56"/>
<path d="M15.6872 5.12488H7.34961C7.17705 5.12488 7.03711 5.26478 7.03711 5.43738C7.03711 5.60997 7.17705 5.74988 7.34961 5.74988H15.6872C15.8597 5.74988 15.9997 5.60997 15.9997 5.43738C15.9997 5.26478 15.8597 5.12488 15.6872 5.12488Z" fill="#3F3D56"/>
<path d="M15.6877 2.56244H5.82324C5.65068 2.56244 5.51074 2.70235 5.51074 2.87494C5.51074 3.04753 5.65068 3.18744 5.82324 3.18744H15.6877C15.8602 3.18744 16.0002 3.04753 16.0002 2.87494C16.0002 2.70235 15.8603 2.56244 15.6877 2.56244Z" fill="#3F3D56"/>
<path d="M15.6873 0H4.625C4.45244 0 4.3125 0.139907 4.3125 0.312501C4.3125 0.485095 4.45244 0.625001 4.625 0.625001H15.6873C15.8599 0.625001 15.9998 0.485095 15.9998 0.312501C15.9998 0.139907 15.8599 0 15.6873 0Z" fill="#3F3D56"/>
</g>
<defs>
<clipPath id="clip0">
<rect width="16" height="16" fill="white"/>
</clipPath>
</defs>
</svg>
