<svg width="16" height="16" viewBox="0 0 16 16" fill="none" xmlns="http://www.w3.org/2000/svg">
<path d="M0.533406 7.06031C0.475313 7.00219 0.394688 6.96875 0.3125 6.96875C0.230312 6.96875 0.149687 7.00219 0.0915625 7.06031C0.0334063 7.11844 0 7.19906 0 7.28125C0 7.36344 0.0334063 7.44406 0.0915625 7.50219C0.149719 7.56031 0.230312 7.59375 0.3125 7.59375C0.394688 7.59375 0.475313 7.56031 0.533406 7.50219C0.591563 7.44406 0.625 7.36344 0.625 7.28125C0.625 7.19906 0.591563 7.11844 0.533406 7.06031Z" fill="#3F3D56"/>
<path d="M15.7158 3.80938L13.5052 0.664062C13.213 0.24825 12.7351 0 12.2269 0H9.26041H6.73959H3.77309C3.26484 0 2.78694 0.24825 2.49475 0.664062L0.284156 3.80934C0.0982813 4.07384 0 4.38453 0 4.70781V5.9375C0 6.11009 0.139938 6.25 0.3125 6.25C0.485062 6.25 0.625 6.11009 0.625 5.9375V4.70781C0.625 4.68 0.626562 4.65244 0.628937 4.625H5.375V8C5.375 8.11162 5.43453 8.21481 5.53122 8.27063C5.57959 8.29853 5.63353 8.3125 5.6875 8.3125C5.74144 8.3125 5.79537 8.29856 5.84372 8.27066L8.01456 7.01769L10.1547 8.26972C10.2513 8.32625 10.3708 8.32678 10.4679 8.27106C10.5651 8.21534 10.625 8.11194 10.625 7.99997V4.625H15.371C15.3734 4.65244 15.375 4.68003 15.375 4.70781V14.4375C15.375 14.9544 14.9544 15.375 14.4375 15.375H1.5625C1.04556 15.375 0.625 14.9544 0.625 14.4375V8.5C0.625 8.32741 0.485062 8.1875 0.3125 8.1875C0.139938 8.1875 0 8.32741 0 8.5V14.4375C0 15.2991 0.700938 16 1.5625 16H14.4375C15.2991 16 16 15.2991 16 14.4375V4.70781C16 4.38453 15.9017 4.07384 15.7158 3.80938ZM6.98053 0.625H9.01947L9.90716 4H6.09284L6.98053 0.625ZM5.44656 4H0.914094L3.00609 1.02344C3.18141 0.773969 3.46816 0.625 3.77309 0.625H6.33428L5.44656 4ZM10 7.45512L8.17344 6.38653C8.07647 6.32981 7.95662 6.3295 7.85941 6.38559L6 7.45881V4.625H10V7.45512ZM10.5534 4L9.66572 0.625H12.2269C12.5318 0.625 12.8186 0.773937 12.9939 1.02344L15.0859 4H10.5534Z" fill="#3F3D56"/>
<path d="M3.97875 9.42703C2.71534 9.42703 1.6875 10.4549 1.6875 11.7183V11.8585C1.6875 11.9859 1.76484 12.1005 1.88294 12.1482C2.00097 12.1959 2.13628 12.1672 2.22478 12.0755C2.40881 11.885 2.65525 11.78 2.91875 11.78C3.21034 11.78 3.4835 11.9115 3.66625 12.1351V13.4072C3.66622 13.5531 3.5475 13.6718 3.40162 13.6718C3.25569 13.6718 3.13697 13.5531 3.13697 13.4072C3.13697 13.2346 2.99703 13.0947 2.82447 13.0947C2.65191 13.0947 2.51197 13.2346 2.51197 13.4072C2.51197 13.8978 2.91106 14.2968 3.40162 14.2968C3.89219 14.2968 4.29125 13.8978 4.29125 13.4072V12.1352C4.474 11.9115 4.74719 11.78 5.03878 11.78C5.30228 11.78 5.54872 11.885 5.73275 12.0755C5.82122 12.1672 5.9565 12.1959 6.07459 12.1482C6.19269 12.1005 6.27003 11.9859 6.27003 11.8585V11.7183C6.27003 10.4549 5.24216 9.42703 3.97875 9.42703ZM5.03875 11.1551C4.64269 11.1551 4.26703 11.3018 3.97872 11.5597C3.69044 11.3018 3.31475 11.1551 2.91872 11.1551C2.73188 11.1551 2.55031 11.187 2.37994 11.2483C2.58331 10.5576 3.22306 10.0521 3.97875 10.0521C4.73441 10.0521 5.37416 10.5576 5.57753 11.2483C5.40716 11.187 5.22556 11.1551 5.03875 11.1551Z" fill="#3F3D56"/>
<path d="M12.1843 13.7791C12.1262 13.7209 12.0456 13.6875 11.9634 13.6875C11.8808 13.6875 11.8006 13.7209 11.7421 13.7791C11.684 13.8372 11.6509 13.9178 11.6509 14C11.6509 14.0822 11.684 14.1628 11.7421 14.2209C11.8006 14.2791 11.8808 14.3125 11.9634 14.3125C12.0456 14.3125 12.1258 14.2791 12.1843 14.2209C12.2424 14.1628 12.2755 14.0822 12.2755 14C12.2755 13.9178 12.2424 13.8372 12.1843 13.7791Z" fill="#3F3D56"/>
<path d="M10.6359 13.6875H7.99805C7.82548 13.6875 7.68555 13.8274 7.68555 14C7.68555 14.1726 7.82548 14.3125 7.99805 14.3125H10.6359C10.8085 14.3125 10.9484 14.1726 10.9484 14C10.9484 13.8274 10.8085 13.6875 10.6359 13.6875Z" fill="#3F3D56"/>
<path d="M13.9969 12.1875H8C7.82744 12.1875 7.6875 12.3274 7.6875 12.5C7.6875 12.6726 7.82744 12.8125 8 12.8125H13.9969C14.1695 12.8125 14.3094 12.6726 14.3094 12.5C14.3094 12.3274 14.1695 12.1875 13.9969 12.1875Z" fill="#3F3D56"/>
<path d="M13.995 10.6875H7.99805C7.82548 10.6875 7.68555 10.8274 7.68555 11C7.68555 11.1726 7.82548 11.3125 7.99805 11.3125H13.995C14.1676 11.3125 14.3075 11.1726 14.3075 11C14.3075 10.8274 14.1676 10.6875 13.995 10.6875Z" fill="#3F3D56"/>
</svg>
