<svg width="16" height="16" viewBox="0 0 16 16" fill="none" xmlns="http://www.w3.org/2000/svg">
<path d="M12.7209 10.0134C12.6628 9.95531 12.5822 9.92188 12.5 9.92188C12.4178 9.92188 12.3372 9.95531 12.2791 10.0134C12.2209 10.0716 12.1875 10.1522 12.1875 10.2344C12.1875 10.3166 12.2209 10.3972 12.2791 10.4553C12.3372 10.5134 12.4178 10.5469 12.5 10.5469C12.5822 10.5469 12.6628 10.5134 12.7209 10.4553C12.7791 10.3972 12.8125 10.3166 12.8125 10.2344C12.8125 10.1522 12.7791 10.0716 12.7209 10.0134Z" fill="#3F3D56"/>
<path d="M12.75 1.6875H11.7892C11.7856 1.6875 11.7821 1.68791 11.7785 1.68803C11.669 1.29184 11.3056 1 10.875 1H9.27491C9.13434 0.426656 8.61606 0 8 0C7.38394 0 6.86566 0.426656 6.72509 1H5.125C4.69466 1 4.33131 1.29159 4.22162 1.6875H3.25C2.38844 1.6875 1.6875 2.38844 1.6875 3.25V14.4375C1.6875 15.2991 2.38844 16 3.25 16H12.75C13.6116 16 14.3125 15.2991 14.3125 14.4375V3.25C14.3125 2.38844 13.6116 1.6875 12.75 1.6875ZM4.8125 1.9375C4.8125 1.76519 4.95269 1.625 5.125 1.625H7C7.17259 1.625 7.3125 1.48509 7.3125 1.3125C7.3125 0.933406 7.62091 0.625 8 0.625C8.37909 0.625 8.6875 0.933406 8.6875 1.3125C8.6875 1.48509 8.82741 1.625 9 1.625H10.875C11.0473 1.625 11.1875 1.76519 11.1875 1.9375V3.0625H4.8125V1.9375ZM13.6875 14.4375C13.6875 14.9544 13.2669 15.375 12.75 15.375H3.25C2.73306 15.375 2.3125 14.9544 2.3125 14.4375V3.25C2.3125 2.73306 2.73306 2.3125 3.25 2.3125H4.1875V2.75H3.49956C3.32697 2.75 3.18706 2.88991 3.18706 3.0625V14.1491C3.18706 14.3217 3.32697 14.4616 3.49956 14.4616H12.5C12.6726 14.4616 12.8125 14.3217 12.8125 14.1491V11.8444C12.8125 11.6718 12.6726 11.5319 12.5 11.5319C12.3274 11.5319 12.1875 11.6718 12.1875 11.8444V13.8366H3.81206V3.375H4.1875C4.1875 3.54759 4.32741 3.6875 4.5 3.6875H11.5C11.6726 3.6875 11.8125 3.54759 11.8125 3.375H12.1875V8.60581C12.1875 8.77841 12.3274 8.91831 12.5 8.91831C12.6726 8.91831 12.8125 8.77841 12.8125 8.60581V3.0625C12.8125 2.88991 12.6726 2.75 12.5 2.75H11.8125V2.3125H12.75C13.2669 2.3125 13.6875 2.73306 13.6875 3.25V14.4375Z" fill="#3F3D56"/>
<path d="M7.98576 1.6875H7.98145C7.80885 1.6875 7.66895 1.82741 7.66895 2C7.66895 2.17259 7.80885 2.3125 7.98145 2.3125H7.98576C8.15835 2.3125 8.29826 2.17259 8.29826 2C8.29826 1.82741 8.15835 1.6875 7.98576 1.6875Z" fill="#3F3D56"/>
<path d="M10.0779 5.25017C9.26208 4.43439 8.03767 4.17139 6.95849 4.58023C6.79708 4.64139 6.7158 4.82176 6.77696 4.98317C6.83808 5.14458 7.01849 5.22579 7.17989 5.1647C8.02958 4.84276 8.99364 5.04979 9.63592 5.69211C10.5376 6.59376 10.5376 8.06082 9.63592 8.96244C9.19914 9.39926 8.61842 9.63979 8.00074 9.63979C7.38305 9.63979 6.80233 9.39926 6.36555 8.96244C5.72768 8.32457 5.51868 7.36582 5.83308 6.51989C5.89321 6.3581 5.8108 6.17823 5.64902 6.1181C5.48724 6.05795 5.30733 6.14039 5.24724 6.30217C4.84793 7.37651 5.11343 8.59423 5.92361 9.40438C6.47843 9.95922 7.21611 10.2648 8.00074 10.2648C8.78536 10.2648 9.52305 9.95922 10.0779 9.40441C11.2232 8.2591 11.2232 6.39551 10.0779 5.25017Z" fill="#3F3D56"/>
<path d="M6.36406 5.24867C6.24203 5.12667 6.04415 5.12667 5.92209 5.24867C5.80006 5.3707 5.80006 5.56857 5.92209 5.69064L5.92381 5.69229C5.98462 5.75311 6.06403 5.78339 6.14353 5.78339C6.22356 5.78339 6.30368 5.75267 6.3649 5.69145C6.48693 5.56942 6.48609 5.3707 6.36406 5.24867Z" fill="#3F3D56"/>
<path d="M9.74562 6.15936C9.62359 6.03733 9.42571 6.03733 9.30365 6.15936L7.91002 7.55299L7.15261 6.79558C7.03058 6.67352 6.83271 6.67358 6.71068 6.79558C6.58864 6.91762 6.58861 7.11549 6.71068 7.23752L7.68908 8.21593C7.74768 8.27453 7.82718 8.30746 7.91005 8.30746C7.99293 8.30746 8.07243 8.27453 8.13102 8.21593L9.74562 6.60133C9.86765 6.4793 9.86765 6.28143 9.74562 6.15936Z" fill="#3F3D56"/>
<path d="M9.73441 10.8898H6.26465C6.09206 10.8898 5.95215 11.0297 5.95215 11.2023C5.95215 11.3749 6.09206 11.5148 6.26465 11.5148H9.73441C9.907 11.5148 10.0469 11.3749 10.0469 11.2023C10.0469 11.0297 9.907 10.8898 9.73441 10.8898Z" fill="#3F3D56"/>
<path d="M8.86818 12.1398H7.13233C6.95973 12.1398 6.81982 12.2797 6.81982 12.4523C6.81982 12.6249 6.95973 12.7648 7.13233 12.7648H8.86818C9.04077 12.7648 9.18068 12.6249 9.18068 12.4523C9.18068 12.2797 9.04077 12.1398 8.86818 12.1398Z" fill="#3F3D56"/>
</svg>
