<svg width="16" height="16" viewBox="0 0 16 16" fill="none" xmlns="http://www.w3.org/2000/svg">
<g clip-path="url(#clip0)">
<path d="M4.64094 0H0.326531C0.146188 0 0 0.146188 0 0.326531V4.64094C0 4.82128 0.146188 4.96747 0.326531 4.96747C0.506875 4.96747 0.653063 4.82128 0.653063 4.64094V0.653063H4.64094C4.82128 0.653063 4.96747 0.506875 4.96747 0.326531C4.96747 0.146188 4.82128 0 4.64094 0Z" fill="#3F3D56"/>
<path d="M15.6737 11.0325C15.4933 11.0325 15.3471 11.1787 15.3471 11.359V15.3469H11.3592C11.1789 15.3469 11.0327 15.4931 11.0327 15.6735C11.0327 15.8538 11.1789 16 11.3592 16H15.6737C15.854 16 16.0002 15.8538 16.0002 15.6735V11.359C16.0002 11.1787 15.854 11.0325 15.6737 11.0325Z" fill="#3F3D56"/>
<path d="M15.6738 0H12.5619C12.3815 0 12.2354 0.146188 12.2354 0.326531C12.2354 0.506875 12.3815 0.653063 12.5619 0.653063H15.3472V4.64094C15.3472 4.82128 15.4934 4.96747 15.6738 4.96747C15.8541 4.96747 16.0003 4.82128 16.0003 4.64094V0.326531C16.0003 0.146188 15.8541 0 15.6738 0Z" fill="#3F3D56"/>
<path d="M11.5054 0H11.3592C11.1789 0 11.0327 0.146188 11.0327 0.326531C11.0327 0.506875 11.1789 0.653063 11.3592 0.653063H11.5054C11.6858 0.653063 11.832 0.506875 11.832 0.326531C11.832 0.146188 11.6858 0 11.5054 0Z" fill="#3F3D56"/>
<path d="M3.43841 15.3469H0.653063V11.359C0.653063 11.1787 0.506875 11.0325 0.326531 11.0325C0.146188 11.0325 0 11.1787 0 11.359V15.6735C0 15.8538 0.146188 16 0.326531 16H3.43841C3.61875 16 3.76494 15.8538 3.76494 15.6735C3.76494 15.4931 3.61875 15.3469 3.43841 15.3469Z" fill="#3F3D56"/>
<path d="M4.64118 15.3469H4.49499C4.31464 15.3469 4.16846 15.4931 4.16846 15.6735C4.16846 15.8538 4.31464 16 4.49499 16H4.64118C4.82152 16 4.96771 15.8538 4.96771 15.6735C4.96771 15.4931 4.82152 15.3469 4.64118 15.3469Z" fill="#3F3D56"/>
<path d="M10.4566 3.09905C9.80075 2.44293 8.92866 2.08149 8.00019 2.08127C8.00016 2.08127 8.00016 2.08127 8.00016 2.08127C8.00016 2.08127 8.00013 2.08127 8.0001 2.08127C6.08532 2.08127 4.52726 3.63908 4.52686 5.5539C4.52686 5.55412 4.52686 5.55434 4.52686 5.55449C4.52686 5.55452 4.52686 5.55459 4.52686 5.55462C4.52686 5.55468 4.52689 5.55474 4.52689 5.55484C4.52695 6.48224 4.88798 7.35418 5.54367 8.01012C6.19954 8.66628 7.07166 9.02775 7.99944 9.0279C7.99948 9.0279 8.00013 9.0279 8.00013 9.0279H8.00016C9.91494 9.0279 11.473 7.47009 11.4734 5.55524C11.4737 4.62749 11.1125 3.75518 10.4566 3.09905ZM9.99475 3.56077C10.444 4.01024 10.7221 4.5848 10.7983 5.20577C9.52163 5.04749 8.50723 4.03315 8.34898 2.75646C8.97035 2.83268 9.54522 3.11105 9.99475 3.56077ZM7.65129 2.7568C7.49291 4.0333 6.47879 5.04759 5.20232 5.20584C5.36057 3.92943 6.3746 2.9153 7.65129 2.7568ZM8.00019 8.37487H7.9996C7.24629 8.37471 6.5381 8.08121 6.00557 7.54843C5.54679 7.08949 5.2662 6.50015 5.19723 5.86415C6.43976 5.74146 7.49191 4.96112 8.00016 3.87677C8.50829 4.9608 9.56032 5.74118 10.8031 5.86409C10.6484 7.27403 9.45054 8.37487 8.00019 8.37487Z" fill="#3F3D56"/>
<path d="M9.56634 9.43881H6.44096V9.43884C4.46081 9.43884 2.84953 11.0498 2.84912 13.03V13.4866C2.84912 13.667 2.99531 13.8132 3.17565 13.8132H12.831C13.0113 13.8132 13.1575 13.667 13.1575 13.4866V13.032C13.1579 11.0511 11.547 9.43922 9.56634 9.43881ZM12.5045 13.1601H3.50218V13.0301C3.5025 11.41 4.82081 10.0919 6.44162 10.0919H9.56628C11.1867 10.0922 12.5048 11.4111 12.5045 13.032V13.1601Z" fill="#3F3D56"/>
<path d="M8.17877 12.2449H8.03259C7.85224 12.2449 7.70605 12.3911 7.70605 12.5714C7.70605 12.7517 7.85224 12.8979 8.03259 12.8979H8.17877C8.35912 12.8979 8.5053 12.7517 8.5053 12.5714C8.5053 12.3911 8.35912 12.2449 8.17877 12.2449Z" fill="#3F3D56"/>
<path d="M6.97597 12.2449H4.25231C4.07197 12.2449 3.92578 12.3911 3.92578 12.5714C3.92578 12.7517 4.07197 12.8979 4.25231 12.8979H6.97597C7.15632 12.8979 7.3025 12.7517 7.3025 12.5714C7.3025 12.3911 7.15632 12.2449 6.97597 12.2449Z" fill="#3F3D56"/>
</g>
<defs>
<clipPath id="clip0">
<rect width="16" height="16" fill="white"/>
</clipPath>
</defs>
</svg>
