<svg width="16" height="16" viewBox="0 0 16 16" fill="none" xmlns="http://www.w3.org/2000/svg">
<g clip-path="url(#clip0)">
<path d="M13.2908 9.71863C13.254 9.6055 13.1562 9.52309 13.0385 9.50603L9.75058 9.02919L8.27943 6.05034C8.22677 5.94372 8.11821 5.87625 7.99927 5.87625C7.99924 5.87625 7.99918 5.87625 7.99918 5.87625C7.88024 5.87628 7.77165 5.94385 7.71902 6.0505L6.24946 9.03016L2.9618 9.50875C2.84411 9.52591 2.74636 9.60838 2.70961 9.72147C2.6729 9.8346 2.70355 9.95875 2.78877 10.0418L5.16846 12.3602L4.60771 15.6348C4.58761 15.752 4.63583 15.8705 4.73208 15.9404C4.78652 15.9799 4.85096 16 4.91571 16C4.96549 16 5.01543 15.9881 5.06124 15.9641L7.10493 14.889C7.25765 14.8087 7.31633 14.6197 7.23596 14.467C7.15565 14.3143 6.96665 14.2556 6.81396 14.336L5.33058 15.1163L5.81221 12.3038C5.82958 12.2024 5.79593 12.099 5.72227 12.0273L3.6784 10.036L6.50208 9.62497C6.60386 9.61016 6.6918 9.54622 6.7373 9.454L7.99949 6.89485L9.26302 9.45331C9.30855 9.5455 9.39655 9.60938 9.4983 9.62416L12.3222 10.0337L10.2794 12.026C10.2058 12.0978 10.1722 12.2012 10.1896 12.3026L10.6727 15.1149L9.1724 14.3266C9.01958 14.2463 8.83071 14.3051 8.75046 14.4579C8.67018 14.6106 8.72896 14.7996 8.88174 14.8798L10.9426 15.9626C11.0479 16.0179 11.1754 16.0087 11.2716 15.9387C11.3679 15.8687 11.416 15.7503 11.3959 15.633L10.8334 12.3587L13.2118 10.039C13.2969 9.95591 13.3276 9.83175 13.2908 9.71863Z" fill="#3F3D56"/>
<path d="M8.15399 13.7917L8.14696 13.7879C7.99446 13.7074 7.8053 13.7657 7.72474 13.9183C7.64411 14.0708 7.70245 14.2599 7.85505 14.3405L7.86208 14.3442C7.90861 14.3688 7.95855 14.3805 8.00774 14.3805C8.11987 14.3805 8.22827 14.3199 8.2843 14.2139C8.36493 14.0613 8.30662 13.8723 8.15399 13.7917Z" fill="#3F3D56"/>
<path d="M13.2907 3.84244C13.254 3.72931 13.1562 3.64691 13.0385 3.62984L9.75055 3.15297L8.2794 0.174094C8.22674 0.0675 8.11815 0 7.99924 0C7.99921 0 7.99915 0 7.99915 0C7.88021 3.125e-05 7.77162 0.0675938 7.71899 0.17425L6.24946 3.15388L2.9618 3.6325C2.84411 3.64962 2.74636 3.73209 2.70961 3.84522C2.6729 3.95834 2.70355 4.0825 2.78877 4.1655L4.09765 5.44066C4.22127 5.56109 4.41911 5.5585 4.53952 5.43488C4.65993 5.31125 4.65733 5.11344 4.53374 4.99303L3.67833 4.15969L6.50202 3.74863C6.6038 3.73381 6.69174 3.66987 6.73724 3.57766L7.99943 1.0185L9.26296 3.577C9.30849 3.66919 9.39649 3.73306 9.49824 3.74784L12.3222 4.15741L11.428 5.0295C11.3044 5.15 11.302 5.34781 11.4224 5.47134C11.4837 5.53416 11.5648 5.56566 11.6461 5.56566C11.7248 5.56566 11.8035 5.53613 11.8643 5.47691L13.2117 4.16278C13.2969 4.07972 13.3275 3.95556 13.2907 3.84244Z" fill="#3F3D56"/>
<path d="M13.2908 6.78058C13.254 6.66745 13.1562 6.58505 13.0385 6.56798L9.75058 6.09111L8.27943 3.11227C8.22677 3.00564 8.11821 2.93817 7.99927 2.93817C7.99924 2.93817 7.99918 2.93817 7.99918 2.93817C7.88024 2.9382 7.77165 3.00577 7.71902 3.11242L6.24949 6.09205L2.9618 6.5707C2.84411 6.58786 2.74636 6.67033 2.70961 6.78342C2.6729 6.89655 2.70355 7.0207 2.78877 7.1037L4.23155 8.50933C4.29233 8.56852 4.37096 8.59798 4.44958 8.59798C4.53093 8.59798 4.61218 8.56639 4.67346 8.50358C4.79386 8.37995 4.79127 8.18214 4.66768 8.06173L3.67836 7.09792L6.50205 6.68686C6.60383 6.67205 6.69177 6.60811 6.73727 6.51589L7.99946 3.95673L9.26299 6.51523C9.30852 6.60742 9.39652 6.6713 9.49827 6.68608L12.3222 7.09564L11.4913 7.90592C11.3678 8.02642 11.3654 8.22423 11.4858 8.34776C11.6063 8.47133 11.8041 8.47376 11.9277 8.3533L13.2118 7.10095C13.2969 7.01786 13.3276 6.89367 13.2908 6.78058Z" fill="#3F3D56"/>
</g>
<defs>
<clipPath id="clip0">
<rect width="16" height="16" fill="white"/>
</clipPath>
</defs>
</svg>
