<svg width="14" height="16" viewBox="0 0 14 16" fill="none" xmlns="http://www.w3.org/2000/svg">
<path d="M5.85189 11.0988L4.97461 11.9823C4.96327 11.9937 4.9503 11.9961 4.94139 11.9961H4.94133C4.93246 11.9961 4.91952 11.9937 4.90818 11.9824L4.58233 11.6566C4.49083 11.565 4.34243 11.565 4.25089 11.6565C4.15936 11.7481 4.15936 11.8965 4.25089 11.988L4.57674 12.3139C4.67414 12.4113 4.80358 12.4649 4.9413 12.4649H4.94221C5.08027 12.4646 5.20989 12.4106 5.30724 12.3126L6.18455 11.429C6.27574 11.3372 6.27521 11.1888 6.18336 11.0976C6.09146 11.0064 5.94311 11.0069 5.85189 11.0988ZM6.18336 4.71656C6.09149 4.62534 5.94311 4.62587 5.85189 4.71775L4.97461 5.60128C4.96327 5.61269 4.9503 5.61509 4.94143 5.61509H4.94133C4.93246 5.61509 4.91952 5.61272 4.90818 5.60141L4.58233 5.27553C4.49083 5.184 4.34243 5.18397 4.25089 5.2755C4.15936 5.36703 4.15936 5.51544 4.25089 5.60694L4.57674 5.93284C4.67414 6.03025 4.80358 6.08384 4.94133 6.08384H4.94227C5.08033 6.08359 5.20996 6.02953 5.30727 5.93153L6.18458 5.048C6.27574 4.95616 6.27521 4.80778 6.18336 4.71656ZM6.18336 7.90706C6.09149 7.81588 5.94311 7.81637 5.85189 7.90825L4.97461 8.79178C4.96327 8.80319 4.9503 8.80559 4.94143 8.80559H4.94133C4.93246 8.80559 4.91952 8.80322 4.90818 8.79191L4.58233 8.46603C4.49083 8.37447 4.34243 8.3745 4.25089 8.466C4.15936 8.55753 4.15936 8.70594 4.25089 8.79744L4.57674 9.12334C4.67414 9.22075 4.80358 9.27434 4.94133 9.27434H4.94227C5.08033 9.27409 5.20996 9.22003 5.30727 9.12203L6.18458 8.2385C6.27574 8.14666 6.27521 7.99828 6.18336 7.90706ZM4.71421 4.45453H3.95027C3.66596 4.45453 3.43464 4.68584 3.43464 4.97016V6.66069C3.43464 6.945 3.66596 7.17631 3.95027 7.17631H5.6408C5.92511 7.17631 6.15643 6.945 6.15643 6.66069V6.06763C6.15643 5.93816 6.05149 5.83325 5.92205 5.83325C5.79261 5.83325 5.68768 5.93816 5.68768 6.06763V6.66069C5.68768 6.68653 5.66664 6.70756 5.6408 6.70756H3.95027C3.92443 6.70756 3.90339 6.68653 3.90339 6.66069V4.97016C3.90339 4.94431 3.92443 4.92328 3.95027 4.92328H4.71421C4.84364 4.92328 4.94858 4.81838 4.94858 4.68891C4.94858 4.55944 4.84364 4.45453 4.71421 4.45453ZM11.9021 0.48125H10.8277C10.6982 0.48125 10.5933 0.586156 10.5933 0.715625C10.5933 0.845094 10.6982 0.95 10.8277 0.95H11.9021C12.2877 0.95 12.6014 1.26375 12.6014 1.64937V14.8319C12.6014 15.2175 12.2877 15.5312 11.9021 15.5312H2.0983C1.71264 15.5312 1.39893 15.2175 1.39893 14.8319V1.64937C1.39893 1.26375 1.71268 0.95 2.0983 0.95H3.87339V1.415H2.25393C2.03889 1.415 1.86393 1.58997 1.86393 1.80497V11.4567C1.86393 11.5861 1.96886 11.691 2.0983 11.691C2.22774 11.691 2.33268 11.5861 2.33268 11.4567V1.88375H3.44633C3.42068 1.95656 3.40655 2.03475 3.40655 2.11622V2.76628C3.40655 3.15297 3.72111 3.46753 4.10777 3.46753H9.89255C10.2792 3.46753 10.5938 3.15297 10.5938 2.76628V2.11625C10.5938 2.03478 10.5796 1.95656 10.554 1.88378H11.6676V12.1597H10.4514C9.80736 12.1597 9.28336 12.6838 9.28336 13.3279V14.5444H2.33268V12.3942C2.33268 12.2647 2.22774 12.1598 2.0983 12.1598C1.96886 12.1598 1.86393 12.2647 1.86393 12.3942V14.6232C1.86393 14.8382 2.03889 15.0131 2.25393 15.0131H9.51768C9.57999 15.0132 9.63955 14.988 9.68343 14.9445L9.68399 14.9439L12.0678 12.5598C12.1077 12.5197 12.1321 12.4655 12.1357 12.409C12.1358 12.4069 12.1365 1.81028 12.1365 1.80497C12.1365 1.58994 11.9615 1.415 11.7465 1.415H10.127V0.764781C10.127 0.343094 9.78393 0 9.36227 0H4.63808C4.31658 0 4.04099 0.199562 3.92811 0.48125H2.0983C1.45418 0.48125 0.930176 1.00528 0.930176 1.64937V14.8319C0.930176 15.476 1.45421 16 2.0983 16H11.9021C12.5462 16 13.0702 15.476 13.0702 14.8319V1.64937C13.0702 1.00528 12.5462 0.48125 11.9021 0.48125ZM9.75214 14.2128V13.3279C9.75214 12.9422 10.0659 12.6285 10.4515 12.6285H11.3362L9.75214 14.2128ZM4.34214 0.764781C4.34214 0.601531 4.47489 0.46875 4.63808 0.46875H9.36227C9.52546 0.46875 9.65821 0.601531 9.65821 0.764781V1.62481C9.65821 1.78806 9.52546 1.92084 9.36227 1.92084H4.63808C4.47489 1.92084 4.34214 1.78806 4.34214 1.62481V0.764781ZM3.8753 2.11625C3.8753 2.05091 3.90246 1.99188 3.94599 1.94959C4.06833 2.20931 4.33249 2.38956 4.63808 2.38956H9.36227C9.66783 2.38956 9.93202 2.20931 10.0544 1.94959C10.0979 1.99188 10.1251 2.05091 10.1251 2.11625V2.76631C10.1251 2.89453 10.0208 2.99881 9.89258 2.99881H4.10777C3.97958 2.99881 3.8753 2.8945 3.8753 2.76631V2.11625ZM3.43464 9.85119C3.43464 10.1355 3.66596 10.3668 3.95027 10.3668H5.6408C5.92511 10.3668 6.15643 10.1355 6.15643 9.85119V9.25813C6.15643 9.12866 6.05149 9.02375 5.92205 9.02375C5.79261 9.02375 5.68768 9.12866 5.68768 9.25813V9.85119C5.68768 9.87703 5.66664 9.89806 5.6408 9.89806H3.95027C3.92443 9.89806 3.90339 9.87703 3.90339 9.85119V8.16066C3.90339 8.13481 3.92443 8.11378 3.95027 8.11378H4.71421C4.84364 8.11378 4.94858 8.00887 4.94858 7.87941C4.94858 7.74994 4.84364 7.64503 4.71421 7.64503H3.95027C3.66596 7.64503 3.43464 7.87634 3.43464 8.16066V9.85119ZM6.98846 11.3043H10.3313C10.4608 11.3043 10.5657 11.1994 10.5657 11.0699C10.5657 10.9405 10.4608 10.8356 10.3313 10.8356H6.98846C6.85902 10.8356 6.75408 10.9405 6.75408 11.0699C6.75408 11.1994 6.85902 11.3043 6.98846 11.3043ZM3.43464 13.0417C3.43464 13.326 3.66596 13.5573 3.95027 13.5573H5.6408C5.92511 13.5573 6.15643 13.326 6.15643 13.0417V12.4487C6.15643 12.3192 6.05149 12.2143 5.92205 12.2143C5.79261 12.2143 5.68768 12.3192 5.68768 12.4487V13.0417C5.68768 13.0675 5.66664 13.0886 5.6408 13.0886H3.95027C3.92443 13.0886 3.90339 13.0675 3.90339 13.0417V11.3512C3.90339 11.3253 3.92443 11.3043 3.95027 11.3043H4.71421C4.84364 11.3043 4.94858 11.1994 4.94858 11.0699C4.94858 10.9405 4.84364 10.8356 4.71421 10.8356H3.95027C3.66596 10.8356 3.43464 11.0669 3.43464 11.3512V13.0417ZM6.98846 12.2418H8.92508C9.05452 12.2418 9.15946 12.1369 9.15946 12.0074C9.15946 11.878 9.05452 11.7731 8.92508 11.7731H6.98846C6.85902 11.7731 6.75408 11.878 6.75408 12.0074C6.75408 12.1369 6.85902 12.2418 6.98846 12.2418ZM6.98846 9.05131H8.92508C9.05452 9.05131 9.15946 8.94641 9.15946 8.81694C9.15946 8.68747 9.05452 8.58256 8.92508 8.58256H6.98846C6.85902 8.58256 6.75408 8.68747 6.75408 8.81694C6.75408 8.94641 6.85902 9.05131 6.98846 9.05131ZM6.98846 8.11381H10.3313C10.4608 8.11381 10.5657 8.00891 10.5657 7.87944C10.5657 7.74997 10.4608 7.64506 10.3313 7.64506H6.98846C6.85902 7.64506 6.75408 7.74997 6.75408 7.87944C6.75408 8.00891 6.85902 8.11381 6.98846 8.11381ZM6.98846 5.86078H10.3313C10.4608 5.86078 10.5657 5.75588 10.5657 5.62641C10.5657 5.49694 10.4608 5.39203 10.3313 5.39203H6.98846C6.85902 5.39203 6.75408 5.49694 6.75408 5.62641C6.75408 5.75588 6.85902 5.86078 6.98846 5.86078ZM6.98846 4.92328H10.3313C10.4608 4.92328 10.5657 4.81838 10.5657 4.68891C10.5657 4.55944 10.4608 4.45453 10.3313 4.45453H6.98846C6.85902 4.45453 6.75408 4.55944 6.75408 4.68891C6.75408 4.81838 6.85902 4.92328 6.98846 4.92328Z" fill="#3F3D56"/>
</svg>
