<svg width="16" height="16" viewBox="0 0 16 16" fill="none" xmlns="http://www.w3.org/2000/svg">
<path d="M5.06029 3.92497C5.00217 3.86684 4.92154 3.8334 4.83936 3.8334C4.75717 3.8334 4.67654 3.86684 4.61842 3.92497C4.56032 3.98309 4.52686 4.06372 4.52686 4.1459C4.52686 4.22809 4.56029 4.30872 4.61842 4.36684C4.67654 4.425 4.75717 4.4584 4.83936 4.4584C4.92154 4.4584 5.00217 4.42497 5.06029 4.36684C5.11839 4.30872 5.15186 4.22809 5.15186 4.1459C5.15186 4.06372 5.11842 3.98309 5.06029 3.92497Z" fill="#3F3D56"/>
<path d="M15.9086 1.30845L15.5222 0.921605L15.9085 0.535323C16.0305 0.413292 16.0305 0.215417 15.9085 0.0933545C15.7864 -0.0286768 15.5886 -0.0286768 15.4665 0.0933545L15.0804 0.479386L14.6997 0.0981982C14.6411 0.0395732 14.5617 0.00657324 14.4788 0.00654199L9.18962 0.00360449C9.18931 0.00360449 9.18903 0.00360449 9.18875 0.00360449C8.77109 0.00360449 8.37844 0.166229 8.08309 0.461573L5.44372 3.10095C5.32169 3.22298 5.32169 3.42085 5.44372 3.54292C5.56578 3.66495 5.76359 3.66495 5.88569 3.54292L8.52506 0.903542C8.70238 0.726229 8.93803 0.628636 9.18875 0.628636C9.18894 0.628636 9.18913 0.628636 9.18928 0.628636L14.349 0.631511L14.6386 0.921386L13.4791 2.08089C12.9874 1.78639 12.3392 1.8506 11.9159 2.27379C11.6741 2.5156 11.541 2.83707 11.541 3.17901C11.541 3.52095 11.6741 3.84242 11.9159 4.08423C12.1655 4.33379 12.4933 4.45857 12.8212 4.45857C13.149 4.45857 13.4768 4.33379 13.7264 4.08423C14.1489 3.66164 14.2136 3.0147 13.9206 2.52326L15.0803 1.3636L15.375 1.65864L15.3721 6.81135C15.3719 7.06185 15.2743 7.29739 15.0972 7.47454L7.47144 15.1002C7.29416 15.2775 7.05844 15.3751 6.80775 15.3751C6.55706 15.3751 6.32134 15.2775 6.14406 15.1002L0.899938 9.85604C0.722625 9.67876 0.625 9.44304 0.625 9.19236C0.625 8.94167 0.722625 8.70595 0.899938 8.52867L4.2685 5.1601C4.39053 5.03807 4.39053 4.8402 4.2685 4.71814C4.14644 4.5961 3.94862 4.5961 3.82653 4.71814L0.457969 8.0867C0.162656 8.38201 0 8.7747 0 9.19236C0 9.61001 0.162656 10.0027 0.457969 10.298L5.70209 15.5422C6.00694 15.847 6.40731 15.9994 6.80775 15.9994C7.20819 15.9994 7.60856 15.847 7.91341 15.5422L15.5391 7.91645C15.8342 7.62135 15.9968 7.22898 15.9971 6.81164L16 1.52945C16.0001 1.44657 15.9672 1.36707 15.9086 1.30845ZM13.2844 3.64223C13.1607 3.76598 12.9961 3.83414 12.8212 3.83414C12.6461 3.83414 12.4816 3.76598 12.3579 3.64223C12.1024 3.38679 12.1024 2.97114 12.3579 2.7157C12.4856 2.58795 12.6533 2.5241 12.8212 2.5241C12.8843 2.5241 12.9475 2.5332 13.0086 2.55132L12.6479 2.91201C12.5258 3.03404 12.5258 3.23192 12.6479 3.35398C12.7089 3.41501 12.7889 3.44551 12.8688 3.44551C12.9488 3.44551 13.0288 3.41501 13.0898 3.35398L13.4495 2.99429C13.5145 3.21676 13.4595 3.46714 13.2844 3.64223Z" fill="#3F3D56"/>
<path d="M13.3493 6.29259L9.70747 2.65071C9.22503 2.16828 8.44 2.16834 7.95762 2.65071L2.19447 8.4139C1.96075 8.64759 1.83203 8.95831 1.83203 9.28881C1.83203 9.61931 1.96072 9.93006 2.19444 10.1637L5.83631 13.8056C6.07003 14.0393 6.38072 14.168 6.71122 14.168C7.04172 14.168 7.35247 14.0393 7.58612 13.8056L13.3493 8.0424C13.583 7.80868 13.7117 7.498 13.7117 7.1675C13.7117 6.837 13.583 6.52628 13.3493 6.29259ZM12.9073 7.60043L7.14419 13.3637C7.02856 13.4793 6.87478 13.543 6.71125 13.543C6.54772 13.543 6.39394 13.4793 6.27831 13.3637L2.63641 9.72181C2.52075 9.60615 2.45706 9.4524 2.45706 9.28884C2.45703 9.12528 2.52075 8.9715 2.63641 8.85587L8.39959 3.09268C8.51897 2.97331 8.67575 2.91362 8.83256 2.91362C8.98934 2.91362 9.14616 2.97334 9.2655 3.09268L12.9073 6.73453C13.023 6.85018 13.0867 7.00393 13.0867 7.1675C13.0867 7.33103 13.023 7.48481 12.9073 7.60043Z" fill="#3F3D56"/>
<path d="M10.1902 6.25255C10.3122 6.13052 10.3122 5.93264 10.1902 5.81058C10.0682 5.68855 9.87034 5.68855 9.74825 5.81058L9.56831 5.99052C9.08784 5.69374 8.47134 5.73358 8.08162 6.12324C7.85441 6.35045 7.73816 6.65902 7.75428 6.99205C7.76987 7.31367 7.90837 7.62071 8.14422 7.85655C8.14425 7.85658 8.14428 7.85658 8.14428 7.85661C8.39562 8.10808 8.42369 8.48908 8.20681 8.70596C7.98984 8.92286 7.60878 8.89477 7.35734 8.64339C7.10591 8.39193 7.07784 8.01086 7.29475 7.79392C7.41678 7.67189 7.41678 7.47402 7.29475 7.35196C7.17269 7.22992 6.97487 7.22992 6.85278 7.35196C6.46309 7.74164 6.42328 8.35814 6.72006 8.83864L6.50656 9.05211C6.38453 9.17414 6.38453 9.37202 6.50656 9.49408C6.56775 9.55518 6.64772 9.58568 6.72769 9.58568C6.80769 9.58568 6.88763 9.55515 6.94866 9.49414L7.16228 9.28052C7.37222 9.41018 7.60803 9.47586 7.83966 9.47586C8.13806 9.47583 8.42941 9.3673 8.64881 9.14793C9.10931 8.68739 9.08131 7.91005 8.58647 7.41489C8.58637 7.4148 8.58631 7.41471 8.58622 7.41461C8.46041 7.2888 8.38666 7.12802 8.37859 6.9618C8.37112 6.80705 8.42259 6.6662 8.52362 6.5652C8.7405 6.3483 9.1215 6.37636 9.37297 6.6277C9.373 6.62774 9.373 6.62777 9.37303 6.6278C9.37306 6.62783 9.37309 6.62783 9.37309 6.62783C9.62447 6.8793 9.6525 7.2603 9.43559 7.47721C9.31356 7.59924 9.31356 7.79711 9.43559 7.91917C9.49662 7.98021 9.57659 8.01071 9.65656 8.01071C9.73653 8.01071 9.8165 7.98021 9.87753 7.91917C10.2672 7.52946 10.3071 6.91295 10.0103 6.43249L10.1902 6.25255Z" fill="#3F3D56"/>
<path d="M7.02768 11.4333L5.42265 9.82826C5.30062 9.70632 5.10281 9.70626 4.98068 9.82826C4.85865 9.95029 4.85865 10.1482 4.98068 10.2702L6.58575 11.8753C6.64678 11.9363 6.72675 11.9668 6.80671 11.9668C6.88668 11.9668 6.96665 11.9363 7.02768 11.8753C7.14971 11.7533 7.14971 11.5554 7.02768 11.4333Z" fill="#3F3D56"/>
<path d="M4.56661 8.97218C4.50852 8.91408 4.42817 8.88062 4.3457 8.88062C4.26352 8.88062 4.1832 8.91405 4.12477 8.97218C4.06664 9.0303 4.0332 9.11093 4.0332 9.19343C4.0332 9.27562 4.06661 9.35624 4.12477 9.41437C4.18289 9.47249 4.26352 9.50593 4.3457 9.50593C4.4282 9.50593 4.50852 9.47249 4.56661 9.41437C4.62505 9.35593 4.65848 9.27562 4.65848 9.19343C4.65848 9.11093 4.62505 9.03062 4.56661 8.97218Z" fill="#3F3D56"/>
</svg>
