<svg width="16" height="16" viewBox="0 0 16 16" fill="none" xmlns="http://www.w3.org/2000/svg">
<path d="M3.8705 2.23872H3.30188C3.38741 1.6055 3.73753 1.57369 3.89866 1.55903C4.05963 1.54438 4.18284 1.40944 4.18284 1.24781V0.312658C4.18284 0.226752 4.14747 0.144596 4.08503 0.0855643C4.02259 0.0265331 3.93853 -0.00406065 3.85281 0.000658095C2.865 0.0562206 1.6875 0.554971 1.6875 2.61553V4.24178C1.6875 4.51325 1.90834 4.7341 2.17981 4.7341H3.87053C4.142 4.7341 4.36284 4.51322 4.36281 4.24175V2.73103C4.36281 2.45956 4.14197 2.23872 3.8705 2.23872ZM3.73784 4.10906H2.3125V2.61553C2.3125 1.17772 2.95191 0.776158 3.55784 0.662814V0.991377C3.13937 1.11875 2.65775 1.49494 2.65775 2.55122C2.65775 2.72381 2.79766 2.86372 2.97025 2.86372H3.73784V4.10906Z" fill="#3F3D56"/>
<path d="M7.06487 2.23872H6.49621C6.58174 1.6055 6.93187 1.57369 7.09299 1.55903C7.25396 1.54438 7.37718 1.40944 7.37718 1.24781V0.312658C7.37718 0.226752 7.3418 0.144596 7.27937 0.0855643C7.21693 0.0265331 7.1328 -0.00406065 7.04715 0.000658095C6.05934 0.0562206 4.88184 0.554971 4.88184 2.61553V4.24178C4.88184 4.51325 5.10268 4.7341 5.37415 4.7341H7.06487C7.33634 4.7341 7.55721 4.51322 7.55718 4.24172V2.73103C7.55718 2.45956 7.33634 2.23872 7.06487 2.23872ZM6.93218 4.1091H5.50684V2.61553C5.50684 1.17772 6.14624 0.776158 6.75218 0.662814V0.991377C6.33371 1.11875 5.85209 1.49494 5.85209 2.55122C5.85209 2.72381 5.99199 2.86372 6.16459 2.86372H6.93218V4.1091Z" fill="#3F3D56"/>
<path d="M8.90844 2.52485C8.85031 2.46673 8.76969 2.43329 8.6875 2.43329C8.60531 2.43329 8.52469 2.46673 8.46656 2.52485C8.40844 2.58298 8.375 2.6636 8.375 2.74579C8.375 2.82798 8.40844 2.9086 8.46656 2.96673C8.52469 3.02485 8.60531 3.05829 8.6875 3.05829C8.76969 3.05829 8.85031 3.02485 8.90844 2.96673C8.96656 2.9086 9 2.82798 9 2.74579C9 2.6636 8.96656 2.58298 8.90844 2.52485Z" fill="#3F3D56"/>
<path d="M10.4458 2.43323H10.0521C9.87947 2.43323 9.73956 2.57313 9.73956 2.74573C9.73956 2.91832 9.87947 3.05823 10.0521 3.05823H10.4458C13.1638 3.05823 15.375 5.26945 15.375 7.98738C15.375 10.3071 13.7297 12.3359 11.4629 12.8113C11.3182 12.8417 11.2146 12.9693 11.2146 13.1171V14.9329L9.28975 13.0081C9.23116 12.9495 9.15166 12.9165 9.06878 12.9165H5.55416C2.83622 12.9165 0.625 10.7053 0.625 7.98738C0.625 7.14973 0.838844 6.32257 1.24344 5.59526C1.32738 5.44445 1.27309 5.25417 1.12228 5.17026C0.971437 5.08632 0.781156 5.1406 0.697281 5.29142C0.241094 6.11138 0 7.04363 0 7.98738C0 11.05 2.49156 13.5415 5.55416 13.5415H8.93934L11.3061 15.9083C11.3659 15.9681 11.4458 15.9998 11.5271 15.9998C11.5674 15.9998 11.608 15.992 11.6467 15.976C11.7634 15.9277 11.8396 15.8137 11.8396 15.6873V13.3648C12.9703 13.0718 13.9927 12.4198 14.7398 11.5103C15.5524 10.521 16 9.26992 16 7.98738C16 4.92482 13.5084 2.43326 10.4458 2.43323Z" fill="#3F3D56"/>
<path d="M11.8463 5.54666H4.15479C3.98219 5.54666 3.84229 5.68657 3.84229 5.85916C3.84229 6.03176 3.98219 6.17166 4.15479 6.17166H11.8462C12.0188 6.17166 12.1588 6.03176 12.1588 5.85916C12.1588 5.68657 12.0188 5.54666 11.8463 5.54666Z" fill="#3F3D56"/>
<path d="M11.8463 7.21332H4.15479C3.98219 7.21332 3.84229 7.35322 3.84229 7.52582C3.84229 7.69841 3.98219 7.83832 4.15479 7.83832H11.8462C12.0188 7.83832 12.1588 7.69841 12.1588 7.52582C12.1588 7.35322 12.0188 7.21332 11.8463 7.21332Z" fill="#3F3D56"/>
<path d="M11.8463 8.87994H4.15479C3.98219 8.87994 3.84229 9.01988 3.84229 9.19244C3.84229 9.36501 3.98219 9.50494 4.15479 9.50494H11.8462C12.0188 9.50494 12.1588 9.36501 12.1588 9.19244C12.1588 9.01988 12.0188 8.87994 11.8463 8.87994Z" fill="#3F3D56"/>
<path d="M11.8458 10.5466H7.74609C7.5735 10.5466 7.43359 10.6866 7.43359 10.8591C7.43359 11.0317 7.5735 11.1716 7.74609 11.1716H11.8458C12.0184 11.1716 12.1583 11.0317 12.1583 10.8591C12.1583 10.6866 12.0184 10.5466 11.8458 10.5466Z" fill="#3F3D56"/>
<path d="M5.98745 10.5466H5.98242C5.80983 10.5466 5.66992 10.6865 5.66992 10.8591C5.66992 11.0317 5.80983 11.1716 5.98242 11.1716H5.98745C6.16005 11.1716 6.29995 11.0317 6.29995 10.8591C6.29995 10.6865 6.16005 10.5466 5.98745 10.5466Z" fill="#3F3D56"/>
</svg>
